<svg id="Layer_1" data-name="Layer 1" xmlns="http://www.w3.org/2000/svg" viewBox="0 0 24.16 27.5"><defs><style>.cls-1{fill:#fa5f5f;}</style></defs><title>doc profile</title><path class="cls-1" d="M25.43,13.62A3.81,3.81,0,1,0,21,17.37v4a5.64,5.64,0,0,1-11.29,0V16.79a6.93,6.93,0,0,0,4.21-2.54,1,1,0,0,0,.21-.76,13.62,13.62,0,0,0,2.72-7.56c0-3.59-1.61-4-4.26-4.57h0a1,1,0,0,0-1.91.44,1,1,0,0,0,1,1,1,1,0,0,0,.6-.22h0c2.58.59,3.28.75,3.28,3.33a12.44,12.44,0,0,1-2.44,6.76,1,1,0,0,0-.67.32,4.83,4.83,0,0,1-3.39,1.92A4.82,4.82,0,0,1,5.67,13,1,1,0,0,0,5,12.69,12.44,12.44,0,0,1,2.55,5.92c0-2.58.68-2.74,3.28-3.33h0a1,1,0,0,0,.61.22,1,1,0,1,0,0-2,1,1,0,0,0-.91.57h0c-2.66.61-4.27,1-4.27,4.57A13.55,13.55,0,0,0,4,13.5a1,1,0,0,0,.21.76,6.9,6.9,0,0,0,4.19,2.52v4.58a6.92,6.92,0,1,0,13.83,0v-4a3.81,3.81,0,0,0,3.18-3.75m-3.81,2.55a2.54,2.54,0,1,1,2.53-2.55,2.55,2.55,0,0,1-2.53,2.55" transform="translate(-1.27 -0.78)"/><path class="cls-1" d="M21.62,11.72a1.9,1.9,0,1,0,1.91,1.9,1.9,1.9,0,0,0-1.91-1.9" transform="translate(-1.27 -0.78)"/></svg>