<svg id="Layer_1" data-name="Layer 1" xmlns="http://www.w3.org/2000/svg" xmlns:xlink="http://www.w3.org/1999/xlink" viewBox="0 0 584.23 278.88"><defs><style>.cls-1,.cls-2{fill:none;}.cls-2{stroke:#fff;stroke-miterlimit:10;stroke-width:2px;}.cls-3{fill:#fff;}.cls-4{fill:#ee3f59;}.cls-5{clip-path:url(#clip-path);}</style><clipPath id="clip-path" transform="translate(139.3 -2.71)"><rect class="cls-1" x="5.5" y="4.9" width="50.37" height="50.39"/></clipPath></defs><title>faditorial</title><rect class="cls-2" x="272.64" y="1" width="52.57" height="52.57"/><path class="cls-3" d="M166.94,34.85a3.51,3.51,0,0,0-2.09.7l-8.08-4.94a2.89,2.89,0,0,0,0-1.12l8.08-4.94a3.53,3.53,0,1,0-1.45-2.85,3.46,3.46,0,0,0,.06.56l-8.08,4.94a3.54,3.54,0,1,0,0,5.7l8.08,4.94a3.44,3.44,0,0,0-.06.56,3.54,3.54,0,1,0,3.54-3.54h0Zm0,0" transform="translate(139.3 -2.71)"/><ellipse class="cls-4" cx="570.12" cy="274.92" rx="14.11" ry="3.96"/><path class="cls-1" d="M431,245.1a10.07,10.07,0,0,0-6.86,17.43,0.16,0.16,0,0,0,.26-0.08l1.71-5.2a1.57,1.57,0,0,1,1.58-1h6.6a1.66,1.66,0,0,1,1.59,1l1.69,5.23c0.05,0.16.28,0,.29,0A10.07,10.07,0,0,0,431,245.1Zm0,10.14a4.1,4.1,0,1,1,4.14-4.1A4.12,4.12,0,0,1,431,255.25Z" transform="translate(139.3 -2.71)"/><path class="cls-3" d="M430.94,241.59a14,14,0,0,0-14,14c0,7.72,12.54,21.06,14,21.06s14-13.34,14-21.06A14,14,0,0,0,430.94,241.59ZM434.59,265H432v2.59h-2.06V265H427.3v-2h2.62v-2.6H432V263h2.62v2Zm3.28-2.49s-0.24.13-.29,0l-1.69-5.23a1.66,1.66,0,0,0-1.59-1h-6.6a1.57,1.57,0,0,0-1.58,1l-1.71,5.2a0.16,0.16,0,0,1-.26.08A10.07,10.07,0,1,1,437.87,262.52Z" transform="translate(139.3 -2.71)"/><ellipse class="cls-3" cx="570.33" cy="248.43" rx="4.14" ry="4.1"/><g class="cls-5"><path class="cls-3" d="M8.63,48.73V11.16A3.14,3.14,0,0,1,11.76,8H43.07a3.13,3.13,0,0,1,3.13,3.13V29.57l3.13-3.13V11.16A6.26,6.26,0,0,0,43.07,4.9H11.76A6.26,6.26,0,0,0,5.5,11.16V48.73A6.26,6.26,0,0,0,11.76,55H29V51.86H11.76a3.13,3.13,0,0,1-3.13-3.13h0ZM39.94,14.29h-25v3.13h25V14.29Zm0,6.26h-25v3.13h25V20.55Zm0,6.26h-25v3.13h25V26.81Zm-25,9.39H27.42V33.08H14.89v3.13Zm39.79-3.13-2.21-2.22a3.13,3.13,0,0,0-4.43,0L34.6,44.3c-0.61.61-2.48,3-2.48,3.78L30.55,55l6.91-1.57a38.11,38.11,0,0,0,3.78-2.48L54.68,37.5a3.13,3.13,0,0,0,0-4.43h0ZM40.13,49.83a15.67,15.67,0,0,1-1.54,1.06l-4.06-4.06a14.13,14.13,0,0,1,1.17-1.43L45.83,35.29l4.43,4.43Zm0,0" transform="translate(139.3 -2.71)"/></g><path class="cls-3" d="M-137.75,192.66h33.29a1.54,1.54,0,0,0,1.55-1.55,1.54,1.54,0,0,0-1.55-1.55h-31.7c0.7-11.6,9.18-21,11.72-23.47a13.3,13.3,0,0,0,5.87,1.35,13.28,13.28,0,0,0,5.81-1.36,42.55,42.55,0,0,1,7.47,9.52,1.54,1.54,0,0,0,1.34.78,1.54,1.54,0,0,0,.77-0.21,1.55,1.55,0,0,0,.57-2.11,45.53,45.53,0,0,0-7.46-9.7A13.4,13.4,0,0,0-105.15,154a13.43,13.43,0,0,0-13.42-13.42A13.44,13.44,0,0,0-132,154a13.4,13.4,0,0,0,4.87,10.34c-3.45,3.47-12.18,13.61-12.18,26.73a1.59,1.59,0,0,0,1.55,1.59h0ZM-128.9,154a10.34,10.34,0,0,1,10.32-10.33A10.34,10.34,0,0,1-108.25,154a10.34,10.34,0,0,1-10.32,10.32A10.34,10.34,0,0,1-128.9,154h0Zm0,0" transform="translate(139.3 -2.71)"/><path class="cls-3" d="M-107.55,182.6a1.55,1.55,0,0,0-1.55,1.55,1.55,1.55,0,0,0,1.55,1.55h6.19v6.87a1.55,1.55,0,0,0,1.55,1.55,1.54,1.54,0,0,0,1.55-1.55V185.7h7a1.55,1.55,0,0,0,1.55-1.55,1.55,1.55,0,0,0-1.55-1.55h-7v-7.06A1.54,1.54,0,0,0-99.81,174a1.55,1.55,0,0,0-1.55,1.54v7.06h-6.19Zm0,0" transform="translate(139.3 -2.71)"/></svg>