<svg id="Layer_1" data-name="Layer 1" xmlns="http://www.w3.org/2000/svg" viewBox="0 0 24.46 25.71"><defs><style>.cls-1{fill:#f05f60;}.cls-2{fill:#f7f7f7;}</style></defs><title>get direction</title><path class="cls-1" d="M8.74,2.91A8.14,8.14,0,0,0,.6,11c0,1.81,1.15,4.75,3.53,9,1.68,3,3.33,5.52,3.4,5.62L8.74,27.5l1.21-1.83c.07-.1,1.72-2.61,3.4-5.62,2.37-4.25,3.53-7.2,3.53-9A8.14,8.14,0,0,0,8.74,2.91" transform="translate(-0.6 -1.78)"/><path class="cls-2" d="M8.74,15.2A4.22,4.22,0,1,1,13,11,4.22,4.22,0,0,1,8.74,15.2" transform="translate(-0.6 -1.78)"/><path class="cls-1" d="M21.93,1.78a3.14,3.14,0,0,0-3.14,3.14,8.67,8.67,0,0,0,1.36,3.47c.65,1.16,1.28,2.13,1.31,2.17l.47.71.47-.71s.66-1,1.31-2.17a8.67,8.67,0,0,0,1.36-3.47,3.14,3.14,0,0,0-3.13-3.14" transform="translate(-0.6 -1.78)"/><path class="cls-2" d="M21.93,6.52A1.63,1.63,0,1,1,23.55,4.9a1.62,1.62,0,0,1-1.62,1.63" transform="translate(-0.6 -1.78)"/><path class="cls-1" d="M18.44,26.29a.27.27,0,0,1,.27-.27,3,3,0,0,0,3-3V16.25a.27.27,0,1,1,.54,0V23a3.53,3.53,0,0,1-3.53,3.53.27.27,0,0,1-.27-.27" transform="translate(-0.6 -1.78)"/><polygon class="cls-1" points="23.54 14.46 21.37 11.48 19.2 14.46 23.54 14.46"/></svg>