<svg id="Layer_1" data-name="Layer 1" xmlns="http://www.w3.org/2000/svg" xmlns:xlink="http://www.w3.org/1999/xlink" viewBox="0 0 376.58 191.4"><defs><style>.cls-1,.cls-2{fill:none;}.cls-2{stroke:#fff;stroke-miterlimit:10;stroke-width:2px;}.cls-3{fill:#fff;}.cls-4{fill:#ee3f59;}.cls-5{clip-path:url(#clip-path);}</style><clipPath id="clip-path" transform="translate(189.67 -2.71)"><rect class="cls-1" x="-189.67" y="16.74" width="50.37" height="50.39"/></clipPath></defs><title>location</title><rect class="cls-2" x="323.01" y="1" width="52.57" height="52.57"/><path class="cls-3" d="M166.94,34.85a3.51,3.51,0,0,0-2.09.7l-8.08-4.94a2.89,2.89,0,0,0,0-1.12l8.08-4.94a3.53,3.53,0,1,0-1.45-2.85,3.46,3.46,0,0,0,.06.56l-8.08,4.94a3.54,3.54,0,1,0,0,5.7l8.08,4.94a3.44,3.44,0,0,0-.06.56,3.54,3.54,0,1,0,3.54-3.54h0Zm0,0" transform="translate(189.67 -2.71)"/><ellipse class="cls-4" cx="219.92" cy="47.9" rx="18.36" ry="5.15"/><path class="cls-1" d="M30.48,8.28A13.1,13.1,0,0,0,21.56,31a0.21,0.21,0,0,0,.34-0.1l2.23-6.77a2,2,0,0,1,2.06-1.34h8.59a2.16,2.16,0,0,1,2.06,1.35L39,30.9c0.07,0.21.36,0.06,0.38,0A13.1,13.1,0,0,0,30.48,8.28Zm0,13.2a5.34,5.34,0,1,1,5.39-5.34A5.36,5.36,0,0,1,30.53,21.48Z" transform="translate(189.67 -2.71)"/><path class="cls-3" d="M30.42,3.71A18.19,18.19,0,0,0,12.22,21.91c0,10,16.32,27.41,18.19,27.41S48.61,32,48.61,21.91A18.19,18.19,0,0,0,30.42,3.71Zm4.74,30.47H31.76v3.37H29.09V34.19H25.67v-2.6h3.4V28.2h2.67v3.37h3.41v2.61Zm4.27-3.24s-0.31.17-.38,0L36.84,24.1a2.16,2.16,0,0,0-2.06-1.35H26.19a2,2,0,0,0-2.06,1.34L21.9,30.86a0.21,0.21,0,0,1-.34.1A13.1,13.1,0,1,1,39.42,30.95Z" transform="translate(189.67 -2.71)"/><ellipse class="cls-3" cx="220.2" cy="13.43" rx="5.39" ry="5.34"/><g class="cls-5"><path class="cls-3" d="M-186.54,60.57V23a3.14,3.14,0,0,1,3.13-3.13h31.31A3.13,3.13,0,0,1-149,23V41.41l3.13-3.13V23a6.26,6.26,0,0,0-6.26-6.26h-31.31A6.26,6.26,0,0,0-189.67,23V60.57a6.26,6.26,0,0,0,6.26,6.26h17.22V63.7h-17.22a3.13,3.13,0,0,1-3.13-3.13h0Zm31.31-34.44h-25v3.13h25V26.13Zm0,6.26h-25v3.13h25V32.39Zm0,6.26h-25v3.13h25V38.66Zm-25,9.39h12.53V44.92h-12.53V48Zm39.79-3.13-2.21-2.22a3.12,3.12,0,0,0-2.21-.92,3.12,3.12,0,0,0-2.22.92l-13.44,13.44c-0.61.61-2.48,3-2.48,3.78l-1.57,6.91,6.91-1.57a38.11,38.11,0,0,0,3.78-2.48l13.44-13.44a3.13,3.13,0,0,0,0-4.43h0ZM-155,61.68a15.67,15.67,0,0,1-1.54,1.06l-4.06-4.06a14.13,14.13,0,0,1,1.17-1.43l10.12-10.12,4.43,4.43Zm0,0" transform="translate(189.67 -2.71)"/></g><path class="cls-3" d="M-137.75,192.66h33.29a1.54,1.54,0,0,0,1.55-1.55,1.54,1.54,0,0,0-1.55-1.55h-31.7c0.7-11.6,9.18-21,11.72-23.47a13.3,13.3,0,0,0,5.87,1.35,13.28,13.28,0,0,0,5.81-1.36,42.55,42.55,0,0,1,7.47,9.52,1.54,1.54,0,0,0,1.34.78,1.54,1.54,0,0,0,.77-0.21,1.55,1.55,0,0,0,.57-2.11,45.53,45.53,0,0,0-7.46-9.7A13.4,13.4,0,0,0-105.15,154a13.43,13.43,0,0,0-13.42-13.42A13.44,13.44,0,0,0-132,154a13.4,13.4,0,0,0,4.87,10.34c-3.45,3.47-12.18,13.61-12.18,26.73a1.59,1.59,0,0,0,1.55,1.59h0ZM-128.9,154a10.34,10.34,0,0,1,10.32-10.33A10.34,10.34,0,0,1-108.25,154a10.34,10.34,0,0,1-10.32,10.32A10.34,10.34,0,0,1-128.9,154h0Zm0,0" transform="translate(189.67 -2.71)"/><path class="cls-3" d="M-107.55,182.6a1.55,1.55,0,0,0-1.55,1.55,1.55,1.55,0,0,0,1.55,1.55h6.19v6.87a1.55,1.55,0,0,0,1.55,1.55,1.54,1.54,0,0,0,1.55-1.55V185.7h7a1.55,1.55,0,0,0,1.55-1.55,1.55,1.55,0,0,0-1.55-1.55h-7v-7.06A1.54,1.54,0,0,0-99.81,174a1.55,1.55,0,0,0-1.55,1.54v7.06h-6.19Zm0,0" transform="translate(189.67 -2.71)"/></svg>