<svg id="Layer_1" data-name="Layer 1" xmlns="http://www.w3.org/2000/svg" xmlns:xlink="http://www.w3.org/1999/xlink" viewBox="0 0 440.07 278.88"><defs><style>.cls-1,.cls-2{fill:none;}.cls-2{stroke:#fff;stroke-miterlimit:10;stroke-width:2px;}.cls-3{fill:#fff;}.cls-4{fill:#ee3f59;}.cls-5{clip-path:url(#clip-path);}</style><clipPath id="clip-path" transform="translate(-4.86 -2.71)"><rect class="cls-1" x="203.61" y="249.09" width="24.5" height="24.51"/></clipPath></defs><title>sign in</title><rect class="cls-2" x="128.48" y="1" width="52.57" height="52.57"/><path class="cls-3" d="M166.94,34.85a3.51,3.51,0,0,0-2.09.7l-8.08-4.94a2.89,2.89,0,0,0,0-1.12l8.08-4.94a3.53,3.53,0,1,0-1.45-2.85,3.46,3.46,0,0,0,.06.56l-8.08,4.94a3.54,3.54,0,1,0,0,5.7l8.08,4.94a3.44,3.44,0,0,0-.06.56,3.54,3.54,0,1,0,3.54-3.54h0Zm0,0" transform="translate(-4.86 -2.71)"/><ellipse class="cls-4" cx="425.96" cy="274.92" rx="14.11" ry="3.96"/><path class="cls-1" d="M431,245.1a10.07,10.07,0,0,0-6.86,17.43,0.16,0.16,0,0,0,.26-0.08l1.71-5.2a1.57,1.57,0,0,1,1.58-1h6.6a1.66,1.66,0,0,1,1.59,1l1.69,5.23c0.05,0.16.28,0,.29,0A10.07,10.07,0,0,0,431,245.1Zm0,10.14a4.1,4.1,0,1,1,4.14-4.1A4.12,4.12,0,0,1,431,255.25Z" transform="translate(-4.86 -2.71)"/><path class="cls-3" d="M430.94,241.59a14,14,0,0,0-14,14c0,7.72,12.54,21.06,14,21.06s14-13.34,14-21.06A14,14,0,0,0,430.94,241.59ZM434.59,265H432v2.59h-2.06V265H427.3v-2h2.62v-2.6H432V263h2.62v2Zm3.28-2.49s-0.24.13-.29,0l-1.69-5.23a1.66,1.66,0,0,0-1.59-1h-6.6a1.57,1.57,0,0,0-1.58,1l-1.71,5.2a0.16,0.16,0,0,1-.26.08A10.07,10.07,0,1,1,437.87,262.52Z" transform="translate(-4.86 -2.71)"/><ellipse class="cls-3" cx="426.18" cy="248.43" rx="4.14" ry="4.1"/><g class="cls-5"><path class="cls-3" d="M205.13,270.41V252.13a1.53,1.53,0,0,1,1.52-1.52h15.23a1.52,1.52,0,0,1,1.52,1.52v9l1.52-1.52v-7.43a3,3,0,0,0-3-3H206.65a3,3,0,0,0-3,3v18.28a3,3,0,0,0,3,3H215v-1.52h-8.38a1.52,1.52,0,0,1-1.52-1.52h0Zm15.23-16.75H208.18v1.52h12.18v-1.52Zm0,3H208.18v1.52h12.18V256.7Zm0,3H208.18v1.52h12.18v-1.52Zm-12.18,4.57h6.09v-1.52h-6.09v1.52Zm19.35-1.52-1.08-1.08a1.52,1.52,0,0,0-2.15,0l-6.54,6.54a5.44,5.44,0,0,0-1.21,1.84l-0.76,3.36,3.36-.76a18.54,18.54,0,0,0,1.84-1.21l6.54-6.54a1.52,1.52,0,0,0,0-2.15h0Zm-7.07,8.15a7.62,7.62,0,0,1-.75.52l-2-2a6.88,6.88,0,0,1,.57-0.69l4.92-4.92,2.15,2.15Zm0,0" transform="translate(-4.86 -2.71)"/></g><path class="cls-3" d="M6.4,55.56H39.7a1.55,1.55,0,0,0,0-3.09H8c0.7-11.6,9.18-21,11.72-23.47A13.3,13.3,0,0,0,31.4,29a42.55,42.55,0,0,1,7.47,9.52A1.55,1.55,0,0,0,41.55,37a45.53,45.53,0,0,0-7.46-9.7,13.42,13.42,0,1,0-17.05,0C13.59,30.71,4.86,40.85,4.86,54A1.59,1.59,0,0,0,6.4,55.56h0Zm8.85-38.66A10.32,10.32,0,1,1,25.58,27.23,10.34,10.34,0,0,1,15.26,16.91h0Zm0,0" transform="translate(-4.86 -2.71)"/><path class="cls-3" d="M36.61,45.51a1.55,1.55,0,1,0,0,3.09h6.19v6.87a1.55,1.55,0,0,0,3.09,0V48.6h7a1.55,1.55,0,1,0,0-3.09h-7V38.45a1.55,1.55,0,0,0-3.09,0v7.06H36.61Zm0,0" transform="translate(-4.86 -2.71)"/></svg>