<svg id="Layer_1" data-name="Layer 1" xmlns="http://www.w3.org/2000/svg" xmlns:xlink="http://www.w3.org/1999/xlink" viewBox="0 0 22.19 36.75"><defs><style>.cls-1{fill:none;}.cls-2{clip-path:url(#clip-path);}.cls-3{fill:#2C609B;}</style><clipPath id="clip-path" transform="translate(-17.06 -4.97)"><rect class="cls-1" x="17.06" y="5.02" width="22.42" height="36.76"/></clipPath></defs><title>twitter-logo-silhouette</title><g class="cls-2"><path class="cls-3" d="M38.41,5H33.09c-6,0-9.85,3.55-9.85,9v4.17H17.89a.8.8,0,0,0-.84.75v6a.8.8,0,0,0,.84.75h5.35V41a.8.8,0,0,0,.84.75h7A.8.8,0,0,0,31.9,41V25.73h6.26A.8.8,0,0,0,39,25v-6a.72.72,0,0,0-.25-.53.89.89,0,0,0-.59-.22H31.9V14.65c0-1.7.45-2.56,2.92-2.56h3.59a.8.8,0,0,0,.84-.75V5.73A.8.8,0,0,0,38.41,5Zm0,0" transform="translate(-17.06 -4.97)"/></g></svg>