<svg id="Layer_1" data-name="Layer 1" xmlns="http://www.w3.org/2000/svg" viewBox="0 0 41.26 39.42"><defs><style>.cls-1{fill:#0077B5}</style></defs><title>twitter-logo-silhouette</title><path class="cls-1" d="M48.47,27.5V42.76H39.63V28.53c0-3.57-1.28-6-4.48-6a4.84,4.84,0,0,0-4.54,3.23,6.06,6.06,0,0,0-.29,2.16V42.76H21.48s.12-24.1,0-26.6h8.85v3.77l-.06.09h.06v-.09a8.78,8.78,0,0,1,8-4.39c5.82,0,10.18,3.8,10.18,12ZM12.22,3.33c-3,0-5,2-5,4.6a4.58,4.58,0,0,0,4.89,4.6h.06c3.08,0,5-2,5-4.6a4.59,4.59,0,0,0-4.94-4.6ZM7.74,42.76h8.84V16.16H7.74Zm0,0" transform="translate(-7.22 -3.33)"/></svg>