<svg id="Layer_1" data-name="Layer 1" xmlns="http://www.w3.org/2000/svg" viewBox="0 0 361.69 361.92"><defs><style>.cls-1{fill:#fa5f5f;}.cls-2{fill:none;}</style></defs><title>search123</title><path class="cls-1" d="M368.31,352.32l-87.68-87.68a153.22,153.22,0,0,0,37.76-100.88c0-84.88-69-153.84-153.84-153.84S10.71,79,10.71,163.76s69,153.84,153.84,153.84a153.22,153.22,0,0,0,100.88-37.76l87.68,87.68a10.89,10.89,0,0,0,7.6,3.2,10.55,10.55,0,0,0,7.6-3.2A10.82,10.82,0,0,0,368.31,352.32ZM164.47,296.08c-72.88,0-132.24-59.36-132.24-132.32S91.58,31.52,164.47,31.52,296.71,90.88,296.71,163.76,237.42,296.08,164.47,296.08Z" transform="translate(-9.73 -9.76)"/><path d="M413.72,163.76" transform="translate(-9.73 -9.76)"/><rect class="cls-2" width="360.96" height="361.92"/></svg>