<svg id="Layer_1" data-name="Layer 1" xmlns="http://www.w3.org/2000/svg" viewBox="0 0 327.57 347.49"><defs><style>.cls-1{fill:#fa5f5f;}</style></defs><title>share </title><path class="cls-1" d="M283.19,242.14A62.18,62.18,0,0,0,234,266.38l-95.46-53.32A62.34,62.34,0,0,0,142,192.57,61,61,0,0,0,138.45,172l95.38-53.25A62.06,62.06,0,1,0,221,81a60.71,60.71,0,0,0,3.53,20.56l-95.31,53.25a62.07,62.07,0,1,0,.14,75.4l95.39,53.32a62.09,62.09,0,1,0,58.44-41.42Zm0-203.69a42.64,42.64,0,1,1-42.64,42.64,42.68,42.68,0,0,1,42.64-42.64ZM80,235.21a42.64,42.64,0,1,1,42.64-42.64A42.68,42.68,0,0,1,80,235.21ZM283.19,346.83a42.64,42.64,0,1,1,42.64-42.64,42.68,42.68,0,0,1-42.64,42.64Zm0,0" transform="translate(-17.81 -18.9)"/></svg>