<svg id="Layer_1" data-name="Layer 1" xmlns="http://www.w3.org/2000/svg" viewBox="0 0 52.69 42.8"><defs><style>.cls-1{fill:#1dd2ff;}</style></defs><title>twitter-logo-silhouette</title><path class="cls-1" d="M54.82,6.79A21.6,21.6,0,0,1,48.61,8.5a10.89,10.89,0,0,0,4.76-6,21.54,21.54,0,0,1-6.88,2.62,10.81,10.81,0,0,0-18.68,7.4A11.22,11.22,0,0,0,28.08,15,30.69,30.69,0,0,1,5.8,3.71,10.81,10.81,0,0,0,9.14,18.13a10.64,10.64,0,0,1-4.89-1.35v.13a10.84,10.84,0,0,0,8.66,10.61,11.15,11.15,0,0,1-2.84.37,10.92,10.92,0,0,1-2-.19,10.84,10.84,0,0,0,10.1,7.51A21.72,21.72,0,0,1,4.7,39.82a23.19,23.19,0,0,1-2.57-.14,30.59,30.59,0,0,0,16.57,4.85c19.87,0,30.74-16.46,30.74-30.74l0-1.4a21.77,21.77,0,0,0,5.4-5.6Zm0,0" transform="translate(-2.13 -1.73)"/></svg>