<svg id="Layer_1" data-name="Layer 1" xmlns="http://www.w3.org/2000/svg" xmlns:xlink="http://www.w3.org/1999/xlink" viewBox="0 0 488.73 620.07"><defs><style>.cls-1{fill:#351f15;}.cls-2{fill:#f3d4cf;}.cls-3{fill:#fff4f3;}.cls-4{fill:#e4b3ab;}.cls-17,.cls-5{fill:none;}.cls-5{stroke:#c5796d;stroke-width:1.5px;}.cls-6{fill:url(#linear-gradient);}.cls-7{fill:#ebc3bd;}.cls-8{fill:url(#linear-gradient-2);}.cls-9{fill:#f771a9;stroke:#e85391;}.cls-17,.cls-9{stroke-width:0.75px;}.cls-10{fill:#c92066;}.cls-11{fill:#ff8ebd;}.cls-12{fill:#ffa8cc;}.cls-13{fill:url(#radial-gradient);}.cls-14{fill:#d2eeef;stroke-width:0.5px;}.cls-14,.cls-17{stroke:#70bec1;}.cls-15{fill:#f9fefe;}.cls-16{opacity:0.9;}.cls-16,.cls-18,.cls-19,.cls-30,.cls-31,.cls-36{isolation:isolate;}.cls-18,.cls-19,.cls-30,.cls-36{fill:#fff;}.cls-18{opacity:0.5;}.cls-19{opacity:0.8;}.cls-20{fill:url(#radial-gradient-2);}.cls-21{fill:url(#radial-gradient-3);}.cls-22{fill:#c5796d;}.cls-23{fill:url(#radial-gradient-4);}.cls-24{fill:url(#radial-gradient-5);}.cls-25{fill:url(#radial-gradient-6);}.cls-26{fill:url(#radial-gradient-7);}.cls-27{fill:url(#radial-gradient-8);}.cls-28{fill:#2a232b;}.cls-29{fill:#d4958a;}.cls-30{opacity:0.2;}.cls-31,.cls-32{fill:#543c32;}.cls-31{opacity:0.1;}.cls-33{fill:#452c22;}.cls-34{fill:#5c453b;}.cls-35{fill:#26130b;}.cls-36{opacity:0.4;}.cls-37{fill:#26120b;}.cls-38{fill:#545465;}.cls-39{fill:#e4ebf0;}</style><linearGradient id="linear-gradient" x1="64.19" y1="646.32" x2="64.19" y2="680.18" gradientTransform="matrix(2.55, 0, 0, -2.55, 136.19, 2110.93)" gradientUnits="userSpaceOnUse"><stop offset="0" stop-color="#e4b3ab" stop-opacity="0.8"/><stop offset="0.7" stop-color="#c5796d"/></linearGradient><linearGradient id="linear-gradient-2" x1="64.31" y1="675.68" x2="64.31" y2="678.58" gradientTransform="matrix(2.55, 0, 0, -2.55, 136.19, 2110.93)" gradientUnits="userSpaceOnUse"><stop offset="0.1" stop-color="#ebc3bd"/><stop offset="1" stop-color="#e4b3ab"/></linearGradient><radialGradient id="radial-gradient" cx="43.39" cy="735.8" r="12.45" gradientTransform="matrix(-2.7, 0, 0, -2.7, 352.03, 2236.7)" gradientUnits="userSpaceOnUse"><stop offset="0" stop-color="#fff"/><stop offset="0.54" stop-color="#fdfefe"/><stop offset="0.74" stop-color="#f6f8f9"/><stop offset="0.88" stop-color="#eaeff2"/><stop offset="0.99" stop-color="#d9e3e8"/><stop offset="1" stop-color="#d8e2e7"/></radialGradient><radialGradient id="radial-gradient-2" cx="90.64" cy="1013.51" fx="100.90095433782326" r="17.36" gradientTransform="matrix(2.55, 0.05, -0.04, 2.04, 55.09, -1823.86)" gradientUnits="userSpaceOnUse"><stop offset="0" stop-color="#e4b3ab"/><stop offset="0.7" stop-color="#e4b3ab" stop-opacity="0.3"/><stop offset="1" stop-color="#f3d4cf" stop-opacity="0"/></radialGradient><radialGradient id="radial-gradient-3" cx="36.45" cy="740.99" r="22.5" gradientTransform="matrix(2.8, -0.14, -0.15, -2.77, 237.68, 2358.18)" gradientUnits="userSpaceOnUse"><stop offset="0.94" stop-opacity="0"/><stop offset="1" stop-opacity="0.3"/></radialGradient><radialGradient id="radial-gradient-4" cx="87.4" cy="735.82" r="12.45" gradientTransform="matrix(2.7, 0, 0, -2.7, 129.45, 2236.7)" xlink:href="#radial-gradient"/><radialGradient id="radial-gradient-5" cx="44.03" cy="1014.72" fx="54.29106606470048" r="17.36" gradientTransform="matrix(-2.55, 0.05, 0.04, 2.04, 426.4, -1823.86)" xlink:href="#radial-gradient-2"/><radialGradient id="radial-gradient-6" cx="-5.93" cy="743.21" r="22.5" gradientTransform="matrix(-2.8, -0.14, 0.15, -2.77, 243.8, 2358.18)" xlink:href="#radial-gradient-3"/><radialGradient id="radial-gradient-7" cx="64.31" cy="702.76" r="38.82" gradientTransform="matrix(2.55, 0, 0, -2.55, 136.19, 2110.93)" gradientUnits="userSpaceOnUse"><stop offset="0" stop-color="#fff4f3" stop-opacity="0.5"/><stop offset="0.9" stop-color="#f3d4cf" stop-opacity="0"/></radialGradient><radialGradient id="radial-gradient-8" cx="64.31" cy="757.13" r="34.91" xlink:href="#radial-gradient-7"/></defs><title>avatar 8</title><g id="svga-group-hair-back"><path id="SvgjsPath4085" class="cls-1" d="M449.85,308.57c-2,79.45-13,254.58-144.58,253.67-198.76-1.36-150.76-171.85-152.73-253.67C149.69,190.7,219.09,95.08,301.19,95.08S452.88,190.7,449.85,308.57Z" transform="translate(-55.23 -20.35)"/></g><g id="svga-group-humanbody-single"><path id="SvgjsPath2761" class="cls-2" d="M524.85,533.52c-14.86-25.12-33.32-29.61-48.53-34.46-15.64-5-47.84-7.86-65.4-11.37-17-3.4-57.25-14.31-57.71-33.35-0.47-19.95,10.61-99.13,10.61-99.13H235.9s11.1,79.18,10.62,99.13c-0.45,19-40.75,30-57.72,33.35-17.57,3.52-49.76,6.39-65.4,11.37-15.22,4.85-33.69,9.34-48.54,34.46C65.85,548.75,60,573.41,60,600.61H539.71C539.71,573.41,533.87,548.75,524.85,533.52Z" transform="translate(-55.23 -20.35)"/><path id="SvgjsPath2762" class="cls-3" d="M353.2,454.33c6.17,27,44.92,33.87,65,37.89,54.18,10.83,83.51,12.7,104.59,48.31,7.18,12.16,13.5,39.23,14.74,59.72,4.54,0.72,1.31-43.1-12.7-66.75-24.09-40.73-71.93-37.42-113.94-45.83-17-3.4-57.25-14.31-57.71-33.35h0Zm-106,0c-0.46,19-40.75,30-57.71,33.35-42,8.41-89.85,5.1-113.94,45.83-14,23.65-17.24,67.47-12.7,66.75,1.24-20.5,7.56-47.57,14.74-59.72,21.08-35.62,50.41-37.49,104.59-48.31,20.1-4,58.85-10.87,65-37.89h0Z" transform="translate(-55.23 -20.35)"/><path id="SvgjsPath2763" class="cls-4" d="M179.53,507.92s70.82,0.74,82.77,4.66c5.72,1.87,20.7,13.93,20.7,13.93s-16.21-7.84-21.41-9.29C249.51,513.84,179.53,507.92,179.53,507.92Zm120.15,25.93c5.08-.1,19.5-9.39,19.5-9.39s-13.78,5.09-18.15,5.34c-3.69.21-15.74-3.06-15.74-3.06S295.51,533.93,299.67,533.85Zm42.56-17.91c16.69-4.5,73.65-8,73.65-8s-58.83-1.28-75.44,4.27c-5.57,1.86-18.7,12.76-18.7,12.76S336.74,517.41,342.24,515.94Z" transform="translate(-55.23 -20.35)"/><path id="SvgjsPath2764" class="cls-5" d="M524.85,533.52c-24.09-40.73-72-37.44-113.94-45.83-17-3.4-57.25-14.31-57.71-33.35-0.47-19.95,10.61-99.13,10.61-99.13H235.9s11.1,79.18,10.62,99.13c-0.45,19-40.75,30-57.72,33.35-17.57,3.52-49.76,6.39-65.4,11.37-15.22,4.85-33.69,9.34-48.54,34.46C65.85,548.75,60,573.41,60,600.61H539.71C539.71,573.41,533.87,548.75,524.85,533.52Z" transform="translate(-55.23 -20.35)"/></g><g id="svga-group-chinshadow-single"><path id="SvgjsPath2971" class="cls-6" d="M300.23,462.81c13.86,0,33.46-9,51.85-21,1.2-16.91,4.34-42.88,6.82-62.06-34.55-4.51-83.65-4.41-118.05.25,2.46,19,5.56,44.67,6.77,61.51C266.25,453.71,286.19,462.83,300.23,462.81Z" transform="translate(-55.23 -20.35)"/></g><g id="svga-group-head"><g id="svga-group-faceshape-wrap"><g id="svga-group-faceshape-single"><path id="SvgjsPath2968" class="cls-2" d="M445.54,229.11h0c0,0.13-26.5,109.72-46.78,140.82-16,24.47-69.65,63.15-98.51,63.2s-82.68-38.47-98.71-62.89c-20.38-31-47.19-140.54-47.22-140.68h0a149.55,149.55,0,0,1-5-38c-0.13-82.77,67.14-150,150.27-150.09s150.62,66.85,150.75,149.62A149.48,149.48,0,0,1,445.54,229.11Z" transform="translate(-55.23 -20.35)"/><path id="SvgjsPath2969" class="cls-7" d="M363.89,55.68a149.71,149.71,0,0,1,74.27,170.27h0c0,0.13-26.84,109.64-47.23,140.68-14.7,22.41-60.72,62.12-91.08,62.12S223.48,389,208.78,366.62c-20.38-31-47.19-140.54-47.22-140.68h0A149.72,149.72,0,0,1,235.82,55.68,149.73,149.73,0,0,0,154.3,229.57h0c0,0.13,26.84,109.64,47.22,140.68,10.92,16.64,39.37,39.8,65.53,52.87q-2-.84-4-1.77c13.37,7.11,26.37,11.78,36.38,11.79h0.75c10,0,23-4.68,36.38-11.79-1.33.63-2.65,1.21-4,1.78,26.15-13.07,54.61-36.24,65.53-52.87,20.38-31,47.2-140.54,47.22-140.68h0A149.73,149.73,0,0,0,363.89,55.68Z" transform="translate(-55.23 -20.35)"/><path id="SvgjsPath2970" class="cls-5" d="M445.54,229.11h0c0,0.13-26.5,109.72-46.78,140.82-16,24.47-69.65,63.15-98.51,63.2s-82.68-38.47-98.71-62.89c-20.38-31-47.19-140.54-47.22-140.68h0a149.55,149.55,0,0,1-5-38c-0.13-82.77,67.14-150,150.27-150.09s150.62,66.85,150.75,149.62A149.48,149.48,0,0,1,445.54,229.11Z" transform="translate(-55.23 -20.35)"/></g></g><g id="svga-group-mouth-single"><path id="SvgjsPath2983" class="cls-8" d="M300.18,388.57c-10.28,0-12.69-8.42-12.69-8.42a34.62,34.62,0,0,0,25.39-.36S309.23,388.57,300.18,388.57Z" transform="translate(-55.23 -20.35)"/><path id="SvgjsPath2987" class="cls-9" d="M267.55,365.55c6.81-2.35,17.24-6.66,22.67-6.9,2.8-.13,5.81,2.15,8.84,2.88,2.1,0.51,8.07-2.86,10.21-2.88,5.62-.06,17.46,4.54,23.5,6.9h0s-14.31,17.19-32.6,17.19c-20.7,0-32.61-17.19-32.61-17.19h0Z" transform="translate(-55.23 -20.35)"/><path id="SvgjsPath2988" class="cls-10" d="M333.66,365a2.28,2.28,0,0,0-1.61-.89c-0.77,0-1.66,1-3.25,1-1.83,0-11.57,1.51-14.18,1.34-5.26-.35-9.46,1.65-14.46,1.65s-9.56-2.18-14.83-1.83c-2.61.18-12-1.11-13.83-1.15-1.59,0-2.21-1-2.88-1.15a2.57,2.57,0,0,0-1.87.84,2.87,2.87,0,0,0,.52,2c0.7,0.73,2.81.6,4.2,0.63,1.92,0,11.32,1.33,14,1.15,5.15-.35,9.73,2,14.72,2s9.21-2.2,14.36-1.85c2.65,0.18,12.4-1.3,14.32-1.34,1.39,0,3.38-.15,4.09-0.72A2.45,2.45,0,0,0,333.66,365Z" transform="translate(-55.23 -20.35)"/><path id="SvgjsPath2989" class="cls-11" d="M300.15,378.94a35.77,35.77,0,0,1-22.85-8.17c3.23-.18,6.56-0.68,9.79-0.54,4,0.17,7.77,1.75,11.76,2,4.31,0.29,8.3-1.2,12.52-1.72,3.52-.42,9.06-1.67,12.59-1.54C317.66,373.81,308.2,378.94,300.15,378.94Zm11.31-13.88c3.25-.09,8.44-1.32,11.68-1.08-3.47-1.88-9-2.33-13-3.08-3.38-.66-6.77,2-10.09,2.39-3.74.49-6.55-3.06-10.19-3.18-3.94,0-8,2.45-11.46,4.08a63,63,0,0,1,9.61,0c3.87,0.49,7.59,2,11.51,2.15S307.45,365.16,311.46,365.06Z" transform="translate(-55.23 -20.35)"/><path id="SvgjsPath2990" class="cls-12" d="M300,376.58a23.19,23.19,0,0,1-14.11-5c0.94-.09,1.89-0.17,2.8-0.17l0.87,0a20.33,20.33,0,0,1,4.56,1,24.88,24.88,0,0,0,4.76,1c0.33,0,.65,0,1,0a23,23,0,0,0,5.81-1,33,33,0,0,1,3.44-.77,13.21,13.21,0,0,1,2.07-.15c0.66,0,1.35,0,2,.09C309.73,374.32,305.2,376.58,300,376.58Z" transform="translate(-55.23 -20.35)"/></g><g id="svga-group-eyes-left"><g id="svga-group-eyesback-left"><path id="SvgjsPath3655" class="cls-13" d="M258.81,268.55c-8.14-2.21-12.29,3-24.26,3.27-19.92.5-24.57-1.74-27.69-7.41a45.41,45.41,0,0,1-3.12-7.31l-0.25-11.66c3.28-11.1,48.32-12.23,64,5a17.11,17.11,0,0,1,1.15,5.25,33.39,33.39,0,0,1-2.34,7.72A16,16,0,0,1,258.81,268.55Z" transform="translate(-55.23 -20.35)"/></g><g id="svga-group-eyesiriswrapper-left"><g id="svga-group-eyesiriscontrol-left"><g id="svga-group-eyesiris-left"><path id="SvgjsPath3835" class="cls-14" d="M257.4,260a21,21,0,1,1-14.75-25.83A21,21,0,0,1,257.4,260Z" transform="translate(-55.23 -20.35)"/><path id="SvgjsPath3836" class="cls-15" d="M256.89,255.73c-1.55,12.42-10.76,18.89-20.85,18.21-9.31-.63-17.63-7.49-18.4-19.36,3.22-.92,7.49.58,11.25,0,0,0.14-.06.26-0.06,0.4a8.73,8.73,0,0,0,17.41,1.17,8.22,8.22,0,0,0-.09-1.74C249.48,254.92,253.56,254.43,256.89,255.73Z" transform="translate(-55.23 -20.35)"/><path id="SvgjsPath3837" class="cls-16" d="M240.16,247.42a8.39,8.39,0,0,0-10.53,5.92,8.91,8.91,0,0,0,6.21,10.7,8.41,8.41,0,0,0,10.55-5.9A8.92,8.92,0,0,0,240.16,247.42Z" transform="translate(-55.23 -20.35)"/><path id="SvgjsPath3838" class="cls-17" d="M240.16,247.42a8.39,8.39,0,0,0-10.53,5.92,8.91,8.91,0,0,0,6.21,10.7,8.41,8.41,0,0,0,10.55-5.9A8.92,8.92,0,0,0,240.16,247.42Z" transform="translate(-55.23 -20.35)"/><path id="SvgjsPath3839" class="cls-18" d="M227.18,267.24a1.24,1.24,0,0,1-2.39-.66c0.42-1.48,1.57-2.39,2.29-3.7a1.24,1.24,0,0,1,2.13,1.25c-0.6,1.08-1.7,1.91-2,3.11h0ZM231,264.8c-0.66.77-1.52,3.61-1.89,4.53-0.6,1.48,1.8,2.12,2.39.66a25.16,25.16,0,0,1,1.26-3.44c1-1.2-.71-3-1.75-1.75h0Zm5.15,7.31c1.29-1.49,1.16-3.19,1.13-5a1.24,1.24,0,0,0-2.47,0c0,1,.32,2.45-0.41,3.3-1,1.2.7,3,1.75,1.75h0Zm2.52-5.36a15.75,15.75,0,0,0,.66,4.5c0.47,1.52,2.86.87,2.39-.66a13.24,13.24,0,0,1-.57-3.85,1.24,1.24,0,0,0-2.48,0h0Z" transform="translate(-55.23 -20.35)"/><path id="SvgjsPath3840" class="cls-19" d="M251.83,250.83c-2.44,1.46-6.1.15-8.17-2.94s-1.76-6.77.68-8.23,6.1-.15,8.16,2.94S254.27,249.36,251.83,250.83Z" transform="translate(-55.23 -20.35)"/></g></g></g><g id="svga-group-eyesfront-left"><path id="SvgjsPath3680" class="cls-2" d="M190.14,254.43c0,34.14,20.48,61.82,45.75,61.82s45.75-27.67,45.75-61.82-20.48-61.82-45.75-61.82S190.14,220.28,190.14,254.43Zm13.6,2.68-0.25-11.66c3.28-11.1,48.32-12.23,64,5,3.45,9.08-1,15.39-8.73,18.09-8.14-2.21-12.29,3-24.26,3.27-19.92.5-24.57-1.74-27.69-7.41A45.41,45.41,0,0,1,203.74,257.11Z" transform="translate(-55.23 -20.35)"/><path id="SvgjsPath3681" class="cls-20" d="M201,249.69c0.06,21.17,18.91,38.23,42.13,38.12s42-17.36,41.94-38.53S266.18,211,243,211.15,201,228.52,201,249.69Zm2.72,7.42-0.25-11.66c3.28-11.1,48.32-12.23,64,5,3.45,9.08-1,15.39-8.73,18.09-8.14-2.21-12.29,3-24.26,3.27-19.92.5-24.57-1.74-27.69-7.41A45.41,45.41,0,0,1,203.74,257.11Z" transform="translate(-55.23 -20.35)"/><path id="SvgjsPath3686" class="cls-21" d="M206.87,264.42a45.33,45.33,0,0,1-3.13-7.31l-0.25-11.66c3.28-11.1,48.32-12.23,64,5,3.45,9.08-1,15.39-8.73,18.09-8.14-2.21-12.29,3-24.26,3.27C214.64,272.33,210,270.09,206.87,264.42Z" transform="translate(-55.23 -20.35)"/><path id="SvgjsPath3690" class="cls-22" d="M274.62,246.26c-23.78-16.19-41.3-17.22-69.53-15.16C228.66,226.89,255.8,229.95,274.62,246.26Z" transform="translate(-55.23 -20.35)"/><path id="SvgjsPath3691" d="M269.76,251.61c0.92,1.55,1.34,2.39,1.81,6.14-8-23.36-64.15-23.5-67.83-11.75V257c-2.52-4.33-3.69-9.59-4.77-14.56-0.23-1.06-5.81-6.43-5.81-6.43s6,3.28,6.92,3.34c-0.45-.53-2.79-3.09-2.79-3.09s5.57,2.3,6.37,2.08a12,12,0,0,1-2.65-2c1.19,0.35,4.07,1.49,6.73.91,26.86-5.85,55.78.61,66,19.78A55.61,55.61,0,0,0,269.76,251.61Zm-6.81,17.77c-11.44-5.56-14.69,1.06-28.59,1.39-19.79.47-23.66-2.15-27.51-7,2,5.87,3.4,8.66,26.89,8.5C247,272.23,254.29,266,262.95,269.38Z" transform="translate(-55.23 -20.35)"/></g></g><g id="svga-group-eyes-right"><g id="svga-group-eyesback-right"><path id="SvgjsPath3663" class="cls-23" d="M341.55,268.55c8.14-2.21,12.29,3,24.26,3.27,19.92,0.5,24.57-1.74,27.69-7.41a45.6,45.6,0,0,0,3.13-7.31l0.25-11.66c-3.28-11.1-48.32-12.23-64,5a17.11,17.11,0,0,0-1.15,5.25,33.39,33.39,0,0,0,2.34,7.72A15.93,15.93,0,0,0,341.55,268.55Z" transform="translate(-55.23 -20.35)"/></g><g id="svga-group-eyesiriswrapper-right"><g id="svga-group-eyesiriscontrol-right"><g id="svga-group-eyesiris-right"><path id="SvgjsPath3841" class="cls-14" d="M383.51,260a21,21,0,1,1-14.75-25.83A21,21,0,0,1,383.51,260Z" transform="translate(-55.23 -20.35)"/><path id="SvgjsPath3842" class="cls-15" d="M383,255.73c-1.55,12.42-10.76,18.89-20.85,18.21-9.31-.63-17.63-7.49-18.4-19.36,3.22-.92,7.49.58,11.25,0,0,0.14-.06.26-0.06,0.4a8.73,8.73,0,0,0,17.41,1.17,8.22,8.22,0,0,0-.09-1.74C375.59,254.92,379.67,254.43,383,255.73Z" transform="translate(-55.23 -20.35)"/><path id="SvgjsPath3843" class="cls-16" d="M366.27,247.42a8.39,8.39,0,0,0-10.53,5.92,8.91,8.91,0,0,0,6.21,10.7,8.41,8.41,0,0,0,10.55-5.9A8.92,8.92,0,0,0,366.27,247.42Z" transform="translate(-55.23 -20.35)"/><path id="SvgjsPath3844" class="cls-17" d="M366.27,247.42a8.39,8.39,0,0,0-10.53,5.92,8.91,8.91,0,0,0,6.21,10.7,8.41,8.41,0,0,0,10.55-5.9A8.92,8.92,0,0,0,366.27,247.42Z" transform="translate(-55.23 -20.35)"/><path id="SvgjsPath3845" class="cls-18" d="M353.29,267.24a1.24,1.24,0,0,1-2.39-.66c0.42-1.48,1.57-2.39,2.29-3.7a1.24,1.24,0,0,1,2.13,1.25c-0.6,1.08-1.7,1.91-2,3.11h0Zm3.81-2.44c-0.66.77-1.52,3.61-1.89,4.53-0.6,1.48,1.8,2.12,2.39.66a25.16,25.16,0,0,1,1.26-3.44c1-1.2-.71-3-1.75-1.75h0Zm5.15,7.31c1.29-1.49,1.16-3.19,1.13-5a1.24,1.24,0,0,0-2.47,0c0,1,.32,2.45-0.41,3.3-1,1.2.7,3,1.75,1.75h0Zm2.52-5.36a15.75,15.75,0,0,0,.66,4.5c0.47,1.52,2.86.87,2.39-.66a13.24,13.24,0,0,1-.57-3.85,1.24,1.24,0,0,0-2.48,0h0Z" transform="translate(-55.23 -20.35)"/><path id="SvgjsPath3846" class="cls-19" d="M377.94,250.83c-2.44,1.46-6.1.15-8.17-2.94s-1.77-6.77.67-8.23,6.1-.15,8.16,2.94S380.38,249.36,377.94,250.83Z" transform="translate(-55.23 -20.35)"/></g></g></g><g id="svga-group-eyesfront-right"><path id="SvgjsPath3701" class="cls-2" d="M364.47,192.61c-25.26,0-45.75,27.67-45.75,61.82s20.48,61.82,45.75,61.82,45.75-27.67,45.75-61.82S389.73,192.61,364.47,192.61Zm29,71.81c-3.12,5.67-7.77,7.91-27.69,7.41-12-.3-16.11-5.48-24.26-3.27-7.71-2.7-12.18-9-8.73-18.09,15.72-17.24,60.76-16.11,64-5l-0.25,11.66A45.16,45.16,0,0,1,393.49,264.42Z" transform="translate(-55.23 -20.35)"/><path id="SvgjsPath3702" class="cls-24" d="M357.41,211.15c-23.23-.11-42.08,17-42.14,38.12s18.72,38.41,41.94,38.53,42.07-17,42.13-38.12S380.63,211.28,357.41,211.15Zm36.08,53.27c-3.12,5.67-7.77,7.91-27.69,7.41-12-.3-16.11-5.48-24.26-3.27-7.71-2.7-12.18-9-8.73-18.09,15.72-17.24,60.76-16.11,64-5l-0.25,11.66A45.16,45.16,0,0,1,393.49,264.42Z" transform="translate(-55.23 -20.35)"/><path id="SvgjsPath3707" class="cls-25" d="M393.49,264.42a45.6,45.6,0,0,0,3.13-7.31l0.25-11.66c-3.28-11.1-48.32-12.23-64,5-3.45,9.08,1,15.39,8.73,18.09,8.14-2.21,12.29,3,24.26,3.27C385.72,272.33,390.37,270.09,393.49,264.42Z" transform="translate(-55.23 -20.35)"/><path id="SvgjsPath3711" class="cls-22" d="M325.74,246.26c23.78-16.19,41.3-17.22,69.53-15.16C371.7,226.89,344.56,229.95,325.74,246.26Z" transform="translate(-55.23 -20.35)"/><path id="SvgjsPath3712" d="M326.58,257c10.25-19.17,39.17-25.63,66-19.78,2.66,0.58,5.54-.57,6.73-0.91a12,12,0,0,1-2.65,2c0.8,0.22,6.37-2.08,6.37-2.08s-2.34,2.55-2.79,3.09c0.9-.05,6.92-3.34,6.92-3.34s-5.58,5.38-5.81,6.43c-1.08,5-2.25,10.23-4.77,14.56V246c-3.68-11.75-59.82-11.62-67.83,11.75,0.47-3.75.9-4.6,1.81-6.14A55.19,55.19,0,0,0,326.58,257Zm40,15.37c23.49,0.16,24.88-2.63,26.89-8.5-3.85,4.8-7.72,7.43-27.51,7-13.9-.33-17.16-7-28.59-1.39C346.07,266,353.33,272.23,366.62,272.32Z" transform="translate(-55.23 -20.35)"/></g></g><g id="svga-group-facehighlight-single"><path id="SvgjsPath2753" class="cls-26" d="M399.59,318.74a99.74,99.74,0,1,1-99.89-99.58A99.73,99.73,0,0,1,399.59,318.74Z" transform="translate(-55.23 -20.35)"/><path id="SvgjsPath2757" class="cls-27" d="M386.73,177.77a86.55,86.55,0,1,1-86.55-86.55A86.55,86.55,0,0,1,386.73,177.77Z" transform="translate(-55.23 -20.35)"/></g><g id="svga-group-eyebrows-left"><path id="SvgjsPath3859" class="cls-28" d="M191.66,214.22c79.57-23.26,97.62,24.32,81.11,9.52C255.61,208.36,216,209.72,191.66,214.22Z" transform="translate(-55.23 -20.35)"/></g><g id="svga-group-eyebrows-right"><path id="SvgjsPath3860" class="cls-28" d="M408.71,214.2c-23-4.21-56.31-5.89-76.52,6.26-2.5,1.5-12.41,10-9.77,4C327.2,213.59,358.89,199.74,408.71,214.2Z" transform="translate(-55.23 -20.35)"/></g><g id="svga-group-nose-single"><path id="SvgjsPath2998" class="cls-4" d="M284.82,328.59s3.26-2.4,14.22-2.4c13,0,16.53,1.88,16.53,1.88s-9.17,5.93-17.15,4.76A55.06,55.06,0,0,1,284.82,328.59Z" transform="translate(-55.23 -20.35)"/><path id="SvgjsPath2999" class="cls-29" d="M300.33,336.27c-2.92,0-5.89-1.31-8.46-2.58a12.34,12.34,0,0,0-3.22-1.14c-1.44-.27-4.09.21-5.16-0.88a1.84,1.84,0,0,1,1.34-3.08,23.37,23.37,0,0,1,5.68.66c3.24,0.87,6,3.1,9.43,3.38,2.6,0.21,5.49-1.43,7.81-2.42,1.82-.77,7.93-3.65,9.41-1.13,0.91,1.56-.55,2.66-2,2.74a16.49,16.49,0,0,0-5.05,1.32C307,334.36,303.74,336.27,300.33,336.27Z" transform="translate(-55.23 -20.35)"/><path id="SvgjsPath3000" class="cls-30" d="M300.15,326.33c1.37,0,4.58-1.6,4.06-4.7-3.12-18.32-4.06-50.06-4.06-50.06s-2.38,37.17-4.42,50.06C295.24,324.76,298.6,326.33,300.15,326.33Z" transform="translate(-55.23 -20.35)"/></g><g id="svga-group-hair-front"><path id="SvgjsPath4087" class="cls-31" d="M394,389.76c40.83-138.34-7-214.59-12.57-238.55-1.14-4.93-7-19-7-19-21.9-12.08-34.4-14.74-60.2-14.74-17.36,0-26.67.4-43.53,5.89-17.71,17.64-69.08,80.79-90,128,10.35,39.23,16.88,168.46,12,179.81C154.51,432.46,168,112,168,112c13.25,0,255.19-10.29,268.83-10.29C436.81,101.72,451.37,385.11,394,389.76Z" transform="translate(-55.23 -20.35)"/><path id="SvgjsPath4088" class="cls-32" d="M372.93,622.4c18.7-39.25,13.7-65.51,8.86-90.93-3.62-19-7.36-38.67-1-63.57-2.09-33.23,6.5-61,15.6-90.37,17.35-56.08,37-119.64-14.93-238.53l-0.06-.15-0.15-.08a151.28,151.28,0,0,0-72.92-18.46,166.23,166.23,0,0,0-51.58,8.29c-17.71,17.64-59.5,72.64-80.42,119.88a234.64,234.64,0,0,0,4.76,33.09c10.73,52.72,11.13,95.72,11.51,137.31,0.57,62.28,1.11,121.13,38.31,200.36q-6.88-6-13.35-11.59c-46.07-39.85-76.5-66.18-84.95-126.23l-1,.05s-0.82,22.87-1.16,32.49c-25.3-124.28-28.31-224.51-13.59-325,12.34-84.32,91.18-165.26,154.36-165.26a104.49,104.49,0,0,1,38,7l0.18,0.07,0.18-.07c15-5.94,29.6-8.95,43.24-8.95,39.87,0,73.94,18.68,98.54,68.05,28.72,57.67,44,147.45,40.88,240.17-3,90.34-22.68,168.38-52.66,209.52a206.71,206.71,0,0,0,3.12-22l-1-.22c-18.47,49.66-42.64,76.32-66,102.1Z" transform="translate(-55.23 -20.35)"/><path id="SvgjsPath4089" class="cls-33" d="M176.6,252.05a247.58,247.58,0,0,0,4.51,29.51c10.73,52.72,11.13,95.72,11.51,137.31,0.57,62.28,1.11,121.13,38.31,200.36-4.59-4-9-7.86-13.35-11.59-23.66-20.47-43.19-37.38-57.74-57.12-22.95-44.45-30.6-77-30.6-150,11.13,59.76,14,89.83,58.7,150C143.65,464.26,126.73,336.11,176.6,252.05Zm310.28,88.53c-4.78,30.31-12.09,96.84-23.5,126.5,6.64-44.32,5.3-57.66,4.95-101.38-9.89,56.87-23.12,124.62-49.45,168.15,9.48-39,17.94-71.53,17.94-120.16-12.49,46.16-34.06,53.58-37.72,88,9.61-90.29,51.61-186.12,9.5-281,14.8,69.43.68,115.2-12.2,156.83-9.1,29.39-17.68,57.14-15.6,90.37-6.36,24.9-2.62,44.56,1,63.57,4.84,25.42,9.84,51.68-8.86,90.93l2.83-3.12c23.38-25.78,47.55-52.44,66-102.1l1,0.22a206.73,206.73,0,0,1-3.12,22C468.4,499.92,482.7,426.37,486.88,340.58ZM145.07,218.39c-6,13.41-16.11,154-8.12,184.35,0.11,0.42-.14-0.43-0.66-2.26C124.16,361.33,138.08,231.19,145.07,218.39Zm-20.46,191c0.37,4.27.8,6.85,0.73,6.34-0.33-1.26-4.82-108.94-3.69-109.58,0.25-.05.17,0,0.25,0.06C119.25,306.89,121.59,377.36,124.6,409.37ZM453,369c-3.62,41.3-13.09,87.71-5,47,14.19-69.1,17.62-130.55.5-198.53C455.63,251.37,460.35,278.17,453,369Z" transform="translate(-55.23 -20.35)"/><path id="SvgjsPath4090" class="cls-34" d="M366.94,111c41.76,15.83,79.13,185.45,64.29,284.36,25.11-108.8,18.71-200.95-27.2-294.25,42,69,59.65,96.21,65.21,203.84,8.21-48.46,7-107.24-.91-172.83a303,303,0,0,0-16.94-42.39c-24.59-49.37-58.66-68.05-98.53-68.05-13.65,0-28.2,3-43.25,8.95l-0.18.07-0.18-.07a104.49,104.49,0,0,0-38-7c-31.12,0-67,20.46-96.44,50.88C133.07,137.56,120,215.21,122.14,289c2.47-59.35,32.15-118.69,69.24-163.2-27.2,64.29-47,131.05-49.45,200.29,14.84-96.44,87.71-218.26,143.42-237.38,17.06-5.86,38.25-3.18,43.56,15.87a22.84,22.84,0,0,1,3.42,16.27,43.09,43.09,0,0,1,10.3-6.27C350.88,108.1,359.79,108.3,366.94,111Z" transform="translate(-55.23 -20.35)"/><path id="SvgjsPath4091" class="cls-1" d="M332.33,120.9C334.8,106.07,320,92.22,307.6,92.22c-20.07,0-39.93,19.24-52.38,37.93,0.52-.54,1-1.07,1.53-1.56a166.23,166.23,0,0,1,51.58-8.29,151.3,151.3,0,0,1,72.92,18.46l0.15,0.08,0.07,0.15c0.13,0.3.25,0.59,0.38,0.9-0.67-8.63-10.28-19-15-22.38C354.49,110.1,344.39,109.55,332.33,120.9Z" transform="translate(-55.23 -20.35)"/><path id="SvgjsPath4092" class="cls-32" d="M358.55,77.75c36.33,7.13,53,46.82,62.71,82.3C423,166.76,404.68,88.64,358.55,77.75ZM467.83,189.42C461.35,136,439.27,81.48,392.44,55,458.06,96,468.81,196.43,467.83,189.42ZM279,85.16c4.74-1.05-30.62,3-57.81,37.18-17.71,21.54-33.53,54.37-39.9,67.16C200.88,149.54,235.76,95.34,279,85.16ZM240.35,55.58c-39.43,12.7-64,41.36-77.41,76.77C189.39,69.83,251.5,52.12,240.35,55.58Zm88-3.14C318.09,30.89,297.73,20.18,267,24c30.09-2.05,50.05,11.28,58.05,29C308.19,34.63,277.56,55.92,280,55.1c2.42-1.71,34.45-11.72,46.35.48,5.43,11.5,8.4,25.71,9.31,41.94,1,21.58.88-11.26-.46-20.71A82.85,82.85,0,0,0,329,53.93c9.9-12.61,28.06-13.62,43.71-7.16l0.1-.23C357.43,38.75,334.94,38.61,328.37,52.44Z" transform="translate(-55.23 -20.35)"/><path id="SvgjsPath4093" class="cls-35" d="M334.9,119.37c13.16-11,32.13-9.22,44.61,16.57L381,139.2c78.77,180.3-6.86,231.49-.69,328.58-15.1,59.09,26.05,86.71-9.37,157.56,24.26-26.94,51.39-54.45,71.29-108a212.78,212.78,0,0,1-3.51,24.11C534.8,414.2,515-52.84,309.43,30.17,243-.92,137.66,65,116.4,188.83c-18.56,108.08-9.55,213.11,14.42,329.27,0.06-1.63,1.31-36.62,1.31-36.62,9.36,66.53,45.13,91.36,100.24,139.68-62.94-132.33-23.51-205.71-50.79-339.7a244.85,244.85,0,0,1-4.8-32.79c20.63-46.59,62-101.5,80.12-119.61l3-3c0.24-.23,13.33-12.73,13.92-13.28,20.28-8,42.71-9.94,55.24,8.88-7.51-19.76-32.29-19.88-51.26-12.47,20.88-18.41,46.2-25.45,54.87,10.09a14.9,14.9,0,0,1,.2,3A12.36,12.36,0,0,1,334.9,119.37ZM485.82,331.23c-0.94,30.57-6.28,135.43-43.66,203.43a175.72,175.72,0,0,0,5-31.65,369.13,369.13,0,0,0,14.91-67c-13.72,67.68-38.4,127-85.6,181.92,33.47-73.76-6.53-88.94,4.13-146.71,2.39,27.25,10.61,53.66,19.14,79.25,1.21-24.41,6.26-54.39,18-75.94-4.45,6.13-17.46,34.75-19.61,64.81-35.77-125,13.21-123.59,20.2-268.69C424.74,322.94,418,341,418,341c14.14-47.4,1.34-80.18-2-106.62-4.19-32.68-25.61-84.51-28.82-91.47-12-25.15-30.16-40.81-52.25-25.69-20.71-59.74-72.44-1.39-87.68,15.36-22,24.15-55.69,69.45-72.23,109.52,0,0,0,0,0,.07-12,29-15.09,51.54-18.1,71.31,5.7-28.16,11.36-45.06,18.37-61.25a243.82,243.82,0,0,0,2.67,24.41c22.25,142.54-16.86,205,49.6,338.22-85.18-79.23-94.87-103-98.17-199.25-0.59,61.79,2.32,26-.35,75.91-14.26-96.64-26.41-167-6.18-293.07C145.73,55.68,252.07,7.49,309.33,31.71c74.91-30.54,121.09,14.71,151.33,86.64,6.86,16.33,25.89,92.21,13.85,154.32,0,0,5.43-15.65,9.05-46.24C487,260.13,486.88,296.78,485.82,331.23Z" transform="translate(-55.23 -20.35)"/></g><g id="svga-group-glasses-single"><path id="SvgjsPath4140" class="cls-30" d="M279.63,259.94c-9.17,18.45-34.91,20.15-44,20.15h-30c-14.22,0-26.85-19.76-26.85-35.34V229.53a3,3,0,0,1,.72-1.73Zm46.19-31.11c-5.12,3.54-8.38,8.28-8.38,14.64v1.24a33.54,33.54,0,0,0,3.31,15.21c9.17,18.45,34.91,20.15,44,20.15h30c10.11,0,19.41-10,23.94-21.41Z" transform="translate(-55.23 -20.35)"/><path id="SvgjsPath4141" class="cls-36" d="M279.63,259.94l-100.1-32.17c2.45-3.26,10.88-6.68,15.21-7.2a257.9,257.9,0,0,1,29.52-1.71c21.91,0,58.65,3.19,58.65,24.63v1.24A33.88,33.88,0,0,1,279.63,259.94Zm141.89-15.21V229.5a3,3,0,0,0-.72-1.73c-2.45-3.26-10.88-6.68-15.21-7.2a257.9,257.9,0,0,0-29.52-1.71c-15.41,0-38.1,1.58-50.27,10l92.8,29.82A37.89,37.89,0,0,0,421.52,244.74Z" transform="translate(-55.23 -20.35)"/><path id="SvgjsPath4142" class="cls-37" d="M423.15,233.86V229.5c0-5.19-12.12-9.87-17.33-10.51-23.29-2.77-77.94-5-88.28,16.72a68,68,0,0,0-17.36-3.19,68,68,0,0,0-17.36,3.19c-10.31-21.69-65-19.49-88.28-16.72-5.22.62-17.33,5.29-17.33,10.51v4.35H165.42v5.84h11.79v5c0,15.58,12.73,36.94,28.46,36.94h30c20.6,0,48.86-7.74,48.86-36.94V243.5a18.78,18.78,0,0,0-.72-5.24c8.56-2.65,13.72-3.19,16.37-3.24s7.81,0.59,16.37,3.24a18.78,18.78,0,0,0-.72,5.24v1.24c0,29.2,28.29,36.94,48.86,36.94h30c15.73,0,28.46-21.36,28.46-36.94v-5h11.79v-5.84H423.15ZM282.52,244.74c0,32.42-35.85,34.94-46.86,34.94h-30c-14,0-26.46-19.53-26.46-34.94V229.5c0-3.24,10.11-7.86,15.55-8.51a256.83,256.83,0,0,1,29.47-1.71c21.76,0,58.23,3.14,58.23,24.21v1.24h0Zm138.6,0c0,15.41-12.46,34.94-26.46,34.94h-30c-11,0-46.86-2.52-46.86-34.94V243.5c0-21.07,36.5-24.21,58.23-24.21A256.43,256.43,0,0,1,405.54,221c5.44,0.64,15.58,5.27,15.58,8.51v15.23Z" transform="translate(-55.23 -20.35)"/></g></g><path class="cls-38" d="M300,566.13a273.23,273.23,0,0,1-56.75-5.8v80.09H375.68v-85c-21.46,6.73-47.51,10.7-75.67,10.7h0Zm0,0" transform="translate(-55.23 -20.35)"/><path class="cls-39" d="M370.21,473.9c15.83,8.77,29.48,10.5,66.54,10.5h3.15C497.37,484.4,544,521,544,566.13v52c0,12.31-12.7,22.29-28.38,22.29H321.48Z" transform="translate(-55.23 -20.35)"/><path class="cls-39" d="M277.7,640.42H83.61c-15.67,0-28.38-10-28.38-22.29v-52c0-45.14,46.59-81.73,104.05-81.73h3.15c37.07,0,50.72-1.72,66.54-10.5Z" transform="translate(-55.23 -20.35)"/></svg>