<svg id="Layer_1" data-name="Layer 1" xmlns="http://www.w3.org/2000/svg" xmlns:xlink="http://www.w3.org/1999/xlink" viewBox="0 0 496.2 606.74"><defs><style>.cls-1{fill:#3b3128;}.cls-2{fill:#f3d4cf;}.cls-3{fill:#fff4f3;}.cls-4{fill:#e4b3ab;}.cls-5{fill:none;stroke:#c5796d;stroke-width:1.5px;}.cls-6{fill:url(#linear-gradient);}.cls-7{fill:#dde8ea;}.cls-8{fill:#545b8e;}.cls-9{fill:#f9f9f9;}.cls-10{fill:#b9d5db;}.cls-11{fill:#97c3cb;}.cls-12{fill:#79b2bc;}.cls-13{fill:#ebc3bd;}.cls-14{fill:url(#linear-gradient-2);}.cls-15,.cls-26,.cls-27{fill:#fff;}.cls-16{fill:#f771a9;stroke:#e85391;stroke-width:0.75px;}.cls-17{fill:#c92066;}.cls-18{fill:#ff8ebd;}.cls-19{fill:#ffa8cc;}.cls-20{fill:url(#radial-gradient);}.cls-21,.cls-23,.cls-24{fill:#b1a799;stroke-width:0.5px;}.cls-21{stroke:#836b4a;}.cls-22{fill:#c0bdb9;}.cls-23{stroke:#a2927c;}.cls-24{stroke:#927e61;}.cls-25,.cls-27{opacity:0.9;}.cls-25,.cls-26,.cls-27{isolation:isolate;}.cls-26{opacity:0.7;}.cls-28{fill:url(#radial-gradient-2);}.cls-29{fill:url(#radial-gradient-3);}.cls-30{fill:#c5796d;}.cls-31{fill:url(#radial-gradient-4);}.cls-32{fill:url(#radial-gradient-5);}.cls-33{fill:url(#radial-gradient-6);}.cls-34{fill:url(#radial-gradient-7);}.cls-35{fill:url(#radial-gradient-8);}.cls-36{fill:#2a232b;}.cls-37{fill:#2c2219;}.cls-38{fill:#1c150e;}.cls-39{fill:#4a423a;}.cls-40{fill:#0d0905;}.cls-41{fill:#26120b;}</style><linearGradient id="linear-gradient" x1="67.18" y1="639.86" x2="67.18" y2="674.78" gradientTransform="matrix(2.55, 0, 0, -2.55, 136.19, 2110.93)" gradientUnits="userSpaceOnUse"><stop offset="0" stop-color="#e4b3ab" stop-opacity="0.8"/><stop offset="0.7" stop-color="#c5796d"/></linearGradient><linearGradient id="linear-gradient-2" x1="67.38" y1="670.13" x2="67.38" y2="674.13" gradientTransform="matrix(2.55, 0, 0, -2.55, 136.19, 2110.93)" gradientUnits="userSpaceOnUse"><stop offset="0.1" stop-color="#ebc3bd"/><stop offset="1" stop-color="#e4b3ab"/></linearGradient><radialGradient id="radial-gradient" cx="46.13" cy="722.36" r="15.18" gradientTransform="matrix(-2.33, 0.12, -0.13, -2.55, 443.9, 2097.94)" gradientUnits="userSpaceOnUse"><stop offset="0" stop-color="#fff"/><stop offset="0.54" stop-color="#fdfefe"/><stop offset="0.74" stop-color="#f6f8f9"/><stop offset="0.88" stop-color="#eaeff2"/><stop offset="0.99" stop-color="#d9e3e8"/><stop offset="1" stop-color="#d8e2e7"/></radialGradient><radialGradient id="radial-gradient-2" cx="107.95" cy="1019.99" fx="121.60221372193348" r="16.92" gradientTransform="matrix(2.52, 0.36, -0.28, 1.94, 259.91, -1762.26)" gradientUnits="userSpaceOnUse"><stop offset="0" stop-color="#e4b3ab"/><stop offset="0.7" stop-color="#e4b3ab" stop-opacity="0.3"/><stop offset="1" stop-color="#f3d4cf" stop-opacity="0"/></radialGradient><radialGradient id="radial-gradient-3" cx="36.7" cy="707.27" r="29.51" gradientTransform="matrix(2.64, 0, 0, -2.64, 136.29, 2196.34)" gradientUnits="userSpaceOnUse"><stop offset="0.95" stop-opacity="0"/><stop offset="1" stop-opacity="0.3"/></radialGradient><radialGradient id="radial-gradient-4" cx="103.5" cy="725.11" r="15.18" gradientTransform="matrix(2.33, 0.12, 0.13, -2.55, 37.57, 2097.94)" xlink:href="#radial-gradient"/><radialGradient id="radial-gradient-5" cx="55.85" cy="1029.65" fx="69.50714832462357" r="16.92" gradientTransform="matrix(-2.52, 0.36, 0.28, 1.94, 221.56, -1762.26)" xlink:href="#radial-gradient-2"/><radialGradient id="radial-gradient-6" cx="-14.21" cy="707.27" r="29.51" gradientTransform="translate(345.18 2196.34) rotate(180) scale(2.64)" xlink:href="#radial-gradient-3"/><radialGradient id="radial-gradient-7" cx="67.31" cy="698.06" r="40.03" gradientTransform="matrix(2.55, 0, 0, -2.55, 136.19, 2110.93)" gradientUnits="userSpaceOnUse"><stop offset="0" stop-color="#fff4f3" stop-opacity="0.5"/><stop offset="0.9" stop-color="#f3d4cf" stop-opacity="0"/></radialGradient><radialGradient id="radial-gradient-8" cx="67.31" cy="754.13" r="36" xlink:href="#radial-gradient-7"/></defs><title>avatar 5</title><g id="svga-group-subwrapper"><g id="svga-group-hair-back"><path id="SvgjsPath4560" class="cls-1" d="M309.11,298.82h-2.55v-2.55h2.55v2.55Z" transform="translate(-59.4 -15.77)"/></g><g id="svga-group-humanbody-single"><path id="SvgjsPath2761" class="cls-2" d="M539.52,552.21c-15.32-25.9-34.36-30.53-50.05-35.54-16.12-5.14-49.33-8.1-67.44-11.73-17.49-3.5-59-14.76-59.51-34.39C362,450,373.45,368.31,373.45,368.31H241.54S253,450,252.49,470.54c-0.47,19.63-42,30.89-59.52,34.39-18.12,3.63-51.32,6.59-67.44,11.73-15.7,5-34.74,9.63-50.06,35.54-9.29,15.71-15.32,41.14-15.32,69.19h494.7C554.85,593.34,548.83,567.91,539.52,552.21Z" transform="translate(-59.4 -15.77)"/><path id="SvgjsPath2762" class="cls-3" d="M362.51,470.55c6.36,27.87,46.32,34.93,67,39.08,55.87,11.17,86.12,13.09,107.86,49.82,7.4,12.54,13.92,40.45,15.2,61.59,4.68,0.74,1.35-44.45-13.1-68.83-24.84-42-74.18-38.59-117.5-47.26-17.49-3.5-59-14.76-59.51-34.39h0Zm-109.35,0c-0.47,19.63-42,30.89-59.51,34.39-43.32,8.67-92.65,5.26-117.5,47.26C61.69,576.59,58.37,621.78,63,621c1.28-21.14,7.8-49.05,15.2-61.59,21.74-36.73,52-38.66,107.86-49.82,20.73-4.15,60.68-11.21,67-39.08h0Z" transform="translate(-59.4 -15.77)"/><path id="SvgjsPath2763" class="cls-4" d="M183.41,525.81s73,0.76,85.36,4.81c5.9,1.93,21.35,14.36,21.35,14.36s-16.72-8.08-22.08-9.58C255.58,531.92,183.41,525.81,183.41,525.81Zm123.9,26.74c5.24-.1,20.11-9.69,20.11-9.69s-14.21,5.25-18.72,5.51c-3.8.22-16.23-3.16-16.23-3.16S303,552.63,307.31,552.54Zm43.89-18.47c17.21-4.64,76-8.24,76-8.24s-60.67-1.32-77.8,4.4c-5.74,1.92-19.28,13.16-19.28,13.16S345.54,535.6,351.2,534.08Z" transform="translate(-59.4 -15.77)"/><path id="SvgjsPath2764" class="cls-5" d="M539.52,552.21c-24.84-42-74.26-38.61-117.5-47.26-17.49-3.5-59-14.76-59.51-34.39C362,450,373.45,368.32,373.45,368.32H241.54S253,450,252.49,470.55c-0.47,19.63-42,30.89-59.52,34.39-18.12,3.63-51.32,6.59-67.44,11.73-15.7,5-34.74,9.63-50.06,35.54-9.29,15.71-15.32,41.14-15.32,69.19h494.7C554.85,593.34,548.83,567.91,539.52,552.21Z" transform="translate(-59.4 -15.77)"/></g><g id="svga-group-chinshadow-single"><path id="SvgjsPath4765" class="cls-6" d="M307.84,479.29c28.58,0,42.3-9.72,53.39-19.83,1.48-22.69,6.81-63.54,9.3-82-37.7-4.47-88.51-4.44-126,.08,2.48,18.32,7.71,58.48,9.25,81.25C265,469.14,278.64,479.29,307.84,479.29Z" transform="translate(-59.4 -15.77)"/></g><g id="svga-group-clothes-single"><path id="SvgjsPath4247" class="cls-7" d="M537.81,551.65C513.17,506,469.46,514,424,501.78c-3.44,4.17-34.9,44.54-42,66.13a103.42,103.42,0,0,1-12.25-11.42c-16.9-19-42-80.58-50.36-32.51,1.83-21.58,11.77-26.33,25.56-8.25,14.83,19.46,15.38,29.52,36.55,50.68,3.74-14.87,10.9-25.59,20.31-38.76,9.11-12.76,16.41-22.81,26.94-31.85-5.77-3.13-11.85-5.65-17.34-9.17-34.46-22.34-13.86-45-45.1-50.4-0.24,2.7-.55,5.72-0.81,8,6.68,3.29,8,16.12-2.31,25.51-16.35,17.19-37.91,18-44.76,44.44h0C316.26,522,314.51,534,313.69,541l-11.58,1c-4.71-41.37-10.87-45.42-31-58.2-13.34-8.47-31.85-21.25-24.73-35.71a7.93,7.93,0,0,1,3-3.47c-0.35-3.3-.56-5.22-0.83-8.29-31.15,5.9-10.29,29.59-45,50.68-5.25,3.18-10.39,5.35-16.68,8.71,12.44,10.84,41.59,47.19,47.33,70.68,21.36-21.61,21.53-31.06,36.45-50.61,12.85-16.82,23.35-15.1,25.55,7.67-1.21-6.84-4.09-17.31-10.31-17.31-5.13,0-10.48,7.25-13.12,10.75-14.81,19.55-17.19,33.54-39.15,51a97.16,97.16,0,0,0-5.43-12.86c-8.7-16.84-33.89-50-36.57-53.26-10.41,2.81-24.65,5.06-34.19,6.58-62.33,9.94-86.49,22.47-95.67,112.74,228.58-2.22,321.72-1.25,492-1.25C551.6,599.78,547.41,569.48,537.81,551.65Z" transform="translate(-59.4 -15.77)"/><path id="SvgjsPath4250" class="cls-8" d="M419.91,504.42c-6.28,6.82-11.75,14.37-18.09,23.24-8.14,11.39-14.58,21-18.6,32.95,4.62-24.74,20.19-47.12,39.36-64.16-20.16-3.67-29.78-21.83-34.55-40.27,3,8.93,6.84,19.73,23.39,30.45,5.49,3.52,11.58,6,17.34,9.17C428.38,496.13,419.91,504.42,419.91,504.42Zm107.22,43c14.49,18.11,21.25,41.36,25.78,65.19-2.34-19.61-6.59-45.19-15.1-61C513.17,506,469.46,514,424,501.78c-0.4.49-1.2,1.49-2.29,2.88C459.1,509.61,502.57,515.52,527.13,547.45ZM186.9,495.8c5.77-3.13,11.85-5.65,17.34-9.17,16.55-10.73,20.4-21.52,23.39-30.45-4.77,18.44-14.39,36.61-34.55,40.27,19.17,17,34.73,39.42,39.36,64.16-4-12-10.46-21.56-18.6-32.95-6.33-8.87-11.81-16.42-18.09-23.24C195.75,504.42,187.29,496.13,186.9,495.8Zm7,8.86c-1.09-1.39-1.88-2.39-2.29-2.88C146.2,514,102.49,506,77.85,551.65c-8.51,15.8-12.76,41.38-15.1,61,4.53-23.83,11.29-47.08,25.78-65.19C113.09,515.52,156.57,509.61,193.91,504.67Z" transform="translate(-59.4 -15.77)"/><path id="SvgjsPath4251" class="cls-9" d="M419.91,504.42c-6.28,6.82-11.75,14.37-18.09,23.24-8.14,11.39-14.58,21-18.6,32.95,4.62-24.74,20.19-47.12,39.36-64.16-20.16-3.67-29.78-21.83-34.55-40.27,3,8.93,6.84,19.73,23.39,30.45,5.49,3.52,11.58,6,17.34,9.17C428.38,496.13,419.91,504.42,419.91,504.42Zm107.22,43c14.49,18.11,21.25,41.36,25.78,65.19-2.34-19.61-6.59-45.19-15.1-61C513.17,506,469.46,514,424,501.78c-0.4.49-1.2,1.49-2.29,2.88C459.1,509.61,502.57,515.52,527.13,547.45ZM186.9,495.8c5.77-3.13,11.85-5.65,17.34-9.17,16.55-10.73,20.4-21.52,23.39-30.45-4.77,18.44-14.39,36.61-34.55,40.27,19.17,17,34.73,39.42,39.36,64.16-4-12-10.46-21.56-18.6-32.95-6.33-8.87-11.81-16.42-18.09-23.24C195.75,504.42,187.29,496.13,186.9,495.8Zm7,8.86c-1.09-1.39-1.88-2.39-2.29-2.88C146.2,514,102.49,506,77.85,551.65c-8.51,15.8-12.76,41.38-15.1,61,4.53-23.83,11.29-47.08,25.78-65.19C113.09,515.52,156.57,509.61,193.91,504.67Z" transform="translate(-59.4 -15.77)"/><path id="SvgjsPath4252" class="cls-10" d="M354.5,483.7c-11.44,6.35-21.12,12.59-27.55,21.37,2.5,0.72,9.07,2.46,12.16,6.06-10.21,8-16.4,15.33-25.28,29.61,1-8,1.42-14.19,3.07-20,0.48-2.33,1-4.55,1.54-6.51h0c6.85-26.4,28.41-27.25,44.76-44.44,10.28-9.39,9-22.22,2.31-25.51,0.26-2.27.57-5.3,0.81-8a46.34,46.34,0,0,1,4.66,1.05C392.05,455.05,368.88,477.54,354.5,483.7Zm-96.14,0c11.44,6.35,25.42,13.88,31.83,21.9-2.5.72-10.56,1.93-13.65,5.53,11.61,10.82,18.62,18.33,26.18,30.55a148.36,148.36,0,0,0-4-21c-0.48-2.33-1-4.55-1.54-6.51h0c-6.85-26.4-28.41-27.25-44.76-44.44-10.28-9.39-9-22.22-2.31-25.51-0.26-2.27-.57-5.3-0.81-8a46.34,46.34,0,0,0-4.66,1.05C227,458,245.45,476.19,258.36,483.7Z" transform="translate(-59.4 -15.77)"/><path id="SvgjsPath4253" class="cls-11" d="M368.67,450c1.45,5.92-.87,10.74-4.46,14.84,0-4.39.41-8.8,0.81-13.13,0.2-2.14.44-4.31,0.64-6.45A7.7,7.7,0,0,1,368.67,450ZM250,452.63c0.28,3.75.61,7.49,0.69,11.25-3.11-3.9-5-8.34-3.67-13.82a7.94,7.94,0,0,1,2.27-4.21C249.51,448.11,249.74,450.36,250,452.63Z" transform="translate(-59.4 -15.77)"/><path id="SvgjsPath4254" class="cls-12" d="M543.86,554.3c-22.54-51.62-75.75-45.39-118.47-53.68a65.41,65.41,0,0,1,4.43-4.84c-6.72-4.74-28.37-14.27-36.31-31.57-5.68-12.33-4.29-26.44-27.67-28.71-1.28,7.18-3.12,23-2.78,30.6-24.49,25.26-48.61,14-51.58,74.87l2,0a1.86,1.86,0,0,0,.58-0.55c7.25-59.55,25.6-45.48,49.33-70.45,10.63-9.76,8.79-22.69,2.4-25.83,0.28-2.52.54-5,.77-7.55,20.11,3.54,18.37,14.89,24.66,28.74,8.36,18.42,28.93,26.17,37.1,30.57-11.06,9.51-19.06,21-27.89,33.33-13.91,19.29-17.12,29.12-19.05,36.75-21.1-21.24-21.12-30.55-36.21-50.34-16.09-21.11-26.44-10-26.24,13.69,0.46-5.91,4-27.62,14.05-21.93,11.62,6.49,23,34,36.59,49.32a104.54,104.54,0,0,0,12.57,11.68c5.28-17.67,24.52-42.45,36.39-59,1.81-2.5,3.67-4.95,5.61-7.29,16.55,4.31,33.81,6.27,50.57,9.33,60.65,11.12,71.81,44.6,78.74,108.22-96.74.49-201.8-1.54-491.41,1.25,4.2-41.54,11.3-75.51,37-93.87,11-7.91,23.79-12,36.95-14.66,18.33-3.65,37.38-5.53,55.56-10.25,2.12,2.58,4.13,5.23,6.09,8,22.45,31.22,28.3,38.07,35.88,58.27C259,549.18,269.26,513.22,283.33,507c9.79-4.31,13,16.37,13.41,22.26,0.19-25.09-11.52-40-35.22-.56-11.67,19.43-14.77,24.7-27.18,37.2-5-20.27-31.52-56.75-47-70.12,9.62-5.17,27-11.32,36.31-28.81,6.14-12,3.41-26.25,24.71-30.32,0.23,2.62.51,5.23,0.79,7.85-5.83,3.67-6.84,16,2.47,24.66,8.39,9.2,19.76,14.46,29.76,21.8,11.78,8.72,16.44,17.64,20.2,48.83a6.94,6.94,0,0,0,1,2l1.64-.21c-1-21.63-4.08-40-16.75-50.55-10.94-9.35-26.28-15.31-35.55-25.76,0.28-7.83-1.8-23.7-2.8-29.68-21.19,2.07-21.36,14.94-25.86,26.21-6.8,17.05-24.48,26.15-37.36,33.94,0.85,0.85,2.88,3,4.44,4.87-17.82,3.49-36.29,4.49-54.16,7.62-26.67,4.67-51.84,18.16-63.32,43.83-8.72,19.49-11.24,47.44-11.88,68.82a3.07,3.07,0,0,0,0,.48c0.36,0,.74,0,1.1,0,306.82,3.13,490.18-1.3,492.74-1.3C554.72,617.56,553.6,576.59,543.86,554.3ZM364.21,464.84c0-6.61,1-14.26,1.45-19.58C369.42,447.83,371.64,456.36,364.21,464.84Zm-113.55-1c-6.24-7.82-4.23-15.41-1.4-18C249.85,451.13,250.55,458.53,250.66,463.87Z" transform="translate(-59.4 -15.77)"/></g><g id="svga-group-head"><g id="svga-group-faceshape-wrap"><g id="svga-group-faceshape-single"><path id="SvgjsPath4762" class="cls-2" d="M307.84,44.76c-85.73.13-155.35,69.42-155.21,154.78a154.22,154.22,0,0,0,5.11,39.22h0c0,0.14,29.43,96.82,35.75,128.58,3.52,17.71,25,33.67,44,46.7,17.77,12.16,26.85,34.65,70.33,34.65S360.4,426.19,378.17,414c19-13,40.5-29,44-46.7,6.32-31.76,35.72-128.44,35.75-128.58h0a154.22,154.22,0,0,0,5.11-39.22C463.19,114.18,393.56,44.89,307.84,44.76Z" transform="translate(-59.4 -15.77)"/><path id="SvgjsPath4763" class="cls-13" d="M427.1,100.53a157,157,0,0,1,30.34,93.4,159.84,159.84,0,0,1-4.92,39.22h0c0,0.14-28.37,96.82-34.46,128.58-3.4,17.71-24.15,33.67-42.5,46.7-17.13,12.16-25.81,34.65-67.72,34.65s-50.6-22.49-67.72-34.65c-18.35-13-39.1-29-42.5-46.7-6.1-31.76-34.44-128.44-34.46-128.58h0a159.72,159.72,0,0,1-4.92-39.22,156.94,156.94,0,0,1,30.32-93.37,154,154,0,0,0-30.82,138.21h0c0,0.14,29.44,96.82,35.76,128.58,3.52,17.71,25,33.67,44,46.7,17.77,12.16,26.85,34.65,70.33,34.65S360.4,426.19,378.17,414c19-13,40.5-29,44-46.7,6.32-31.76,35.72-128.44,35.75-128.58h0A154,154,0,0,0,427.1,100.53Z" transform="translate(-59.4 -15.77)"/><path id="SvgjsPath4764" class="cls-5" d="M307.84,44.76c-85.73.13-155.35,69.42-155.21,154.78a154.22,154.22,0,0,0,5.11,39.22h0c0,0.14,29.43,96.82,35.75,128.58,3.52,17.71,25,33.67,44,46.7,17.77,12.16,26.85,34.65,70.33,34.65S360.4,426.19,378.17,414c19-13,40.5-29,44-46.7,6.32-31.76,35.72-128.44,35.75-128.58h0a154.22,154.22,0,0,0,5.11-39.22C463.19,114.18,393.56,44.89,307.84,44.76Z" transform="translate(-59.4 -15.77)"/></g></g><g id="svga-group-mouth-single"><path id="SvgjsPath4458" class="cls-14" d="M307.49,402.32c-10.61,0-18.51-11-18.51-11,18.52,8.47,38,0,38,0S316.8,402.32,307.49,402.32Z" transform="translate(-59.4 -15.77)"/><path id="SvgjsPath4462" class="cls-15" d="M338.76,379c0,1.59-19.82,8.81-31.26,9.12C296.84,388.4,276,381.28,276,379s16.42-4,32.46-4S338.76,376.73,338.76,379Z" transform="translate(-59.4 -15.77)"/><path id="SvgjsPath4463" class="cls-16" d="M296.21,368.57c2.52-.33,7,2.32,12.3,2.32,3.93,0,8.74-2.72,11.76-2.32,6.45,0.87,9.84,4.8,26.75,6.3,0,0-8.21,2.76-10.39,2.93-6.94.55-18.4-.43-28.78-0.46-11.62-.05-22.8,1.1-29.83.77-2.53-.13-10-2.9-10-2.9C282.08,374.55,288.83,369.55,296.21,368.57ZM268,376.13s11.51,9,15.95,12.14c5.12,3.6,12.82,9.24,24.16,9.07,9.09-.15,16.93-4.63,21.62-7.61,5-3.21,17.33-13.93,17.33-13.93-7.06,1.61-7.06,1.61-10.39,2.93-7,2.76-19.07,6.94-28.49,6.94-11.64,0-22.79-4.18-30.12-6.64C272.93,377.33,268,376.13,268,376.13Z" transform="translate(-59.4 -15.77)"/><path id="SvgjsPath4464" class="cls-17" d="M347.59,375.51c-1.17,1.69-5.46,1.82-7.36,2.49-2.8,1-5.51,2.18-8.31,3.17-6.87,2.43-14.05,4.57-21.36,5-13.61.9-27-4.61-39.77-8.7-1.08-.35-2.53-0.45-3.47-1.14a1,1,0,0,1,.86-1.79c2.68,0.51,5.33,1.86,8,2.53,3.12,0.79,6.59.41,9.77,0.29,4.06-.15,8.12-0.37,12.18-0.53,7.46-.28,14.9-0.14,22.36.15,6.68,0.26,13.68,1,20.18-.85,1.75-.51,3.52-1,5.22-1.67,0.63-.24,2.57-0.29,1.69,1h0Zm-18.37,3.06c-8.71,0-17.4-.73-26.11-0.55-4.78.1-9.55,0.35-14.32,0.56-1.44.06-4.14-.36-5.38,0.52s3,2.06,3.38,2.17c8.43,2.65,17.41,4.54,26.28,3.43a77.59,77.59,0,0,0,12.81-2.88c1.63-.5,3.67-0.87,5.07-1.89s-1-1.35-1.71-1.35h0Z" transform="translate(-59.4 -15.77)"/><path id="SvgjsPath4465" class="cls-18" d="M307.58,394.79c-10.62,0-19-6.13-27.12-12.24,19.67,6.66,36.27,6.56,55.64-.88C327.91,388.35,318.58,394.69,307.58,394.79Zm-16.06-19.53c14.2-.67,28.31.58,42.48,0.12-4.71-1.16-9.24-3.64-14.06-4.29-3.7-.36-7.61,2.34-11.43,2.34-4.16,0-7.94-2.34-12-2.34-5.16.69-10,3.13-15,4.52q5-.08,10-0.35h0Z" transform="translate(-59.4 -15.77)"/><path id="SvgjsPath4466" class="cls-19" d="M295.42,389.43a64.83,64.83,0,0,0,12.72,1.34,56.35,56.35,0,0,0,11.72-1.44A29.52,29.52,0,0,1,308,392.24,30,30,0,0,1,295.42,389.43Z" transform="translate(-59.4 -15.77)"/></g><g id="svga-group-eyes-left"><g id="svga-group-eyesback-left"><path id="SvgjsPath5493" class="cls-20" d="M207.44,256.64c3.13-3,23.18-6.82,34.76-5.29,18.32,2.41,33.15,18.58,33.15,18.58S263,277.78,240.65,279C225.91,279.8,211.09,270.29,207.44,256.64Z" transform="translate(-59.4 -15.77)"/></g><g id="svga-group-eyesiriswrapper-left"><g id="svga-group-eyesiriscontrol-left"><g id="svga-group-eyesiris-left"><path id="SvgjsPath5551" class="cls-21" d="M263.21,265a21.67,21.67,0,1,1-21.67-21.68A21.67,21.67,0,0,1,263.21,265Z" transform="translate(-59.4 -15.77)"/><path id="SvgjsPath5552" class="cls-22" d="M228.93,275.17c3.16-.26.36-1.11,0.36-1.11-1.56-.84-4.51-2.14-4.51-3.33,0-3.73,5.11-4.69-.12-6.16-5.43-5,4.22-4.88,4.14-5-3.52-8.58,1.08-3.87,3-6.41,7.18-9.39,2,1,5.9,0,1.41-.35-2.82-5.53.12-4.8a3.24,3.24,0,0,1,2.39,2.09c1.42-.28,3.64-2.46,3.64-2.46,2.71,0.82,4.61,4.66,3.77,3.94a33.16,33.16,0,0,0,4.65-1.23s0.25-.86.5-0.12c3.32,9.61,11.86,8.92,2,11.7,0,0-.63,0,1.38,1.6,9.79,7.82-7.59,5.4,1.63,9,0.37-.37-5.53,3.49-5.53,4.56,0,1.81-3.77,6.57-7,4.69-1.82-1-2.1,2.17-3.17.69-2.1-2.9-6.29-.12-4.74-2.79,2.29-1.88-2.36.74-3.26,0.74-3,0,3.91-10.05,14.07-2.58,3,2.18-3.12-5.18,2.26-5.18,0.54,0.18.38-1.88,0.38-2.46-2.8-.55,5,0,5-4.56,0.49,0.1,1.84-1.26-5.91,0a23.55,23.55,0,0,1-.12-3.2c0.4-1.58,4.39-1.08,3.26-2.71l-2.89-5.79c-9.29-1.49-4-2.43-9.79-1.23-0.28,1.36-12.45,7.17-12.06,9.86,0.36,2.54,7.64,3.39.75,7.88C239.38,290.51,221.43,270.29,228.93,275.17Z" transform="translate(-59.4 -15.77)"/><path id="SvgjsPath5553" class="cls-23" d="M241.53,246.07l0.62,15.87,6.64-14.42-5.5,14.89,11.66-10.78-10.78,11.65,14.9-5.5-14.42,6.64L260.5,265l-15.87.62,14.42,6.64-14.9-5.5,10.78,11.65-11.66-10.78,5.5,14.89-6.64-14.42L241.53,284l-0.62-15.87-6.64,14.42,5.5-14.89-11.65,10.78,10.78-11.65-14.9,5.5,14.42-6.64L222.56,265l15.86-.62L224,257.78l14.9,5.5-10.78-11.65,11.65,10.78-5.5-14.89,6.64,14.42Z" transform="translate(-59.4 -15.77)"/><path id="SvgjsPath5554" class="cls-24" d="M244.41,250.83l-1.95,12,7.16-9.79-6.38,10.32L253.61,257l-9.84,7.1,12-1.86L243.95,265l11.8,2.87-12-1.94,9.8,7.16-10.33-6.37,6.31,10.36-7.1-9.84,1.86,12-2.78-11.81-2.87,11.79,1.95-12-7.17,9.79,6.39-10.32L229.45,273l9.84-7.1-12,1.86L239.12,265l-11.79-2.87,12,1.94-9.8-7.16,10.33,6.37-6.31-10.36,7.09,9.84-1.86-12,2.79,11.81Z" transform="translate(-59.4 -15.77)"/><path id="SvgjsPath5555" class="cls-25" d="M249.66,265a8.13,8.13,0,1,1-8.13-8.13A8.13,8.13,0,0,1,249.66,265Z" transform="translate(-59.4 -15.77)"/><path id="SvgjsPath5556" class="cls-26" d="M233,280.61c-1.2,1.2-3.56.78-5.28-.94s-2.14-4.08-.94-5.28,3.56-.78,5.28.94S234.2,279.41,233,280.61Z" transform="translate(-59.4 -15.77)"/><path id="SvgjsPath5557" class="cls-27" d="M258.89,260.77c-1.79,1.79-6.13.36-9.69-3.2s-5-7.9-3.2-9.69,6.13-.36,9.69,3.2S260.68,259,258.89,260.77Z" transform="translate(-59.4 -15.77)"/></g></g></g><g id="svga-group-eyesfront-left"><path id="SvgjsPath5518" class="cls-2" d="M193.93,266.95c0,35.21,20.55,63.75,45.9,63.75s45.9-28.54,45.9-63.75-20.55-63.75-45.9-63.75S193.93,231.73,193.93,266.95Zm13.51-10.31c3.13-3,23.18-6.82,34.76-5.29,18.32,2.41,33.15,18.58,33.15,18.58S263,277.78,240.65,279C225.91,279.8,211.09,270.29,207.44,256.64Z" transform="translate(-59.4 -15.77)"/><path id="SvgjsPath5519" class="cls-28" d="M242,288.86c24,5.67,47.05-4.11,51.49-21.84s-11.42-36.71-35.42-42.39-47.06,4.1-51.5,21.84S218,283.18,242,288.86Zm-34.55-32.22c3.13-3,23.18-6.82,34.76-5.29,18.32,2.41,33.15,18.58,33.15,18.58S263,277.78,240.65,279C225.91,279.8,211.09,270.29,207.44,256.64Z" transform="translate(-59.4 -15.77)"/><path id="SvgjsPath5524" class="cls-29" d="M207.44,256.64c3.13-3,23.18-6.82,34.76-5.29,18.32,2.41,33.15,18.58,33.15,18.58S263,277.78,240.65,279C225.91,279.8,211.09,270.29,207.44,256.64Z" transform="translate(-59.4 -15.77)"/><path id="SvgjsPath5528" class="cls-30" d="M275.79,255.87C259.21,245,265.45,248,234.4,238.78c8.53,1.27,24.41,5.27,29.85,8.47A99.17,99.17,0,0,1,275.79,255.87Z" transform="translate(-59.4 -15.77)"/><path id="SvgjsPath5529" d="M193.95,254.14s5.31,3.33,9.47,3.33c0.33,2,5.71,10.86,15,16.18,14,8,30.34,5.56,45.94,1.64,7.64-1.9,7.17-3.88,19.82-5.28-9.94-4-8.89-6.37-22.67-13.83,6.29,1.2,14.75,5.9,14.75,5.9-3.15-3.7-25.29-17.33-60.76-19.15,0,0,11.85,2.77,16.32,4.51-20.53,2.8-26.12-.29-27.21-1.11a19.5,19.5,0,0,0,7.66,4.72c-4.79.36-13.55-2.21-13.55-2.21a49.7,49.7,0,0,0,6.7,5C201.56,255.71,193.95,254.14,193.95,254.14Zm13.49,2.79c3.13-2.9,23.18-6.58,34.76-5.1,18.32,2.33,33.15,17.92,33.15,17.92s-12.33,7.58-34.71,8.76C225.91,279.28,211.09,270.1,207.44,256.94Z" transform="translate(-59.4 -15.77)"/></g></g><g id="svga-group-eyes-right"><g id="svga-group-eyesback-right"><path id="SvgjsPath5501" class="cls-31" d="M408.22,256.64c-3.13-3-23.18-6.82-34.76-5.29-18.32,2.41-33.15,18.58-33.15,18.58S352.64,277.78,375,279C389.76,279.8,404.58,270.29,408.22,256.64Z" transform="translate(-59.4 -15.77)"/></g><g id="svga-group-eyesiriswrapper-right"><g id="svga-group-eyesiriscontrol-right"><g id="svga-group-eyesiris-right"><path id="SvgjsPath5558" class="cls-21" d="M395.81,265a21.67,21.67,0,1,1-21.67-21.68A21.68,21.68,0,0,1,395.81,265Z" transform="translate(-59.4 -15.77)"/><path id="SvgjsPath5559" class="cls-22" d="M361.53,275.17c3.16-.26.36-1.11,0.36-1.11-1.56-.84-4.51-2.14-4.51-3.33,0-3.73,5.11-4.69-.12-6.16-5.43-5,4.21-4.88,4.14-5.05-3.52-8.58,1.08-3.87,3-6.41,7.18-9.39,2,1,5.9,0,1.42-.35-2.82-5.53.12-4.8a3.25,3.25,0,0,1,2.39,2.09c1.42-.28,3.64-2.46,3.64-2.46,2.71,0.82,4.61,4.66,3.77,3.94a33.13,33.13,0,0,0,4.64-1.23s0.26-.86.5-0.12c3.32,9.61,11.86,8.92,2,11.7,0,0-.63,0,1.38,1.6,9.79,7.82-7.59,5.4,1.63,9,0.38-.37-5.53,3.49-5.53,4.55,0,1.81-3.77,6.57-7,4.7-1.82-1-2.1,2.17-3.17.69-2.1-2.9-6.29-.12-4.74-2.79,2.29-1.88-2.36.73-3.26,0.73-3,0,3.91-10.05,14.07-2.58,3,2.18-3.12-5.17,2.26-5.17,0.54,0.18.38-1.88,0.38-2.47-2.8-.55,5,0,5-4.56,0.49,0.1,1.84-1.26-5.91,0a23.58,23.58,0,0,1-.12-3.2c0.4-1.58,4.39-1.08,3.26-2.71l-2.89-5.79c-9.29-1.5-4-2.43-9.79-1.23-0.28,1.36-12.45,7.17-12.06,9.86,0.36,2.53,7.64,3.39.75,7.88C372,290.51,354,270.29,361.53,275.17Z" transform="translate(-59.4 -15.77)"/><path id="SvgjsPath5560" class="cls-23" d="M374.13,246.07l0.62,15.87,6.64-14.42-5.5,14.89,11.66-10.78-10.78,11.65,14.9-5.5-14.42,6.64L393.1,265l-15.87.62,14.42,6.64-14.9-5.5,10.78,11.65-11.66-10.78,5.5,14.89-6.64-14.42L374.13,284l-0.62-15.87-6.64,14.42,5.5-14.89-11.65,10.78,10.78-11.65-14.9,5.5L371,265.65,355.16,265l15.86-.62-14.42-6.64,14.9,5.5-10.78-11.65,11.65,10.78-5.5-14.89,6.64,14.42Z" transform="translate(-59.4 -15.77)"/><path id="SvgjsPath5561" class="cls-24" d="M377,250.83l-1.95,12,7.16-9.79-6.38,10.32L386.21,257l-9.84,7.09,12-1.86L376.54,265l11.8,2.87-12-1.94,9.8,7.16-10.33-6.37,6.31,10.36-7.1-9.84,1.86,12-2.78-11.81-2.87,11.79,1.95-12L366,277.06l6.39-10.32L362.05,273,371.9,266l-12,1.86L371.71,265l-11.79-2.87,12,1.94-9.8-7.16,10.33,6.38L366.11,253l7.09,9.84-1.86-12,2.79,11.81Z" transform="translate(-59.4 -15.77)"/><path id="SvgjsPath5562" class="cls-25" d="M382.26,265a8.13,8.13,0,1,1-8.13-8.13A8.13,8.13,0,0,1,382.26,265Z" transform="translate(-59.4 -15.77)"/><path id="SvgjsPath5563" class="cls-26" d="M365.6,280.61c-1.2,1.2-3.56.78-5.28-.94s-2.14-4.08-.94-5.28,3.56-.78,5.27.94S366.79,279.41,365.6,280.61Z" transform="translate(-59.4 -15.77)"/><path id="SvgjsPath5564" class="cls-27" d="M391.49,260.77c-1.79,1.79-6.13.36-9.69-3.2s-5-7.9-3.2-9.69,6.13-.36,9.69,3.2S393.29,259,391.49,260.77Z" transform="translate(-59.4 -15.77)"/></g></g></g><g id="svga-group-eyesfront-right"><path id="SvgjsPath5539" class="cls-2" d="M375.83,203.19c-25.35,0-45.9,28.54-45.9,63.75s20.55,63.75,45.9,63.75,45.9-28.54,45.9-63.75S401.18,203.19,375.83,203.19ZM375,279c-22.37-1.21-34.71-9.08-34.71-9.08s14.83-16.16,33.15-18.58c11.58-1.53,31.63,2.28,34.76,5.29C404.58,270.29,389.76,279.8,375,279Z" transform="translate(-59.4 -15.77)"/><path id="SvgjsPath5540" class="cls-32" d="M409.09,246.47c-4.44-17.74-27.49-27.51-51.5-21.84S317.74,249.28,322.17,267s27.49,27.51,51.49,21.84S413.53,264.21,409.09,246.47ZM375,279c-22.37-1.21-34.71-9.08-34.71-9.08s14.83-16.16,33.15-18.58c11.58-1.53,31.63,2.28,34.76,5.29C404.58,270.29,389.76,279.8,375,279Z" transform="translate(-59.4 -15.77)"/><path id="SvgjsPath5545" class="cls-33" d="M408.22,256.64c-3.13-3-23.18-6.82-34.76-5.29-18.32,2.41-33.15,18.58-33.15,18.58S352.64,277.78,375,279C389.76,279.8,404.58,270.29,408.22,256.64Z" transform="translate(-59.4 -15.77)"/><path id="SvgjsPath5549" class="cls-30" d="M339.88,255.87c16.58-10.84,10.34-7.88,41.39-17.09-8.53,1.27-24.41,5.27-29.85,8.47A99.17,99.17,0,0,0,339.88,255.87Z" transform="translate(-59.4 -15.77)"/><path id="SvgjsPath5550" d="M410.26,253.87a49.7,49.7,0,0,0,6.7-5s-8.76,2.57-13.55,2.21a19.55,19.55,0,0,0,7.66-4.72c-1.09.82-6.68,3.9-27.21,1.11,4.46-1.74,16.32-4.51,16.32-4.51-35.47,1.82-57.6,15.44-60.76,19.15,0,0,8.45-4.7,14.75-5.9C340.4,263.65,341.45,266,331.51,270c12.66,1.41,12.18,3.38,19.82,5.28,15.6,3.92,31.93,6.4,45.94-1.64,9.26-5.32,14.65-14.23,15-16.18,4.15,0,9.47-3.33,9.47-3.33S414.11,255.71,410.26,253.87ZM375,278.51c-22.37-1.17-34.71-8.76-34.71-8.76s14.83-15.59,33.15-17.92c11.58-1.48,31.63,2.2,34.76,5.1C404.58,270.1,389.76,279.28,375,278.51Z" transform="translate(-59.4 -15.77)"/></g></g><g id="svga-group-facehighlight-single"><path id="SvgjsPath2753" class="cls-34" d="M410.35,330.72A102.85,102.85,0,1,1,307.34,228,102.85,102.85,0,0,1,410.35,330.72Z" transform="translate(-59.4 -15.77)"/><path id="SvgjsPath2757" class="cls-35" d="M397.08,185.34a89.25,89.25,0,1,1-89.25-89.25A89.25,89.25,0,0,1,397.08,185.34Z" transform="translate(-59.4 -15.77)"/></g><g id="svga-group-eyebrows-left"><path id="SvgjsPath5479" class="cls-36" d="M190.53,229.18c25.38-25.43,42.74-12,78-5.26,2.15,0.41,16.12.86,13.54,5.78-1.23,2.36-5.19,2.08-7.4,2C239.77,231.08,222.79,206.25,190.53,229.18Z" transform="translate(-59.4 -15.77)"/></g><g id="svga-group-eyebrows-right"><path id="SvgjsPath5480" class="cls-36" d="M421.35,230c-30.78-23.19-48.8.09-80.9,1-10.39.3-9.72-5.36-5.3-6.25,5.14-1,6.54.08,21.55-3.52C385.62,214.22,400.51,207.86,421.35,230Z" transform="translate(-59.4 -15.77)"/></g><g id="svga-group-nose-single"><path id="SvgjsPath4384" class="cls-4" d="M305.39,275.71s-2.11,48.62-1.82,59.3c0.08,3,5.92,11,5.52,16.77,0,0-11.38-.83-15.08-2.14-3.87-1.37-9.87-4-7.5-11.53C289.89,327.47,305.39,275.71,305.39,275.71Z" transform="translate(-59.4 -15.77)"/><path id="SvgjsPath4385" class="cls-30" d="M304.33,346.06s-4.72-1.68-7.7-1.59c-2.71.08-3.11-1.72-2.83-2.75s1.21-1.67,3.83-1S304.33,346.06,304.33,346.06Zm7,0a33.39,33.39,0,0,1,7.7-1.59c2.71,0,3.11-1.73,2.83-2.75s-1.21-1.68-3.83-1S311.36,346.07,311.36,346.07Z" transform="translate(-59.4 -15.77)"/></g><g id="svga-group-hair-front"><path id="SvgjsPath4562" class="cls-1" d="M398.24,390.83c10.39-24,18.52-56,24.17-95.06,0.17-1.15.3-2.06,0.4-2.71,2.53-16.55,0-40.45-11.45-53.82l-0.53-.62,2.71-.74q-2.06.47-4.26,0.93a137.09,137.09,0,0,1-27.73,3.12c-22.43,0-39.82-7.21-51.67-21.44-7.35-8.83-11.93-29-16.78-50.32-6.49-28.54-13.2-58.06-27.19-66.44a21.18,21.18,0,0,0-10.47-3,12.31,12.31,0,0,0-7.55,2.33c-8.94,6.7-7.78,26.22-5.92,36.17-17-10.69-28.67-9.3-36-4.61-13.84,8.82-20.83,30.2-23,55-1.65,18.73-3.52,40-10.8,60-9.23,25.36,1.95,4.68,1.95,4.68l0.29,1.46c5.73,29.49,8.16,53,6.48,73.66-1.84,22.6-2.52,40.45,7.42,56.34l0.6,1-1.09-.18c-20.12-3.35-63.07-23.44-67.36-64.2L140.27,321l0.93,0.8c0.8,0.69,6.11,4.42,10.4,7.41-21-20.4-33.08-40.64-33.08-77.12l0.92-.23a70,70,0,0,0,4.47,7.6c-9.14-20.67-9.71-48-6.32-60.24l0.32-1.13,0.57,1c2.44,4.32,5.59,9.91,9.5,14.4-17.81-30.34-11.46-61,2.54-77.31l0.76-.88,0.09,1.18c0.35,4.56.8,10.33,2.68,15.13-4-15.72-1.91-52.14,30.77-76.47l1.26-.94-0.53,1.53a42.45,42.45,0,0,0-2.43,10.09c9-20.68,24.29-30.07,44.38-36.89l1.16-.39-0.57,1.12c-1.39,2.71-5.07,9.88-3.82,14.2a10,10,0,0,1,.41-2.55c2.89-10.4,21.05-29.49,42-29.49h0.89l-0.47.79a21.37,21.37,0,0,0-1.55,3.06c6-8.78,17.5-14.82,29.12-14.82a27.37,27.37,0,0,1,17.17,5.6l0.58,0.46-0.62.39a104.39,104.39,0,0,0-10.7,7.79c15-9.84,26.28-16.1,41.46-16.1,8.82,0,18.68,2.1,31,6.61C390.42,39,416.18,45.73,425.42,79c-1.42-4.54-2.57-4.78-5.79-11.19l-0.55-1.08,1.12,0.36c41.34,13.32,42.13,34.52,42.7,53.72,0,1.44.08,2.84,0.14,4.21,0.14-1.89.31-3.78,0.48-5.63,0.32-3.55.65-7.23,0.74-10.85l0-.9L465,108.1c6,4,26.3,32.17,31.62,63.76,3.59,21.24.49,33.05-2.5,44.48-0.63,2.39-1.26,4.82-1.84,7.35,0.72-2.41,1.46-4.77,2.24-7.08l0.37-1.12,0.52,1.06c22.36,45.72,4.18,65.64-10.43,81.65-1.51,1.65-3,3.27-4.37,4.86,3.43-3.35,6.82-6.48,9.86-9.27l0.78-.71,0,1.08c0.57,20.17-12.77,30.4-24.54,39.43-5.3,4.06-10.36,7.95-13.58,12.37a100,100,0,0,1,14.42-10.32l1-.62-0.31,1.19c-4.73,18.63-25.23,30.25-59.2,49.49l-11.5,6.54Z" transform="translate(-59.4 -15.77)"/><path id="SvgjsPath4563" class="cls-37" d="M411.35,239.25c-46.39,9.37-75.73,3.93-93-33.64-9.63-76.66-21-100.41-42.91-104.91C341.45,107.76,293,246.26,411.35,239.25Zm0,0c23.75,36.19-2.36,126.63-13.71,153C433.33,325.35,459.82,250.08,411.35,239.25Zm-164.72-110c-28-10.2-43.35,15.3-48.45,38.25-5.56,33.35-1,79.22-43.35,132.6,31.1-26.76,42.78-36.43,51.23-110.94,2.8-24.7,6-45.75,19.86-54.57,6.41-4.09,16.1-5.66,29.71,1.06C253.11,131.39,248.28,129.25,246.63,129.25ZM202,327.47c1.56-19.25,0-43.21-8.15-71.67-2,47.88-21.75,79,11.85,127.45l1.44,0.56C198.45,368.39,200.26,349.18,202,327.47Z" transform="translate(-59.4 -15.77)"/><path id="SvgjsPath4564" class="cls-38" d="M423.41,191.19l0.33,0c-58.32-.6-78.27-25.05-88.69-57.92-19.48-61.51-75.72-61.73-84.51-22,7.76-46.6,73.7-37.57,90.91,20.08C353.87,173,384.81,189.43,423.41,191.19ZM417.75,84.71C376.46,21,245.44,51.53,240.9,103.73,242.38,46.23,374.73,13.85,417.75,84.71ZM249,124c-2.69-4.83-11.69-16.74-29.69-11.3-76.54,23.12-44.75,130.25-84.88,174.55,29.26-37.46.82-151.31,82.95-176.09C229.79,107.4,243.65,111.87,249,124Zm0-24.63c6.48-27.82,41.54-41.09,68-38.19,32,3.51,40.79,37.28,54.06,53.34,20.54,24.87,44.47,26.78,70.46,22.89-4.75.71-38,13.33-69.63-15.16-23.31-21-22.57-47.23-53.94-56.2C300.77,61.15,258.26,68.75,249,99.37ZM448.58,274.28a30.17,30.17,0,0,1,2.93-2.52c31.18-28.39,22.66-82.59,4.57-95.78C471.71,191.51,476.22,241.33,448.58,274.28Zm15.05,24.86c-10.06,11.48-25.33,32.83-24.7,35.38-0.75-3.1,23.83-26.69,26.07-29.64,12.2-16.14,17.85-31.72,12.74-47C480.06,272.59,478.92,281.7,463.63,299.14ZM194,83.93c-37.43,8.42-30.87,59.13-31.48,61.68,0.61-2.55.83-52.61,39-58.14h-0.16c12.87-.55,28,0.28,38,9.45C229,84.65,204.15,81.65,194,83.93ZM244,48.46c3.48-4.58,10.18-11.36,19.26-11.3-7.72,0-16.07-.13-23.61,9.5-4.47,5.71-9.67,20.6-6.31,28C232.33,65.69,239.95,53.76,244,48.46ZM215.7,158.94c6.44-32.09,25.4-30.71,43.87-20.66C239.29,137.74,221.88,148.32,215.7,158.94ZM262,138.1c-4.67-41.89,21.51-52.75,36.6-8.6C286.94,127.4,270.53,129.41,262,138.1Z" transform="translate(-59.4 -15.77)"/><path id="SvgjsPath4565" class="cls-39" d="M163.11,267.95c15.84-30.26,9.2-82.5,24.86-106.43C175,195.85,179.2,233.07,163.11,267.95Zm28,103.87c-18.29-18.43-26.64-41.48-24.34-67.38C157.52,332.94,169.83,353.29,191.12,371.82ZM135,163.24c-11.51,20-4.2,32.26,7.07,51.26C133.29,202.29,124.5,177.21,135,163.24ZM138.44,260c-7-9.82-13.53-21.86-13.45-34.58C129.08,237.74,126.18,251.12,138.44,260Zm18.18-96.2c-8.65-22.45-3.85-49.8,5.77-71.2C147,114.67,144.08,140.28,156.62,163.85Zm196-133.64c-45.19-5.27-86.71,2.1-112.3,45.71C265.19,41,311,25.09,352.61,30.21Zm85.07,85.5C387.38,114.36,377.83,55.5,329.16,57,377.68,58.2,382.73,117.41,437.68,115.71Zm30.53,152.36c14.28-40.77,26.73-76.83,1.06-117.75C490.75,192.83,481.65,226.12,468.21,268.07Zm-21.39,69.12c-8.74,18.83-21.2,25.21-35.13,39.62C429.21,369.41,442.39,356,446.82,337.19Zm1.55-175.1c-36.55,1.41-69.09-8.72-89.55-39.71C376.46,158.88,411,165.91,448.37,162.09Z" transform="translate(-59.4 -15.77)"/><path id="SvgjsPath4566" class="cls-40" d="M510.49,253.7a0.63,0.63,0,0,0,0-.36c0-.17,0-0.27-0.05-0.32-1.74-11.68-4.53-20.74-12.2-34.14-0.77-1.34-2.73-3.49-2.25-5,2.1-6.34,11.31-29.92,1.93-58.94-4.2-12.94-21.44-41.16-32.5-48.22C462,76.44,449.22,71.54,419.2,65.36q0.65,1.12,1.25,2.31c49.82,16.24,39.72,46.16,42.8,65-0.06-8.05,1.31-16.09,1.53-24.14,5.72,3.8,26,31.38,31.38,63.41,5.26,31.12-3.8,41.46-6.1,61.72,1.45-5.73,3.06-11.3,5-16.9,27.73,56.73-7.58,73.67-19.71,92.39,5-5.23,10.17-10.12,15.51-15,0.89,31.13-31.94,38.35-39.95,54.61a90,90,0,0,1,17-12.72c-5.13,20.21-29.15,32.14-69.19,55,17-39.41,23.34-89.75,24.59-97.89,2.28-14.93.77-39.85-11.56-54.25a233.59,233.59,0,0,0,22.36-6.79c-6.08,0-71,27.5-103.84-11.95-17.42-20.91-19.23-102-44.09-116.85-5.38-3.22-13.18-4.7-18.56-.69-8.05,6-8.5,21.59-6.87,32.45,0,1.55.16,3.06,0.16,3.06s-2.55-1.67-3.52-2.23c-9.75-5.19-21.83-8.05-31.69-1.76-24.5,15.64-17,68.45-34,115.21-15.53,42.72-31.57,36.71-44.08,61,15.3-23.7,28.74-17.42,46.3-54.53,12.11,62.32-5,99.81,14,130.17-17.34-2.87-62.48-21.39-67-63.74,1.38,1.17,15.68,11.1,16,11.31-24.85-22.74-37.9-42.9-37.9-81.41a83.62,83.62,0,0,0,8.2,12.83,5.76,5.76,0,0,0-.78-1.37c-10.86-20.44-12.11-50.8-8.38-64.2,3.41,6,7.42,13,12.7,17.68-20.91-31.86-13.73-64.41.12-80.5,0.53,6.6,1.21,15.34,5.84,20.61-5.38-8.39-10.15-52.89,28.38-81.59-1.29,3.76-2.79,8.68-2.45,12.71,9.38-23.22,25.92-32.35,45-38.85-2.09,4.07-7.59,15-1,17.83-8.57-3.77,13.56-34.91,40.08-34.91a23,23,0,0,0-2.86,7.41c7.45-16.52,33-24.5,47.72-12.88a126.51,126.51,0,0,0-16.86,13C307.5,18.92,330.77,19,363,30c19.39,6.62,43.63,14,63.06,50.44-5.56-27.85-41.32-49.17-60.37-55.59C314,7.39,293,25,293,25c-15.83-17.89-36.76-6.46-45.13,5.51-38.39-.92-35.43,16-39.61,16.8-37.2,7-37.38,21.38-43.4,24.67-28,15.31-35,34.85-34.18,61.69-31.72,31.49-13.75,58.93-15,61.79-12.93,29.16,1.18,48.05.61,52-7.85,53.31,22.35,69,22.36,73.6,0.11,57.61,60.89,68.12,73.53,67.09C193.68,351.49,215,327.54,195,253.31c10.58-24,16.29-54.29,18.65-78.7,2.63-27.13,37.2-36.23,48.29-35.41,11.2-8.3,22.85-8.11,37.69-6.57C308,158.81,312,193,313.83,200.22c10.68,42,52.73,50.4,95.44,39.33,2.66-.69,13.26,16.79,10.35,44.88-0.37,3.59-14.23,83.06-24.5,111.29,23.87-11.38,67-25.42,75.65-61.48,17.82-12.21,26.15-19,22.58-41.36C493.34,292.88,511.6,277.42,510.49,253.7Z" transform="translate(-59.4 -15.77)"/></g><g id="svga-group-glasses-single"><path id="SvgjsPath5491" class="cls-41" d="M307.83,88.78h0Z" transform="translate(-59.4 -15.77)"/></g></g></g></svg>