<svg id="Layer_1" data-name="Layer 1" xmlns="http://www.w3.org/2000/svg" xmlns:xlink="http://www.w3.org/1999/xlink" viewBox="0 0 504 624.11"><defs><style>.cls-1,.cls-30{fill:#56342e;}.cls-2{fill:#f3d4cf;}.cls-3{fill:#fff4f3;}.cls-4{fill:#e4b3ab;}.cls-5{fill:none;stroke:#c5796d;stroke-width:1.5px;}.cls-6{fill:url(#linear-gradient);}.cls-7{fill:#ebc3bd;}.cls-8{fill:url(#linear-gradient-2);}.cls-9{fill:#f771a9;stroke:#e85391;stroke-width:0.75px;}.cls-10{fill:#c92066;}.cls-11{fill:#ff8ebd;}.cls-12{fill:#ffa8cc;}.cls-13{fill:url(#radial-gradient);}.cls-14,.cls-16,.cls-17{fill:#808672;stroke-width:0.5px;}.cls-14{stroke:#4c5831;}.cls-15{fill:#93958e;}.cls-16{stroke:#6e7759;}.cls-17{stroke:#5d6743;}.cls-18,.cls-20{opacity:0.9;}.cls-18,.cls-19,.cls-20,.cls-30,.cls-35,.cls-36{isolation:isolate;}.cls-19,.cls-20,.cls-35,.cls-36{fill:#fff;}.cls-19{opacity:0.7;}.cls-21{fill:url(#radial-gradient-2);}.cls-22{fill:url(#radial-gradient-3);}.cls-23{fill:#c5796d;}.cls-24{fill:url(#radial-gradient-4);}.cls-25{fill:url(#radial-gradient-5);}.cls-26{fill:url(#radial-gradient-6);}.cls-27{fill:url(#radial-gradient-7);}.cls-28{fill:url(#radial-gradient-8);}.cls-29{fill:#2a232b;}.cls-30{opacity:0.1;}.cls-31{fill:#47251f;}.cls-32{fill:#371813;}.cls-33{fill:#654640;}.cls-34{fill:#280e09;}.cls-35{opacity:0.2;}.cls-36{opacity:0.4;}.cls-37{fill:#26120b;}.cls-38{fill:#351d15;}.cls-39{fill:#545465;}.cls-40{fill:#e4ebf0;}</style><linearGradient id="linear-gradient" x1="64.13" y1="645.79" x2="64.13" y2="679.66" gradientTransform="matrix(2.55, 0, 0, -2.55, 136.19, 2110.93)" gradientUnits="userSpaceOnUse"><stop offset="0" stop-color="#e4b3ab" stop-opacity="0.8"/><stop offset="0.7" stop-color="#c5796d"/></linearGradient><linearGradient id="linear-gradient-2" x1="64.13" y1="675.15" x2="64.13" y2="678.06" gradientTransform="matrix(2.55, 0, 0, -2.55, 136.19, 2110.93)" gradientUnits="userSpaceOnUse"><stop offset="0.1" stop-color="#ebc3bd"/><stop offset="1" stop-color="#e4b3ab"/></linearGradient><radialGradient id="radial-gradient" cx="43.85" cy="730.21" r="12.97" gradientTransform="translate(349.24 2148.45) rotate(180) scale(2.59)" gradientUnits="userSpaceOnUse"><stop offset="0" stop-color="#fff"/><stop offset="0.54" stop-color="#fdfefe"/><stop offset="0.74" stop-color="#f6f8f9"/><stop offset="0.88" stop-color="#eaeff2"/><stop offset="0.99" stop-color="#d9e3e8"/><stop offset="1" stop-color="#d8e2e7"/></radialGradient><radialGradient id="radial-gradient-2" cx="89.45" cy="1012.54" fx="100.94946609471808" r="16.36" gradientTransform="matrix(2.55, 0.05, -0.04, 2.04, 60.64, -1816.67)" gradientUnits="userSpaceOnUse"><stop offset="0" stop-color="#e4b3ab"/><stop offset="0.7" stop-color="#e4b3ab" stop-opacity="0.3"/><stop offset="1" stop-color="#f3d4cf" stop-opacity="0"/></radialGradient><radialGradient id="radial-gradient-3" cx="30.61" cy="715.3" r="21.43" gradientTransform="matrix(2.67, -0.14, -0.14, -2.65, 251.74, 2198.5)" gradientUnits="userSpaceOnUse"><stop offset="0.95" stop-opacity="0"/><stop offset="1" stop-opacity="0.3"/></radialGradient><radialGradient id="radial-gradient-4" cx="89.57" cy="730.21" r="12.97" gradientTransform="matrix(2.59, 0, 0, -2.59, 132.23, 2148.45)" xlink:href="#radial-gradient"/><radialGradient id="radial-gradient-5" cx="42.95" cy="1013.75" fx="54.44982428829863" r="16.36" gradientTransform="matrix(-2.55, 0.05, 0.04, 2.04, 420.83, -1816.67)" xlink:href="#radial-gradient-2"/><radialGradient id="radial-gradient-6" cx="-13.75" cy="717.62" r="21.43" gradientTransform="matrix(-2.67, -0.14, 0.14, -2.65, 229.73, 2198.5)" xlink:href="#radial-gradient-3"/><radialGradient id="radial-gradient-7" cx="64.26" cy="702.24" r="38.83" gradientTransform="matrix(2.55, 0, 0, -2.55, 136.19, 2110.93)" gradientUnits="userSpaceOnUse"><stop offset="0" stop-color="#fff4f3" stop-opacity="0.5"/><stop offset="0.9" stop-color="#f3d4cf" stop-opacity="0"/></radialGradient><radialGradient id="radial-gradient-8" cx="64.26" cy="756.62" r="34.92" xlink:href="#radial-gradient-7"/></defs><title>avatar 7</title><g id="svga-group-hair-back"><path id="SvgjsPath6416" class="cls-1" d="M301.28,289.13H298.8v-2.47h2.47v2.47Z" transform="translate(-47.59 -23)"/></g><g id="svga-group-humanbody-single"><path id="SvgjsPath2761" class="cls-2" d="M524.75,534.89c-14.86-25.12-33.32-29.61-48.55-34.47-15.64-5-47.85-7.86-65.42-11.38-17-3.4-57.26-14.32-57.72-33.36-0.47-19.95,10.61-99.15,10.61-99.15H235.75s11.1,79.2,10.62,99.15c-0.46,19-40.76,30-57.73,33.36-17.57,3.52-49.77,6.39-65.41,11.38-15.23,4.86-33.7,9.34-48.56,34.47-9,15.24-14.86,39.9-14.86,67.11H539.62C539.62,574.79,533.78,550.13,524.75,534.89Z" transform="translate(-47.59 -23)"/><path id="SvgjsPath2762" class="cls-3" d="M353.07,455.69c6.17,27,44.93,33.88,65,37.9,54.19,10.83,83.53,12.7,104.61,48.33,7.18,12.16,13.5,39.24,14.75,59.74,4.54,0.72,1.31-43.11-12.7-66.76-24.09-40.74-71.94-37.43-114-45.84-17-3.4-57.26-14.32-57.72-33.36h0Zm-106.06,0c-0.46,19-40.76,30-57.72,33.36-42,8.41-89.87,5.1-114,45.84-14,23.65-17.24,67.48-12.7,66.76,1.24-20.5,7.57-47.58,14.75-59.74,21.08-35.63,50.42-37.49,104.61-48.33,20.1-4,58.86-10.87,65-37.9h0Z" transform="translate(-47.59 -23)"/><path id="SvgjsPath2763" class="cls-4" d="M179.36,509.28s70.84,0.74,82.79,4.66c5.72,1.87,20.71,13.93,20.71,13.93s-16.21-7.84-21.41-9.29C249.36,515.21,179.36,509.28,179.36,509.28Zm120.17,25.93c5.08-.1,19.51-9.4,19.51-9.4s-13.79,5.09-18.16,5.34c-3.69.21-15.74-3.06-15.74-3.06S295.37,535.3,299.53,535.22Zm42.57-17.91c16.69-4.5,73.67-8,73.67-8s-58.84-1.28-75.46,4.27c-5.57,1.86-18.7,12.76-18.7,12.76S336.61,518.78,342.1,517.31Z" transform="translate(-47.59 -23)"/><path id="SvgjsPath2764" class="cls-5" d="M524.75,534.89c-24.09-40.74-72-37.45-114-45.84-17-3.4-57.26-14.32-57.72-33.36-0.47-19.95,10.61-99.15,10.61-99.15H235.75s11.1,79.2,10.62,99.15c-0.46,19-40.76,30-57.73,33.36-17.57,3.52-49.77,6.39-65.41,11.38-15.23,4.86-33.7,9.34-48.56,34.47-9,15.24-14.86,39.9-14.86,67.11H539.62C539.62,574.79,533.78,550.13,524.75,534.89Z" transform="translate(-47.59 -23)"/></g><g id="svga-group-chinshadow-single"><path id="SvgjsPath6563" class="cls-6" d="M291.68,467c4.61,2.5,12.13,2.5,16.73,0,9.95-5.38,26.69-15.51,43.79-27.18,1.49-18.62,4.87-45.8,7.27-64.07C323.86,372,275.42,372,240,375.8c2.38,18.11,5.71,44.91,7.22,63.48C264.54,451.16,281.61,461.49,291.68,467Z" transform="translate(-47.59 -23)"/></g><g id="svga-group-head"><g id="svga-group-faceshape-wrap"><g id="svga-group-faceshape-single"><path id="SvgjsPath6560" class="cls-2" d="M399.8,363.75c-16.5,23.67-70.61,60.19-91.86,72.38-4.35,2.49-11.44,2.49-15.79,0-21.23-12.19-75.36-48.7-91.87-72.37-20.1-28.82-45.8-132.74-45.83-132.87a149.36,149.36,0,0,1-5-38c-0.13-82.79,67.16-150,150.31-150.12s150.65,66.86,150.78,149.65a149.53,149.53,0,0,1-4.83,38.06C445.72,230.55,420,334.83,399.8,363.75Z" transform="translate(-47.59 -23)"/><path id="SvgjsPath6561" class="cls-7" d="M381,66.26a149.62,149.62,0,0,1,59.18,161c0,0.13-25.95,103.9-45.83,132.87-16.48,24-63.88,66.08-91.87,74.19a11.84,11.84,0,0,1-4.9,0c-28-8.11-75.38-50.16-91.87-74.19-19.88-29-45.8-132.74-45.83-132.87a149.62,149.62,0,0,1,59.17-161,149.64,149.64,0,0,0-64.61,164.61c0,0.13,25.73,104.05,45.83,132.87,16.51,23.67,70.64,60.18,91.87,72.37h0a17.63,17.63,0,0,0,15.79,0h0c21.23-12.19,75.36-48.7,91.87-72.37,20.1-28.82,45.8-132.74,45.83-132.87A149.64,149.64,0,0,0,381,66.26Z" transform="translate(-47.59 -23)"/><path id="SvgjsPath6562" class="cls-5" d="M399.8,363.75c-16.5,23.67-70.61,60.19-91.86,72.38-4.35,2.49-11.44,2.49-15.79,0-21.23-12.19-75.36-48.7-91.87-72.37-20.1-28.82-45.8-132.74-45.83-132.87a149.36,149.36,0,0,1-5-38c-0.13-82.79,67.16-150,150.31-150.12s150.65,66.86,150.78,149.65a149.53,149.53,0,0,1-4.83,38.06C445.72,230.55,420,334.83,399.8,363.75Z" transform="translate(-47.59 -23)"/></g></g><g id="svga-group-mouth-single"><path id="SvgjsPath6651" class="cls-8" d="M300.26,385.15c-12.25,0-15.19-7.5-15.19-7.5a42.47,42.47,0,0,0,29.27-.31S311,385.15,300.26,385.15Z" transform="translate(-47.59 -23)"/><path id="SvgjsPath6655" class="cls-9" d="M264.41,361.28c6.62-.33,18.66-2.66,25-2.44,3.26,0.11,6.5,2.36,9.91,3.07,2.37,0.5,9.73-2.72,12.16-2.87,6.36-.4,18.32,1.84,24.17,2.28h0s-14.29,19.11-35.77,19.11a42.3,42.3,0,0,1-35.43-19.14h0Z" transform="translate(-47.59 -23)"/><path id="SvgjsPath6656" class="cls-10" d="M336.49,360.62a1.75,1.75,0,0,0-1.54-.34c-0.74.23-1.64,1.29-3.25,1.7-1.85.47-12.42,3.54-15.32,3.69-5.85.29-11,2.33-16.72,2.32s-10.73-2.3-16.61-2.62c-2.92-.16-12.85-3-14.71-3.46-1.61-.4-2.2-1.42-2.87-1.7a2.26,2.26,0,0,0-1.84.26,2.89,2.89,0,0,0,.49,1.85c0.67,0.83,2.73,1.25,4.12,1.6,1.93,0.49,11.77,3.38,14.71,3.54,5.7,0.32,10.65,2.78,16.35,2.79S310.21,368,316,367.72c3-.15,13.68-3.25,15.66-3.74,1.43-.36,3.43-1,4.14-1.68A2.74,2.74,0,0,0,336.49,360.62Z" transform="translate(-47.59 -23)"/><path id="SvgjsPath6657" class="cls-11" d="M299.54,377.27c-9.68,0-19.06-3.08-25.45-9.13,3.36,0.47,7,.51,10.56,1,4.39,0.6,8.48,2.28,13,2.56,4.87,0.31,9.69-1.22,14.56-2.08,4.07-.71,10.41-2.64,14.2-3.22C319.15,371.94,308.89,377.27,299.54,377.27Zm13.5-12.6c3.69-.37,9.53-2.17,12.93-2.57-3.48-1-9.47-.69-13.79-1.09-3.72-.34-8,2.13-11.91,2.51-4.39.43-7.27-3-11.39-3.39-4.47-.36-9.37,1.38-13.2,2.26,3.43,0.46,7.12.59,10.66,1.28,4.34,0.84,8.42,2.45,12.92,2.61S308.49,365.13,313,364.67Z" transform="translate(-47.59 -23)"/><path id="SvgjsPath6658" class="cls-12" d="M314.12,370.52c-0.76,0-1.55.06-2.3,0.13a23.32,23.32,0,0,0-2.38.3c-1.33.24-2.66,0.58-4.05,0.91a27,27,0,0,1-6.58,1c-0.37,0-.74,0-1.12,0a26.5,26.5,0,0,1-5.42-1,34.47,34.47,0,0,0-5-1.22l-1-.1c-1-.09-2.07-0.13-3.1-0.16,4.29,3.45,10.21,5,16,5C305.18,375.34,309.8,373.25,314.12,370.52Z" transform="translate(-47.59 -23)"/></g><g id="svga-group-eyes-left"><g id="svga-group-eyesback-left"><path id="SvgjsPath6502" class="cls-13" d="M267.71,254.13a16,16,0,0,1,.64,4.35,17.24,17.24,0,0,1-3.56,10.23c-10.08.09-42,1.75-46.83-.75-7-3.56-13.17-18.23-13.62-21.83C229.06,231.9,247.3,234.67,267.71,254.13Z" transform="translate(-47.59 -23)"/></g><g id="svga-group-eyesiriswrapper-left"><g id="svga-group-eyesiriscontrol-left"><g id="svga-group-eyesiris-left"><path id="SvgjsPath6482" class="cls-14" d="M259.23,257a21,21,0,1,1-21-21A21,21,0,0,1,259.23,257Z" transform="translate(-47.59 -23)"/><path id="SvgjsPath6483" class="cls-15" d="M226,266.81c3.07-.25.35-1.07,0.35-1.07-1.52-.82-4.37-2.08-4.37-3.23,0-3.61,5-4.55-.12-6-5.27-4.84,4.09-4.73,4-4.9-3.42-8.33,1-3.75,2.93-6.21,7-9.11,1.94.93,5.72,0,1.37-.34-2.73-5.36.12-4.66a3.15,3.15,0,0,1,2.32,2c1.38-.27,3.53-2.39,3.53-2.39,2.62,0.79,4.47,4.52,3.66,3.82a32.16,32.16,0,0,0,4.51-1.19s0.25-.84.48-0.12c3.22,9.32,11.51,8.66,2,11.35,0,0-.62,0,1.34,1.55,9.49,7.58-7.37,5.24,1.58,8.72,0.36-.36-5.36,3.38-5.36,4.42,0,1.76-3.65,6.37-6.82,4.55-1.77-1-2,2.1-3.07.67-2-2.81-6.1-.12-4.6-2.71,2.22-1.82-2.29.71-3.17,0.71-2.9,0,3.79-9.75,13.64-2.51,2.88,2.11-3-5,2.19-5,0.52,0.17.37-1.83,0.37-2.39-2.72-.53,4.87,0,4.87-4.42,0.48,0.1,1.78-1.22-5.73,0a22.85,22.85,0,0,1-.12-3.11c0.39-1.53,4.25-1,3.17-2.63l-2.8-5.62c-9-1.45-3.86-2.35-9.5-1.19-0.27,1.32-12.07,7-11.7,9.56s7.41,3.28.73,7.64C236.12,281.68,218.71,262.07,226,266.81Z" transform="translate(-47.59 -23)"/><path id="SvgjsPath6484" class="cls-16" d="M238.21,238.58l0.6,15.39,6.44-14-5.34,14.44L251.22,244l-10.46,11.3,14.45-5.33-14,6.44,15.39,0.6-15.39.6,14,6.44-14.45-5.33L251.22,270l-11.31-10.46L245.25,274l-6.44-14-0.6,15.39L237.61,260l-6.44,14,5.33-14.44L225.2,270l10.46-11.3L221.21,264l14-6.44-15.38-.6,15.38-.6-14-6.44,14.45,5.33L225.2,244l11.3,10.46L231.17,240l6.44,14Z" transform="translate(-47.59 -23)"/><path id="SvgjsPath6485" class="cls-17" d="M241,243.2l-1.89,11.62,6.94-9.5-6.19,10,10.05-6.12-9.54,6.88L252,254.28,240.55,257,252,259.76l-11.62-1.88,9.5,6.94-10-6.18L246,268.69l-6.88-9.55,1.81,11.63-2.7-11.46-2.78,11.44,1.89-11.62-7,9.5,6.19-10-10.05,6.12,9.55-6.88-11.63,1.81,11.45-2.7-11.44-2.78L236,256.07l-9.5-6.94,10,6.18-6.12-10.05,6.88,9.55-1.81-11.63,2.71,11.46Z" transform="translate(-47.59 -23)"/><path id="SvgjsPath6486" class="cls-18" d="M246.09,257a7.88,7.88,0,1,1-7.88-7.88A7.88,7.88,0,0,1,246.09,257Z" transform="translate(-47.59 -23)"/><path id="SvgjsPath6487" class="cls-19" d="M229.93,272.09c-1.16,1.16-3.45.75-5.12-.92s-2.08-4-.92-5.12,3.45-.75,5.12.92S231.09,270.92,229.93,272.09Z" transform="translate(-47.59 -23)"/><path id="SvgjsPath6488" class="cls-20" d="M255,252.84c-1.74,1.74-5.95.35-9.4-3.1s-4.84-7.66-3.1-9.4,5.95-.35,9.4,3.1S256.78,251.1,255,252.84Z" transform="translate(-47.59 -23)"/></g></g></g><g id="svga-group-eyesfront-left"><path id="SvgjsPath6527" class="cls-2" d="M191.21,258.22c0,34.15,19.93,61.83,44.52,61.83s44.52-27.68,44.52-61.83-19.93-61.83-44.52-61.83S191.21,224.06,191.21,258.22Zm13.12-12.1c24.72-14.22,43-11.45,63.37,8a16,16,0,0,1,.64,4.35,17.24,17.24,0,0,1-3.56,10.23c-10.08.09-42,1.75-46.83-.75C211,264.39,204.79,249.73,204.34,246.12Z" transform="translate(-47.59 -23)"/><path id="SvgjsPath6528" class="cls-21" d="M204.59,247.32c1.29,4.89,7,17.38,13.36,20.63,4.87,2.5,36.75.84,46.83,0.75a17.22,17.22,0,0,0,3.56-10.23,16,16,0,0,0-.64-4.35c-20.2-19.25-38.28-22.14-62.6-8.43,4.87-14.16,21.08-24.61,40.41-24.7,23.23-.1,42.09,14.79,42.15,33.27s-18.73,33.52-41.95,33.63-42.09-14.79-42.14-33.27A27.17,27.17,0,0,1,204.59,247.32Z" transform="translate(-47.59 -23)"/><path id="SvgjsPath6533" class="cls-22" d="M218,268c-7-3.56-13.17-18.23-13.62-21.83,24.72-14.22,43-11.45,63.37,8a16,16,0,0,1,.64,4.35,17.24,17.24,0,0,1-3.56,10.23C254.7,268.79,222.82,270.45,218,268Z" transform="translate(-47.59 -23)"/><path id="SvgjsPath6537" class="cls-23" d="M204.42,238.4c8.44-3.31,35.36-10.52,48.43-3.31C234.12,229.26,215.41,235.5,204.42,238.4Zm54.78,2.46c4.08,1.52,6.71,4.85,8.56,7.46A74.37,74.37,0,0,0,259.2,240.86Z" transform="translate(-47.59 -23)"/><path id="SvgjsPath6538" d="M260.62,240.07c-20.63-6.59-36.77-6.51-57.35,2-9.68,1.34-13.49.48-18.4-.62,2.77,2.36,5.12,4.66,10.67,5a28.88,28.88,0,0,1-7.27.89,84.54,84.54,0,0,0,13.08,3.4,15.4,15.4,0,0,1-7.67,1.08c2.29,1.8,5.69,1.63,9.12,2.78,9.56,12.56,11.56,15.31,14.53,15.46a229.81,229.81,0,0,0,50.24-2c-3.71-.47-44.09,1.93-49.62-0.77-7-3.4-13.17-17.39-13.62-20.83,25.35-13.91,43.88-10.83,64.94,9-4.82-7.31-10.87-12.06-19.17-16Z" transform="translate(-47.59 -23)"/></g></g><g id="svga-group-eyes-right"><g id="svga-group-eyesback-right"><path id="SvgjsPath6510" class="cls-24" d="M332.37,254.13a16,16,0,0,0-.64,4.35,17.24,17.24,0,0,0,3.56,10.23c10.08,0.09,42,1.75,46.83-.75,7-3.56,13.17-18.23,13.62-21.83C371,231.9,352.78,234.67,332.37,254.13Z" transform="translate(-47.59 -23)"/></g><g id="svga-group-eyesiriswrapper-right"><g id="svga-group-eyesiriscontrol-right"><g id="svga-group-eyesiris-right"><path id="SvgjsPath6489" class="cls-14" d="M382.89,257a21,21,0,1,1-21-21A21,21,0,0,1,382.89,257Z" transform="translate(-47.59 -23)"/><path id="SvgjsPath6490" class="cls-15" d="M349.65,266.81c3.07-.25.35-1.07,0.35-1.07-1.52-.82-4.37-2.07-4.37-3.23,0-3.61,5-4.55-.12-6-5.27-4.84,4.09-4.74,4-4.9-3.42-8.33,1-3.75,2.92-6.21,7-9.11,1.94.93,5.72,0,1.37-.34-2.73-5.36.12-4.66a3.15,3.15,0,0,1,2.32,2c1.38-.27,3.53-2.39,3.53-2.39,2.62,0.79,4.47,4.52,3.66,3.82a32.13,32.13,0,0,0,4.5-1.19s0.25-.84.48-0.11c3.22,9.32,11.51,8.65,2,11.35,0,0-.62,0,1.34,1.55,9.5,7.58-7.37,5.24,1.58,8.72,0.37-.36-5.36,3.38-5.36,4.42,0,1.76-3.65,6.37-6.82,4.56-1.77-1-2,2.1-3.07.67-2-2.81-6.1-.12-4.6-2.71,2.22-1.82-2.29.71-3.17,0.71-2.9,0,3.79-9.75,13.64-2.51,2.88,2.11-3-5,2.19-5,0.52,0.17.37-1.83,0.37-2.39-2.71-.53,4.87,0,4.87-4.42,0.48,0.09,1.78-1.23-5.73,0a22.87,22.87,0,0,1-.12-3.11c0.39-1.53,4.26-1,3.17-2.63l-2.8-5.62c-9-1.45-3.86-2.36-9.5-1.19-0.27,1.32-12.07,7-11.7,9.56,0.35,2.46,7.41,3.28.73,7.65C359.79,281.68,342.38,262.07,349.65,266.81Z" transform="translate(-47.59 -23)"/><path id="SvgjsPath6491" class="cls-16" d="M361.87,238.58l0.6,15.39,6.44-14-5.34,14.44L374.88,244l-10.46,11.3,14.45-5.33-14,6.44,15.39,0.6-15.39.6,14,6.44-14.45-5.33L374.88,270l-11.31-10.46L368.91,274l-6.44-14-0.6,15.39L361.27,260l-6.44,14,5.33-14.44L348.86,270l10.46-11.3L344.87,264l14-6.44-15.38-.6,15.38-.6-14-6.44,14.45,5.33L348.86,244l11.3,10.46L354.83,240l6.44,14Z" transform="translate(-47.59 -23)"/><path id="SvgjsPath6492" class="cls-17" d="M364.66,243.2l-1.89,11.62,6.94-9.5-6.19,10,10.05-6.12L364,256.08l11.63-1.81L364.21,257l11.44,2.78L364,257.88l9.5,6.94-10-6.18,6.12,10-6.88-9.55,1.81,11.63-2.7-11.46-2.78,11.44L361,259.14l-7,9.5,6.2-10-10.05,6.12,9.55-6.88-11.63,1.81L359.53,257l-11.44-2.78,11.61,1.88-9.5-6.94,10,6.19-6.12-10,6.88,9.55-1.81-11.63,2.71,11.46Z" transform="translate(-47.59 -23)"/><path id="SvgjsPath6493" class="cls-18" d="M369.76,257a7.88,7.88,0,1,1-7.88-7.88A7.88,7.88,0,0,1,369.76,257Z" transform="translate(-47.59 -23)"/><path id="SvgjsPath6494" class="cls-19" d="M353.59,272.09c-1.16,1.16-3.45.75-5.12-.91s-2.08-4-.91-5.12,3.45-.75,5.11.91S354.75,270.93,353.59,272.09Z" transform="translate(-47.59 -23)"/><path id="SvgjsPath6495" class="cls-20" d="M378.71,252.84c-1.74,1.74-5.94.35-9.4-3.1s-4.84-7.66-3.11-9.4,5.95-.35,9.4,3.1S380.45,251.1,378.71,252.84Z" transform="translate(-47.59 -23)"/></g></g></g><g id="svga-group-eyesfront-right"><path id="SvgjsPath6548" class="cls-2" d="M364.34,196.38c-24.58,0-44.52,27.68-44.52,61.83S339.76,320,364.34,320s44.52-27.68,44.52-61.83S388.93,196.38,364.34,196.38ZM382.12,268c-4.87,2.5-36.75.84-46.83,0.75a17.22,17.22,0,0,1-3.56-10.23,16,16,0,0,1,.64-4.35c20.41-19.46,38.65-22.22,63.38-8C395.29,249.73,389.08,264.39,382.12,268Z" transform="translate(-47.59 -23)"/><path id="SvgjsPath6549" class="cls-25" d="M395.48,247.32c-1.29,4.89-7,17.38-13.36,20.63-4.87,2.5-36.75.84-46.83,0.75a17.22,17.22,0,0,1-3.56-10.23,16,16,0,0,1,.64-4.35c20.2-19.25,38.28-22.14,62.6-8.43-4.87-14.16-21.08-24.61-40.41-24.7-23.23-.1-42.09,14.79-42.15,33.27s18.73,33.52,41.95,33.63,42.09-14.79,42.14-33.27A27.17,27.17,0,0,0,395.48,247.32Z" transform="translate(-47.59 -23)"/><path id="SvgjsPath6554" class="cls-26" d="M382.12,268c7-3.56,13.17-18.23,13.62-21.83-24.72-14.22-43-11.45-63.37,8a16,16,0,0,0-.64,4.35,17.24,17.24,0,0,0,3.56,10.23C345.38,268.79,377.26,270.45,382.12,268Z" transform="translate(-47.59 -23)"/><path id="SvgjsPath6558" class="cls-23" d="M347.23,235.09c13.07-7.21,40,0,48.43,3.31C384.67,235.5,366,229.26,347.23,235.09Zm-14.91,13.23c1.86-2.61,4.48-5.95,8.56-7.46A74.37,74.37,0,0,0,332.32,248.32Z" transform="translate(-47.59 -23)"/><path id="SvgjsPath6559" d="M339.46,240.07c20.63-6.59,36.77-6.51,57.35,2,9.68,1.34,13.49.48,18.4-.62-2.77,2.36-5.12,4.66-10.67,5a28.88,28.88,0,0,0,7.27.89,84.54,84.54,0,0,1-13.08,3.4,15.4,15.4,0,0,0,7.67,1.08c-2.29,1.8-5.69,1.63-9.12,2.78-9.56,12.56-11.56,15.31-14.53,15.46a229.81,229.81,0,0,1-50.24-2c3.71-.47,44.09,1.93,49.62-0.77,7-3.4,13.17-17.39,13.62-20.83-25.35-13.91-43.88-10.83-64.94,9,4.82-7.31,10.87-12.06,19.17-16Z" transform="translate(-47.59 -23)"/></g></g><g id="svga-group-facehighlight-single"><path id="SvgjsPath2753" class="cls-27" d="M399.47,320.06a99.76,99.76,0,1,1-99.91-99.6A99.75,99.75,0,0,1,399.47,320.06Z" transform="translate(-47.59 -23)"/><path id="SvgjsPath2757" class="cls-28" d="M386.6,179.07A86.56,86.56,0,1,1,300,92.5,86.57,86.57,0,0,1,386.6,179.07Z" transform="translate(-47.59 -23)"/></g><g id="svga-group-eyebrows-left"><path id="SvgjsPath6496" class="cls-29" d="M277.43,219.75c-32-10.46-46.68-10.45-82.24-6.23-1.07.13-6.08,1.36-6.52,0.55,29.42-6.66,54.27-8.82,82,2.29C271.67,216.75,277.56,218.94,277.43,219.75Z" transform="translate(-47.59 -23)"/></g><g id="svga-group-eyebrows-right"><path id="SvgjsPath6497" class="cls-29" d="M322.24,219.67c24.44-15.49,54.28-16,82-8,1.1,0.32,7.17,1.54,7.21,2.54C351,200.87,322.24,219.67,322.24,219.67Z" transform="translate(-47.59 -23)"/></g><g id="svga-group-nose-single"><path id="SvgjsPath6659" class="cls-4" d="M297.67,266.71s-2,47.16-1.76,57.51c0.08,2.94,5.74,10.64,5.35,16.26,0,0-11-.8-14.63-2.07-3.76-1.33-9.57-3.93-7.27-11.18C282.64,316.92,297.67,266.71,297.67,266.71Z" transform="translate(-47.59 -23)"/><path id="SvgjsPath6660" class="cls-23" d="M296.64,335s-4.58-1.62-7.47-1.54c-2.63.08-3-1.67-2.75-2.67s1.17-1.62,3.71-.94S296.64,335,296.64,335Zm6.81,0a32.38,32.38,0,0,1,7.47-1.54c2.63,0,3-1.67,2.75-2.67s-1.17-1.62-3.71-.95S303.46,335,303.46,335Z" transform="translate(-47.59 -23)"/></g><g id="svga-group-hair-front"><path id="SvgjsPath6418" class="cls-30" d="M195.24,371.22c-16.35-9.56-72.72-173.57-51.71-231.14,21.21-58.14,148.37-15.51,157-13.2,12.9,3.45,142.44-15.35,147.39-3.53,37.77,90.12-.65,160.58-37.1,245.89,26.37,36.06-13.11,40.52-10.63,39.43C404,407,408,402,405.77,396.46c-3.55-8.76-23.09-6.95-2.34-39.73,12.88-20.35,16.65-48.91,16.58-55.65-4.54,6.56-12.07,16.09-18.2,21.07,6.41-14.26,8.65-35.54,9.79-47,0.58-6.17,2.25-.42-14.14-24.66-11.71-17.34-26.35-43-35.59-68.38-5.66,18.75-.78,44.09,3.81,63.91-44.65-29.46-65.84-87.29-70.22-94.79,0.41,20.53,10.22,50.66,19.52,72.39-24-20.45-46.37-41.35-55.24-72.41-10.21,38.39-3.37,88.85,16.49,136.7C228,240,238.88,180.13,240.77,165.21c-8.34,11.86-46,65.56-35.44,132.35-2.46-4.79-5.06-14-7.28-19.24-10.69-6.08-16.23-11.46-22.75-19.2-1.31,44.48,5.64,54.28,11.24,77.73,5.41,22.65,25.64,30,26.9,31.86,2.68,4,2.49,9.27-.49,13.66-3.44,5.07-10.77,6.12-14.89,11.35-5.38,6.83-.51,11.34,2.73,14.94C205,413.31,176.05,408.67,195.24,371.22Z" transform="translate(-47.59 -23)"/><path id="SvgjsPath6419" class="cls-1" d="M205.44,439c-7.37-7.08-16.08-17.78-16.81-28-7.83-3.12-12.05-8.95-11.3-15.59,1.13-9.9,9.6-13.89,14.31-26.3-16.93-9.9-27.33-25.53-33.22-43.2-47.15-45.34-42-136.48-20.3-196.08,22-60.19,85.68-105.58,148.24-105.58a110.26,110.26,0,0,1,28.45,3.6c13.35,3.57,4.55.46,24.7,0.46,36.76,0,72.26,17.2,92.62,44.9,9.43,12.82,15.95,27.06,21.07,39.3,19.2,45.82,24.16,79.74,18.93,129.63-7.18,68.56-28.36,79.4-31.38,85.84-6,12.61-14.83,26.19-25.41,35.33-1.88,1.63-2,1.72-.55,3.75,7.61,10.32,10.36,15.42,11.34,20.56,2.83,14.94-14.34,21.09-16.84,22.49l-0.78,0c2,20.35-1,25.93-19.47,27.56,23.65-22.71-5.3-24.48,14-32.93,3.93-1.72,8.81-3.86,6.51-9.55-3.67-9.06-23.9-7.19-2.43-41.13,13.34-21.06,17.24-50.63,17.16-57.6-4.7,6.79-12.49,16.66-18.84,21.82,6.63-14.76,8.95-31.67,10.13-43.56,0.61-6.39,2.33-.44-14.63-25.53-12.12-17.95-27.28-41.92-36.84-68.23l-2.42.34c-1.49,19.67-2.45,38.9,1.88,57.62-46.22-30.51-63.67-86.51-68.2-94.28,0.42,21.25,5.31,47.66,14.92,70.16-24.86-21.17-40.17-36.51-49.35-68.67-10.57,39.74-9.75,81.89,10.81,131.42-49.89-49.6-32.27-103.32-30.32-118.75-8.32,11.83-17.48,25.73-22.68,35.31-12.34,22.71-21.2,67.09-16.85,94.49-2.55-5-5.07-10.32-7.36-15.71-11.07-6.29-16.8-11.86-23.55-19.87-1.36,46.05,5.84,56.19,11.64,80.47,5.59,23.44,26.54,31,27.84,33,2.77,4.18,2.58,9.6-.5,14.15-3.56,5.25-11.14,6.34-15.42,11.75-5.57,7.07,3.11,12.2,6.46,15.92,4.32,4.8,2.94,8.86,1.62,12.79C200.52,427.38,201.21,429.64,205.44,439Z" transform="translate(-47.59 -23)"/><path id="SvgjsPath6420" class="cls-31" d="M453.19,112.5c-0.15-.36-16.34-27.05-16.49-27.42,23.55,45.52,32,119.32,21.63,165.71,0-29.68,2.77-68.05-12.1-96.65,6,37.08,8.79,72.85-5.53,102.95,2.32-38.8.27-85.4-25.42-119.5,4.81,20.9,7.15,38.16,4.73,66.81-4-20-14.17-34.2-31.39-51,9.89,24.73,5.41,35.51,7.88,62.72-9.89-32.15-25.55-63.1-12.62-100-19.79,14.84-29.42,33.19-29.42,57.92-14.84-24.73-17.64-46.52-12.37-81.62-21.5,29.61-14,63.15-4.86,96.18C318.39,160,305.63,130.87,302.51,95c-4.17,18.79-13.62,34.06-19.44,51.75-4.32-20.58-5.29-42.28-5.29-61.65-2,18.29-14.08,33.25-22.43,50.35a128.05,128.05,0,0,1,7.59-30.56c-30.86,24.25-44.29,62.49-59.06,98.49,2.23-30,18.6-60.62,33.75-86.77-34,17.86-56.31,60-63.73,99.58C164,176.6,166.34,133,181.49,95c-34.63,34.63-29.85,89-39.75,133.56-10.42-50,7.27-98.31,23.45-144.82-50,59.21-62.21,188.89-6.79,242.19,5.89,17.66,16.29,33.3,33.22,43.2-4.71,12.41-13.18,16.4-14.31,26.3-0.75,6.64,3.47,12.47,11.3,15.59,0.73,10.25,9.44,21,16.81,28-4.23-9.37-4.92-11.64-2.8-17.91,1.32-3.93,2.69-8-1.62-12.79-3.55-3.95-15.85-11.2-1.5-20.1,1.6-7.13,10.27-15.61,1.6-18.71-26.91-12.4-41.13-99-30.25-110.41,0-2,.06-4,0.13-6.05,6.75,8,12.48,13.58,23.55,19.87,2.29,5.39,4.81,10.75,7.36,15.71-3.77-23.71-4.47-41.73-2.87-55.57,2.85-24.83,23.46-55.4,42.4-74.22-4.58,36.82,8.45,82,27.2,110.88a212.7,212.7,0,0,1-6.29-129.19c0.85,12.84,22.55,43.42,45.47,66.89-2.66-6.23-2.46-5.35-4.4-12-5.07-17.33-10.09-38.6-8.05-55.69,11.47,25.11,32,58.67,68.2,99.22-5.05-21.83-3.21-47.7-.22-70,2.26,13.31,52.37,101.66,55.14,97.73-1.18,11.89-6.42,36.9-13,51.67,14.1-11.47,16.91-21.79,22.67-30.42,0.23,11.15,2,18.13.75,29-3.82,32.2-23.22,47.5-24.26,55.35-0.76,5.75,11.68,24.45,6.73,26.92-4.81,4.81-10.78,7.87-15.37,11.74-0.11,4.95,10.09,10.45-6.92,26.78,18.42-1.63,21.51-7.21,19.47-27.56l0.78,0c2.5-1.4,19.67-7.55,16.84-22.49-1-5.14-3.73-10.24-11.34-20.56-1.47-2-1.34-2.11.55-3.75,10.57-9.14,19.45-22.72,25.41-35.33,3-6.44,24.2-17.28,31.38-85.84C477.35,192.25,472.39,158.32,453.19,112.5Z" transform="translate(-47.59 -23)"/><path id="SvgjsPath6421" class="cls-32" d="M340.43,79.92c69,13.06,95.91,70.39,95.81,140.46C436.94,227.88,436.51,103,340.43,79.92ZM189.3,138.36c28.15-43.06,48.48-64,104.76-82.78C246.8,65.25,206.3,92.6,189.3,138.36Zm149,54.15c3,4.12,4.9,6.56,4.54,6.06C322.7,167.83,313,106.65,326.58,74.38,309.26,108.31,318.42,158.57,338.26,192.51Z" transform="translate(-47.59 -23)"/><path id="SvgjsPath6422" class="cls-33" d="M189.43,110c8.86-40.52,50.11-50.15,67.48-56C259.38,53.22,201.49,69,189.43,110Zm74-71.37c-13.33,4.14-48.87,11.38-62.08,37C215.62,52,268.44,37.24,263.45,38.65ZM172.52,204.82c5.28-31.35,16.87-67.88,43.82-84.73C174.58,141.66,171.92,207.29,172.52,204.82Zm92.66-110c-3.74,3.49-21.18,9.85-31,38.1C245.52,108.43,267.65,93,265.17,94.86Zm28.08,9.24c5.73-10.61,8-33.12,7.54-30.65-9.79,38.47-14.12,34-17.48,51.3C286,115.46,289.57,111.22,293.25,104.1Zm25.62,33.72c-0.06-.16-10.37-46.24-10.9-54.62C307,107.53,319.5,140.29,318.87,137.82ZM300.53,64.37c-42.61,10.87-53.16,23.24-71.89,43.05C253.14,85.9,274.63,72.62,300.53,64.37Zm105.79,1.71c3.25,2.11,5.24,3.39,4.86,3.13C378.31,44.57,361.06,39.34,317.52,48,353.56,43.26,375.33,46.6,406.32,66.09Zm12.88,46.6c-9.67-19.8-38.69-43.44-93.61-53.73C360.65,68.32,397.23,84.16,419.2,112.68Zm-66.46,30.4c-0.29,5.43-.55,10.4-0.51,10,5.85-38.16,8.52-36.48,15.37-43.79C355.84,117.62,353.43,128.82,352.74,143.08Zm55.64,21.52c0.78,5.57,1.15,10.77,1.15,10.3-0.92-9.36,4.39-30.83-16.82-44.57C402.6,137.29,406.25,148.4,408.38,164.61Zm11,126.46c0.87-3.89,21.33-31.93,5.43-82.77C436.86,258.55,418.34,293.53,419.38,291.06ZM134.6,255.43c0.59,21,9.72,36.89,8.54,34.2-8.32-21.51-6.73-39.61-8.73-60.1C134.61,240.31,134.33,250.19,134.6,255.43Zm35.21,78c4.4,10,13.39,19.84,11.45,17.39-5.09-11.07-22-24.06-19.92-85.1-0.06-4.69-.23-8.38-0.28-10C160.19,280.17,154.32,297.68,169.81,333.48Zm258.39-2c6.67-10.86,6.61-18.8,7.62-24.22,0.43-2.47,1.86-24.26,3.83-27.61C434.1,289.67,435.39,321.89,428.2,331.51Zm-12,67.76a36.3,36.3,0,0,0,2.08-5c2.89-8.6,0-15-3.69-17.27C423.09,385,414.89,402,416.21,399.26ZM187.94,402.7a58.33,58.33,0,0,0,3.27,6,67.21,67.21,0,0,1-2.68-6.76c-5.8-16.4,1.46-19.88,3.83-22.35C183.47,385.34,183.26,393.27,187.94,402.7Zm-9.89-252.94c2.59-9.59,2.68-32.16,30.11-56.88C174.87,119,177.84,152.24,178.06,149.76Zm-12,68.07c6.27,18.09,13.36,30,12.47,28.15-12.32-27.75-15.66-49.62-17.46-79.79C160.87,183.13,161,201.5,166.08,217.83Z" transform="translate(-47.59 -23)"/><path id="SvgjsPath6423" class="cls-34" d="M454.35,112c-5.79-13.8-12.32-27.46-21.22-39.55C408.5,39,364.07,23.19,326.19,27.86c-7,.87-1.91,1.22-11.07-1.22C251,9.51,164.34,54.27,136.94,129.4c-19.84,54.36-29.59,149.38,20.39,197.2,5.31,15.93,17.37,33.88,33.56,42.62-3.43,9-13.61,15.56-14.8,26-0.91,8,4.52,13.89,12.08,16.9,0,0-.51,13.33,20.29,31.31-1.67-6.27-7.1-12.79-5.39-19.51,1.12-4.42,4.71-10-1.12-16.46-3.55-4-11.2-8.23-6.41-14.31,4.08-5.17,11.69-6.24,15.47-11.83a14,14,0,0,0,.51-15.53c-2.48-4-11.13-6.43-19.58-16.3-8-13.81-12.08-34.14-11.94-33.52-2.64-11.42-8.85-25.62-7.84-59.64a78.59,78.59,0,0,0,21.42,17.44,230,230,0,0,0,11.77,23.76c-8.81-25.6,1-78,14.52-102.82a321.12,321.12,0,0,1,19.74-31.26c-11,44.41-.6,86,35.71,119.21-21.93-49.62-24-95.38-14.32-131.82,10,34.9,37.6,55.39,52.67,68.48-10-22-16.76-46.16-17.24-70.44,13.36,37,38,73.51,69.12,92.77-5.19-19.66-4.12-40.2-2.6-60.27,8.84,24.33,22.53,47.12,37,68.5,16.85,24.91,15,18.88,14.42,24.7-1.6,16.16-4.68,33.61-12.34,47.89A87.46,87.46,0,0,0,423.1,301c-1.26,9.13-6.6,33.93-11.39,43-7.86,14.81-24.4,31.73-10.28,44.77,2.23,2.06,5.78,4,7,6.93,3.8,9.39-15.93,6.34-13.24,17.53,1.27,5.24,9.15,9.21-9.56,26,22.63-1.27,26.36-7.29,24.16-29.19,13.55-4.06,19.2-14.18,17.6-22.64-1.46-7.71-7.16-13.9-12.25-20.8-1.49-2-1.72-.64,3.24-5.36a111.44,111.44,0,0,0,24-33.55c12.42-13.56,25.54-32.56,31.07-85.4C478.86,189.81,472.46,155.24,454.35,112Zm-9.44,207.45c4.11-13,5-27,6.91-40.48,2.22-15.8,4.56-25.14,1.09-42.62,1.4,12.83-.33,24.86-3.11,37.39-7.86,35.47-10.91,72.58-45.19,98.51a93.57,93.57,0,0,0,8.82-6.7c4.95,8.36,12.49,17.55,10.5,28-2.62,13.82-18.67,16.76-21.17,17.93,1.59-.76,3.49-0.41,5.15-1-0.14,16-1.83,22.84-16.89,26.09,17.92-15.93,5.25-21.38,8.24-27,1.49-2.15,5.63-2.11,7.86-3.14A10.26,10.26,0,0,0,411.05,391a52,52,0,0,0-5.62-5.62c-12.79-12.35,9.41-31,13-47.84,11.29-52.21,2.9-32.36,10.58-46,29.29-51.91,32.59-113.19,2.4-178.45-13.06-28.22-26.29-36.39-50.25-51.77C393,69.94,405.27,78.1,414.62,89.57c17.88,21.93,28.52,70.27,30.12,83.88,6.73,57.67-11.32,113.05-33.21,137C427.7,270.21,424,204.89,390.46,156.65c21.74,35.58,28.11,76.72,24.56,109.66-1.67-2.54-52.43-81.75-51.56-91.14,1.77-19.17,5.12-39.15,17.17-54.05-12.81,14-17.1,32.91-19.59,51.18-3.36,24.58-5.76,40.25.15,63.13-20.5-16.51-49.83-53.61-64.82-92.7a283.54,283.54,0,0,1,3-35.81C291.93,144,291.18,175,305.8,208.28,240.06,138,267.1,159.05,276.69,88.16c-9.5,48.55-48.13,100-9.95,181.62-47.14-61.46-21.47-121.2-8.75-158.61-23.41,55.4-10.32,37.29-22.47,53.42A346.16,346.16,0,0,0,215.15,194c-13.46,23.55-18.7,61.16-14.44,87.95-29.44-70.27-14.1-106,34.88-164.75-64.42,67.23-63.5,104.4-43.58,152.81-53.65-37-47-141.17-1.38-185.37-34.1,29.54-46.32,86-41.06,120.8,4.05,26.84,20.26,49,20.26,49-3.17,35.31,2.49,47.22,5.83,62.4,1.22,5.55,4.28,16.41,5.88,21.95,4.37,15,20.56,26.15,22.39,27.3,21,13.33-21.37,18.09-11.41,36,3.76,6.76,10.09,5.93,8.17,16.87-0.74,4.23-1.77,8-.23,12.21-3.59-4.68-11.4-13.21-11-20.38-21.09-17.35-1.48-26.62,2.43-41.14a95.4,95.4,0,0,0,12,5.32c-22.43-10.79-35.94-21.86-46.45-61.77-5.57-21.18-7.34-65.73-6.83-88.9-2.07,26.35-2.72,74.39,5.17,98-40.64-42.75-32.65-119.61-17.19-176.67,24.55-90.63,117-134.66,180-116.64C303.13,32.3,293.69,37.4,281,47c40.6-28.47,90.57-19.3,123.28,3.58C472.2,98,486.57,263.49,444.91,319.47Z" transform="translate(-47.59 -23)"/></g><g id="svga-group-glasses-single"><path id="SvgjsPath6498" class="cls-35" d="M418.8,252.13c-0.27,4.85-.87,10-1.46,15.46-2.57,24.09-13,30.89-60.77,27.45-15.58-1.11-27.35-10-33.17-25a110,110,0,0,1-5.86-21C341.34,233,397.49,232.54,418.8,252.13Zm-237.53,0c0.27,4.85.87,10,1.46,15.46,2.57,24.09,13,30.89,60.77,27.45,15.58-1.11,27.35-10,33.17-25a110,110,0,0,0,5.86-21C258.74,233,202.59,232.54,181.27,252.13Z" transform="translate(-47.59 -23)"/><path id="SvgjsPath6499" class="cls-36" d="M418.8,252.13c-21.32-19.59-77.49-19.12-101.23-3a61.85,61.85,0,0,1-.89-15.24h0c1.63-19.32,33.27-17,51.89-17.73C414.63,214.34,420.14,229.38,418.8,252.13Zm-135.41-18.3h0c-1.63-19.32-33.27-17-51.91-17.73-46-1.76-51.57,13.28-50.23,36,21.32-19.59,77.49-19.12,101.23-3A61.83,61.83,0,0,0,283.39,233.83Z" transform="translate(-47.59 -23)"/><path id="SvgjsPath6500" class="cls-37" d="M423.48,226.26a25.64,25.64,0,0,0-6.33-9c-6.11-5.34-17.51-6.08-28.17-6.7-10.36-.57-30.05-1-43.18-0.2-34.13,2.23-33.56,17.31-33.56,17.31H287.89s0.57-15.11-33.56-17.31c-13.16-.84-32.82-0.4-43.18.2-10.66.59-22.09,1.36-28.17,6.7a25.11,25.11,0,0,0-6.33,9l-20.26-3.91v9.87c17.73,3.41,22.31,4.5,24.78,4.35-0.62,7.44-.89,20.65.72,31.14,3.81,24.91,14.3,31.61,61.68,28.2,15.73-1.14,28.07-10.46,33.93-25.55,4.6-11.87,7.77-22.48,6.95-35.32h31.26c-0.82,12.84,2.35,23.47,6.95,35.32,5.84,15.09,18.2,24.41,33.93,25.55,47.41,3.41,57.9-3.29,61.68-28.2,1.61-10.49,1.34-23.69.72-31.14,2.47,0.15,7-.94,24.78-4.35v-9.87Zm-148,43.36c-5.61,14.52-17,23.13-32.1,24.19-47.19,3.39-55.92-3.29-59.46-26.41-1.88-12.39-.87-28.49-0.62-31a1.3,1.3,0,0,0,.79-0.25c2.7-15.73,16-20.82,71.77-18.18,9.23,0.45,17.12,2.18,21.49,6.8,2.57,2.7,5,6.58,4.82,10.31h0.1C282.78,241.4,281.34,254.51,275.48,269.62Zm140.65-2.2c-3.54,23.13-12.27,29.8-59.46,26.41-15.09-1.09-26.49-9.7-32.1-24.19-5.86-15.11-7.27-28.22-6.78-34.5h0.1c-0.22-3.71,2.25-7.59,4.82-10.31,4.38-4.63,12.27-6.36,21.49-6.8C400,215.4,413.26,220.47,416,236.2a1.14,1.14,0,0,0,.79.25C417,238.92,418,255,416.13,267.42Z" transform="translate(-47.59 -23)"/><path id="SvgjsPath6501" class="cls-38" d="M312.26,226.9c0.42-3.12,4-14.64,33.49-16.55,13.16-.84,32.82-0.4,43.18.2,10.66,0.59,22.09,1.36,28.17,6.7a25.11,25.11,0,0,1,6.33,9h0c-9.2-15.24-25.28-13.7-34.65-14.22-5.69-.32-15.36-0.67-25.43-0.67-6.85,0-12.74.15-17.46,0.47C328.43,213,318.74,216,312.26,226.9Zm-24.44,0c-0.42-3.12-4-14.64-33.49-16.55-13.16-.84-32.82-0.4-43.18.2-10.66.59-22.09,1.36-28.17,6.7a25.11,25.11,0,0,0-6.33,9h0c9.2-15.24,25.28-13.7,34.65-14.22,5.69-.32,15.36-0.67,25.43-0.67,6.85,0,12.74.15,17.46,0.47C271.65,213,281.34,216,287.82,226.9Z" transform="translate(-47.59 -23)"/></g></g><path class="cls-39" d="M300,570.5a281.77,281.77,0,0,1-58.53-6v82.6H378.05V559.46c-22.13,6.94-49,11-78,11h0Zm0,0" transform="translate(-47.59 -23)"/><path class="cls-40" d="M372.41,475.39c16.32,9,30.4,10.83,68.62,10.83h3.25c59.26,0,107.31,37.73,107.31,84.28v53.63c0,12.7-13.1,23-29.26,23H322.17Z" transform="translate(-47.59 -23)"/><path class="cls-40" d="M277,647.11H76.86c-16.16,0-29.26-10.29-29.26-23V570.5c0-46.55,48-84.28,107.31-84.28h3.25c38.23,0,52.3-1.78,68.62-10.83Z" transform="translate(-47.59 -23)"/></svg>