<svg id="Layer_1" data-name="Layer 1" xmlns="http://www.w3.org/2000/svg" xmlns:xlink="http://www.w3.org/1999/xlink" viewBox="0 0 496.2 625.4"><defs><style>.cls-1{fill:#1c150e;}.cls-2,.cls-7{fill:#f3d4cf;}.cls-3{fill:#fff4f3;}.cls-4{fill:#e4b3ab;}.cls-5{fill:none;}.cls-5,.cls-7{stroke:#c5796d;stroke-width:1.5px;}.cls-6{fill:url(#linear-gradient);}.cls-8{fill:#c5796d;}.cls-9{fill:#ebc3bd;}.cls-10{fill:url(#linear-gradient-2);}.cls-11{fill:url(#radial-gradient);}.cls-12{fill:#808672;}.cls-13{fill:url(#radial-gradient-2);}.cls-14{fill:url(#radial-gradient-3);}.cls-15{opacity:0.9;}.cls-15,.cls-16,.cls-17,.cls-18,.cls-24,.cls-25,.cls-26,.cls-32{isolation:isolate;}.cls-16,.cls-17,.cls-24,.cls-25{opacity:0.5;}.cls-16{fill:url(#linear-gradient-3);}.cls-17{fill:url(#linear-gradient-4);}.cls-18,.cls-26{opacity:0.75;}.cls-18{fill:url(#linear-gradient-5);}.cls-19{fill:url(#radial-gradient-4);}.cls-20{fill:url(#radial-gradient-5);}.cls-21{fill:url(#radial-gradient-6);}.cls-22{fill:url(#radial-gradient-7);}.cls-23{fill:url(#radial-gradient-8);}.cls-24{fill:url(#linear-gradient-6);}.cls-25{fill:url(#linear-gradient-7);}.cls-26{fill:url(#linear-gradient-8);}.cls-27{fill:url(#radial-gradient-9);}.cls-28{fill:url(#radial-gradient-10);}.cls-29{fill:url(#radial-gradient-11);}.cls-30{fill:url(#radial-gradient-12);}.cls-31{fill:#2a232b;}.cls-32,.cls-33{fill:#3b3128;}.cls-32{opacity:0.1;}.cls-34{fill:#2c2219;}.cls-35{fill:#4a423a;}.cls-36{fill:#0d0905;}.cls-37{fill:#26120b;}.cls-38{fill:#545465;}.cls-39{fill:#e4ebf0;}</style><linearGradient id="linear-gradient" x1="63.89" y1="646.73" x2="63.89" y2="681.65" gradientTransform="matrix(2.55, 0, 0, -2.55, 136.19, 2110.93)" gradientUnits="userSpaceOnUse"><stop offset="0" stop-color="#e4b3ab" stop-opacity="0.8"/><stop offset="0.7" stop-color="#c5796d"/></linearGradient><linearGradient id="linear-gradient-2" x1="64.34" y1="676" x2="64.34" y2="679" gradientTransform="matrix(2.55, 0, 0, -2.55, 136.19, 2110.93)" gradientUnits="userSpaceOnUse"><stop offset="0.1" stop-color="#ebc3bd"/><stop offset="1" stop-color="#e4b3ab"/></linearGradient><radialGradient id="radial-gradient" cx="44.98" cy="730.17" r="14" gradientTransform="translate(345.29 2110.93) rotate(180) scale(2.55)" gradientUnits="userSpaceOnUse"><stop offset="0" stop-color="#fff"/><stop offset="0.54" stop-color="#fdfefe"/><stop offset="0.74" stop-color="#f6f8f9"/><stop offset="0.88" stop-color="#eaeff2"/><stop offset="0.99" stop-color="#d9e3e8"/><stop offset="1" stop-color="#d8e2e7"/></radialGradient><radialGradient id="radial-gradient-2" cx="-699.09" cy="173.05" r="84.65" gradientTransform="matrix(0.24, -0.06, -0.06, -0.25, 414.82, 246.43)" gradientUnits="userSpaceOnUse"><stop offset="0" stop-color="#fff" stop-opacity="0.8"/><stop offset="1" stop-color="#fff" stop-opacity="0"/></radialGradient><radialGradient id="radial-gradient-3" cx="-378.31" cy="194.6" r="84.71" gradientTransform="matrix(0.25, 0, 0, -0.25, 327.92, 298.28)" xlink:href="#radial-gradient-2"/><linearGradient id="linear-gradient-3" x1="86.3" y1="724.95" x2="87.63" y2="726.54" gradientTransform="matrix(2.55, 0, 0, -2.55, 1.04, 2112.2)" gradientUnits="userSpaceOnUse"><stop offset="0" stop-color="#fff"/><stop offset="1" stop-color="#fff" stop-opacity="0"/></linearGradient><linearGradient id="linear-gradient-4" x1="90.74" y1="733.28" x2="88.74" y2="731.28" gradientTransform="matrix(2.55, 0, 0, -2.55, 6.14, 2112.2)" xlink:href="#linear-gradient-3"/><linearGradient id="linear-gradient-5" x1="94.29" y1="736.73" x2="90.29" y2="732.73" gradientTransform="matrix(2.55, 0, 0, -2.55, 6.14, 2112.2)" xlink:href="#linear-gradient-3"/><radialGradient id="radial-gradient-4" cx="91.74" cy="1049.04" fx="105.31129937783763" r="18.7" gradientTransform="matrix(2.55, 0.05, -0.03, 1.6, 36.45, -1438.33)" gradientUnits="userSpaceOnUse"><stop offset="0" stop-color="#e4b3ab"/><stop offset="0.7" stop-color="#e4b3ab" stop-opacity="0.3"/><stop offset="1" stop-color="#f3d4cf" stop-opacity="0"/></radialGradient><radialGradient id="radial-gradient-5" cx="24.73" cy="711.83" r="29.5" gradientTransform="matrix(2.63, -0.14, -0.14, -2.63, 255.9, 2195.4)" gradientUnits="userSpaceOnUse"><stop offset="0.95" stop-opacity="0"/><stop offset="1" stop-opacity="0.3"/></radialGradient><radialGradient id="radial-gradient-6" cx="91.02" cy="730.17" r="14" gradientTransform="matrix(2.55, 0, 0, -2.55, 136.19, 2110.93)" xlink:href="#radial-gradient"/><radialGradient id="radial-gradient-7" cx="-719.26" cy="172.86" r="84.65" gradientTransform="matrix(0.24, -0.06, -0.06, -0.25, 552.34, 245.11)" xlink:href="#radial-gradient-2"/><radialGradient id="radial-gradient-8" cx="-397.76" cy="189.24" r="84.71" gradientTransform="matrix(0.25, 0, 0, -0.25, 465.45, 296.97)" xlink:href="#radial-gradient-2"/><linearGradient id="linear-gradient-6" x1="84.3" y1="724.95" x2="85.63" y2="726.53" gradientTransform="matrix(2.55, 0, 0, -2.55, 138.74, 2112.2)" xlink:href="#linear-gradient-3"/><linearGradient id="linear-gradient-7" x1="90.74" y1="733.28" x2="88.74" y2="731.28" gradientTransform="matrix(2.55, 0, 0, -2.55, 138.74, 2112.2)" xlink:href="#linear-gradient-3"/><linearGradient id="linear-gradient-8" x1="94.29" y1="736.73" x2="90.29" y2="732.73" gradientTransform="matrix(2.55, 0, 0, -2.55, 138.74, 2112.2)" xlink:href="#linear-gradient-3"/><radialGradient id="radial-gradient-9" cx="45.71" cy="1050.56" fx="59.28612790181037" r="18.7" gradientTransform="matrix(-2.55, 0.05, 0.03, 1.6, 445.03, -1438.33)" xlink:href="#radial-gradient-4"/><radialGradient id="radial-gradient-10" cx="-19.75" cy="714.17" r="29.51" gradientTransform="translate(225.57 2195.4) rotate(-177) scale(2.64)" xlink:href="#radial-gradient-5"/><radialGradient id="radial-gradient-11" cx="64.02" cy="704.93" r="40.03" gradientTransform="matrix(2.55, 0, 0, -2.55, 136.19, 2110.93)" gradientUnits="userSpaceOnUse"><stop offset="0" stop-color="#fff4f3" stop-opacity="0.5"/><stop offset="0.9" stop-color="#f3d4cf" stop-opacity="0"/></radialGradient><radialGradient id="radial-gradient-12" cx="64.02" cy="761" r="36" xlink:href="#radial-gradient-11"/></defs><title>avatar 6</title><g id="svga-group-hair-back"><path id="SvgjsPath5919" class="cls-1" d="M453.78,302.71c-2.11,81.93-64.43,261.6-149.1,261.6S149.21,387.09,147.18,302.71c-2.93-121.56,68.64-220.16,153.3-220.16S456.9,181.16,453.78,302.71Z" transform="translate(-51 -18.71)"/></g><g id="svga-group-humanbody-single"><path id="SvgjsPath2761" class="cls-2" d="M531.12,534.68c-15.32-25.9-34.36-30.53-50.05-35.54-16.12-5.14-49.33-8.1-67.44-11.73-17.49-3.5-59-14.76-59.51-34.39-0.49-20.57,10.94-102.23,10.94-102.23H233.15S244.59,432.45,244.1,453c-0.47,19.63-42,30.89-59.52,34.39-18.12,3.63-51.32,6.59-67.44,11.73-15.7,5-34.74,9.63-50.06,35.54-9.29,15.71-15.32,41.14-15.32,69.19h494.7C546.45,575.82,540.43,550.39,531.12,534.68Z" transform="translate(-51 -18.71)"/><path id="SvgjsPath2762" class="cls-3" d="M354.11,453c6.36,27.87,46.32,34.93,67,39.08C477,503.27,507.28,505.19,529,541.93c7.4,12.54,13.92,40.45,15.2,61.59,4.68,0.74,1.35-44.45-13.1-68.83-24.84-42-74.18-38.59-117.5-47.26-17.49-3.5-59-14.76-59.51-34.39h0Zm-109.35,0c-0.47,19.63-42,30.89-59.51,34.39-43.32,8.67-92.65,5.26-117.5,47.26C53.3,559.07,50,604.26,54.65,603.52c1.28-21.14,7.8-49.05,15.2-61.59,21.74-36.73,52-38.66,107.86-49.82,20.73-4.15,60.68-11.21,67-39.08h0Z" transform="translate(-51 -18.71)"/><path id="SvgjsPath2763" class="cls-4" d="M175,508.28s73,0.76,85.36,4.81c5.9,1.93,21.35,14.36,21.35,14.36s-16.72-8.08-22.08-9.58C247.18,514.39,175,508.28,175,508.28ZM298.91,535c5.24-.1,20.11-9.69,20.11-9.69s-14.21,5.25-18.72,5.51c-3.8.22-16.23-3.16-16.23-3.16S294.62,535.11,298.91,535Zm43.89-18.47c17.21-4.64,76-8.24,76-8.24s-60.67-1.32-77.8,4.4c-5.74,1.92-19.28,13.16-19.28,13.16S337.14,518.08,342.8,516.55Z" transform="translate(-51 -18.71)"/><path id="SvgjsPath2764" class="cls-5" d="M531.12,534.68c-24.84-42-74.26-38.61-117.5-47.26-17.49-3.5-59-14.76-59.51-34.39-0.49-20.57,10.94-102.23,10.94-102.23H233.15S244.59,432.45,244.1,453c-0.47,19.63-42,30.89-59.52,34.39-18.12,3.63-51.32,6.59-67.44,11.73-15.7,5-34.74,9.63-50.06,35.54-9.29,15.71-15.32,41.14-15.32,69.19h494.7C546.45,575.82,540.43,550.39,531.12,534.68Z" transform="translate(-51 -18.71)"/></g><g id="svga-group-chinshadow-single"><path id="SvgjsPath5988" class="cls-6" d="M299.44,461.09c19.07,0,37.17-6.71,53.24-16.73,1.24-22.2,6.93-65.77,9.49-84.74-37.66-4-88.63-4-126.13.07,2.55,18.88,8.17,61.94,9.46,84.24C261.75,454.19,280.1,461.09,299.44,461.09Z" transform="translate(-51 -18.71)"/></g><g id="svga-group-head"><g id="svga-group-ears-left"><path id="SvgjsPath6073" class="cls-7" d="M160.31,233.78c-3.75-6.12-17-19-26.29-16.62-7.6,1.92-15.38,8.16-15.38,18.79,0,16.48,3.81,23.48,6.38,31,2.18,6.36,10,18,14.69,22.54C145.51,295,154.9,313,156,314.8c1.8,2.9,4.79,7.51,10.31,7.69,8.39,0.26,18.07-5.3,18.67-8.77C188.3,294.86,170.05,249.7,160.31,233.78Z" transform="translate(-51 -18.71)"/><path id="SvgjsPath6074" class="cls-8" d="M155.6,274.93c-0.36-1.4,0-3.76.39-6a21.09,21.09,0,0,0,.46-5.42c-0.73-5.19-4.82-15.06-7.5-20.41-3.08-6.15-10.5-13.9-16.75-15.9a4.85,4.85,0,0,0-5.27,1.16c-0.72.74-.88,1.6-0.65,1.7s0.78-.61,1.56-1.29a3.8,3.8,0,0,1,2.86-.93c-0.52,2.59-8,10.62-3.52,26.13a71.19,71.19,0,0,0,5.62,14,19.46,19.46,0,0,0,.41,2.59c2.53,11,18.58,29,22.4,33.1,0.71,0.75,1.45,1.2,1.63,1s-0.25-.93-1-1.69c-3.77-4.05-19.72-22.08-22.16-32.65-4.47-19.37,4.89-19.69,11.47-31.36,1,1.65,1.87,3.24,2.53,4.56,0.52,1,1.09,2.25,1.69,3.56-1.17,1.83-12.9,15.23-9.92,25.95,1.1,4,9.64,9,12.94,10.44a6.56,6.56,0,0,1,3.29,3.25c0.92,1.54,2,7,5,8.3a4.29,4.29,0,0,0,1.66.36,3.08,3.08,0,0,0,2-.7c0,0.67,0,1.54,0,2.34,0,1,.12,1.88.37,1.9s0.53-.8.56-1.83a14.22,14.22,0,0,0-.2-3.59c-0.68-2.21-2.74-4.7-4.93-7.34S156.16,277.1,155.6,274.93Zm-22.9-9.72c-5.92-17.2,2.53-32,3.86-34.41,2.32,2,6.79,4.63,8.45,7.22C137.08,251.59,133.2,242.15,132.7,265.21Zm28.73,28.91c-2.73-1.14-3.65-6.43-4.53-7.92a7.5,7.5,0,0,0-3.73-3.63,9.69,9.69,0,0,1-1.47-.83c-9.85-14.48.74-21.69,2.62-23a32.36,32.36,0,0,1,1.2,4.89,21,21,0,0,1-.46,5.14c-0.38,2.37-.78,4.83-0.37,6.42,0.61,2.37,2.91,8.88,5.13,11.55,2,2.38,4,4.83,4.68,6.82A2.35,2.35,0,0,1,161.44,294.12Z" transform="translate(-51 -18.71)"/></g><g id="svga-group-ears-right"><path id="SvgjsPath6075" class="cls-7" d="M437.89,233.78c3.75-6.12,17-19,26.29-16.62,7.6,1.92,15.38,8.16,15.38,18.79,0,16.48-3.81,23.48-6.37,31-2.19,6.36-10,18-14.69,22.54C452.69,295,443.3,313,442.16,314.8c-1.8,2.9-4.79,7.51-10.31,7.69-8.39.26-18.07-5.3-18.68-8.77C409.89,294.86,428.14,249.7,437.89,233.78Z" transform="translate(-51 -18.71)"/><path id="SvgjsPath6076" class="cls-8" d="M437.66,286.12c-2.19,2.64-4.25,5.13-4.93,7.34a14.36,14.36,0,0,0-.19,3.59c0,1,.3,1.85.56,1.83s0.4-.87.37-1.9c0-.8,0-1.67,0-2.34a3.07,3.07,0,0,0,2,.7,4.27,4.27,0,0,0,1.66-.36c3-1.26,4.06-6.75,5-8.3a6.56,6.56,0,0,1,3.29-3.25c3.3-1.4,11.83-6.49,12.93-10.44,3-10.72-8.75-24.11-9.92-25.95,0.59-1.31,1.17-2.53,1.68-3.56,0.66-1.32,1.52-2.91,2.53-4.56,6.58,11.67,15.94,12,11.47,31.36-2.44,10.57-18.38,28.6-22.16,32.65-0.7.76-1.14,1.5-1,1.69s0.92-.27,1.63-1c3.82-4.08,19.88-22.15,22.4-33.1a19.11,19.11,0,0,0,.41-2.59,71.44,71.44,0,0,0,5.61-14c4.48-15.52-3-23.55-3.52-26.13a3.81,3.81,0,0,1,2.86.93c0.78,0.68,1.32,1.39,1.55,1.29s0.07-1-.65-1.7a4.86,4.86,0,0,0-5.27-1.16c-6.25,2-13.67,9.75-16.75,15.9-2.67,5.35-6.77,15.22-7.5,20.41a21.18,21.18,0,0,0,.46,5.42c0.37,2.28.75,4.64,0.39,6C442,277.1,439.81,283.52,437.66,286.12ZM453.19,238c1.66-2.59,6.14-5.24,8.45-7.22,1.33,2.36,9.78,17.21,3.87,34.41C465,242.15,461.12,251.59,453.19,238ZM433.7,293.54c0.69-2,2.71-4.44,4.68-6.82,2.22-2.68,4.51-9.19,5.13-11.55,0.41-1.59,0-4-.37-6.42a21,21,0,0,1-.46-5.14,32.1,32.1,0,0,1,1.2-4.89c1.87,1.35,12.46,8.56,2.61,23a9.45,9.45,0,0,1-1.47.83,7.51,7.51,0,0,0-3.73,3.63c-0.88,1.49-1.8,6.77-4.53,7.92A2.36,2.36,0,0,1,433.7,293.54Z" transform="translate(-51 -18.71)"/></g><g id="svga-group-faceshape-wrap"><g id="svga-group-faceshape-single"><path id="SvgjsPath5985" class="cls-2" d="M299.44,27.24c-85.73-.14-155.08,68.93-155.21,154.29a154.17,154.17,0,0,0,5,39.24h0c0,0.14,22.22,98.45,37,128.39,15.49,31.33,60.73,82,113.2,82s97.72-50.67,113.2-82c14.8-29.94,37-128.26,37-128.39h0a154.15,154.15,0,0,0,5-39.24C454.52,96.17,385.17,27.1,299.44,27.24Z" transform="translate(-51 -18.71)"/><path id="SvgjsPath5986" class="cls-9" d="M352.36,36.38a154.54,154.54,0,0,1,88,180.65h0c0,0.14-22.22,98.45-37,128.4-14.56,29.45-55.1,81.46-103.85,81.46s-89.29-52-103.85-81.46c-14.81-29.95-37-128.26-37-128.4h0a154.54,154.54,0,0,1,88-180.65,154.57,154.57,0,0,0-97.32,184.39h0c0,0.14,22.22,98.45,37,128.39,15.49,31.33,60.73,82,113.2,82s97.71-50.67,113.2-82c14.8-29.94,37-128.26,37-128.39h0A154.59,154.59,0,0,0,352.36,36.38Z" transform="translate(-51 -18.71)"/><path id="SvgjsPath5987" class="cls-5" d="M299.44,27.24c-85.73-.14-155.08,68.93-155.21,154.29a154.17,154.17,0,0,0,5,39.24h0c0,0.14,22.22,98.45,37,128.39,15.49,31.33,60.73,82,113.2,82s97.72-50.67,113.2-82c14.8-29.94,37-128.26,37-128.39h0a154.15,154.15,0,0,0,5-39.24C454.52,96.17,385.17,27.1,299.44,27.24Z" transform="translate(-51 -18.71)"/></g></g><g id="svga-group-mouth-single"><path id="SvgjsPath6026" class="cls-10" d="M300.6,386.23c-8.26,0-9.43-6.83-9.43-6.83l18.17-.48S307.87,386.23,300.6,386.23Z" transform="translate(-51 -18.71)"/><path id="SvgjsPath6030" class="cls-8" d="M299.14,380.53a61,61,0,0,1-7.72-.47,0.64,0.64,0,0,1-.54-0.72,0.65,0.65,0,0,1,.72-0.55c0.09,0,9.43,1.27,17.25-.5a0.63,0.63,0,0,1,.77.48,0.64,0.64,0,0,1-.48.76A46.32,46.32,0,0,1,299.14,380.53Zm0.47-13.45c-3.29,0-6.48-1.22-9.69-1.81-3.59-.67-7.17-0.1-10.76.24a33.17,33.17,0,0,1-9.11-.3c-1.44-.26-3.59-0.42-4.83-1.25a1.93,1.93,0,0,1,.4-3.38c1.35-.51,3.44.55,4.8,0.81a27.24,27.24,0,0,0,4.7.5c3.48,0,6.93-.66,10.41-0.78,3.68-.12,7.23.9,10.79,1.68,3.18,0.7,5.93.23,9.06-.44a97.69,97.69,0,0,1,16.39-1.71,31.78,31.78,0,0,0,8.13-1.49c1.11-.36,2.43-1.31,3.6-0.67a1.93,1.93,0,0,1-.11,3.41c-4.54,2.13-9.64,2.48-14.57,2.71a72.36,72.36,0,0,0-9.42.85C306.17,366,302.93,367.09,299.61,367.09Z" transform="translate(-51 -18.71)"/></g><g id="svga-group-eyes-left"><g id="svga-group-eyesback-left"><path id="SvgjsPath5819" class="cls-11" d="M246,260.21c-11,1.93-19.52,1.81-27.25-.52-8-2.4-18.33-12.3-21.92-21.66,9.47-.71,28.94-1.52,38-0.39,12,1.49,24.16,6.14,31.38,13.35,0,0.75-.14,1.49-0.22,2.22C260.17,257.15,251.92,259.18,246,260.21Z" transform="translate(-51 -18.71)"/></g><g id="svga-group-eyesiriswrapper-left"><g id="svga-group-eyesiriscontrol-left"><g id="svga-group-eyesiris-left"><path id="SvgjsPath5657" class="cls-12" d="M254.81,248.15a21.67,21.67,0,1,1-43.35,0h0a21.67,21.67,0,1,1,43.35,0h0Z" transform="translate(-51 -18.71)"/><path id="SvgjsPath5658" class="cls-13" d="M230.71,226.72l-0.26,0c0.1,0.49.21,1,.31,1.47C230.74,227.72,230.72,227.21,230.71,226.72Zm0,1.49c0.25,7.12.67,13.47,1.87,15.77C233.25,241.46,232.18,235.2,230.75,228.21ZM232.62,244a1.16,1.16,0,0,1-2.08.78,1.16,1.16,0,0,1-1.47,1.65,1.16,1.16,0,0,1-.53,2.15,1.16,1.16,0,0,1,.53,2.15,1.5,1.5,0,0,1,1.34.29,1.53,1.53,0,0,1,.13,1.37,1.16,1.16,0,0,1,2.06.8,1.16,1.16,0,0,1,2.2-.26,1.16,1.16,0,0,1,1.83-1.25,1.54,1.54,0,0,1-.2-1.36,1.51,1.51,0,0,1,1.24-.6,1.16,1.16,0,0,1,0-2.22,1.71,1.71,0,0,0-2.4-1.93,1.51,1.51,0,0,1-.45-1.3,1.47,1.47,0,0,1-1.19.67A1.51,1.51,0,0,1,232.62,244Zm2.19,0.27c1.73-1.93,3.69-8,5.67-14.82C237.4,235.84,234.82,241.65,234.82,244.25Zm5.67-14.83c0.22-.44.44-0.89,0.65-1.34L240.9,228C240.76,228.47,240.63,229,240.49,229.43Zm-3.84,16.09c2.43-.91,7-5.36,11.91-10.49C242.84,239.27,237.85,243.22,236.65,245.51ZM248.56,235l1.1-.81-0.15-.18Zm-10.89,12.46c2.58,0.32,8.67-1.51,15.43-3.76C246.06,244.83,239.81,246,237.67,247.48Zm15.43-3.76,1.22-.19-0.05-.21Zm-15.44,6c2.13,1.49,8.37,2.7,15.4,3.84C246.32,251.25,240.24,249.38,237.66,249.7Zm15.4,3.84,1,0.35c0-.06,0-0.12,0-0.18Zm-16.44-1.88c1.2,2.3,6.17,6.28,11.85,10.56C243.57,257.05,239,252.58,236.62,251.66Zm11.86,10.55,0.65,0.68,0.11-.12Zm-13.68-9.3c0,2.6,2.54,8.42,5.59,14.86C238.44,260.91,236.52,254.85,234.8,252.91Zm5.59,14.86c0.08,0.27.16,0.55,0.23,0.83l0.14-.05Zm-7.79-14.6c-1.21,2.3-1.67,8.63-2,15.75C232.1,262,233.21,255.69,232.59,253.17Zm-2,15.75c-0.06.27-.11,0.55-0.17,0.82l0.14,0C230.62,269.49,230.63,269.2,230.64,268.92Zm-0.11-16.55c-2.15,1.47-5.49,6.88-9.06,13C226,259.92,229.9,254.89,230.53,252.38Zm-9.06,13-0.58.7L221,266.2Zm7.59-14.7c-2.59.3-8.06,3.53-14.08,7.33C221.56,255.29,227.33,252.66,229.07,250.71ZM215,258.05l-0.95.4,0.08,0.15Zm13.55-9.49c-2.43-.93-8.77-0.61-15.88,0C219.76,249.13,226.11,249.48,228.54,248.56Zm-15.88,0-1.17-.1a1.82,1.82,0,0,0,0,.2Zm16.41-2.11c-1.71-1.95-7.48-4.61-14-7.41C221,242.83,226.5,246.1,229.07,246.41ZM215,239l-1.14-.73-0.1.2Zm15.5,5.76c-0.61-2.52-4.48-7.57-9-13.09C225.1,237.86,228.41,243.28,230.55,244.76Zm-9-13.09c-0.24-.42-0.48-0.84-0.72-1.26l-0.2.14Z" transform="translate(-51 -18.71)"/><path id="SvgjsPath5662" class="cls-14" d="M236.33,226.79l-0.25,0c0,0.5-.06,1-0.09,1.49C236.1,227.76,236.22,227.27,236.33,226.79ZM236,228.24c-1.6,6.95-2.84,13.18-2.27,15.71C235,241.69,235.56,235.36,236,228.24ZM233.72,244a1.16,1.16,0,0,1-2.21.21,1.16,1.16,0,0,1-1.85,1.21,1.71,1.71,0,0,0-.29,3.06,1.53,1.53,0,0,1-.83,1.09,1.5,1.5,0,0,1,1.22.63,1.53,1.53,0,0,1-.23,1.36,1.16,1.16,0,0,1,1.79,1.3,1.16,1.16,0,0,1,2.19.32,1.16,1.16,0,0,1,2.09-.74,1.17,1.17,0,0,1,1.52-1.63,1.16,1.16,0,0,1,.58-2.14,1.71,1.71,0,0,0-1.82-2.48,1.5,1.5,0,0,1-.1-1.37,1.49,1.49,0,0,1-1.33.34A1.46,1.46,0,0,1,233.72,244Zm2.05,0.83c2.17-1.42,5.63-6.76,9.31-12.85C240.44,237.34,236.44,242.28,235.77,244.79Zm9.31-12.86,1-1.12-0.2-.15Zm-7.87,14.55c2.58-.25,8.13-3.37,14.22-7.06C244.81,242.05,239,244.57,237.21,246.48Zm14.22-7.05,1.28-.5c0-.07-0.07-0.14-0.1-0.21Zm-13.74,9.22c2.4,1,8.76.79,15.88,0.36C246.47,248.26,240.13,247.77,237.68,248.64ZM253.56,249l1.22,0.14v-0.21Zm-16.45,1.78c1.67,2,7.39,4.77,13.88,7.69C245.07,254.52,239.67,251.15,237.11,250.78ZM251,258.47l0.9,0.61,0.09-.16Zm-15.39-6.07c0.56,2.53,4.33,7.66,8.72,13.27C240.91,259.42,237.7,253.93,235.59,252.41Zm8.72,13.27,0.45,0.83,0.14-.09Zm-10.81-12.53c-0.68,2.5.27,8.79,1.55,15.8C234.95,261.82,234.67,255.47,233.51,253.15Zm1.55,15.8c0,0.28,0,.57,0,0.86h0.15Zm-3.75-16.12c-1.77,1.91-3.85,7.91-6,14.71C228.56,261.18,231.26,255.42,231.31,252.83Zm-6,14.71c-0.13.24-.25,0.5-0.37,0.75l0.13,0.05Zm4.18-16c-2.46.86-7.09,5.22-12.13,10.25C223.2,257.65,228.27,253.8,229.52,251.53ZM217.4,261.78l-0.74.53,0.1,0.11Zm11.14-12.24c-2.58-.38-8.69,1.33-15.5,3.44C220.1,252,226.36,251,228.54,249.54ZM213,253l-1,.14,0,0.16Zm15.55-5.66c-2.1-1.53-8.32-2.86-15.33-4.15C220,245.6,226,247.58,228.59,247.33Zm-15.33-4.15-1.1-.4a1.87,1.87,0,0,0-.05.2Zm16.4,2.21c-1.15-2.32-6-6.39-11.63-10.79C222.83,239.85,227.25,244.42,229.66,245.39ZM218,234.6l-0.91-1-0.16.17Zm13.48,9.57c0.06-2.59-2.37-8.47-5.29-15C228,236.1,229.83,242.19,231.51,244.17Zm-5.29-15c-0.12-.46-0.24-0.93-0.37-1.4l-0.23.08Z" transform="translate(-51 -18.71)"/><path id="SvgjsPath5666" class="cls-12" d="M241.64,248.15a8.5,8.5,0,1,1-8.5-8.5A8.5,8.5,0,0,1,241.64,248.15Z" transform="translate(-51 -18.71)"/><path id="SvgjsPath5667" class="cls-15" d="M241.64,248.15a8.5,8.5,0,1,1-8.5-8.5A8.5,8.5,0,0,1,241.64,248.15Z" transform="translate(-51 -18.71)"/><path id="SvgjsPath5668" class="cls-16" d="M221.28,258.08a3.54,3.54,0,1,1-1,4.92,3.55,3.55,0,0,1,1-4.92h0Z" transform="translate(-51 -18.71)"/><path id="SvgjsPath5672" class="cls-17" d="M239.85,247c-0.91,1.35-3.5,1.19-5.8-.35s-3.43-3.89-2.53-5.24h0c0.9-1.35,3.5-1.2,5.8.35s3.43,3.89,2.53,5.24h0Z" transform="translate(-51 -18.71)"/><path id="SvgjsPath5676" class="cls-18" d="M250.17,243.36c-2.06,3.15-7.35,3.34-11.83.42s-6.44-7.84-4.39-11,7.35-3.34,11.83-.42,6.44,7.85,4.39,11h0Z" transform="translate(-51 -18.71)"/></g></g></g><g id="svga-group-eyesfront-left"><path id="SvgjsPath5844" class="cls-2" d="M187.23,249.42c0,35.21,20.55,63.75,45.9,63.75S279,284.64,279,249.42s-20.55-63.75-45.9-63.75S187.23,214.21,187.23,249.42Zm9.64-11.4c9.47-.71,28.94-1.52,38-0.39,12.63,1.58,25.6,6.63,32.61,14.56-5.84,4.64-15,6.9-21.41,8-11,1.93-19.52,1.81-27.25-.52C210.82,257.29,200.46,247.38,196.87,238Z" transform="translate(-51 -18.71)"/><path id="SvgjsPath5845" class="cls-19" d="M187.6,246.66c0.07,21.12,21.63,38.15,48.2,38s48-17.33,48-38.45-21.64-38.16-48.2-38S187.54,225.53,187.6,246.66Zm9.27-8.63c9.47-.71,28.94-1.52,38-0.39,12.63,1.58,25.6,6.63,32.61,14.56-5.84,4.64-15,6.9-21.41,8-11,1.93-19.52,1.81-27.25-.52C210.82,257.29,200.46,247.38,196.87,238Z" transform="translate(-51 -18.71)"/><path id="SvgjsPath5850" class="cls-20" d="M196.87,238c9.47-.71,28.94-1.52,38-0.39,12.63,1.58,25.6,6.63,32.61,14.56-5.84,4.64-15,6.9-21.41,8-11,1.93-19.52,1.81-27.25-.52C210.82,257.29,200.46,247.38,196.87,238Z" transform="translate(-51 -18.71)"/><path id="SvgjsPath5854" class="cls-8" d="M216.21,228.25c15.64-.71,22,0.22,33.11,3.53a24,24,0,0,1,6.52,3.1C246.19,229.68,220,228.11,216.21,228.25Zm-20.32,18c7.28,14,12.23,12.48,19.2,15.45a72.61,72.61,0,0,1-6.79-3C200.68,254.26,199.75,252.39,195.89,246.24Z" transform="translate(-51 -18.71)"/><path id="SvgjsPath5855" d="M187.23,233.45c7.89,6.44,11.13,15.18,18.86,21.75,5.19,4.41,15,6.93,24.49,7.07,9.8,0.15,21.9-1.11,26.16-2.18,7.24-1.83,9-3.26,17.19-3.75-5.06-7.75-9.78-11.22-16-14.89-7.59-4.5-12.94-5.81-22.23-6.54C223.34,233.93,187.23,233.45,187.23,233.45Zm12,5.33c8.84-.66,27-1.42,35.43-0.37,11.78,1.47,23.89,6.19,30.43,13.59-5.45,4.33-14,6.44-20,7.48-10.25,1.8-18.22,1.69-25.43-.48C212.25,256.75,202.58,247.51,199.23,238.78Z" transform="translate(-51 -18.71)"/></g></g><g id="svga-group-eyes-right"><g id="svga-group-eyesback-right"><path id="SvgjsPath5827" class="cls-21" d="M352.82,260.21c11,1.93,19.52,1.81,27.25-.52,8-2.4,18.33-12.3,21.92-21.66-9.47-.71-28.94-1.52-38-0.39-12,1.49-24.16,6.14-31.38,13.35,0,0.75.14,1.49,0.22,2.22C338.7,257.15,347,259.18,352.82,260.21Z" transform="translate(-51 -18.71)"/></g><g id="svga-group-eyesiriswrapper-right"><g id="svga-group-eyesiriscontrol-right"><g id="svga-group-eyesiris-right"><path id="SvgjsPath5680" class="cls-12" d="M387.41,248.15a21.67,21.67,0,1,1-43.35,0h0a21.67,21.67,0,1,1,43.35,0h0Z" transform="translate(-51 -18.71)"/><path id="SvgjsPath5681" class="cls-22" d="M363.31,226.72l-0.26,0c0.1,0.49.21,1,.31,1.47C363.34,227.72,363.32,227.21,363.31,226.72Zm0,1.49c0.25,7.12.67,13.47,1.87,15.77C365.85,241.46,364.78,235.2,363.35,228.21ZM365.22,244a1.16,1.16,0,0,1-2.08.78,1.16,1.16,0,0,1-1.47,1.65,1.16,1.16,0,0,1-.53,2.15,1.16,1.16,0,0,1,.53,2.15A1.5,1.5,0,0,1,363,251a1.53,1.53,0,0,1,.13,1.37,1.71,1.71,0,0,0,3.07-.14,1.49,1.49,0,0,1,1.19.68,1.16,1.16,0,0,1,1.83-1.25,1.54,1.54,0,0,1-.2-1.36,1.51,1.51,0,0,1,1.24-.6,1.16,1.16,0,0,1,0-2.22,1.71,1.71,0,0,0-2.4-1.93,1.51,1.51,0,0,1-.45-1.3,1.47,1.47,0,0,1-1.19.67A1.51,1.51,0,0,1,365.22,244Zm2.19,0.27c1.73-1.93,3.69-8,5.67-14.82C370,235.84,367.42,241.65,367.42,244.25Zm5.67-14.83c0.22-.44.44-0.89,0.65-1.34L373.5,228C373.36,228.47,373.23,229,373.09,229.43Zm-3.84,16.09c2.43-.91,7-5.36,11.91-10.49C375.44,239.27,370.45,243.22,369.24,245.51ZM381.16,235l1.1-.81-0.15-.18Zm-10.89,12.46c2.58,0.32,8.67-1.51,15.43-3.76C378.66,244.83,372.41,246,370.26,247.48Zm15.43-3.76,1.22-.19-0.05-.21Zm-15.44,6c2.13,1.49,8.37,2.7,15.4,3.84C378.92,251.25,372.84,249.38,370.26,249.7Zm15.4,3.84,1,0.35c0-.06,0-0.12,0-0.18Zm-16.44-1.88c1.2,2.3,6.17,6.28,11.85,10.56C376.17,257.05,371.65,252.58,369.22,251.66Zm11.86,10.55,0.65,0.68,0.11-.12Zm-13.68-9.3c0,2.6,2.54,8.42,5.59,14.86C371,260.91,369.12,254.85,367.4,252.91ZM373,267.77c0.08,0.27.16,0.55,0.23,0.83l0.14-.05Zm-7.79-14.6c-1.21,2.3-1.67,8.63-2,15.75C364.7,262,365.81,255.69,365.19,253.17Zm-2,15.75c-0.06.27-.11,0.55-0.17,0.82l0.14,0C363.22,269.49,363.23,269.2,363.24,268.92Zm-0.11-16.55c-2.15,1.47-5.49,6.88-9.06,13C358.6,259.92,362.5,254.89,363.13,252.38Zm-9.06,13-0.58.7,0.14,0.09Zm7.59-14.7c-2.59.3-8.06,3.53-14.08,7.33C354.16,255.29,359.93,252.66,361.67,250.71Zm-14.08,7.34-0.95.4,0.08,0.15Zm13.55-9.49c-2.43-.93-8.77-0.61-15.88,0C352.36,249.13,358.71,249.48,361.14,248.56Zm-15.88,0-1.17-.1a1.82,1.82,0,0,0,0,.2Zm16.41-2.11c-1.71-1.95-7.48-4.61-14-7.41C353.64,242.83,359.1,246.1,361.67,246.41Zm-14-7.41-1.14-.73-0.1.2Zm15.5,5.76c-0.61-2.52-4.48-7.57-9-13.09C357.7,237.86,361,243.28,363.15,244.76Zm-9-13.09c-0.24-.42-0.48-0.84-0.72-1.26l-0.2.14Z" transform="translate(-51 -18.71)"/><path id="SvgjsPath5685" class="cls-23" d="M368.93,226.79l-0.25,0c0,0.5-.06,1-0.09,1.49C368.7,227.76,368.82,227.27,368.93,226.79Zm-0.34,1.46c-1.6,6.95-2.84,13.18-2.27,15.71C367.58,241.69,368.16,235.36,368.59,228.24ZM366.32,244a1.16,1.16,0,0,1-2.21.21,1.16,1.16,0,0,1-1.85,1.21,1.71,1.71,0,0,0-.29,3.06,1.53,1.53,0,0,1-.83,1.09,1.5,1.5,0,0,1,1.22.63,1.53,1.53,0,0,1-.23,1.36,1.71,1.71,0,0,0,3,.66,0.9,0.9,0,1,0,1.75-.17,1.5,1.5,0,0,1,1.31.4,1.17,1.17,0,0,1,1.52-1.63,1.16,1.16,0,0,1,.58-2.14,1.71,1.71,0,0,0-1.82-2.48,1.5,1.5,0,0,1-.1-1.37,1.49,1.49,0,0,1-1.33.34A1.46,1.46,0,0,1,366.32,244Zm2.05,0.83c2.17-1.42,5.63-6.76,9.31-12.85C373,237.34,369,242.28,368.37,244.79Zm9.31-12.86,1-1.12-0.2-.15Zm-7.87,14.55c2.58-.25,8.13-3.37,14.22-7.06C377.41,242.05,371.57,244.57,369.81,246.48ZM384,239.43l1.28-.5c0-.07-0.07-0.14-0.1-0.21Zm-13.74,9.22c2.4,1,8.76.79,15.88,0.36C379.07,248.26,372.73,247.77,370.28,248.64ZM386.16,249l1.22,0.14v-0.21Zm-16.45,1.78c1.67,2,7.39,4.77,13.88,7.69C377.67,254.52,372.27,251.15,369.71,250.78Zm13.88,7.69,0.9,0.61,0.09-.16Zm-15.39-6.07c0.56,2.53,4.33,7.66,8.72,13.27C373.51,259.42,370.3,253.93,368.19,252.41Zm8.72,13.27,0.45,0.83,0.14-.09Zm-10.81-12.53c-0.68,2.5.27,8.79,1.55,15.8C367.55,261.82,367.27,255.47,366.11,253.15Zm1.55,15.8c0,0.28,0,.57,0,0.86h0.15Zm-3.75-16.12c-1.77,1.91-3.85,7.91-6,14.71C361.16,261.18,363.86,255.42,363.91,252.83Zm-6,14.71c-0.13.24-.25,0.5-0.37,0.75l0.13,0.05Zm4.18-16c-2.46.86-7.09,5.22-12.13,10.25C355.8,257.65,360.87,253.8,362.12,251.53ZM350,261.78l-0.74.53,0.1,0.11Zm11.14-12.24c-2.58-.38-8.69,1.33-15.5,3.44C352.7,252,359,251,361.14,249.54ZM345.64,253l-1,.14,0,0.16Zm15.55-5.66c-2.1-1.53-8.32-2.86-15.33-4.15C352.56,245.6,358.6,247.58,361.19,247.33Zm-15.33-4.15-1.1-.4a1.87,1.87,0,0,0-.05.2Zm16.4,2.21c-1.15-2.32-6-6.39-11.63-10.79C355.43,239.85,359.85,244.42,362.26,245.39ZM350.63,234.6l-0.91-1-0.16.17Zm13.48,9.57c0.06-2.59-2.37-8.47-5.29-15C360.63,236.1,362.43,242.19,364.11,244.17Zm-5.29-15c-0.12-.46-0.24-0.93-0.37-1.4l-0.23.08Z" transform="translate(-51 -18.71)"/><path id="SvgjsPath5689" class="cls-12" d="M374.24,248.15a8.5,8.5,0,1,1-8.5-8.5A8.5,8.5,0,0,1,374.24,248.15Z" transform="translate(-51 -18.71)"/><path id="SvgjsPath5690" class="cls-15" d="M374.24,248.15a8.5,8.5,0,1,1-8.5-8.5A8.5,8.5,0,0,1,374.24,248.15Z" transform="translate(-51 -18.71)"/><path id="SvgjsPath5691" class="cls-24" d="M353.88,258.08a3.54,3.54,0,1,1-1,4.92,3.55,3.55,0,0,1,1-4.92h0Z" transform="translate(-51 -18.71)"/><path id="SvgjsPath5695" class="cls-25" d="M372.45,247c-0.91,1.35-3.5,1.19-5.8-.35s-3.43-3.89-2.53-5.24h0c0.9-1.35,3.5-1.2,5.8.35s3.43,3.89,2.53,5.24h0Z" transform="translate(-51 -18.71)"/><path id="SvgjsPath5699" class="cls-26" d="M382.77,243.36c-2.06,3.15-7.35,3.34-11.83.42s-6.44-7.84-4.39-11,7.35-3.34,11.83-.42,6.44,7.85,4.39,11h0Z" transform="translate(-51 -18.71)"/></g></g></g><g id="svga-group-eyesfront-right"><path id="SvgjsPath5865" class="cls-2" d="M365.73,185.67c-25.35,0-45.9,28.54-45.9,63.75s20.55,63.75,45.9,63.75,45.9-28.54,45.9-63.75S391.08,185.67,365.73,185.67Zm14.34,74c-7.73,2.33-16.26,2.45-27.25.52-6.37-1.12-15.57-3.37-21.41-8,7-7.93,20-13,32.61-14.56,9-1.13,28.5-.31,38,0.39C398.4,247.38,388,257.29,380.07,259.69Z" transform="translate(-51 -18.71)"/><path id="SvgjsPath5866" class="cls-27" d="M363.3,208.2c-26.56-.11-48.13,16.92-48.2,38s21.41,38.33,48,38.45,48.13-16.92,48.2-38S389.86,208.32,363.3,208.2Zm16.78,51.49c-7.73,2.33-16.26,2.45-27.25.52-6.37-1.12-15.57-3.37-21.41-8,7-7.93,20-13,32.61-14.56,9-1.13,28.5-.31,38,0.39C398.4,247.38,388,257.29,380.07,259.69Z" transform="translate(-51 -18.71)"/><path id="SvgjsPath5871" class="cls-28" d="M402,238c-9.47-.71-28.94-1.52-38-0.39-12.63,1.58-25.6,6.63-32.61,14.56,5.84,4.64,15,6.9,21.41,8,11,1.93,19.52,1.81,27.25-.52C388,257.29,398.4,247.38,402,238Z" transform="translate(-51 -18.71)"/><path id="SvgjsPath5875" class="cls-8" d="M343,234.87a24,24,0,0,1,6.52-3.1c11.15-3.3,17.48-4.24,33.11-3.53C378.92,228.11,352.68,229.68,343,234.87Zm47.53,23.77a72.61,72.61,0,0,1-6.79,3c7-3,11.93-1.44,19.2-15.45C399.12,252.39,398.19,254.26,390.56,258.64Z" transform="translate(-51 -18.71)"/><path id="SvgjsPath5876" d="M363.15,234.9c-9.29.73-14.64,2-22.23,6.54-6.2,3.67-10.92,7.15-16,14.89,8.17,0.49,10,1.92,17.19,3.75,4.25,1.07,16.36,2.33,26.16,2.18,9.5-.14,19.29-2.66,24.49-7.07,7.74-6.57,11-15.31,18.86-21.75C411.63,233.45,375.53,233.93,363.15,234.9Zm16,24.09c-7.21,2.18-15.18,2.28-25.43.48-5.94-1-14.53-3.15-20-7.48,6.54-7.4,18.65-12.12,30.43-13.59,8.43-1.05,26.59-.29,35.43.37C396.28,247.51,386.62,256.75,379.18,259Z" transform="translate(-51 -18.71)"/></g></g><g id="svga-group-facehighlight-single"><path id="SvgjsPath2753" class="cls-29" d="M402,313.19a102.85,102.85,0,1,1-103-102.69A102.85,102.85,0,0,1,402,313.19Z" transform="translate(-51 -18.71)"/><path id="SvgjsPath2757" class="cls-30" d="M388.68,167.82a89.25,89.25,0,1,1-89.25-89.25A89.25,89.25,0,0,1,388.68,167.82Z" transform="translate(-51 -18.71)"/></g><g id="svga-group-eyebrows-left"><path id="SvgjsPath5976" class="cls-31" d="M177,223.92c69.57-55.09,117.35-7.6,99.24-8.33C273.45,215.51,242.06,188.33,177,223.92Z" transform="translate(-51 -18.71)"/></g><g id="svga-group-eyebrows-right"><path id="SvgjsPath5977" class="cls-31" d="M421.82,223.92c-21.17-16.76-42.94-27.61-70.51-26.2-35.57,2.44-37.67,23.91-25,16.15a59,59,0,0,1,27.65-8C376.67,204.56,400.44,212.23,421.82,223.92Z" transform="translate(-51 -18.71)"/></g><g id="svga-group-nose-single"><path id="SvgjsPath6051" class="cls-4" d="M297,258.19s-2.11,48.62-1.82,59.3c0.08,3,5.92,11,5.52,16.77,0,0-11.38-.83-15.08-2.14-3.87-1.37-9.87-4-7.5-11.53C281.49,309.95,297,258.19,297,258.19Z" transform="translate(-51 -18.71)"/><path id="SvgjsPath6052" class="cls-8" d="M295.93,328.54s-4.72-1.68-7.7-1.59c-2.71.08-3.11-1.72-2.83-2.75s1.21-1.67,3.83-1S295.93,328.54,295.93,328.54Zm7,0a33.39,33.39,0,0,1,7.7-1.59c2.71,0,3.11-1.73,2.83-2.75s-1.21-1.68-3.83-1S303,328.55,303,328.55Z" transform="translate(-51 -18.71)"/></g><g id="svga-group-hair-front"><path id="SvgjsPath5921" class="cls-32" d="M419.11,114H175l5.22,162.35c1.05-2.56,15.73-28.93,17.55-25.21,68.89-34,91.26-77,105-111.59-20.42,85.82-69.65,97.9-69.65,97.9,10.79-1.2,41.75-4.4,62.18-25.62,2.67-2.83,25.29-19.91,45-73.15,4.07,43.81,23.21,91.43,55.53,111.73-10.82-21.33-25-76.29-27.63-115,18,87.64,36.12,133.71,52.52,164.75,5.57,10.54,16.57,29.18,15.28,28.93C439.85,349.1,419.11,114,419.11,114Z" transform="translate(-51 -18.71)"/><path id="SvgjsPath5922" class="cls-33" d="M360.57,32.08a201.34,201.34,0,0,0-20.42-7c-0.12-2.55-134-40.67-202,117.86-17.23,49.94-26.36,126.92-10.49,177.43,3.67,11.19,13.87,27.07,23.56,80.3,4.67,25.62,8.35,45.86,36.16,74,7.3,7.38,26,22.05,29.37,35.1,10.3-56.7-9.28-72.63-27.9-87.84-12.77-10.43-25.21-12.82,7.86-5,0,0,7-.44,20.61-9-21.55,4.54-37-2.77-46.91-20-13.14-22.77-13.07-57.2.16-80.08,13.29,7.5,12.6,43.75,13.29,48.39,6-18.82-2.72-74-3.69-79.8-0.22-2.63,3.43-11.65,3.43-11.65,1.05-2.56,12.3-23,14.12-19.31,68.89-34,91.26-77,105-111.59-20.42,85.82-67.16,102.33-67.16,102.33,10.79-1.2,39.26-8.82,59.69-30,2.67-2.83,27-29.43,46.66-82.68,4.07,43.81,23.85,93.24,49.61,122.73-10.82-21.33-20.77-77.76-23.38-116.5,18,87.64,40.22,129.78,56.63,160.82,5.57,10.54,11.81,28.34,10.52,28.08,3.93,20-4.31,66.28-43,77.31a61.85,61.85,0,0,0,19.72.84c-42,41.46-18.51,65.84-10.68,109.69,2.18-7.77,2.1-15.74,13.94-32.92,22.19-32.25,5.06-32.86,32.29-86,29.21-57,25.81-79.28,28.43-94.42C476.3,291,492.6,81.87,360.57,32.08Z" transform="translate(-51 -18.71)"/><path id="SvgjsPath5923" class="cls-34" d="M217.23,506.95c1.08-6.61,1.76-12.6,2.13-18.1A169.84,169.84,0,0,1,217.23,506.95Zm15.9-293.22c31.77-46.09,51-79,61.2-127.5C270,142.1,227,186.16,190.16,232.34c-0.46-10.57,1.2-70.92,48.84-143-57.09,52.24-82.18,126.43-67.06,171.1-11.17-23.63-19.46-69.93-11.56-102-32,75.82,12.39,110.07,24.82,158-3.43-46.36-8-37.55-1.58-53.51,0.9-2.18,7.15-14.16,7.5-11.41,2.93-4.45,5.78-7.9,6.62-6.18,68.89-34,91.26-77,105-111.59-20.42,85.82-67.16,102.33-67.16,102.33,31.7-3.52,81.72-58.32,74.81-137.83C297.6,144.21,264.9,184.16,233.13,213.72Zm238.79-10.79c1.79,40.32-2.83,79.11-9.29,117.89a654.11,654.11,0,0,0-31-124.86c14.11,65.28,12.38,88.73,13.16,114-33.52-73-67.18-135.87-80.1-211.21-2.43,27.62,4.59,68.9,8.71,99.69-11.14-24.89-23.71-54.64-28.26-100.11,0,8.76-1,13.32-4,24.17,4.41,43.39,24.92,94.55,50.35,123.67-10.82-21.33-20.77-77.76-23.38-116.5,18,87.64,40.22,129.78,56.63,160.82,4.78,9,10,23.41,10.63,27.14,0.1,0.62.08,1-.1,0.94a49.22,49.22,0,0,1,.8,7c4.51,11.71,6.45,18.88,3.76,27.5-3.89,12.48-23.07,39.86-47.6,42.85,22.29,5.26,36.57-7.11,48.37-22.51C422.94,414,386.72,395.77,401.1,505c1.79-6.29,4.36-17.45,14.09-31.59,22.19-32.25,5.06-32.86,32.29-86,29.21-57,25.81-79.28,28.43-94.42C476.08,292.14,479.26,252,471.92,202.93ZM157.87,391.12c7.62,4.87,16.67,27.08,42.16,25.09-50.78-13.09-48.5-84.73-48.5-128.54a268.8,268.8,0,0,0-8.77,39.05C114,248.28,130.1,163.25,167.84,90.3a262.64,262.64,0,0,0-29.67,52.64c-42.56,123.39-1.27,200,2.53,212.56,17.13,56.73,6.84,78.85,46.7,119.13,7.3,7.38,26,22.05,29.37,35.1C226.42,445.74,168.4,428.18,157.87,391.12ZM409,90.69c39.64,35.82,54,116.87,54.39,177.08C463.63,280.44,463.69,142.66,409,90.69Zm30.41,145.39c8.52,51.1-6.43-108.7-62.67-149C410.38,115.05,432.84,197.89,439.36,236.08ZM225.18,83c15.15-12.61-7.12,5.1-14.8,12.26-26.87,24.3-38.36,49.56-43.7,77C175.77,134,196,108.51,225.18,83Zm35.25,4.42c7.2-6.61-35.55,21.08-58.43,105.24C219.18,140.18,241.55,106.23,260.43,87.46Z" transform="translate(-51 -18.71)"/><path id="SvgjsPath5924" class="cls-35" d="M431.19,300.17c43.83,68.38,8.79,90.16,4.75,104.48C440.47,388.62,464.22,364.74,431.19,300.17Zm30,51.32c0.26-2.55,8.32-23.43.31-62.59-4.35-21.26-12-41.6-17.24-62.62C454.24,273.34,466,303.87,461.15,351.49ZM148.42,381.78c0.06-3.73-14-47.75,6.24-102C126,339.4,148.55,374.51,148.42,381.78Zm16-81c-0.51-2.12-2.1-4.39-3-6.37-34.14-75-10.79-132.74,18.32-205.64C140.83,172.36,122.34,221.75,164.42,300.8ZM240,80.56c0.09-.1,9.86-10.11,10-10.07a13.54,13.54,0,0,0-2.13,2c-54.61,49.82-88.56,102.71-78.54,175.38C162.7,180.72,194.15,129.31,240,80.56Zm59.39-10.22c-8.25,20.83-68.58,110.86-108.06,158.2C257.7,154.81,298.45,77.52,299.43,70.35Zm-44,159.81c-0.6.35-5.6,4-5.87,3.84,0.11,0.06,4-2.4,4.26-2.56,68.37-36,76.41-80.37,93.37-153C328.35,146.41,315.39,194.53,255.46,230.16Zm185.23,65.55c-10.56-23.62-74.89-163.83-76.44-205.14C365.73,159.12,439.55,293.15,440.69,295.71Zm-17.18-81.21c0.92,4,2.16,8.11,2.86,12.2-8.72-51.29-13.66-88.48-45.82-129.12C402,125.25,409.66,153.66,423.51,214.49Zm-31.14-135c0,0.17-.2.63-0.46,0.44,40.92,31.32,62.28,150.2,63.18,152.75-3-8.61.76-73.05-49.21-137.59-4-5.2-8.46-11.46-13.94-15.24,0.16,0,.48-0.16.36-0.35a8.55,8.55,0,0,0,.56.76A1.68,1.68,0,0,1,392.37,79.46Z" transform="translate(-51 -18.71)"/><path id="SvgjsPath5925" class="cls-33" d="M434.1,408.7c-14.44,41.74-16.57,44.6-16.57,44.6C416.43,455.85,425.54,426.76,434.1,408.7Zm-18.37,53c-0.21.73-1.56,5.62-1.37,5,4.91-14,9.73-17,14.67-38.22C423.44,445.83,422.92,440.93,415.74,461.7Zm1.17,0.89c-8.09,12-10.18,19.58-9.86,18.79a57.94,57.94,0,0,1,3.86-7.25c4.2-6.8,9.29-12,13-25.23A52.5,52.5,0,0,1,416.91,462.59ZM172.53,448.42c9.78,12-1.62,1.2-17.65-37.7C161.07,431.63,165.93,439.72,172.53,448.42Zm13.31,13c-2.56-1.89-18.3-17.37-24.38-29.06C170.25,453.16,188.39,463.41,185.84,461.46Zm-7.39-2.1c27,25.45-7.11-6.47-10.08-12.47C168.36,446.89,168.41,449.64,178.44,459.36Z" transform="translate(-51 -18.71)"/><path id="SvgjsPath5926" class="cls-36" d="M472.53,181.79C441.66,34.41,339.8,24.43,346.84,27.43,255.33-5,145.15,54.3,123.1,185c-6.19,36.71-8.82,104.35.39,130.21,5.16,14.49,8.35,22.16,14.73,39,20.19,56-1.9,85,62,134.2,7.93,6.13,13.17,14.22,16.75,23.66,0-.05.53-3,0.54-3.09,7.74-43.91,5-68.49-37.12-95.89a30.52,30.52,0,0,0,37.5-5.94c-46.33,13.14-68.74-49.12-46-96.16,8.44,19.74,11.77,38.34,11.26,49.11,9.35-28.64,3.48-40.25-.66-92.39A95.75,95.75,0,0,1,195.85,246c48-24,84-46.24,108.59-116.94-5.91,19.79-10.16,39.16-27,65.09-22.06,34.07-32.07,35.23-45.8,42.58,11.36,0,26.78-3.37,48.16-16.24a148.57,148.57,0,0,1-13.58,10.73c34.92-22.49,61.13-54.63,74.92-108.73-9.14,43-13.82,81.82-58.39,105.79,44.6-22.6,53-55,59.23-104.73,4.49,78,41.16,117.8,53.76,126.89-16-26.28-23-88.29-28.62-128.2,6.15,38.21,3.74,26.34,13.37,63.63C398.09,253.07,420.22,291,433,317.76c5.26,36.83-10.54,70.89-44.33,77.62a37.13,37.13,0,0,0,22.26,2c-47.2,47.2-18.36,61.31-9.69,111.26,3.29-20.46,14.82-30.25,23.59-46.48,8.81-16.41,5.63-34,15.33-54.31C472.64,340.49,499.22,310.1,472.53,181.79ZM393.07,395.68c26-5,47.53-40.27,43.84-69.31,8,18.64,9.65,32.06-1.05,48.25C426.7,390.3,411.06,399.91,393.07,395.68Zm47.52-22.34h0a0.07,0.07,0,0,0-.07,0S440.55,373.3,440.59,373.34Zm34.05-80.48c-5.32,74.79-39.15,98.28-45,137.7-6.51,45.36-21.41,37.13-28.61,72.47-7.88-44.08-30-65,12.72-106.41,19.37-6,38.57-29.49,32.18-59-10-46.42-50.22-72.36-78.41-217.26,0,0.05,0,.1,0,0.16-0.48-2.27-1.08-5-1.46-6.94-0.1-.1-3.55-21.22.07,2.92,1.14,40.57,11.52,102.12,23.43,125.57-36.52-46.46-45.75-97.3-47.58-118.92,0.34-2.69.67-5.41,1-8.2h0c1.51-12.2,4.48-32-1.32,3.47-18.56,52.8-41.68,80.74-47.41,86.81-19.77,20.52-50,29.92-58.37,30.68,48.65-21.56,65.32-79.58,73.57-130.36-0.3,1.43-3.5,16.75-3.21,15.33-14.83,39.42-34.17,86.41-109.12,123.39,53.93-66.46,82.47-118.7,95.32-153.76-26.08,62.19-100.89,153-109.55,174-2.68-86.39,27.43-147.4,57.25-174.19-31.07,24.27-68.9,94.89-61.28,186.18,2.79,16.89,8.92,60.54,5.18,77.42,0.68-10.26-1.46-24.73-3.42-31.65v0C173,294.29,154,273.46,150.46,241.94c-3.21-28.43-2-57.73,10.61-83.84-9.36,17.59-13.95,36.66-14.69,56.53-2.15,57.63,15.08,63.44,23.12,92.51-24.14,41.71-3.89,115,45.53,101.5-29.73,24.21-55.25-19.28-59.76-27.58-7-17.1-8.33-36.73-9.19-54.93-0.31,130.35,86.67,69.76,70.63,181.29-2.05-9.91-25.87-31.11-28.4-33.67C149.88,434.9,158,411.42,145,366.69c-5.33-24.93-11.89-34-16.07-46.7-16.29-51.85-5.65-129.83,10.49-176.63,30.94-72.1,80-119.51,158.1-122.07,18.42-.61,57,6.35,34.68,3.21,11.07,2.29,17.5,4.8,28,8.77C489.57,82.09,475.58,287.86,474.67,292.79A0.08,0.08,0,0,0,474.64,292.86Z" transform="translate(-51 -18.71)"/></g><g id="svga-group-glasses-single"><path id="SvgjsPath5974" class="cls-37" d="M299.43,71.26h0Z" transform="translate(-51 -18.71)"/></g></g><path class="cls-38" d="M299.16,567.5a269.82,269.82,0,0,1-57.25-6v82.6H375.49V556.46c-21.64,6.94-47.92,11-76.33,11h0Zm0,0" transform="translate(-51 -18.71)"/><path class="cls-39" d="M370,472.39c16,9,29.74,10.83,67.13,10.83h3.18c58,0,105,37.73,105,84.28v53.63c0,12.7-12.81,23-28.63,23H320.82Z" transform="translate(-51 -18.71)"/><path class="cls-39" d="M276.66,644.11H80.87c-15.81,0-28.63-10.29-28.63-23V567.5c0-46.55,47-84.28,105-84.28h3.18c37.39,0,51.16-1.78,67.13-10.83Z" transform="translate(-51 -18.71)"/></svg>