<svg id="Layer_1" data-name="Layer 1" xmlns="http://www.w3.org/2000/svg" viewBox="0 0 277.5 334.61"><defs><style>.cls-1{fill:#e6e4e3;}.cls-2{fill:#fff;}</style></defs><title>female</title><path class="cls-1" d="M100.61,223.74c13.73,2.07,30.56-1.1,48.92-2.2a42.85,42.85,0,0,0,21.13-.06c47.78,2.26,85,15.8,85-81.39,0-66-42.81-119.54-95.7-119.54S64.26,74.11,64.26,140.09c0,53.05,10.14,73.66,26.65,80.84A35.28,35.28,0,0,0,100.61,223.74ZM85.39,102.8c10,13.89,36,10.92,58.41-6.66a85.51,85.51,0,0,0,14.67-14.73,13.25,13.25,0,0,1,1.55.26,51.69,51.69,0,0,1,6.46,1.87,59.51,59.51,0,0,1,6.14,3,56.73,56.73,0,0,1,5.65,3.68A51.56,51.56,0,0,1,183,94.5,33.69,33.69,0,0,1,186.81,99a43.82,43.82,0,0,1,2.84,4.2,19.63,19.63,0,0,1,1.94,3.49c1,2,1.55,3.17,1.55,3.17s-.19-1.23-.58-3.49a31.88,31.88,0,0,0-.81-4,33.28,33.28,0,0,0-1.62-5.17,49.88,49.88,0,0,0-2.58-5.88A66.15,66.15,0,0,0,183.81,85a72.21,72.21,0,0,0-5-6.14,64.66,64.66,0,0,0-6.14-5.65,64.62,64.62,0,0,0-6.4-4.2,50.13,50.13,0,0,0,2.42-6c8,3.62,16.22,8.21,22.75,14.73,24,24,14.54,51.82,33,33.41a49.67,49.67,0,0,0,7.17-9,8.16,8.16,0,0,1,1.81.06,8.49,8.49,0,0,1,5,4.14c2.52,4.2,3.1,10.27,1.55,16.35-2.33,9-8.27,14.41-13.05,15l-3.88.52L222,142c-9.18,33.28-33.92,68.66-61.9,68.66S107.46,175.24,98.22,142l-1-3.81-3.88-.52c-4.72-.65-10.73-6-13.05-15-1.55-6.07-1-12.12,1.55-16.35a8.7,8.7,0,0,1,3.62-3.55Z" transform="translate(-21.92 -20.55)"/><path class="cls-1" d="M247.72,254.26c-11.09-4-20-8.11-27.19-12.59a26.22,26.22,0,0,0-2.82-1.56c-4.06-2.24-8-.39-9.08,1q-.46.59-.95,1.18c-8.44,9.87-36.23,21.83-36.24,21.83a5.13,5.13,0,0,0-3.78,4.94h0l.1,34.15a37.87,37.87,0,1,1-75.73,0V289a18.42,18.42,0,1,1,12.54-.17v13.82c0,14.91,11.36,27.06,25.34,27.06s25.33-12.15,25.33-27.06l.07-33.29h0v-.22l0,0a5.68,5.68,0,0,0-3.42-4.58s-29.61-14.77-38.29-25.82c-1.12-1.43-5-3.27-9.08-1-7.57,4.17-17.87,7.62-30.88,12.31-40.13,14.47-51.7,29.23-51.7,39.29v65.92h277.5V289.24c0-10.07-11.57-20.5-51.7-35Zm0,0" transform="translate(-21.92 -20.55)"/><path class="cls-1" d="M115.7,214.88c.91,15.95,21.3,28.7,46.32,28.7s45.41-12.75,46.32-28.7Z" transform="translate(-21.92 -20.55)"/><path class="cls-2" d="M253.27,312.42H242.13V301.28a5,5,0,0,0-10.07,0v11.14H220.92a5,5,0,0,0,0,10.07h11.14v11.14a5,5,0,0,0,10.07,0V322.49h11.14a5,5,0,0,0,0-10.07Z" transform="translate(-21.92 -20.55)"/></svg>