<svg id="Layer_1" data-name="Layer 1" xmlns="http://www.w3.org/2000/svg" xmlns:xlink="http://www.w3.org/1999/xlink" viewBox="0 0 481.17 604.03"><defs><style>.cls-1{fill:#2a232b;}.cls-17,.cls-2{fill:#edd8cc;}.cls-3{fill:#fcf6f2;}.cls-4{fill:#debca9;}.cls-5{fill:none;}.cls-17,.cls-5{stroke:#bf8a6b;stroke-width:1.5px;}.cls-6{fill:url(#linear-gradient);}.cls-7{fill:#f3f1f3;}.cls-8{fill:#131111;}.cls-9{fill:#f3f1f4;}.cls-10{fill:#cfc8d7;}.cls-11{fill:#e1e0e1;}.cls-12{fill:#f1f7f8;}.cls-13{fill:#cbe4e9;}.cls-14{fill:#a8d2d9;}.cls-15,.cls-26,.cls-27{fill:#fff;}.cls-16{fill:#88c1ca;}.cls-18{fill:#bf8a6b;}.cls-19{fill:#e5caba;}.cls-20{fill:url(#radial-gradient);}.cls-21{fill:#3e4442;}.cls-22{fill:#535353;}.cls-23{fill:#1b2522;}.cls-24{fill:#0e1613;}.cls-25,.cls-27{opacity:0.9;}.cls-25,.cls-26,.cls-27{isolation:isolate;}.cls-26{opacity:0.7;}.cls-28{fill:url(#radial-gradient-2);}.cls-29{fill:url(#radial-gradient-3);}.cls-30{fill:#09152e;}.cls-31{fill:url(#radial-gradient-4);}.cls-32{fill:url(#radial-gradient-5);}.cls-33{fill:url(#radial-gradient-6);}.cls-34{fill:url(#radial-gradient-7);}.cls-35{fill:url(#radial-gradient-8);}.cls-36{fill:#3a353a;}.cls-37{fill:#26120b;}</style><linearGradient id="linear-gradient" x1="68.2" y1="645.38" x2="68.2" y2="685.79" gradientTransform="matrix(2.55, 0, 0, -2.55, 136.45, 2109.93)" gradientUnits="userSpaceOnUse"><stop offset="0" stop-color="#debca9" stop-opacity="0.8"/><stop offset="0.7" stop-color="#bf8a6b"/></linearGradient><radialGradient id="radial-gradient" cx="43.85" cy="724.93" r="9.83" gradientTransform="matrix(2.55, 0, 0, -2.55, 136.45, 2109.93)" gradientUnits="userSpaceOnUse"><stop offset="0" stop-color="#fff"/><stop offset="0.54" stop-color="#fdfefe"/><stop offset="0.74" stop-color="#f6f8f9"/><stop offset="0.88" stop-color="#eaeff2"/><stop offset="0.99" stop-color="#d9e3e8"/><stop offset="1" stop-color="#d8e2e7"/></radialGradient><radialGradient id="radial-gradient-2" cx="96.57" cy="1021.04" fx="105.92740091661538" r="15.82" gradientTransform="matrix(2.55, 0.05, -0.04, 2.04, 51.8, -1832.19)" gradientUnits="userSpaceOnUse"><stop offset="0" stop-color="#debca9"/><stop offset="0.7" stop-color="#debca9" stop-opacity="0.3"/><stop offset="1" stop-color="#edd8cc" stop-opacity="0"/></radialGradient><radialGradient id="radial-gradient-3" cx="-113.6" cy="777.99" r="35.9" gradientTransform="matrix(0.14, -2.55, -2.02, -0.11, 1829.28, 131.6)" gradientUnits="userSpaceOnUse"><stop offset="0.95" stop-opacity="0"/><stop offset="1" stop-opacity="0.2"/></radialGradient><radialGradient id="radial-gradient-4" cx="-10.18" cy="724.93" r="9.83" gradientTransform="translate(345.55 2109.93) rotate(180) scale(2.55)" xlink:href="#radial-gradient"/><radialGradient id="radial-gradient-5" cx="41.76" cy="1022.46" fx="51.11127238853749" r="15.82" gradientTransform="matrix(-2.55, 0.05, 0.04, 2.04, 428.17, -1832.16)" xlink:href="#radial-gradient-2"/><radialGradient id="radial-gradient-6" cx="-116.16" cy="846.59" r="35.9" gradientTransform="matrix(-0.14, -2.55, 2.02, -0.11, -1348.24, 132.62)" xlink:href="#radial-gradient-3"/><radialGradient id="radial-gradient-7" cx="68.2" cy="698.64" r="37.65" gradientTransform="matrix(2.55, 0, 0, -2.55, 136.45, 2109.93)" gradientUnits="userSpaceOnUse"><stop offset="0" stop-color="#fcf6f2" stop-opacity="0.5"/><stop offset="0.9" stop-color="#edd8cc" stop-opacity="0"/></radialGradient><radialGradient id="radial-gradient-8" cx="68.2" cy="753.74" r="33.98" xlink:href="#radial-gradient-7"/></defs><title>avatar 2</title><g id="svga-group-subwrapper"><g id="svga-group-hair-back"><path id="SvgjsPath3934" class="cls-1" d="M311.53,296.78h-2.34v-2.34h2.34v2.34Z" transform="translate(-69.77 -16.23)"/></g><g id="svga-group-humanbody-single"><path id="SvgjsPath2893" class="cls-2" d="M533.79,529.26c-5.14-11.11-19.19-27.58-34.8-32.13-19.29-5.63-62.84-12.43-79-16.21-12.94-3-39-26.45-48.15-34.31a9.89,9.89,0,0,1-3-6.46c-0.33-25.44,9.82-93,9.82-93H242.06s10.15,67.58,9.82,93a9.87,9.87,0,0,1-3,6.46c-9.14,7.86-35.21,31.27-48.15,34.31-16.15,3.78-59.7,10.82-79,16.44-15.61,4.55-29.66,20.78-34.8,31.9-8.68,18.75-10.73,52.69-10.73,82H544.53C544.53,581.95,542.47,548,533.79,529.26Z" transform="translate(-69.77 -16.23)"/><path id="SvgjsPath2894" class="cls-3" d="M448.88,492.45c57,8.29,81,20.39,88.5,118.77h7.14c0-29.27-2.05-63.21-10.73-82-5.14-11.11-19.19-27.58-34.8-32.13-19.29-5.63-62.84-12.43-79-16.21-12.94-3-42.72-28.26-50.68-38.29,7.87,11,30,36.54,49.3,43.23C427.88,489.06,435.59,490.51,448.88,492.45Zm-246.79-6.59c19.35-6.68,41.43-32.21,49.3-43.23-8,10-37.73,35.25-50.68,38.29-16.15,3.78-59.7,10.82-79,16.44-15.61,4.55-29.66,20.78-34.8,31.9-8.68,18.75-10.73,52.69-10.73,82h7.14c7.47-97.75,31.55-110.49,88.5-118.77C185.12,490.51,192.83,489.06,202.09,485.86Z" transform="translate(-69.77 -16.23)"/><path id="SvgjsPath2895" class="cls-4" d="M300.16,524.21s-11.88-3.77-16.59-5.57c-24.47-9.39-104-15.47-104-15.47s83.73,3.32,102.2,6.51c-1.07-11.16-7.06-46.84-7.06-46.84s12.06,39.38,15,49.31C291.34,517.45,300.16,524.21,300.16,524.21Zm25.29-3.14c-0.21.17-.45,0.39-0.71,0.63A5.31,5.31,0,0,0,325.45,521.06Zm-25.29,3.14s6.77,7,10.18,7.1c4.47,0.12,11.31-6.79,14.4-9.61-3,2.24-9.74,3.26-12.43,3.36C309.2,525.17,300.16,524.21,300.16,524.21Zm49.22-17.61c-3.62.58-10.27,1.85-10.27,1.85l5.36-34.87c-1.51,7.19-10.48,38-19,47.48,4.47-3.78,14.42-5.6,19.49-6.33,24-3.48,24-3.47,96.15-11.57C441.1,503.16,373,502.8,349.38,506.6Z" transform="translate(-69.77 -16.23)"/><path id="SvgjsPath2896" class="cls-5" d="M533.79,529.26c-5.14-11.11-19.19-27.58-34.8-32.13-19.29-5.63-62.84-12.43-79-16.21-12.94-3-39-26.45-48.15-34.31a9.89,9.89,0,0,1-3-6.46c-0.33-25.44,9.82-93,9.82-93H242.06s10.15,67.58,9.82,93a9.87,9.87,0,0,1-3,6.46c-9.14,7.86-35.21,31.27-48.15,34.31-16.15,3.78-59.7,10.82-79,16.44-15.61,4.55-29.66,20.78-34.8,31.9-8.68,18.75-10.73,52.69-10.73,82H544.53C544.53,581.95,542.47,548,533.79,529.26Z" transform="translate(-69.77 -16.23)"/></g><g id="svga-group-chinshadow-single"><path id="SvgjsPath4029" class="cls-6" d="M251.47,446.29a107.31,107.31,0,0,0,117.77,0,11.65,11.65,0,0,1-2.16-6.13c-0.21-16.65,3.94-50.62,6.92-72.67-36.52-7.37-90.76-7.37-127.28,0,3,22.06,7.14,56,6.92,72.67A11.79,11.79,0,0,1,251.47,446.29Z" transform="translate(-69.77 -16.23)"/></g><g id="svga-group-clothes-single"><path id="SvgjsPath3997" class="cls-7" d="M377.93,618.71H241.79V487.15c52.1,11,86.36,10.16,136.14,0V618.71h0Z" transform="translate(-69.77 -16.23)"/><path id="SvgjsPath3998" class="cls-8" d="M327.78,618.08c-6.5,0-25.12.49-38.67-.54l0-.4c-1.92-43.69,2.64-71.93,10.62-92l0.11-.29-0.22-.22c-2.12-2.12-5.68-4.53-9.45-7.08A83,83,0,0,1,280,510a37.86,37.86,0,0,1,5.5-5.15c0.57-.29,2.72-2,14-11.64l0.85-.73a45,45,0,0,1,8.75-.69,88.85,88.85,0,0,1,15.25,1.32c3.66,3.41,8.08,12.48,9.74,16.79-2.29,5.36-5,7.33-8.7,10a67.8,67.8,0,0,0-6.21,4.95L319,525l0,0.26c9.43,47.56,9.43,58.67,9.43,69.41,0,4.73,0,15.48.79,23.38C328.9,618.08,328.4,618.08,327.78,618.08Z" transform="translate(-69.77 -16.23)"/><path id="SvgjsPath3999" d="M334.59,509.86c-1.77-4.67-6.35-13.89-10-17.23-6.73-1.32-18.69-2-24.52-.56-0.25.21-14.63,12.61-14.78,12.32a37.94,37.94,0,0,0-5.9,5.6c4.83,4.86,15.58,10.67,19.9,15-8.55,21.5-12.48,50.56-10.65,92.22,0,0.26,0,.54,0,0.8a407.39,407.39,0,0,0,41.1.52c-2.72-26.48,3.37-24.48-10.28-93.32C326.67,518.63,331.12,518.16,334.59,509.86ZM322.3,554.45l-0.12-.3c4.68,24.7,3.23,43.63,6.77,63.16-11.09-.74-28.13-0.12-39.27-0.12,0.86-16.86,2.78-74.19,11.1-93.06l1.19-.29-2.42,81.34L306,523.06l0.14,0,4.22,76.35,1-76.65h0.18l9.83,85.13-5.39-84.62c0.74,0.15,1.47.33,2.21,0.55a0.45,0.45,0,0,1,.23.07C318.63,526.21,320.58,543.54,322.3,554.45Zm-2.06-32.34c-6.5-2.93-14.9-2.4-21.38.56-3.94-4.25-9.55-7.21-17.63-12.62,1.29-1.12,3-2.51,5.18-4.24,0.19,0,8.15-6.49,8.29-6.63,2.15-2,4.07-4.19,5.9-6.14,6.86-.28,16.93,0,23,0.33,3.51,4.39,6.86,11,9.39,16.25C328.39,516.35,323.84,519.35,320.24,522.11Z" transform="translate(-69.77 -16.23)"/><path id="SvgjsPath4000" class="cls-9" d="M259.3,560.4c-27-93.83-14.81-69.27-22-106.13,4.75-11.27,9.27-24.45,11.81-27.16l0.19-.2c5.37,56.22,21,31.93,55.69,64.92C285.13,505.07,266.74,539.44,259.3,560.4ZM383.4,454.28c-3.39-8.67-9.55-21.37-12.21-24.19,3.33,48.42-35.47,38.76-57,61.35,20.64,13.38,40.21,48.38,47.24,69C392.13,458.52,375.57,503.25,383.4,454.28Z" transform="translate(-69.77 -16.23)"/><path id="SvgjsPath4001" class="cls-10" d="M370.77,429c0,12-1,21.45-3,24.21-5.72,13.6-30.68,23.07-38.38,27a54.4,54.4,0,0,0-16,11.36c8.93,5.8,13.36,7.92,30.28,33.81C353.67,542,359,554.49,361.43,562c31.33-103.81,14.57-58.49,22.46-107.74C380.17,444.66,373.12,431.16,370.77,429Zm8.54,45.73c-4.58,42.33-8.17,33.92-18.12,80-6.36-20.24-25.93-53.66-45.5-63.44,9.22-6.92,11.78-7.33,22.78-12.36,33.71-15,35.09-29,33.11-47.47,2.83,3.33,7.32,14.43,11,22.3C380.56,461.17,379.65,471.69,379.32,474.74ZM261.65,464c-10.32-8.54-7.4-19.11-12.15-38-2.11,2.34-7.37,15.53-12.69,28.23,1.3,6.55,1.59,17.3,1.78,20.7,1.31,28.57,4.1,29.89,20.68,87,7.1-20.85,27.07-57.07,47.4-70.27C290.43,476.86,270,471.23,261.65,464Zm12.79,59.73c-5.2,8.58-10.58,17.52-14.92,31.1-10.4-47.46-14-39.72-18.1-80-0.75-7-1.44-14.11-3.28-21,3.84-8.4,9.32-24.08,11.08-25.75,3.2,16.57.15,31.52,13.28,39.8,6.14,4.67,26,12.46,41,24.26C294.41,497.55,289.5,500.73,274.43,523.7Z" transform="translate(-69.77 -16.23)"/><path id="SvgjsPath4002" class="cls-11" d="M357.94,552.78l-2.83-6.21s21.42-66,25.16-84.83C382.4,481.3,357.94,552.78,357.94,552.78Zm-97-2.58,3.36-7.63s-20.08-62-23.81-80.83C238.31,481.3,260.9,550.2,260.9,550.2Z" transform="translate(-69.77 -16.23)"/><path id="SvgjsPath4003" class="cls-12" d="M368.4,519.49c16.54-48.79,6.45-52.81,14.76-69,0.31-.61,3.27,2.45,3.59,3.84,3.06,13.25,124.93,40.6,128.78,43.55,3.41,2.48,13.23,7.35,13.23,7.35,11.56,21.24,18.18,25.05,21.43,81.92,0.3,7.22-.14,27.63-0.14,33.11l-200.35-1.58C350.17,600.43,352.5,567.6,368.4,519.49Zm-116.09,0c-16.54-48.79-6.45-52.81-14.76-69-0.31-.61-3.27,2.45-3.59,3.84-3.06,13.25-124.93,40.6-128.78,43.55-3.41,2.48-13.23,7.35-13.23,7.35-11.56,21.24-18.18,25.05-21.43,81.92-0.3,7.22.14,27.63,0.14,33.11L271,618.67C270.54,600.43,268.21,567.6,252.31,519.49Z" transform="translate(-69.77 -16.23)"/><path id="SvgjsPath4004" class="cls-13" d="M381.33,506.36c-10.66,38.37-25.22,72.86-31.63,112.31-2.08,0,3.49-53.14,18.7-99.18,16.54-48.79,6.45-52.81,14.76-69,0.18-.35-1.45,4.63-0.52,5.7C382.3,474.27,386.75,488.27,381.33,506.36Zm-141.94,0C250,544.74,264.61,579.23,271,618.67c2.08,0-3.49-53.14-18.7-99.18-16.54-48.79-6.45-52.81-14.76-69-0.18-.35,1.45,4.63.52,5.7C238.41,474.27,234,488.27,239.39,506.36Z" transform="translate(-69.77 -16.23)"/><path id="SvgjsPath4005" class="cls-14" d="M433.15,497.07s-5.35,6-20.22,16.21C425.36,499.5,431.1,494,431.1,494Zm5.09,27.81-3.58-3.2c-10.63,32.27-17.73,48.21-30,85.75C422.29,573.88,426.5,562,438.24,524.88ZM189.62,494s5.73,5.54,18.17,19.32c-14.87-10.21-20.22-16.21-20.22-16.21Zm26.48,113.46c-12.31-37.54-19.41-53.48-30-85.75l-3.58,3.2C194.21,562,198.43,573.88,216.09,607.42Z" transform="translate(-69.77 -16.23)"/><path id="SvgjsPath4006" class="cls-15" d="M496.31,575.06c0-27.15,7.28-43,22.52-65.9a27.63,27.63,0,0,1,3.15,2C505.78,531.3,502.56,550.06,496.31,575.06ZM407.1,601.68c14.31-39.11,18.87-54.39,28.35-80.53-2.69-.82-20.3-7-23-7.84,1,2.34,7.29,4.27,18.32,11C430.77,524.34,418.85,560.41,407.1,601.68Zm19.25-108s-7.85,9.69-15.61,19.5c7.93-6.25,13.46-13.22,20.35-19.2-9.35-7.89-24.61-20-34.47-28.31C404.41,474,426.35,493.66,426.35,493.66Zm123,126.59h0.67c0-5.48.44-25.89,0.14-33.11-3.25-56.87-9.87-60.68-21.43-81.92,0,0-9.82-4.87-13.23-7.35-3.12-2.39-90.84-23.23-122.92-37.19C430.11,486.38,501,495.87,522,511.2,532.12,518.62,545.78,582.09,549.38,620.25ZM98.7,511.13c1.27-.9,1.45-0.86,2.74-1.71,15.23,22.93,23,38.48,23,65.63C118.15,550.06,113.84,530.52,98.7,511.13Zm91.24,13.21c11-6.76,17.36-8.69,18.32-11-2.69.84-20.3,7-23,7.84,9.48,26.13,14,41.41,28.35,80.53C201.86,560.41,189.94,524.34,189.94,524.34Zm34.15-58.69C214.23,474,199,486.08,189.62,494c6.89,6,12.42,12.95,20.35,19.2-7.76-9.81-15.61-19.5-15.61-19.5S216.31,474,224.09,465.65ZM98.74,511.2c21-15.33,91.86-24.83,129.36-50.52-32.07,14-119.79,34.79-122.92,37.19-3.41,2.48-13.23,7.35-13.23,7.35-11.56,21.24-18.18,25.05-21.43,81.92-0.3,7.22.14,27.63,0.14,33.11h0.67C74.93,582.09,88.59,518.62,98.74,511.2Z" transform="translate(-69.77 -16.23)"/><path id="SvgjsPath4007" class="cls-16" d="M385.87,451a2.25,2.25,0,0,0-1.73-1.54c-0.69-.05-1,1.07-1.33,1.69-8.31,16.2,1,19.51-15.57,68.3-15.9,48.11-17.76,81.64-18.23,99.88l201.05,0.88c0-5.48,1.15-25.89.84-33.11-3.25-56.87-10.1-61.15-21.66-82.39,0,0-10.29-5.1-13.7-7.58-11.45-8.76-1.38.05-51.59-14.05-41.16-12-43.38-15.4-58.31-19.55-3-.86-9.5-1.92-16.27-6.68C388.75,456.46,386.09,452.37,385.87,451ZM350.1,617.15c8.73-55.18,14.25-69.62,26.45-110.7,8.25-26,3.69-40.76,7.62-52.78a0.71,0.71,0,0,1,1.34,0c5.7,14.55,21.63,17.93,44.1,39.92-13.61,13.61-17.12,17.28-18.87,19.62,2,1,13.07,5.22,23.18,9.13-0.57,1.8-31.41,89-31.78,90.2,23.42-50.53,26.44-66.06,33.3-91.35-1.9-1.43-18.48-7.52-21.29-8.52,10-10.36,12.9-12.64,17.63-18.67,3.8,0-37.17-31.19-39.18-33.28a60.11,60.11,0,0,0,7,3.49c34.38,12.1,7.18,6.62,82.43,28.1a186.34,186.34,0,0,0,24.66,4.4c0.51,0,12.63,6.39,19.55,9.3-16.83,17.5-27.63,40.12-30,69.08,7.54-29.66,11.59-45.17,30.77-67.49,17.84,36.11,15.82,30.9,21.61,111.72C500.43,617.39,426.41,617,350.1,617.15ZM231.35,456.89c-6.78,4.75-13.26,5.81-16.27,6.68-14.93,4.15-17.15,7.53-58.31,19.55-50.21,14.1-40.14,5.29-51.59,14.05-3.41,2.48-13.7,7.58-13.7,7.58C79.92,526,73.07,530.27,69.82,587.14c-0.3,7.22.84,27.63,0.84,33.11l201.05-.88c-0.48-18.24-2.34-51.77-18.23-99.88-16.54-48.79-7.27-52.1-15.57-68.3-0.32-.62-0.63-1.74-1.33-1.69a2.25,2.25,0,0,0-1.73,1.54C234.62,452.37,232,456.46,231.35,456.89ZM72,619.29c5.8-80.82,3.77-75.61,21.61-111.72,19.17,22.31,23.23,37.83,30.77,67.49-2.37-29-13.16-51.58-30-69.08,6.92-2.91,19-9.25,19.55-9.3a186.34,186.34,0,0,0,24.66-4.4c75.25-21.48,48-16,82.43-28.1a60.48,60.48,0,0,0,7-3.49c-2,2.09-43,33.28-39.18,33.28,4.73,6,7.62,8.31,17.63,18.67-2.81,1-19.38,7.09-21.29,8.52,6.86,25.29,9.88,40.82,33.3,91.35-0.36-1.17-31.2-88.41-31.78-90.2,10.11-3.92,21.16-8.11,23.18-9.13-1.76-2.34-5.26-6-18.87-19.62,22.47-22,38.4-25.37,44.1-39.92a0.71,0.71,0,0,1,1.34,0c3.93,12-.63,26.78,7.62,52.78,12.2,41.08,17.72,55.52,26.45,110.7C194.3,617,120.29,617.39,72,619.29Z" transform="translate(-69.77 -16.23)"/></g><g id="svga-group-head"><g id="svga-group-ears-left"><path id="SvgjsPath4008" class="cls-17" d="M182.6,255.15c-3.44-5.7-15.57-17.67-24.14-15.48-7,1.78-14.13,7.59-14.13,17.5,0,15.35,3.5,21.87,5.86,28.83,2,5.92,9.17,16.78,13.49,21,5.32,5.17,13.95,21.89,15,23.6,1.65,2.7,4.4,7,9.47,7.16,7.7,0.24,16.59-4.93,17.15-8.17C208.31,312,191.55,270,182.6,255.15Z" transform="translate(-69.77 -16.23)"/><path id="SvgjsPath4009" class="cls-18" d="M178.28,293.47c-0.33-1.31,0-3.5.36-5.62a19.92,19.92,0,0,0,.42-5.05c-0.67-4.83-4.43-14-6.89-19-2.83-5.73-9.64-12.94-15.38-14.8a4.42,4.42,0,0,0-4.84,1.08c-0.67.69-.81,1.49-0.59,1.59s0.71-.57,1.43-1.2a3.45,3.45,0,0,1,2.63-.86c-0.48,2.41-7.35,9.89-3.23,24.33a66.87,66.87,0,0,0,5.16,13,18.46,18.46,0,0,0,.37,2.41c2.32,10.2,17.06,27,20.57,30.82,0.65,0.7,1.33,1.12,1.5,1s-0.23-.86-0.88-1.57c-3.47-3.77-18.11-20.55-20.35-30.4-4.11-18,4.49-18.34,10.54-29.21,0.93,1.54,1.72,3,2.33,4.25,0.48,1,1,2.1,1.55,3.32-1.07,1.71-11.85,14.18-9.11,24.16,1,3.68,8.85,8.43,11.88,9.73a6.07,6.07,0,0,1,3,3c0.84,1.44,1.8,6.55,4.57,7.72a3.88,3.88,0,0,0,1.52.34,2.81,2.81,0,0,0,1.81-.66c0,0.63,0,1.43,0,2.18,0,1,.11,1.75.34,1.77s0.49-.74.52-1.7a13.4,13.4,0,0,0-.18-3.34c-0.62-2.06-2.52-4.38-4.53-6.84S178.79,295.48,178.28,293.47Zm-21-9c-5.44-16,2.33-29.84,3.55-32,2.13,1.84,6.23,4.31,7.76,6.72C161.26,271.73,157.7,262.94,157.25,284.42Zm26.39,26.92c-2.51-1.07-3.35-6-4.16-7.37a6.93,6.93,0,0,0-3.42-3.38,9,9,0,0,1-1.35-.77c-9-13.48.68-20.2,2.4-21.46a30.51,30.51,0,0,1,1.1,4.56,19.78,19.78,0,0,1-.42,4.79c-0.35,2.21-.72,4.5-0.34,6,0.56,2.2,2.67,8.26,4.71,10.76,1.81,2.21,3.66,4.49,4.3,6.35A2.15,2.15,0,0,1,183.63,311.34Z" transform="translate(-69.77 -16.23)"/></g><g id="svga-group-ears-right"><path id="SvgjsPath4010" class="cls-17" d="M437.5,255.15c3.44-5.7,15.57-17.67,24.15-15.48,7,1.78,14.12,7.59,14.12,17.5,0,15.35-3.5,21.87-5.85,28.83-2,5.92-9.17,16.78-13.49,21-5.32,5.17-13.95,21.89-15,23.6-1.65,2.7-4.4,7-9.47,7.16-7.71.24-16.59-4.93-17.15-8.17C411.79,312,428.55,270,437.5,255.15Z" transform="translate(-69.77 -16.23)"/><path id="SvgjsPath4011" class="cls-18" d="M437.29,303.89c-2,2.46-3.91,4.78-4.53,6.84a13.53,13.53,0,0,0-.18,3.34c0,1,.28,1.72.52,1.7s0.37-.81.34-1.77c0-.74,0-1.55,0-2.18a2.8,2.8,0,0,0,1.81.66,3.86,3.86,0,0,0,1.52-.34c2.77-1.18,3.73-6.29,4.57-7.72a6.07,6.07,0,0,1,3-3c3-1.3,10.86-6,11.88-9.73,2.74-10-8-22.45-9.11-24.16,0.54-1.22,1.07-2.35,1.55-3.32,0.61-1.23,1.4-2.71,2.33-4.25,6,10.87,14.64,11.17,10.53,29.21-2.24,9.84-16.88,26.63-20.35,30.4-0.64.71-1,1.4-.88,1.57s0.85-.25,1.5-1c3.51-3.8,18.25-20.62,20.57-30.82a18,18,0,0,0,.37-2.41,67,67,0,0,0,5.15-13c4.12-14.45-2.76-21.93-3.23-24.33a3.47,3.47,0,0,1,2.63.86c0.71,0.63,1.21,1.29,1.43,1.2s0.07-.9-0.59-1.59a4.42,4.42,0,0,0-4.84-1.08c-5.74,1.86-12.55,9.08-15.38,14.8-2.46,5-6.22,14.17-6.89,19a20,20,0,0,0,.42,5.05c0.34,2.12.69,4.32,0.36,5.62C441.31,295.48,439.27,301.47,437.29,303.89Zm14.26-44.79c1.53-2.41,5.63-4.88,7.76-6.72,1.22,2.2,9,16,3.55,32C462.4,262.94,458.84,271.73,451.55,259.1Zm-17.9,51.7c0.63-1.86,2.49-4.14,4.3-6.35,2-2.49,4.14-8.55,4.71-10.76,0.37-1.48,0-3.77-.34-6a19.8,19.8,0,0,1-.42-4.79,30.26,30.26,0,0,1,1.1-4.56c1.72,1.26,11.44,8,2.4,21.46a8.79,8.79,0,0,1-1.35.77,7,7,0,0,0-3.42,3.38c-0.81,1.39-1.65,6.3-4.16,7.37A2.15,2.15,0,0,1,433.65,310.8Z" transform="translate(-69.77 -16.23)"/></g><g id="svga-group-faceshape-wrap"><g id="svga-group-faceshape-single"><path id="SvgjsPath4026" class="cls-2" d="M310.36,63.47c-78.73-.13-142.41,64.34-142.53,144a146.13,146.13,0,0,0,4.57,36.63h0c0,0.13,20.71,83.71,36,126.64,13.06,36.68,53.91,69.73,101.95,69.73s88.89-33.06,102-69.73c15.29-42.93,36-126.51,36-126.64h0a146.11,146.11,0,0,0,4.57-36.63C452.78,127.81,389.09,63.34,310.36,63.47Z" transform="translate(-69.77 -16.23)"/><path id="SvgjsPath4027" class="cls-19" d="M419.88,115.28c17.44,24.16,25.48,54.28,25.53,87,0,15.13-4.42,36.63-4.42,36.63s-20,83.71-34.69,126.64c-12.59,36.67-49.62,69.73-95.92,69.73S227,402.18,214.45,365.51C199.7,322.58,179.77,239,179.74,238.87s-4.44-23.78-4.42-36.63c0-32.68,8.07-62.79,25.51-86.94A146.19,146.19,0,0,0,172.4,244.11h0c0,0.13,20.71,83.71,36,126.64,13.06,36.68,53.91,69.73,101.95,69.73s88.89-33.06,102-69.73c15.29-42.93,36-126.51,36-126.64h0A146.21,146.21,0,0,0,419.88,115.28Z" transform="translate(-69.77 -16.23)"/><path id="SvgjsPath4028" class="cls-5" d="M310.36,63.47c-78.73-.13-142.41,64.34-142.53,144a146.13,146.13,0,0,0,4.57,36.63h0c0,0.13,20.71,83.71,36,126.64,13.06,36.68,53.91,69.73,101.95,69.73s88.89-33.06,102-69.73c15.29-42.93,36-126.51,36-126.64h0a146.11,146.11,0,0,0,4.57-36.63C452.78,127.81,389.09,63.34,310.36,63.47Z" transform="translate(-69.77 -16.23)"/></g></g><g id="svga-group-mouth-single"><path id="SvgjsPath3471" class="cls-18" d="M311.15,393.78A27.56,27.56,0,0,1,302,392.5a1.17,1.17,0,0,1,.85-2.18c3.9,1.53,13.71,1.58,18-.45a1.17,1.17,0,1,1,1,2.12C319.29,393.22,315.14,393.78,311.15,393.78Zm34.39-19.86a1.84,1.84,0,1,0-1.45-3.38c-27.32,11.69-67.31.79-67.7,0.68a1.84,1.84,0,0,0-1,3.55,154.93,154.93,0,0,0,37.55,4.92C323.77,379.69,335.38,378.27,345.54,373.92Z" transform="translate(-69.77 -16.23)"/></g><g id="svga-group-eyes-left"><g id="svga-group-eyesback-left"><path id="SvgjsPath3782" class="cls-20" d="M216.18,249.14c0,8.32,13.77,26.45,35.87,26.83,16.49,0.29,28.53-8.77,28.53-17.1s-4.29-11.73-28.76-11.12C235.33,248.17,213.57,244.46,216.18,249.14Z" transform="translate(-69.77 -16.23)"/></g><g id="svga-group-eyesiriswrapper-left"><g id="svga-group-eyesiriscontrol-left"><g id="svga-group-eyesiris-left"><path id="SvgjsPath3840" class="cls-21" d="M264.69,258.14a14.05,14.05,0,1,1-14.05-14.05A14.05,14.05,0,0,1,264.69,258.14Z" transform="translate(-69.77 -16.23)"/><path id="SvgjsPath3841" class="cls-22" d="M242.48,264.71c2-.17.23-0.72,0.23-0.72-1-.55-2.92-1.39-2.92-2.16,0-2.41,3.31-3-.08-4-3.52-3.23,2.73-3.17,2.69-3.27-2.28-5.56.7-2.51,2-4.15,4.66-6.09,1.3.63,3.82,0,0.92-.22-1.83-3.59.08-3.11a2.1,2.1,0,0,1,1.55,1.36,7.08,7.08,0,0,0,2.36-1.6c1.75,0.53,3,3,2.44,2.55a21.67,21.67,0,0,0,3-.8s0.16-.56.33-0.08c2.15,6.23,7.69,5.78,1.31,7.59,0,0-.41,0,0.89,1,6.35,5.07-4.92,3.5,1.06,5.83,0.24-.24-3.58,2.26-3.58,3,0,1.17-2.44,4.26-4.56,3-1.18-.67-1.36,1.41-2.05.44-1.36-1.88-4.08-.08-3.07-1.81,1.48-1.22-1.53.48-2.12,0.48-1.94,0,2.54-6.52,9.12-1.67,1.92,1.41-2-3.36,1.46-3.36,0.35,0.11.24-1.22,0.24-1.6-1.81-.35,3.25,0,3.25-3,0.32,0.06,1.19-.82-3.83,0a15.47,15.47,0,0,1-.08-2.07c0.26-1,2.84-.7,2.12-1.76l-1.87-3.76c-6-1-2.58-1.57-6.35-.8-0.18.89-8.07,4.65-7.82,6.39s5,2.2.49,5.11C249.25,274.65,237.62,261.55,242.48,264.71Z" transform="translate(-69.77 -16.23)"/><path id="SvgjsPath3842" class="cls-23" d="M250.64,245.85l0.4,10.29,4.3-9.35-3.57,9.65,7.56-7-7,7.55,9.66-3.57-9.35,4.31,10.28,0.4-10.28.4,9.35,4.31-9.66-3.57,7,7.55-7.56-7,3.57,9.65-4.3-9.35-0.4,10.29-0.4-10.29-4.3,9.35,3.56-9.65-7.55,7,7-7.55-9.66,3.57,9.35-4.31-10.28-.4,10.28-.4-9.35-4.31,9.66,3.57-7-7.55,7.55,7-3.56-9.65,4.3,9.35Z" transform="translate(-69.77 -16.23)"/><path id="SvgjsPath3843" class="cls-24" d="M252.51,248.93l-1.26,7.76,4.64-6.35L251.75,257l6.72-4.09-6.38,4.6,7.77-1.21-7.65,1.81,7.65,1.86-7.77-1.26,6.35,4.64-6.69-4.13,4.09,6.72-4.6-6.38,1.21,7.77-1.81-7.66-1.86,7.64,1.26-7.76-4.65,6.35,4.14-6.69-6.72,4.09,6.38-4.6-7.77,1.21,7.66-1.81-7.64-1.86,7.76,1.26-6.35-4.64,6.69,4.13-4.09-6.72,4.6,6.38-1.21-7.77,1.81,7.66Z" transform="translate(-69.77 -16.23)"/><path id="SvgjsPath3844" class="cls-25" d="M255.91,258.14a5.27,5.27,0,1,1-5.27-5.27A5.27,5.27,0,0,1,255.91,258.14Z" transform="translate(-69.77 -16.23)"/><path id="SvgjsPath3845" class="cls-26" d="M245.11,268.24c-0.78.78-2.31,0.5-3.42-.61s-1.39-2.64-.61-3.42,2.31-.5,3.42.61S245.89,267.46,245.11,268.24Z" transform="translate(-69.77 -16.23)"/><path id="SvgjsPath3846" class="cls-27" d="M261.9,255.37c-1.16,1.16-4,.23-6.28-2.07s-3.24-5.12-2.07-6.28,4-.23,6.28,2.07S263.06,254.21,261.9,255.37Z" transform="translate(-69.77 -16.23)"/></g></g></g><g id="svga-group-eyesfront-left"><path id="SvgjsPath3807" class="cls-2" d="M249,209.2c-23.93,0-48.3,12.89-47,51.52,0.25,7.38,23.08,51.53,47,51.53s45.66-12.39,45.66-51.52C294.67,219.06,272.93,209.2,249,209.2ZM252.06,276c-22.11-.38-35.87-18.51-35.87-26.83-2.6-4.68,19.16-1,35.64-1.38,24.48-.61,28.76,2.8,28.76,11.12S268.55,276.25,252.06,276Z" transform="translate(-69.77 -16.23)"/><path id="SvgjsPath3808" class="cls-28" d="M213.88,256.59c3.17,17.36,20,32,42,31.94s39.78-14.47,39.72-32.11-17.9-31.86-39.9-31.77S210.71,239.2,213.88,256.59Zm37.94-8.84c24.48-.61,28.76,2.8,28.76,11.12s-12,17.38-28.53,17.1c-22.11-.38-35.87-18.51-35.87-26.83C213.57,244.46,235.33,248.17,251.82,247.75Z" transform="translate(-69.77 -16.23)"/><path id="SvgjsPath3813" class="cls-29" d="M282.93,258.87c0-8.32-6.63-11.73-31.1-11.12-6.62.17-14.08-.33-20.48-0.68-3.09-.14-6.14-0.26-9.08-0.32-4.49,0-11.76.59-10.76,2.38,0,8.32,18.45,26.45,40.56,26.83C268.55,276.25,282.93,267.19,282.93,258.87Z" transform="translate(-69.77 -16.23)"/><path id="SvgjsPath3817" class="cls-18" d="M275.89,243.46l-5.16-3.06L236,239.84c9.8,0.89,18.28,1.38,34.57,1.52Z" transform="translate(-69.77 -16.23)"/><path id="SvgjsPath3818" class="cls-30" d="M273.16,249.44A521.44,521.44,0,0,1,216.71,248c0.81,4.38,2.17,7.53,4.2,12.19-4.58-6.63-7.83-10.68-10.55-16.72,24.67,1.83,40.64,3.08,63.95,3.14l8.64,7.9Zm3.37,19.09c-20.81,7.67-30.67,10.81-50-2.3C237.36,280,263.76,278.88,276.53,268.53Z" transform="translate(-69.77 -16.23)"/></g></g><g id="svga-group-eyes-right"><g id="svga-group-eyesback-right"><path id="SvgjsPath3790" class="cls-31" d="M403.6,249.14c0,8.32-13.77,26.45-35.87,26.83-16.49.29-28.53-8.77-28.53-17.1s4.29-11.73,28.76-11.12C384.45,248.17,406.2,244.46,403.6,249.14Z" transform="translate(-69.77 -16.23)"/></g><g id="svga-group-eyesiriswrapper-right"><g id="svga-group-eyesiriscontrol-right"><g id="svga-group-eyesiris-right"><path id="SvgjsPath3847" class="cls-21" d="M384.12,258.14a14.05,14.05,0,1,1-14.05-14.05A14,14,0,0,1,384.12,258.14Z" transform="translate(-69.77 -16.23)"/><path id="SvgjsPath3848" class="cls-22" d="M361.89,264.71c2.06-.18.25-0.71,0.25-0.71-1-.55-2.94-1.39-2.94-2.17,0-2.41,3.32-3-.05-4-3.54-3.22,2.72-3.16,2.66-3.27-2.28-5.57.71-2.51,2-4.16,4.64-6.08,1.29.63,3.81,0,0.91-.22-1.84-3.58.08-3.11a2.08,2.08,0,0,1,1.54,1.36,6.93,6.93,0,0,0,2.36-1.59c1.76,0.52,3,3,2.44,2.55a22.45,22.45,0,0,0,3-.8s0.16-.56.33-0.08c2.14,6.23,7.68,5.79,1.32,7.59,0,0-.41,0,0.88,1,6.34,5.08-4.91,3.5,1.07,5.83,0.25-.23-3.59,2.26-3.59,3,0,1.17-2.44,4.25-4.55,3-1.18-.67-1.37,1.41-2.06.45-1.34-1.88-4.09-.08-3.07-1.81,1.48-1.22-1.54.48-2.11,0.48-1.95,0,2.52-6.52,9.11-1.67,1.92,1.4-2-3.36,1.48-3.36,0.33,0.11.25-1.22,0.25-1.59-1.84-.36,3.24,0,3.24-3,0.33,0.07,1.21-.81-3.81,0a15,15,0,0,1-.08-2.07c0.25-1,2.83-.7,2.11-1.76l-1.87-3.76c-6-1-2.58-1.56-6.37-.8-0.16.89-8.07,4.65-7.82,6.39s5,2.2.49,5.1C368.67,274.66,357,261.54,361.89,264.71Z" transform="translate(-69.77 -16.23)"/><path id="SvgjsPath3849" class="cls-23" d="M370.07,245.85l0.41,10.29,4.28-9.36-3.57,9.66,7.57-7-7,7.56,9.66-3.57-9.36,4.31,10.29,0.4-10.29.4,9.36,4.31-9.66-3.57,7,7.56-7.57-7,3.57,9.66-4.28-9.36-0.41,10.28-0.41-10.29-4.31,9.36,3.57-9.66-7.55,7,7-7.56-9.66,3.57,9.36-4.31-10.29-.4,10.29-.4-9.36-4.31,9.66,3.57-7-7.56,7.55,7-3.57-9.66,4.31,9.36Z" transform="translate(-69.77 -16.23)"/><path id="SvgjsPath3850" class="cls-24" d="M371.94,248.93l-1.26,7.77,4.64-6.35L371.17,257l6.72-4.1-6.37,4.61,7.77-1.21-7.66,1.8,7.66,1.87-7.77-1.26,6.34,4.64-6.69-4.13,4.09,6.72-4.58-6.38,1.21,7.77-1.81-7.65-1.87,7.64,1.26-7.77-4.64,6.35,4.14-6.69-6.72,4.1,6.37-4.61-7.77,1.21,7.66-1.8-7.66-1.87,7.77,1.26-6.34-4.64L369,257l-4.09-6.72,4.58,6.38-1.21-7.77,1.81,7.66Z" transform="translate(-69.77 -16.23)"/><path id="SvgjsPath3851" class="cls-25" d="M375.34,258.14a5.27,5.27,0,1,1-5.27-5.27A5.27,5.27,0,0,1,375.34,258.14Z" transform="translate(-69.77 -16.23)"/><path id="SvgjsPath3852" class="cls-26" d="M364.53,268.24c-0.77.77-2.3,0.51-3.4-.62s-1.4-2.63-.6-3.42,2.3-.49,3.4.62S365.32,267.46,364.53,268.24Z" transform="translate(-69.77 -16.23)"/><path id="SvgjsPath3853" class="cls-27" d="M381.32,255.37c-1.15,1.17-4,.25-6.29-2.07S371.8,248.18,373,247s4-.25,6.26,2.07S382.47,254.21,381.32,255.37Z" transform="translate(-69.77 -16.23)"/></g></g></g><g id="svga-group-eyesfront-right"><path id="SvgjsPath3828" class="cls-2" d="M325.11,260.72c0,39.13,21.74,51.52,45.66,51.52s46.75-44.15,47-51.53c1.31-38.63-23.08-51.52-47-51.52S325.11,219.06,325.11,260.72Zm14.08-1.84c0-8.32,4.29-11.73,28.76-11.12,16.49,0.42,38.25-3.3,35.64,1.38,0,8.32-13.77,26.45-35.87,26.83C351.23,276.25,339.19,267.19,339.19,258.87Z" transform="translate(-69.77 -16.23)"/><path id="SvgjsPath3829" class="cls-32" d="M364.08,224.65c-22-.09-39.85,14.13-39.9,31.77s17.73,32,39.72,32.11,38.83-14.58,42-31.94S386.08,224.76,364.08,224.65Zm39.52,24.48c0,8.32-13.77,26.45-35.87,26.83-16.49.29-28.53-8.77-28.53-17.1s4.29-11.73,28.76-11.12C384.45,248.17,406.2,244.46,403.6,249.14Z" transform="translate(-69.77 -16.23)"/><path id="SvgjsPath3834" class="cls-33" d="M336.85,258.87c0-8.32,6.63-11.73,31.1-11.12,6.62,0.17,14.08-.33,20.48-0.68,3.09-.14,6.14-0.26,9.08-0.32,4.49,0,11.76.59,10.76,2.38,0,8.32-18.45,26.45-40.56,26.83C351.23,276.25,336.85,267.19,336.85,258.87Z" transform="translate(-69.77 -16.23)"/><path id="SvgjsPath3838" class="cls-18" d="M343.89,243.46L349,240.4l34.73-.56c-9.8.89-18.28,1.38-34.57,1.52Z" transform="translate(-69.77 -16.23)"/><path id="SvgjsPath3839" class="cls-30" d="M336.82,254.5l8.64-7.9c23.3-.06,39.27-1.31,63.95-3.14-2.73,6-6,10.09-10.55,16.72,2-4.66,3.39-7.81,4.2-12.19a521.44,521.44,0,0,1-56.45,1.46Zm56.45,11.73c-19.35,13.11-29.22,10-50,2.3C356,278.88,382.41,280,393.27,266.23Z" transform="translate(-69.77 -16.23)"/></g></g><g id="svga-group-facehighlight-single"><path id="SvgjsPath2885" class="cls-34" d="M406.37,328.33a96,96,0,1,1-96.16-96A96,96,0,0,1,406.37,328.33Z" transform="translate(-69.77 -16.23)"/><path id="SvgjsPath2889" class="cls-35" d="M398.17,187.89a87.81,87.81,0,1,1-87.81-87.81A87.81,87.81,0,0,1,398.17,187.89Z" transform="translate(-69.77 -16.23)"/></g><g id="svga-group-eyebrows-left"><path id="SvgjsPath3873" class="cls-1" d="M200.65,237.06c22.82-35.39,85.45,12.06,89-2.79,0.7-3-1-4.72-3.66-5.84C254.11,215.54,211.9,204.7,200.65,237.06Z" transform="translate(-69.77 -16.23)"/></g><g id="svga-group-eyebrows-right"><path id="SvgjsPath3874" class="cls-1" d="M420.07,237.06c-22.82-35.39-85.45,12.06-89-2.79-0.7-3,1-4.72,3.66-5.84C366.6,215.54,408.81,204.7,420.07,237.06Z" transform="translate(-69.77 -16.23)"/></g><g id="svga-group-nose-single"><path id="SvgjsPath3479" class="cls-18" d="M309.79,342.44a15.54,15.54,0,0,1-6.37-.87c-2.11-.95-3.51-1.33-5.69-2.11s-4.64,1.09-6.74,1.27a5.43,5.43,0,0,1-4.69-1.68c-3.51-4.49.67-7.25,0.67-7.25s-1.37,3.15-.5,4.55a5.37,5.37,0,0,0,3.21,2.49c2.27,0.55,4.42-1.11,6.65-1.29,2.49-.19,4.29-0.24,6.09,1.22s3.76,1.73,6,1.84a14.5,14.5,0,0,0,6.34-.62,45.35,45.35,0,0,0,4.83-2.87c3.47-1.95,6.2.5,9.82,1.48a4.07,4.07,0,0,0,4.89-5.21,7.44,7.44,0,0,1-.54-2.9,4.65,4.65,0,0,1,2.6,4.34,5.8,5.8,0,0,1-7.35,5.53c-1.86-.49-3.86-1.89-5.84-1.54s-3.55.36-5.22,1.46A14.21,14.21,0,0,1,309.79,342.44Z" transform="translate(-69.77 -16.23)"/><path id="SvgjsPath3480" class="cls-19" d="M294.7,319.52s7.6-10.58,14.5-10.71c6.39-.12,14.81,9.29,14.81,9.29s-7.75-3.25-15.43-2.71C301.74,315.88,294.7,319.52,294.7,319.52Z" transform="translate(-69.77 -16.23)"/></g><g id="svga-group-beardwrap"><g id="svga-group-beard-single"><path id="SvgjsPath3021" class="cls-1" d="M310.36,103.89h0Z" transform="translate(-69.77 -16.23)"/></g></g><g id="svga-group-mustache-single"><path id="SvgjsPath3019" class="cls-1" d="M310.36,103.89h0Z" transform="translate(-69.77 -16.23)"/></g><g id="svga-group-hair-front"><path id="SvgjsPath3936" class="cls-1" d="M181.5,283.65c-5.67-20.64-8.73-38.72-13-57.57l0.19,0c-1.61-4-7.4-35.27-7.46-35.6-5.91-41.61,11.69-44,11.33-61.35,7.41,3.71,14.62,1.87,21.12-3.2-6.83-3.51-4.68-4.07-13.75-9.59,6.4-1.11,10.13.39,15.56,1.06-4.64-4.64-13.76-14.12-19.68-12.86l-0.39-.83c8.57-6.69,20,7.24,30.33,3.47,0.31-38.34,56.36-46.3,70-52C294,48.23,312.93,33,326.27,31.68c-7.55,7.59-12.18,19.79-12.52,28.94,11-10.5,11.78-10.2,28.45-28.72,0,14.9-4.13,16.77-9.49,25.52,14.54-9.53,32.68-36.27,60.61-40.36l0.31,0.87c-10.06,5.93-17.85,15.93-23.18,29.76,5.29-6.38,12.76-13.31,21-14.56L391.8,34c-5.19,3.1-15.35,13.45-17.67,30.77,10.26-11.46,26.58-21,37.78-24.54L412.35,41c-10.28,8.37-14.41,23-16.73,35.47C402.83,65.76,407,63.32,416.1,58.81c-2.92,4.37-2.73,3.6-5.05,8.35,5.61,14.34,24.15,14.9,27.32,39.95a88.54,88.54,0,0,1,9.72-7.24l0.66,0.64c-3.3,5.12-6,14.19-7.83,20.26,6.51-5,16.56-8.63,23.64-11.19l0.49,0.77c-6,6.07-13.23,15.33-14.43,25.37a43.11,43.11,0,0,0,5.5-3.43c0,7.21.25,6.29,0.3,9.61a56.8,56.8,0,0,0,5.33-5.11c-0.43,75.78-4.32,60.68-14.79,113.49-1.84,9.28-5.08,25.48-7.17,33.27L425.63,286c4.38-52.44-.22-41,3-74,4.71-48.66-34.67-88.54-86.7-75.49-10.53,2.64-52.55,2.64-63.07,0-57.48-14.43-78.19,19.16-84.36,77.93-3,28.85-3.76,19.11.63,71.57Z" transform="translate(-69.77 -16.23)"/><path id="SvgjsPath3937" class="cls-36" d="M456.42,141.9c0-3.32-.3-2.4-0.3-9.61a43.38,43.38,0,0,1-5.5,3.43c1.2-10,8.46-19.3,14.43-25.37l-0.49-.77c-7.08,2.56-17.13,6.22-23.64,11.19,1.81-6.07,4.53-15.14,7.83-20.26l-0.66-.64a88.55,88.55,0,0,0-9.72,7.24c-3.17-25-21.71-25.61-27.32-39.95,2.32-4.75,2.13-4,5.05-8.35-9.07,4.51-13.27,7-20.48,17.68C397.94,64,402.06,49.39,412.35,41l-0.44-.81c-11.2,3.59-27.52,13.08-37.78,24.54C376.45,47.43,386.61,37.09,391.8,34l-0.31-.86c-8.28,1.25-15.76,8.18-21,14.56,5.33-13.83,13.12-23.83,23.18-29.76l-0.31-.87c-27.93,4.09-46.06,30.83-60.61,40.36,5.36-8.75,9.49-10.62,9.49-25.52-16.68,18.52-17.45,18.21-28.45,28.72,0.34-9.15,5-21.35,12.52-28.94C312.93,33,294,48.23,275.8,55.14c-13.64,5.7-69.68,13.66-70,52C195.48,110.92,184,97,175.47,103.68l0.39,0.83c5.92-1.26,15,8.21,19.68,12.86-5.43-.68-9.17-2.17-15.56-1.06,9.07,5.52,6.92,6.08,13.75,9.59-6.5,5.07-13.71,6.91-21.12,3.2,0.36,17.36-17.25,19.74-11.33,61.35,0.05,0.34,5.85,31.65,7.46,35.6l-0.19,0c4.24,18.86,7.3,36.93,13,57.57h0.06c-1.55-38.5-25.81-93.24-11.57-128.3,1.86-4.58,9-16.65,9-16.65s22.54-3,23.6-11.71a33.69,33.69,0,0,1-7-4.68c4.68,2.34,4.68-4.68,9.37-2.34,0-4.68-7-2.34-7-7,4.68,0,9.37,0,14.05,4.68-2.34-11.71,0-23.42,9.37-30.44,23.42-18.73,53.86-16.39,77.28-35.13C296.31,63.78,294,75.49,294,87.2c14.05-7,18.73-21.08,30.44-30.44,2.34,9.37-2.34,21.08-2.34,30.44,7-16.39,16.39-32.78,37.47-37.47-9.37,9.37-9.37,23.42-9.37,35.13,0-9.37,9.37-14.05,11.71-21.08v28.1c4.68-14.05,14.05-21.08,25.76-25.76-9.37,9.37-7,18.73-9.37,30.44,7-7,16.39-9.37,23.42-16.39,7,14.05,2.34,25.76,2.34,39.81,2.34-11.71,14.05-18.73,21.08-28.1a88.69,88.69,0,0,1,0,35.13c2.34-7,7-11.71,9.37-18.73A98.06,98.06,0,0,1,429.83,139c2.94-3.4,7.74-4.94,9.32-9.7v28.16c1.36-2.79,5.36-3.77,7-7.09-2,8-.59,14.29-0.14,21.78,0.87-4.59,5.29-7.4,6.88-11.63,0.09-1.82.19-3.65,0.28-5.47a8.82,8.82,0,0,1-.28,5.47c-2.14,41.61-6.07,83.17-14.65,123.24l1.52-.26c2.08-7.78,5.33-24,7.17-33.27,10.47-52.81,14.37-37.71,14.79-113.49A56.16,56.16,0,0,1,456.42,141.9Z" transform="translate(-69.77 -16.23)"/><path id="SvgjsPath3938" d="M469.07,107.56c-11.59,2-19.68,5.71-25.88,10,0.9-2.35,5.14-15.62,9.69-21.19a62,62,0,0,0-13.39,8.22,24,24,0,0,0-1.38-6.65,26.2,26.2,0,0,0-3-6.14c-12.11-17.09-12.87-9.94-22.78-23A39.5,39.5,0,0,1,420.06,57c-9.15,1.3-14,4.86-19.76,10.56a2.48,2.48,0,0,0-.23.28C403.7,53.45,410.81,41,424.79,36.35c-17.29-.63-38.7,12.16-49.46,24.92C380,46.32,386.22,39.2,395.48,32.58c-6.66-1-13.2,1.74-18.36,6,6-10.3,14.79-18.5,21.9-22.32a35,35,0,0,0-3.51,0c-1.82-.47-12.83,1.33-16.77,3-19.5,7.62-33.69,25.34-39.79,31.1,4.49-7.25,4.71-12.41,3.89-20-1.53,1.32-27.2,25.89-27.51,26.2,1.82-10.09,5.26-16.24,11.76-25.27-11.58-2.17-40.59,16.9-58.57,22-18.84,5.1-65.58,15.74-63.44,53.16-10.06,1.92-24.78-14.23-32.5-.68,6.2-3.68,14.4,5.18,20.12,10.23-2.34-.38-10.17-2.22-14,0.3,4.44,1.72,8.31,6.87,13.79,9.6a0.83,0.83,0,0,1,.21.09c-5,2.64-10.93,4.76-16.37,3.25-0.82-.23-1.36-0.37-1.36-0.4-0.63-.28-1.31-0.56-2-0.89h0l0,0-0.94-.49c1.63,13.13-18.31,23.78-16.11,51.56,0.9,17.1,11.59,69.1,25,104.36l1.13,0.34c-5.6-20.2-8.84-39.2-13-57.84-0.37,0-7.2-35.23-7.26-35.62-5.87-41.29,11.69-44.28,11.36-60.51,7.31,3.66,15.3,1,21.5-4.05-7.3-3.63-5.74-4.66-13.3-9.25,5.07-.88,11.25,1.13,15.5,1.41-5.49-5.49-14.75-15.24-21-13.91,8.36-6.52,19.9,7.66,30.51,3.42,0-38.36,55.55-46,69.71-51.89,17-6.48,38.13-22.19,49-23.3-5.71,5.76-11.76,18.5-11.76,29.46,11.32-10.86,12.43-10.81,28.48-28.62,0,14.08-5.26,16.6-10.38,25.69,15-8.66,33.2-37.06,62-41.28C381.32,24.63,373.64,37,369,50.23c5.51-7.16,13.58-15.29,22.55-16.65-4.7,2.81-16.07,13.54-18.08,32.62,10.17-12,27.13-21.89,38.57-25.55-10.78,8.78-14.91,24.29-17.31,38,4-6,7.86-11.47,14-15.31a0.19,0.19,0,0,1,.09,0c2.41-1.64,1.78-1.19,5.9-3.25a35.36,35.36,0,0,0-4.19,7.12c5.68,14.93,24.64,15,27.47,40.91,4.35-3.86,5.72-4.55,10.35-7.8-3.61,5.61-6.52,15.85-8.31,21.82,6.8-5.82,19.39-10.14,24.68-12.06-7,7.14-13.85,16.62-14.66,26.6,1.44-1,3.26-1.73,5.6-3.42,0,6.38.3,5.53,0.3,9.74,1.23-1.13,4-3.54,5.32-4.94-0.46,74.27-4.4,59.86-14.78,112.19-3.88,19.61-5.93,28.69-7.21,33.45l1-.2c8.39-25.18,25.14-82.06,24.39-111.5-0.08-11-2.48-34-2.6-36.3,0,0-4.88,4.61-4.94,4.61,0-1.2-.49-6.29-0.49-9.06a51.82,51.82,0,0,1-4.89,3.18C455,124.62,459.89,118.56,469.07,107.56Z" transform="translate(-69.77 -16.23)"/></g><g id="svga-group-glasses-single"><path id="SvgjsPath3869" class="cls-37" d="M310.36,103.89h0Z" transform="translate(-69.77 -16.23)"/></g></g></g></svg>