<svg id="Layer_1" data-name="Layer 1" xmlns="http://www.w3.org/2000/svg" viewBox="0 0 277.34 330.32"><defs><style>.cls-1{fill:#e6e4e3;}.cls-2{fill:#fff;}</style></defs><title>male</title><path class="cls-1" d="M246.67,250.93c-11.09-4-20-8.11-27.18-12.58a26.21,26.21,0,0,0-2.82-1.56c-4.06-2.24-8-.39-9.07,1q-.46.59-.95,1.18c-8.44,9.87-36.21,21.82-36.22,21.82a5.12,5.12,0,0,0-3.77,4.94h0l.1,34.13a37.85,37.85,0,1,1-75.69,0V285.62a18.41,18.41,0,1,1,12.53-.17v13.81c0,14.91,11.35,27,25.33,27s25.32-12.14,25.32-27l.07-33.28h0v-.22l0,0a5.67,5.67,0,0,0-3.42-4.58s-29.59-14.76-38.27-25.8c-1.12-1.43-5-3.27-9.07-1-7.57,4.17-17.86,7.61-30.87,12.3C32.56,261.07,21,275.82,21,285.88v65.88H298.34V285.88c0-10.06-11.56-20.49-51.67-35Zm0,0" transform="translate(-21 -21.45)"/><path class="cls-2" d="M253.27,310.42H242.13V299.28a5,5,0,0,0-10.07,0v11.14H220.92a5,5,0,0,0,0,10.07h11.14v11.14a5,5,0,0,0,10.07,0V320.49h11.14a5,5,0,0,0,0-10.07Z" transform="translate(-21 -21.45)"/><path class="cls-1" d="M97.17,259.83a9.41,9.41,0,1,0,9.41,9.41,9.42,9.42,0,0,0-9.41-9.41Zm0,0" transform="translate(-21 -21.45)"/><path class="cls-1" d="M86,121.44c2.29,28,14.24,15.95,16.7,28.23,4.85,24.16,14.75,25.08,18.23,33.39.78,1.87,1.24,10.81,1.24,13.77,0,9.94-.58,15.21-4.76,20.26-.95,1.15-2.54,4.89-.5,7.73,9.23,12.83,27,23.63,43.78,23.83,16.74-.2,34.55-11,43.78-23.83,2-2.84.44-6.58-.5-7.73-4.17-5-4.75-10.32-4.75-20.26,0-3,.46-11.9,1.24-13.77,3.48-8.31,13.38-9.24,18.22-33.39,2.46-12.28,14.41-.2,16.7-28.23,0-11.17-6.52-13.94-6.52-13.94s3.31-16.53,4.61-29.25c1.61-15.85-9.92-56.8-71.41-56.8H159.3c-61.49,0-73,40.94-71.41,56.8,1.3,12.72,4.61,29.25,4.61,29.25S86,110.27,86,121.44Zm0,0" transform="translate(-21 -21.45)"/></svg>