<svg id="Layer_1" data-name="Layer 1" xmlns="http://www.w3.org/2000/svg" xmlns:xlink="http://www.w3.org/1999/xlink" viewBox="0 0 480.85 600.85"><defs><style>.cls-1{fill:#2a232b;}.cls-17,.cls-2{fill:#edd8cc;}.cls-3{fill:#fcf6f2;}.cls-4{fill:#debca9;}.cls-21,.cls-5{fill:none;}.cls-17,.cls-21,.cls-5{stroke:#bf8a6b;}.cls-17,.cls-5{stroke-width:1.5px;}.cls-6{fill:url(#linear-gradient);}.cls-7{fill:#f3f1f3;}.cls-8{fill:#131111;}.cls-9{fill:#f3f1f4;}.cls-10{fill:#cfc8d7;}.cls-11{fill:#e1e0e1;}.cls-12{fill:#f1f7f8;}.cls-13{fill:#cbe4e9;}.cls-14{fill:#a8d2d9;}.cls-15,.cls-28,.cls-29,.cls-40,.cls-41{fill:#fff;}.cls-16{fill:#88c1ca;}.cls-18{fill:#bf8a6b;}.cls-19{fill:#e5caba;}.cls-20{fill:url(#linear-gradient-2);}.cls-21{stroke-width:0.75px;}.cls-22{fill:url(#radial-gradient);}.cls-23{fill:#7b5c33;}.cls-24{fill:#8a6d47;}.cls-25{fill:#5c3d14;}.cls-26{fill:#4d3009;}.cls-27,.cls-29{opacity:0.9;}.cls-27,.cls-28,.cls-29,.cls-40,.cls-41{isolation:isolate;}.cls-28{opacity:0.7;}.cls-30{fill:url(#radial-gradient-2);}.cls-31{fill:url(#radial-gradient-3);}.cls-32{fill:#09152e;}.cls-33{fill:url(#radial-gradient-4);}.cls-34{fill:url(#radial-gradient-5);}.cls-35{fill:url(#radial-gradient-6);}.cls-36{fill:url(#radial-gradient-7);}.cls-37{fill:url(#radial-gradient-8);}.cls-38{fill:#1b141c;}.cls-39{fill:#3a353a;}.cls-40{opacity:0.2;}.cls-41{opacity:0.4;}.cls-42{fill:#26120b;}</style><linearGradient id="linear-gradient" x1="63.79" y1="676.23" x2="63.79" y2="707.44" gradientTransform="matrix(3, 0, 0, -3, 118, 2484)" gradientUnits="userSpaceOnUse"><stop offset="0" stop-color="#debca9" stop-opacity="0.8"/><stop offset="0.7" stop-color="#bf8a6b"/></linearGradient><linearGradient id="linear-gradient-2" x1="63.83" y1="698.86" x2="63.83" y2="701.2" gradientTransform="matrix(3, 0, 0, -3, 118, 2484)" gradientUnits="userSpaceOnUse"><stop offset="0.1" stop-color="#e5caba"/><stop offset="1" stop-color="#debca9"/></linearGradient><radialGradient id="radial-gradient" cx="38.71" cy="743.38" r="8.36" gradientTransform="translate(364 2484) rotate(180) scale(3)" gradientUnits="userSpaceOnUse"><stop offset="0" stop-color="#fff"/><stop offset="0.54" stop-color="#fdfefe"/><stop offset="0.74" stop-color="#f6f8f9"/><stop offset="0.88" stop-color="#eaeff2"/><stop offset="0.99" stop-color="#d9e3e8"/><stop offset="1" stop-color="#d8e2e7"/></radialGradient><radialGradient id="radial-gradient-2" cx="95.05" cy="995.48" fx="104.19528356754944" r="13" gradientTransform="matrix(3, 0.06, -0.05, 2.4, 18.35, -2139.28)" gradientUnits="userSpaceOnUse"><stop offset="0" stop-color="#debca9"/><stop offset="0.7" stop-color="#debca9" stop-opacity="0.3"/><stop offset="1" stop-color="#edd8cc" stop-opacity="0"/></radialGradient><radialGradient id="radial-gradient-3" cx="36.05" cy="701.99" r="20.97" gradientTransform="translate(364 1960.81) rotate(180) scale(3 2.38)" gradientUnits="userSpaceOnUse"><stop offset="0.95" stop-opacity="0"/><stop offset="1" stop-opacity="0.2"/></radialGradient><radialGradient id="radial-gradient-4" cx="83.99" cy="743.38" r="8.36" gradientTransform="matrix(3, 0, 0, -3, 118, 2484)" xlink:href="#radial-gradient"/><radialGradient id="radial-gradient-5" cx="48.99" cy="996.66" fx="58.13256406448674" r="13" gradientTransform="matrix(-3, 0.06, 0.05, 2.4, 461.26, -2139.26)" xlink:href="#radial-gradient-2"/><radialGradient id="radial-gradient-6" cx="81.32" cy="701.99" r="20.97" gradientTransform="matrix(3, 0, 0, -2.38, 118, 1960.81)" xlink:href="#radial-gradient-3"/><radialGradient id="radial-gradient-7" cx="63.79" cy="720.7" r="31.98" gradientTransform="matrix(3, 0, 0, -3, 118, 2484)" gradientUnits="userSpaceOnUse"><stop offset="0" stop-color="#fcf6f2" stop-opacity="0.5"/><stop offset="0.9" stop-color="#edd8cc" stop-opacity="0"/></radialGradient><radialGradient id="radial-gradient-8" cx="63.79" cy="767.5" r="28.86" xlink:href="#radial-gradient-7"/></defs><title>avatar 1</title><g id="svga-group-subwrapper"><g id="svga-group-hair-back"><path id="SvgjsPath3241" class="cls-1" d="M310.55,290.32h-2.34V288h2.34v2.34Z" transform="translate(-68.95 -12.73)"/></g><g id="svga-group-humanbody-single"><path id="SvgjsPath2893" class="cls-2" d="M532.67,522.64c-5.14-11.11-19.18-27.56-34.77-32.11-19.28-5.62-62.8-12.42-78.94-16.2-12.94-3-39-26.43-48.12-34.28a9.88,9.88,0,0,1-3-6.46c-0.33-25.42,9.82-93,9.82-93H241.12s10.14,67.53,9.81,93a9.87,9.87,0,0,1-3,6.46c-9.13,7.85-35.19,31.25-48.12,34.28-16.14,3.78-59.66,10.81-78.94,16.43-15.6,4.54-29.64,20.77-34.77,31.88-8.68,18.74-10.73,52.65-10.73,81.9h468C543.39,575.29,541.34,541.38,532.67,522.64Z" transform="translate(-68.95 -12.73)"/><path id="SvgjsPath2894" class="cls-3" d="M447.81,485.85c57,8.29,80.94,20.38,88.44,118.69h7.14c0-29.25-2.05-63.16-10.72-81.9-5.14-11.11-19.18-27.56-34.77-32.11-19.28-5.62-62.8-12.42-78.94-16.2-12.94-3-42.69-28.24-50.65-38.26,7.86,11,29.93,36.52,49.27,43.2C426.82,482.47,434.53,483.92,447.81,485.85Zm-246.62-6.59c19.34-6.68,41.4-32.19,49.27-43.2-8,10-37.71,35.23-50.65,38.26-16.14,3.78-59.66,10.81-78.94,16.43-15.6,4.54-29.64,20.77-34.77,31.88-8.67,18.74-10.72,52.65-10.72,81.9h7.14C90,506.86,114,494.13,170.95,485.85,184.23,483.92,191.93,482.47,201.19,479.27Z" transform="translate(-68.95 -12.73)"/><path id="SvgjsPath2895" class="cls-4" d="M299.19,517.59s-11.87-3.77-16.58-5.57c-24.45-9.38-103.89-15.46-103.89-15.46s83.67,3.32,102.13,6.5c-1.07-11.16-7.06-46.81-7.06-46.81s12,39.35,15,49.28C290.37,510.84,299.19,517.59,299.19,517.59Zm25.27-3.14c-0.21.17-.45,0.39-0.71,0.63A5.31,5.31,0,0,0,324.46,514.45Zm-25.27,3.14s6.77,7,10.17,7.09c4.47,0.12,11.3-6.78,14.39-9.6-3,2.24-9.73,3.26-12.43,3.36C308.22,518.56,299.19,517.59,299.19,517.59ZM348.37,500c-3.62.58-10.26,1.85-10.26,1.85L343.46,467c-1.51,7.19-10.47,37.94-19,47.45,4.47-3.78,14.41-5.6,19.48-6.33,24-3.47,23.94-3.47,96.09-11.56C440,496.56,372,496.2,348.37,500Z" transform="translate(-68.95 -12.73)"/><path id="SvgjsPath2896" class="cls-5" d="M532.67,522.64c-5.14-11.11-19.18-27.56-34.77-32.11-19.28-5.62-62.8-12.42-78.94-16.2-12.94-3-39-26.43-48.12-34.28a9.88,9.88,0,0,1-3-6.46c-0.33-25.42,9.82-93,9.82-93H241.12s10.14,67.53,9.81,93a9.87,9.87,0,0,1-3,6.46c-9.13,7.85-35.19,31.25-48.12,34.28-16.14,3.78-59.66,10.81-78.94,16.43-15.6,4.54-29.64,20.77-34.77,31.88-8.68,18.74-10.73,52.65-10.73,81.9h468C543.39,575.29,541.34,541.38,532.67,522.64Z" transform="translate(-68.95 -12.73)"/></g><g id="svga-group-chinshadow-single"><path id="SvgjsPath3057" class="cls-6" d="M309.38,455c33.07,0,44.46-11.27,56.68-21.62-0.16-15.77,3.5-46.65,6.4-68.51-36.64-5.14-89.52-5.14-126.17,0,2.9,21.86,6.56,52.73,6.4,68.5C264.91,443.71,276.3,455,309.38,455Z" transform="translate(-68.95 -12.73)"/></g><g id="svga-group-clothes-single"><path id="SvgjsPath3253" class="cls-7" d="M376.91,612h-136V480.56c52.07,11,86.3,10.15,136,0V612h0Z" transform="translate(-68.95 -12.73)"/><path id="SvgjsPath3254" class="cls-8" d="M326.79,611.4c-6.49,0-25.1.49-38.64-.54l0-.4c-1.91-43.66,2.64-71.89,10.62-91.94l0.11-.29-0.22-.22c-2.12-2.12-5.67-4.53-9.44-7.08a82.91,82.91,0,0,1-10.15-7.6,37.83,37.83,0,0,1,5.49-5.15c0.57-.29,2.72-2,14-11.63l0.85-.73a45,45,0,0,1,8.75-.69,88.79,88.79,0,0,1,15.24,1.32c3.65,3.41,8.08,12.47,9.73,16.78-2.28,5.36-5,7.32-8.7,10a67.76,67.76,0,0,0-6.21,4.94l-0.19.18,0,0.26c9.42,47.53,9.42,58.63,9.42,69.37,0,4.73,0,15.47.79,23.37C327.91,611.4,327.41,611.4,326.79,611.4Z" transform="translate(-68.95 -12.73)"/><path id="SvgjsPath3255" d="M333.6,503.26c-1.76-4.67-6.34-13.88-10-17.22-6.73-1.32-18.68-2-24.5-.56-0.25.21-14.62,12.6-14.77,12.31a37.91,37.91,0,0,0-5.9,5.59c4.82,4.86,15.57,10.66,19.89,15-8.54,21.48-12.47,50.52-10.65,92.15,0,0.26,0,.54,0,0.8a407.12,407.12,0,0,0,41.07.52c-2.71-26.46,3.37-24.47-10.27-93.26C325.68,512,330.12,511.55,333.6,503.26Zm-12.29,44.56-0.12-.3c4.68,24.69,3.23,43.6,6.77,63.12-11.08-.74-28.11-0.12-39.25-0.12,0.86-16.84,2.78-74.14,11.09-93l1.19-.29-2.41,81.29L305,516.44l0.14,0,4.21,76.3,1-76.6h0.18l9.83,85.07L315,516.63c0.73,0.15,1.47.33,2.2,0.55a0.45,0.45,0,0,1,.23.07C317.65,519.59,319.59,536.91,321.31,547.81Zm-2.06-32.31c-6.49-2.93-14.89-2.4-21.36.56-3.93-4.24-9.55-7.2-17.62-12.62,1.29-1.12,2.95-2.5,5.17-4.24,0.19,0,8.14-6.48,8.28-6.62,2.15-2,4.07-4.19,5.9-6.13,6.86-.28,16.92,0,23,0.33,3.51,4.39,6.86,11,9.38,16.24C327.39,509.74,322.86,512.74,319.25,515.5Z" transform="translate(-68.95 -12.73)"/><path id="SvgjsPath3256" class="cls-9" d="M258.35,553.76c-27-93.77-14.8-69.22-22-106.05,4.75-11.26,9.26-24.43,11.8-27.14l0.19-.2c5.36,56.18,21,31.91,55.66,64.87C284.17,498.47,265.79,532.82,258.35,553.76Zm124-106.05c-3.39-8.66-9.54-21.36-12.2-24.18,3.33,48.39-35.44,38.73-57,61.31,20.62,13.37,40.19,48.35,47.2,68.93C391.1,451.95,374.55,496.65,382.37,447.71Z" transform="translate(-68.95 -12.73)"/><path id="SvgjsPath3257" class="cls-10" d="M369.76,422.46c0,12-1,21.44-3,24.19-5.72,13.59-30.66,23.06-38.35,26.93a54.37,54.37,0,0,0-16,11.35c8.92,5.79,13.35,7.92,30.26,33.79,9.94,16.64,15.3,29.13,17.69,36.6,31.31-103.74,14.56-58.45,22.44-107.67C379.15,438.1,372.1,424.61,369.76,422.46Zm8.54,45.7c-4.58,42.3-8.17,33.9-18.11,80-6.36-20.23-25.92-53.62-45.47-63.4,9.21-6.92,11.77-7.33,22.77-12.35,33.69-15,35.07-29,33.08-47.44,2.82,3.33,7.31,14.42,11,22.28C379.53,454.6,378.62,465.11,378.29,468.16ZM260.7,457.39c-10.32-8.54-7.39-19.1-12.14-37.94-2.11,2.34-7.36,15.52-12.68,28.21,1.3,6.54,1.59,17.29,1.78,20.69,1.31,28.55,4.1,29.87,20.66,87,7.09-20.84,27-57,47.36-70.22C289.46,470.28,269,464.66,260.7,457.39Zm12.78,59.69c-5.2,8.58-10.57,17.5-14.91,31.08-10.39-47.43-14-39.7-18.09-79.94-0.75-7-1.44-14.1-3.28-21,3.83-8.4,9.32-24.06,11.07-25.73,3.2,16.56.15,31.5,13.27,39.77,6.13,4.67,26,12.45,41,24.24C293.44,490.95,288.54,494.13,273.48,517.09Z" transform="translate(-68.95 -12.73)"/><path id="SvgjsPath3258" class="cls-11" d="M356.93,546.15l-2.83-6.21s21.41-65.93,25.14-84.77C381.37,474.72,356.93,546.15,356.93,546.15Zm-97-2.58,3.36-7.63S243.25,474,239.52,455.17C237.38,474.72,260,543.57,260,543.57Z" transform="translate(-68.95 -12.73)"/><path id="SvgjsPath3259" class="cls-12" d="M367.38,512.88c16.53-48.75,6.45-52.77,14.75-69,0.31-.61,3.27,2.45,3.59,3.84,3.06,13.24,124.84,40.57,128.69,43.52,3.41,2.48,13.22,7.34,13.22,7.34,11.55,21.22,18.16,25,21.41,81.87,0.3,7.21-.14,27.62-0.14,33.09L348.69,612C349.17,593.76,351.5,561,367.38,512.88Zm-116,0c-16.53-48.75-6.45-52.77-14.75-69-0.31-.61-3.27,2.45-3.59,3.84C230,461,108.19,488.33,104.34,491.27c-3.41,2.48-13.22,7.34-13.22,7.34-11.55,21.22-18.16,25-21.41,81.87-0.3,7.21.14,27.62,0.14,33.09L270.07,612C269.59,593.76,267.26,561,251.37,512.88Z" transform="translate(-68.95 -12.73)"/><path id="SvgjsPath3260" class="cls-13" d="M380.3,499.76c-10.65,38.35-25.21,72.82-31.61,112.23-2.08,0,3.49-53.11,18.69-99.11,16.53-48.75,6.45-52.77,14.75-69,0.18-.35-1.45,4.62-0.52,5.69C381.27,467.69,385.72,481.67,380.3,499.76Zm-141.84,0c10.65,38.35,25.21,72.82,31.61,112.23,2.08,0-3.49-53.11-18.69-99.11-16.53-48.75-6.45-52.77-14.75-69-0.18-.35,1.45,4.62.52,5.69C237.48,467.69,233,481.67,238.46,499.76Z" transform="translate(-68.95 -12.73)"/><path id="SvgjsPath3261" class="cls-14" d="M432.08,490.47s-5.34,6-20.21,16.2c12.43-13.77,18.16-19.3,18.16-19.3Zm5.09,27.79-3.58-3.2c-10.62,32.25-17.72,48.18-30,85.69C421.23,567.23,425.45,555.33,437.17,518.26ZM188.72,487.37s5.73,5.53,18.16,19.3c-14.86-10.21-20.21-16.2-20.21-16.2Zm26.46,113.38c-12.3-37.51-19.4-53.44-30-85.69l-3.58,3.2C193.31,555.33,197.52,567.23,215.18,600.75Z" transform="translate(-68.95 -12.73)"/><path id="SvgjsPath3262" class="cls-15" d="M495.2,568.41c0-27.14,7.28-42.94,22.5-65.86a27.62,27.62,0,0,1,3.15,2C504.67,524.68,501.45,543.42,495.2,568.41ZM406.05,595c14.31-39.09,18.86-54.36,28.33-80.47-2.69-.82-20.29-7-23-7.83,1,2.34,7.28,4.26,18.3,11C429.71,517.73,417.8,553.77,406.05,595Zm19.24-107.94s-7.84,9.69-15.59,19.49c7.93-6.25,13.45-13.21,20.34-19.19-9.35-7.88-24.6-19.95-34.45-28.29C403.36,467.44,425.29,487.07,425.29,487.07Zm122.95,126.5h0.67c0-5.48.44-25.88,0.14-33.09-3.25-56.83-9.86-60.64-21.41-81.87,0,0-9.81-4.87-13.22-7.34-3.12-2.39-90.78-23.22-122.83-37.16,37.47,25.67,108.31,35.16,129.27,50.49C531,512,544.64,575.43,548.24,613.57Zm-450.38-109c1.27-.9,1.45-0.86,2.73-1.71,15.22,22.91,23,38.45,23,65.58C117.31,543.42,113,523.9,97.86,504.53ZM189,517.73c11-6.76,17.34-8.68,18.3-11-2.69.84-20.29,7-23,7.83,9.47,26.12,14,41.38,28.33,80.47C201,553.77,189,517.73,189,517.73Zm34.12-58.65c-9.85,8.34-25.1,20.41-34.45,28.29,6.89,6,12.41,12.94,20.34,19.19-7.75-9.8-15.59-19.49-15.59-19.49S215.39,467.44,223.17,459.08ZM97.9,504.6c21-15.32,91.8-24.81,129.27-50.49-32.05,13.94-119.71,34.77-122.83,37.16-3.41,2.48-13.22,7.34-13.22,7.34-11.55,21.22-18.16,25-21.41,81.87-0.3,7.21.14,27.62,0.14,33.09h0.67C74.11,575.43,87.76,512,97.9,504.6Z" transform="translate(-68.95 -12.73)"/><path id="SvgjsPath3263" class="cls-16" d="M384.84,444.47a2.25,2.25,0,0,0-1.73-1.54c-0.69-.05-1,1.07-1.33,1.69-8.31,16.19,1,19.5-15.56,68.25C350.34,561,348.47,594.46,348,612.69l200.92,0.88c0-5.48,1.14-25.88.84-33.09-3.25-56.83-10.09-61.11-21.65-82.33,0,0-10.28-5.1-13.69-7.57-11.44-8.76-1.38.05-51.55-14-41.13-12-43.35-15.39-58.27-19.54-3-.86-9.49-1.92-16.26-6.67C387.71,449.89,385.06,445.81,384.84,444.47Zm-35.74,166c8.73-55.14,14.24-69.57,26.43-110.63,8.24-26,3.69-40.74,7.61-52.75a0.71,0.71,0,0,1,1.34,0c5.7,14.54,21.62,17.92,44.07,39.89-13.6,13.6-17.1,17.27-18.86,19.61,2,1,13.06,5.22,23.17,9.13-0.57,1.79-31.39,89-31.76,90.14,23.4-50.5,26.42-66,33.28-91.29-1.9-1.43-18.47-7.52-21.27-8.52,10-10.35,12.89-12.63,17.62-18.65,3.8,0-37.15-31.17-39.15-33.26a60.07,60.07,0,0,0,7,3.49c34.36,12.09,7.17,6.62,82.37,28.08a186.21,186.21,0,0,0,24.64,4.4c0.51,0,12.62,6.38,19.54,9.29-16.82,17.49-27.61,40.09-30,69,7.53-29.64,11.59-45.14,30.75-67.44,17.83,36.09,15.81,30.88,21.6,111.65C499.32,610.71,425.35,610.28,349.1,610.47ZM230.43,450.32c-6.77,4.75-13.25,5.81-16.26,6.67-14.92,4.15-17.14,7.52-58.27,19.54-50.17,14.09-40.11,5.28-51.55,14-3.41,2.48-13.69,7.57-13.69,7.57C79.1,519.37,72.26,523.65,69,580.48c-0.3,7.21.84,27.62,0.84,33.09l200.92-.88c-0.48-18.23-2.34-51.74-18.22-99.81C236,464.13,245.28,460.82,237,444.63c-0.32-.62-0.63-1.74-1.33-1.69a2.25,2.25,0,0,0-1.73,1.54C233.7,445.81,231,449.89,230.43,450.32ZM71.2,612.61C77,531.84,75,537.06,92.8,501c19.16,22.3,23.22,37.8,30.75,67.44-2.37-28.94-13.15-51.54-30-69,6.92-2.91,19-9.24,19.54-9.29a186.22,186.22,0,0,0,24.64-4.4c75.2-21.46,48-16,82.37-28.08a60.44,60.44,0,0,0,7-3.49c-2,2.09-42.95,33.26-39.15,33.26,4.73,6,7.62,8.3,17.62,18.65-2.8,1-19.37,7.08-21.27,8.52,6.85,25.27,9.88,40.79,33.28,91.29-0.36-1.17-31.18-88.35-31.76-90.14,10.1-3.91,21.15-8.1,23.17-9.13-1.76-2.34-5.26-6-18.86-19.61,22.46-22,38.38-25.35,44.07-39.89a0.71,0.71,0,0,1,1.34,0c3.93,12-.63,26.76,7.61,52.75,12.19,41.06,17.71,55.48,26.43,110.63C193.4,610.28,119.44,610.71,71.2,612.61Z" transform="translate(-68.95 -12.73)"/></g><g id="svga-group-head"><g id="svga-group-ears-left"><path id="SvgjsPath2906" class="cls-17" d="M182.24,252.51c-3.48-5.76-14.81-21.53-23.47-19.32-7,1.81-7,11.63-7.5,17.45-0.8,8.53-1.09,23.38,1.23,29.41,2.23,5.79,9.27,17,13.64,21.24,5.38,5.23,14,21.9,15,23.63,1.66,2.73,5,6.65,10.12,6.34,7.19-.43,13.39-7.22,14-10.5C208.29,303,191.29,267.5,182.24,252.51Z" transform="translate(-68.95 -12.73)"/><path id="SvgjsPath2907" class="cls-18" d="M178.8,287.61c-0.33-1.32,0-3.54.36-5.68a20.07,20.07,0,0,0,.43-5.11c-0.68-4.89-4.48-14.18-7-19.22-2.86-5.79-7.49-13.09-13.29-15a4.46,4.46,0,0,0-4.89,1.1c-0.67.69-.83,1.51-0.61,1.61s0.72-.58,1.44-1.21-1.19-.09,0,0c-0.48,2.43-2,14.75-1,23.74,0.84,7.07,2.46,12.35,3,13.14a18,18,0,0,0,.37,2.44c2.34,10.32,17.59,23.82,21.14,27.66,0.66,0.71,1.34,1.13,1.51,1s-0.24-.87-0.89-1.59c-3.51-3.82-18.65-17.27-20.92-27.23-2.4-10.56,9.15-26.23,11-29.54,0.94,1.56,1.74,3,2.35,4.29,0.48,1,1,2.12,1.57,3.36-1.08,1.73-12,14.34-9.21,24.43,1,3.72,8.94,8.52,12,9.84a6.14,6.14,0,0,1,3.05,3.06c0.85,1.46.08,5.22,2.88,6.41a3.92,3.92,0,0,0,1.54.34,2.84,2.84,0,0,0,1.83-.66c0,0.63,0,1.45,0,2.2,0,1,.11,1.43.35,1.44s0.49-.41.52-1.37a13.63,13.63,0,0,0-.18-3.38c-0.63-2.08-2.55-4.43-4.58-6.92S179.32,289.65,178.8,287.61Zm-21.6-9.15c-5.49-16.2,3-31,4.24-33.18,2.37,0.93,6,5.13,7.54,7.57C167.85,254.8,157.43,267.56,157.2,278.46Zm25.28,25.82c-2.54-1.08-1.65-4.64-2.47-6a7,7,0,0,0-3.46-3.42,9.1,9.1,0,0,1-1.36-.78c-6.28-14.22.69-20.43,2.43-21.7a31.25,31.25,0,0,1,1.11,4.61,20.14,20.14,0,0,1-.42,4.84c-0.36,2.23-.73,4.55-0.34,6,0.57,2.23,1,7,3,9.47,1.83,2.24,3.7,4.54,4.35,6.43A2.18,2.18,0,0,1,182.48,304.28Z" transform="translate(-68.95 -12.73)"/></g><g id="svga-group-ears-right"><path id="SvgjsPath2908" class="cls-17" d="M435.9,252.51c3.48-5.76,14.81-21.53,23.47-19.32,7,1.81,7,11.63,7.5,17.45,0.8,8.53,1.08,23.38-1.23,29.41-2.23,5.79-9.27,17-13.64,21.24-5.38,5.23-14,21.9-15,23.63-1.66,2.73-5,6.65-10.12,6.34-7.18-.43-13.39-7.22-14-10.5C409.86,303,426.86,267.5,435.9,252.51Z" transform="translate(-68.95 -12.73)"/><path id="SvgjsPath2909" class="cls-18" d="M436.5,296.74c-2,2.49-4,4.84-4.58,6.92a13.63,13.63,0,0,0-.18,3.38c0,1,.28,1.39.53,1.37s0.37-.47.35-1.44c0-.75,0-1.57,0-2.2a2.84,2.84,0,0,0,1.83.66,3.93,3.93,0,0,0,1.54-.34c2.8-1.2,2-5,2.88-6.41a6.13,6.13,0,0,1,3.05-3.06c3.06-1.31,11-6.11,12-9.84,2.77-10.1-8.12-22.71-9.21-24.43,0.55-1.24,1.08-2.38,1.56-3.36,0.62-1.24,1.41-2.74,2.35-4.29,1.84,3.31,13.4,19,11,29.54-2.27,10-17.41,23.41-20.92,27.23-0.65.71-1.06,1.41-.89,1.59s0.86-.25,1.51-1c3.55-3.84,18.79-17.34,21.14-27.66a17.68,17.68,0,0,0,.38-2.44c0.49-.79,2.12-6.07,3-13.14,1.06-9-.48-21.3-1-23.74,1.19-.09-0.59-0.52,0,0s1.22,1.31,1.44,1.21,0.07-.91-0.6-1.61a4.46,4.46,0,0,0-4.89-1.1c-5.8,1.88-10.43,9.18-13.29,15-2.48,5-6.29,14.33-7,19.22a20.06,20.06,0,0,0,.43,5.11c0.34,2.14.7,4.37,0.36,5.68C438.82,289.65,438.5,294.29,436.5,296.74Zm12.67-43.89c1.54-2.44,5.17-6.63,7.54-7.57,1.23,2.22,9.73,17,4.24,33.18C460.72,267.56,450.3,254.8,449.17,252.85Zm-16.35,50.88c0.64-1.88,2.52-4.19,4.35-6.43,2.06-2.52,2.45-7.24,3-9.47,0.38-1.5,0-3.81-.34-6a20,20,0,0,1-.43-4.84,30.92,30.92,0,0,1,1.11-4.61c1.75,1.27,8.71,7.49,2.43,21.7a8.78,8.78,0,0,1-1.37.78,7,7,0,0,0-3.46,3.42c-0.82,1.4.07,5-2.47,6A2.16,2.16,0,0,1,432.82,303.73Z" transform="translate(-68.95 -12.73)"/></g><g id="svga-group-faceshape-wrap"><g id="svga-group-faceshape-single"><path id="SvgjsPath3054" class="cls-2" d="M309.38,57.17c-78.67.13-142.56,65.16-142.44,145.28a147.87,147.87,0,0,0,4.68,36.82h0c0,0.13,27,90.88,32.81,120.68,3.23,16.62,22.92,31.6,40.4,43.83,16.3,11.41,24.64,27.81,64.54,27.81s48.24-16.4,64.54-27.81c17.48-12.23,37.17-27.2,40.4-43.83,5.8-29.81,32.78-120.56,32.81-120.68h0a147.86,147.86,0,0,0,4.68-36.82C451.95,122.32,388.05,57.29,309.38,57.17Z" transform="translate(-68.95 -12.73)"/><path id="SvgjsPath3055" class="cls-19" d="M418.83,109.51a149.59,149.59,0,0,1,27.84,87.66A153.28,153.28,0,0,1,442.16,234h0c0,0.13-26,90.87-31.62,120.68-3.12,16.62-22.16,31.6-39,43.83-15.72,11.41-23.68,27.81-62.15,27.81s-46.43-16.41-62.15-27.81c-16.84-12.23-35.89-27.2-39-43.83-5.59-29.81-31.6-120.56-31.62-120.68h0a153.14,153.14,0,0,1-4.52-36.82,149.53,149.53,0,0,1,27.82-87.64,145.84,145.84,0,0,0-33,92.9,147.87,147.87,0,0,0,4.68,36.82h0c0,0.13,27,90.88,32.81,120.68,3.23,16.62,22.92,31.6,40.4,43.83,16.3,11.41,24.64,27.81,64.54,27.81s48.24-16.4,64.54-27.81c17.48-12.23,37.17-27.2,40.4-43.83,5.8-29.81,32.78-120.56,32.81-120.68h0a147.86,147.86,0,0,0,4.68-36.82A145.86,145.86,0,0,0,418.83,109.51Z" transform="translate(-68.95 -12.73)"/><path id="SvgjsPath3056" class="cls-5" d="M309.38,57.17c-78.67.13-142.56,65.16-142.44,145.28a147.87,147.87,0,0,0,4.68,36.82h0c0,0.13,27,90.88,32.81,120.68,3.23,16.62,22.92,31.6,40.4,43.83,16.3,11.41,24.64,27.81,64.54,27.81s48.24-16.4,64.54-27.81c17.48-12.23,37.17-27.2,40.4-43.83,5.8-29.81,32.78-120.56,32.81-120.68h0a147.86,147.86,0,0,0,4.68-36.82C451.95,122.32,388.05,57.29,309.38,57.17Z" transform="translate(-68.95 -12.73)"/></g></g><g id="svga-group-mouth-single"><path id="SvgjsPath3073" class="cls-20" d="M309.85,389.65c-6.63.34-8.53-6.44-8.53-6.44s9.2,1.32,16.36-.83C317.68,382.38,315.68,389.36,309.85,389.65Z" transform="translate(-68.95 -12.73)"/><path id="SvgjsPath3077" class="cls-18" d="M310.52,384.53a65.91,65.91,0,0,1-9.07-.21,0.58,0.58,0,0,1-.52-0.64,0.6,0.6,0,0,1,.64-0.52c0.1,0,9.59.95,15.77-.79a0.6,0.6,0,0,1,.72.41,0.58,0.58,0,0,1-.4.72A33.48,33.48,0,0,1,310.52,384.53Z" transform="translate(-68.95 -12.73)"/><path id="SvgjsPath3078" class="cls-15" d="M268.43,360.05s29.33,3.48,39.12,3.51c10.65,0,45.12-3.51,45.12-3.51-10,8.27-20.93,16.22-45.76,16.38C284.7,376.57,279,368.51,268.43,360.05Z" transform="translate(-68.95 -12.73)"/><path id="SvgjsPath3079" class="cls-21" d="M268.43,360.05s29.33,3.48,39.12,3.51c10.65,0,45.12-3.51,45.12-3.51-10,8.27-20.93,16.22-45.76,16.38C284.7,376.57,279,368.51,268.43,360.05Z" transform="translate(-68.95 -12.73)"/></g><g id="svga-group-eyes-left"><g id="svga-group-eyesback-left"><path id="SvgjsPath3264" class="cls-22" d="M215.12,255.91c6,10.76,5.12,13.35,24,10.45,22.68,0,41.45-4.62,41.45-13s-11.53-16.65-40.24-11.52C226.28,244.35,215.12,251.71,215.12,255.91Z" transform="translate(-68.95 -12.73)"/></g><g id="svga-group-eyesiriswrapper-left"><g id="svga-group-eyesiriscontrol-left"><g id="svga-group-eyesiris-left"><path id="SvgjsPath3390" class="cls-23" d="M263.16,252.29a14,14,0,1,1-14-14A14,14,0,0,1,263.16,252.29Z" transform="translate(-68.95 -12.73)"/><path id="SvgjsPath3391" class="cls-24" d="M241,258.86c2-.17.23-0.72,0.23-0.72-1-.55-2.92-1.39-2.92-2.16,0-2.41,3.31-3-.08-4-3.52-3.23,2.73-3.16,2.68-3.27-2.28-5.56.7-2.51,2-4.15,4.65-6.08,1.3.62,3.82,0,0.91-.22-1.83-3.58.08-3.11a2.1,2.1,0,0,1,1.55,1.36,7.08,7.08,0,0,0,2.36-1.6c1.75,0.53,3,3,2.44,2.55a21.66,21.66,0,0,0,3-.8s0.16-.56.33-0.08c2.15,6.23,7.68,5.78,1.31,7.58,0,0-.41,0,0.89,1,6.34,5.06-4.92,3.5,1.06,5.83,0.24-.24-3.58,2.26-3.58,3,0,1.17-2.44,4.25-4.55,3-1.18-.67-1.36,1.4-2.05.44-1.36-1.88-4.08-.08-3.07-1.81,1.48-1.22-1.53.48-2.12,0.48-1.94,0,2.53-6.51,9.11-1.67,1.92,1.41-2-3.35,1.46-3.35,0.35,0.11.24-1.22,0.24-1.6-1.81-.35,3.25,0,3.25-3,0.32,0.06,1.19-.82-3.83,0a15.46,15.46,0,0,1-.08-2.07c0.26-1,2.84-.7,2.12-1.76l-1.87-3.75c-6-1-2.58-1.57-6.34-.8-0.18.88-8.06,4.64-7.81,6.39s4.95,2.2.49,5.11C247.73,268.79,236.1,255.69,241,258.86Z" transform="translate(-68.95 -12.73)"/><path id="SvgjsPath3392" class="cls-25" d="M249.12,240l0.4,10.28,4.3-9.34-3.56,9.65,7.55-7-7,7.55,9.65-3.56-9.34,4.3,10.28,0.4-10.28.4,9.34,4.3-9.65-3.56,7,7.55-7.55-7,3.56,9.65-4.3-9.34-0.4,10.28-0.4-10.28-4.3,9.34L248,254l-7.55,7,7-7.55L237.77,257l9.34-4.3-10.27-.4,10.27-.4-9.34-4.3,9.65,3.56-7-7.55,7.55,7-3.56-9.65,4.3,9.34Z" transform="translate(-68.95 -12.73)"/><path id="SvgjsPath3393" class="cls-26" d="M251,243.09l-1.26,7.76,4.64-6.34-4.13,6.69,6.72-4.09-6.38,4.6,7.77-1.21-7.65,1.8,7.64,1.86-7.76-1.26,6.35,4.64-6.69-4.13,4.09,6.71-4.6-6.38,1.21,7.77-1.8-7.65-1.86,7.64,1.26-7.76-4.64,6.34,4.14-6.69-6.71,4.09,6.38-4.6-7.77,1.21,7.65-1.8-7.64-1.86,7.76,1.26-6.35-4.64,6.69,4.13-4.09-6.71,4.6,6.38-1.21-7.76,1.81,7.65Z" transform="translate(-68.95 -12.73)"/><path id="SvgjsPath3394" class="cls-27" d="M254.39,252.29a5.27,5.27,0,1,1-5.27-5.27A5.27,5.27,0,0,1,254.39,252.29Z" transform="translate(-68.95 -12.73)"/><path id="SvgjsPath3395" class="cls-28" d="M243.59,262.38c-0.77.78-2.31,0.5-3.42-.61s-1.39-2.64-.61-3.42,2.31-.5,3.42.61S244.37,261.6,243.59,262.38Z" transform="translate(-68.95 -12.73)"/><path id="SvgjsPath3396" class="cls-29" d="M260.37,249.53c-1.16,1.16-4,.23-6.28-2.07s-3.23-5.12-2.07-6.28,4-.23,6.28,2.07S261.53,248.37,260.37,249.53Z" transform="translate(-68.95 -12.73)"/></g></g></g><g id="svga-group-eyesfront-left"><path id="SvgjsPath3289" class="cls-2" d="M203.61,254c0,32.31,19.91,58.5,44.46,58.5s44.46-26.19,44.46-58.5-19.91-58.5-44.46-58.5S203.61,221.73,203.61,254Zm11.52,1.86c0-4.2,11.16-11.56,25.23-14.07,28.72-5.13,40.24,3.14,40.24,11.52s-18.77,13-41.45,13C220.25,269.26,221.16,266.66,215.12,255.91Z" transform="translate(-68.95 -12.73)"/><path id="SvgjsPath3290" class="cls-30" d="M212.72,256.49c-0.18,16.16,20.23,29.17,42.21,29.1s39.75-13.25,39.69-29.41S276.73,227,254.75,227.09,213,234.39,212.72,256.49Zm2.4-.59c0-4.2,11.16-11.56,25.23-14.07,28.72-5.13,40.24,3.14,40.24,11.52s-18.77,13-41.45,13C220.25,269.26,221.16,266.66,215.12,255.91Z" transform="translate(-68.95 -12.73)"/><path id="SvgjsPath3295" class="cls-31" d="M215.12,255.91c6,10.76,5.12,13.35,24,10.45,22.68,0,41.45-4.62,41.45-13s-11.53-16.65-40.24-11.52C226.28,244.35,215.12,251.71,215.12,255.91Z" transform="translate(-68.95 -12.73)"/><path id="SvgjsPath3299" class="cls-18" d="M278.29,262.93a30.58,30.58,0,0,1-5.51,2.42c-2.83.74-11.69,2.09-27.06,4.2,17.53-1.24,24.52-1.92,27.52-2.78C275.63,266.09,278.29,262.93,278.29,262.93Z" transform="translate(-68.95 -12.73)"/><path id="SvgjsPath3300" class="cls-32" d="M280.73,250.45a0.42,0.42,0,0,1,0,.58,0.43,0.43,0,0,1-.58,0l-9.06-7.92c-26.7-3.05-46.64,1.61-54.41,12.28l1.25,5.62-7.29-6.29c7.42-10.59,14.76-18.52,60.44-15.76C276.46,244.24,279.28,246.87,280.73,250.45Zm-2.63,9.31a0.61,0.61,0,0,0-.54-1c-9.25,5.42-25.79,5.9-53,8l-5.27-3.24,3.87,4.79C252.62,266.92,274.29,265.18,278.1,259.76Z" transform="translate(-68.95 -12.73)"/></g></g><g id="svga-group-eyes-right"><g id="svga-group-eyesback-right"><path id="SvgjsPath3272" class="cls-33" d="M402.7,255.91c-6,10.76-5.12,13.35-24,10.45-22.68,0-41.45-4.62-41.45-13s11.53-16.65,40.24-11.52C391.54,244.35,402.7,251.71,402.7,255.91Z" transform="translate(-68.95 -12.73)"/></g><g id="svga-group-eyesiriswrapper-right"><g id="svga-group-eyesiriscontrol-right"><g id="svga-group-eyesiris-right"><path id="SvgjsPath3397" class="cls-23" d="M383.68,252.29a14,14,0,1,1-14-14A14,14,0,0,1,383.68,252.29Z" transform="translate(-68.95 -12.73)"/><path id="SvgjsPath3398" class="cls-24" d="M361.46,258.86c2.06-.18.25-0.71,0.25-0.71-1-.55-2.93-1.39-2.93-2.17,0-2.41,3.32-3-.05-4-3.54-3.22,2.71-3.15,2.66-3.26-2.28-5.57.71-2.51,2-4.15,4.63-6.07,1.29.63,3.81,0,0.91-.22-1.84-3.58.08-3.11a2.08,2.08,0,0,1,1.54,1.36,6.92,6.92,0,0,0,2.36-1.59c1.76,0.52,3,3,2.44,2.55a22.44,22.44,0,0,0,3-.8s0.16-.56.33-0.08c2.14,6.22,7.68,5.79,1.32,7.58,0,0-.41,0,0.88,1,6.33,5.07-4.91,3.5,1.07,5.83,0.25-.23-3.59,2.26-3.59,3,0,1.17-2.44,4.25-4.55,3-1.18-.67-1.37,1.41-2.06.45-1.34-1.88-4.09-.08-3.07-1.81,1.48-1.22-1.54.48-2.11,0.48-1.95,0,2.52-6.51,9.11-1.67,1.92,1.4-2-3.36,1.48-3.36,0.33,0.11.25-1.22,0.25-1.59-1.84-.36,3.24,0,3.24-3,0.33,0.07,1.21-.81-3.81,0a15,15,0,0,1-.08-2.07c0.25-1,2.82-.7,2.11-1.76l-1.87-3.76c-6-1-2.58-1.56-6.36-.8-0.16.89-8.06,4.65-7.82,6.39s5,2.2.49,5.1C368.24,268.8,356.61,255.69,361.46,258.86Z" transform="translate(-68.95 -12.73)"/><path id="SvgjsPath3399" class="cls-25" d="M369.64,240L370,250.29l4.28-9.35-3.56,9.65,7.57-7-7,7.56,9.65-3.56-9.35,4.31,10.28,0.4-10.28.4L381,257l-9.65-3.56,7,7.56-7.57-7,3.56,9.65L370,254.3l-0.41,10.28-0.41-10.28-4.31,9.35,3.56-9.65-7.54,7,7-7.56L358.28,257l9.35-4.31-10.28-.4,10.28-.4-9.35-4.31,9.65,3.56-7-7.56,7.54,7-3.56-9.65,4.31,9.35Z" transform="translate(-68.95 -12.73)"/><path id="SvgjsPath3400" class="cls-26" d="M371.5,243.09l-1.26,7.76,4.63-6.35-4.14,6.69,6.72-4.1-6.36,4.61,7.76-1.21-7.65,1.8,7.65,1.87-7.76-1.26,6.33,4.63-6.69-4.13,4.09,6.72-4.58-6.38,1.21,7.76-1.81-7.65-1.87,7.64,1.26-7.76-4.63,6.35,4.14-6.69-6.72,4.1,6.36-4.61-7.76,1.21,7.65-1.8-7.65-1.87,7.76,1.26-6.33-4.63,6.69,4.13-4.09-6.72,4.58,6.38-1.21-7.76,1.81,7.65Z" transform="translate(-68.95 -12.73)"/><path id="SvgjsPath3401" class="cls-27" d="M374.9,252.29a5.27,5.27,0,1,1-5.27-5.27A5.27,5.27,0,0,1,374.9,252.29Z" transform="translate(-68.95 -12.73)"/><path id="SvgjsPath3402" class="cls-28" d="M364.1,262.38c-0.77.77-2.3,0.51-3.4-.62s-1.4-2.63-.6-3.41,2.3-.49,3.4.62S364.89,261.6,364.1,262.38Z" transform="translate(-68.95 -12.73)"/><path id="SvgjsPath3403" class="cls-29" d="M380.88,249.52c-1.15,1.17-4,.25-6.28-2.07s-3.24-5.12-2.06-6.27,4-.25,6.25,2.07S382,248.37,380.88,249.52Z" transform="translate(-68.95 -12.73)"/></g></g></g><g id="svga-group-eyesfront-right"><path id="SvgjsPath3310" class="cls-2" d="M369.76,195.54c-24.55,0-44.46,26.19-44.46,58.5s19.91,58.5,44.46,58.5,44.46-26.19,44.46-58.5S394.31,195.54,369.76,195.54Zm8.92,70.82c-22.68,0-41.45-4.62-41.45-13s11.53-16.65,40.24-11.52c14.08,2.51,25.23,9.87,25.23,14.07C396.67,266.66,397.57,269.26,378.67,266.36Z" transform="translate(-68.95 -12.73)"/><path id="SvgjsPath3311" class="cls-34" d="M363.07,227.09c-22-.08-39.82,12.94-39.88,29.09s17.72,29.32,39.69,29.41,42.39-12.94,42.21-29.1C404.86,234.39,385,227.18,363.07,227.09Zm15.6,39.27c-22.68,0-41.45-4.62-41.45-13s11.53-16.65,40.24-11.52c14.08,2.51,25.23,9.87,25.23,14.07C396.67,266.66,397.57,269.26,378.67,266.36Z" transform="translate(-68.95 -12.73)"/><path id="SvgjsPath3316" class="cls-35" d="M402.7,255.91c-6,10.76-5.12,13.35-24,10.45-22.68,0-41.45-4.62-41.45-13s11.53-16.65,40.24-11.52C391.54,244.35,402.7,251.71,402.7,255.91Z" transform="translate(-68.95 -12.73)"/><path id="SvgjsPath3320" class="cls-18" d="M339.53,262.93a30.58,30.58,0,0,0,5.51,2.42c2.83,0.74,11.69,2.09,27.06,4.2-17.53-1.24-24.52-1.92-27.52-2.78C342.19,266.09,339.53,262.93,339.53,262.93Z" transform="translate(-68.95 -12.73)"/><path id="SvgjsPath3321" class="cls-32" d="M346.76,239c45.68-2.76,53,5.17,60.44,15.76L399.91,261l1.25-5.62c-7.77-10.67-27.7-15.33-54.41-12.28L337.7,251a0.42,0.42,0,0,1-.58,0,0.43,0.43,0,0,1,0-.58C338.55,246.87,341.36,244.24,346.76,239Zm47.89,29.33,3.87-4.79-5.27,3.24c-27.19-2.11-43.73-2.6-53-8a0.61,0.61,0,0,0-.54,1C343.53,265.18,365.2,266.92,394.65,268.3Z" transform="translate(-68.95 -12.73)"/></g></g><g id="svga-group-facehighlight-single"><path id="SvgjsPath2885" class="cls-36" d="M405.32,321.85A95.95,95.95,0,1,1,309.23,226,95.89,95.89,0,0,1,405.32,321.85Z" transform="translate(-68.95 -12.73)"/><path id="SvgjsPath2889" class="cls-37" d="M397.13,181.5a87.75,87.75,0,1,1-87.75-87.75A87.75,87.75,0,0,1,397.13,181.5Z" transform="translate(-68.95 -12.73)"/></g><g id="svga-group-eyebrows-left"><path id="SvgjsPath2910" class="cls-1" d="M201.73,228.75c23.29-23.34,39.22-13.84,71.58-7.64,2,0.38,14.79,3.6,12.43,8.12-1.13,2.16-4.76,1.9-6.79,1.87C246.92,230.5,231.34,207.71,201.73,228.75Z" transform="translate(-68.95 -12.73)"/></g><g id="svga-group-eyebrows-right"><path id="SvgjsPath2911" class="cls-1" d="M417,228.75c-23.29-23.34-39.22-13.84-71.58-7.64-2,.38-14.79,3.6-12.43,8.12,1.13,2.16,4.76,1.9,6.79,1.87C371.84,230.5,387.42,207.71,417,228.75Z" transform="translate(-68.95 -12.73)"/></g><g id="svga-group-nose-single"><path id="SvgjsPath3117" class="cls-19" d="M309.33,338.25c-6.08-.18-16.9-6.45-15.61-12.09,1.2-5.24,8,1.91,15.83,2s17.17-4.6,18.27.65C329.59,337.26,319.13,338.55,309.33,338.25Z" transform="translate(-68.95 -12.73)"/><path id="SvgjsPath3118" class="cls-18" d="M322.93,335.06a1.14,1.14,0,0,0,1.87,0,2,2,0,0,0,.06-2.34c-3.67-4.73-10.27,1.61-9.77,2.27C315.27,335.23,320.16,331.54,322.93,335.06Zm-27.35-12c0.77,5,2.37,11.74,15.23,15.26-12.68-.38-20.91-2.74-20.85-14.52,0-6,6.27-18.23,6.27-18.23S294.77,317.71,295.59,323Z" transform="translate(-68.95 -12.73)"/></g><g id="svga-group-beardwrap"><g id="svga-group-beard-single"><path id="SvgjsPath3021" class="cls-1" d="M309.38,97.56h0Z" transform="translate(-68.95 -12.73)"/></g></g><g id="svga-group-mustache-single"><path id="SvgjsPath3019" class="cls-1" d="M309.38,97.56h0Z" transform="translate(-68.95 -12.73)"/></g><g id="svga-group-hair-front"><path id="SvgjsPath3243" class="cls-1" d="M433.36,285.88c-10.68-29.1,1.68-73.73-19.2-106.74-9.51-15.82-17.78-26.7-16.26-45.11l-0.86-.29c-2,3.16-4.67,6.6-6.42,8.8,1-2.55,2.63-6.46,4.1-9.41l-0.78-.51c-6,7.19-11.24,10.88-18.39,12.87,7.72-5.43,16.26-14.88,20-20.11l-0.63-.66c-26.49,17-56.55,17.27-83.06,17.48-23.93.18-38.8-.36-56.05-10.39-12.45,4.13-22.26,3.6-33-3.83C189,193.37,204,160.63,183.85,281.87c-11.71-15.61-15.11-25.54-17.88-40.41-0.73-4.74-1.45-12.06-1-16.88l-0.15-.15c-10.42-22.86-15.33-35.88-12.86-81.23,1.84-18.81,5.93-32.94,17.72-47.73A73.58,73.58,0,0,1,169,71.57c-6.18-11.3-10.43-22.92-12.09-27.08,8.63,6.61,9.34,7,16.54,9.26a61.4,61.4,0,0,1,5.59-11.38,75.58,75.58,0,0,0,2.82,13.87c0.53,0.13,3.07.82,3.88,1-0.47-3.1-.89-4.54-0.83-7.31,1.34,3,2.46,3.75,6.34,8.49,4.29,0.9,3.26.77,4.55,0.77-6.25-9.79-10.46-18.45-11.53-31.63,8.55,4.87,20.51,7.65,33,7.65,29.34,0,59.37-22,101-22,36.1,0,67.33,20,81.16,42.83,0-5.88-.26-10.75,1.86-16.8,0,0,.25,8.67.25,15.43l0.93,0.09a44.55,44.55,0,0,1,9.57-20.53c-4.49,12.07-2.78,5.63-7.8,20.36L405.11,55c3.35-4.3,6.09-7.35,14.09-11.38-5.78,5.79-10.19,9.1-12.92,13.2l0.7,0.61c3.41-3.09,7-4.26,10.56-1.43-5.81-2.11-9.23,1.59-13.22,6.26,15.49,2.55,23.89,11.49,34.78,23.44,25.07,28.91,31.67,57.12,18.07,97.13,5.7,12.32,4.82,40.07-7.9,62.45C449.27,258.42,440.29,274.61,433.36,285.88Z" transform="translate(-68.95 -12.73)"/><path id="SvgjsPath3244" class="cls-38" d="M221.15,126.21l2.51,2.35-0.91-.59C189,193.37,204,160.63,183.85,281.86c-11.71-15.61-15.11-25.54-17.88-40.41-0.73-4.74-1.45-12.06-1-16.88l-0.15-.15c-10.42-22.86-15.33-35.88-12.86-81.23,1.84-18.81,5.93-32.94,17.72-47.73A73.58,73.58,0,0,1,169,72c1.4,2,2.86,4,4.36,6,1,6.14,1.86,12.13.3,17-22.32,69-9.36,100.62,4.68,149.77-5.77-37.28-16.71-84.68,13.15-112.33-12.76,30.65-9.23,44.54-6.13,65.52C187.5,170,197.51,144.05,221.15,126.21ZM439.1,85.7l-2.59-2.82c-0.89.6-1.81,1.14-2.71,1.72,35,71.75,1.39,64.86,9.4,96.9,9.36,23.4-2.77,37.44-2.77,60.85,0-35.1-1.59-59.53-21-87-6.54-9.27-8.38-40.77-12.79-56.34-54.3,33.34-134.73,40.32-219.17-27.07,39.78,14,120.86,3.16,148.7-14.78-31.73,5.76-98,6.1-127.75-6.16C279.82,45.46,279,22.55,339.8,18.25c-29.25-10.92-93.15,17-122.49,17-12.49,0-24.45-2.78-33-7.65,1.07,13.17,5.28,21.84,11.53,31.63-1.29,0-.26.13-4.55-0.77-3.88-4.73-5-5.44-6.34-8.49-0.07,2.78.36,4.21,0.83,7.31-0.81-.22-3.35-0.91-3.88-1a75.58,75.58,0,0,1-2.82-13.87,61.55,61.55,0,0,0-5.59,11.38c-7.2-2.27-7.91-2.65-16.54-9.26,1.66,4.15,5.91,15.78,12.09,27.08,0,0.13,0,.26,0,0.39,14.75,21.61,35.5,38.54,54.67,56.61,10.42,6.84,20,7.24,32.13,3.23,17.26,10,32.12,10.57,56.05,10.39,26.52-.21,56.58-0.44,83.06-17.48l0.63,0.66c-3.74,5.24-12.28,14.68-20,20.11,7.15-2,12.34-5.68,18.39-12.87l0.78,0.51c-1.47,3-3.1,6.86-4.1,9.41,1.76-2.2,4.41-5.64,6.42-8.8L397.9,134c-1.51,18.41,6.75,29.28,16.26,45.11,20.88,33,8.53,77.65,19.2,106.74,6.92-11.27,15.9-27.46,15.9-40.61,12.72-22.37,13.6-50.13,7.9-62.45C470.76,142.82,464.16,114.6,439.1,85.7Zm1.72,60c-0.77-22.29-15.52-50.57-15.52-50.57C418.4,83,412.23,77.16,401.9,74.8c29.08,1.45,40.5,44.88,39.24,67.57C441,144.48,440.81,145.72,440.81,145.72ZM374.68,51.61c7.68,6.23,9.52,8,17.07,18.51-39-69.94-115.44-17-139.63-18.72C276.71,56.48,332.3,20.53,374.68,51.61ZM394.49,82c-46.71,38.72-118,22.32-176.37,4C276.21,112.66,350.18,127.06,394.49,82Zm-183.7,42.12c-15.3,8-22.5,28.2-23.17,41.54C190.48,154.16,199.05,133,210.79,124.14ZM191.48,113c-21.9,13.34-26.15,43.93-24,69.62C169.8,158.91,174.08,127.94,191.48,113ZM349.31,84a243.61,243.61,0,0,1-25,2.8c-6.23.36-30.51,0.77-52.4-.11,22.59,4.84,36.16,5.74,52.64,4.79,19-.69,35.94-4.44,50-15.9C364.68,81,360.46,81.81,349.31,84Zm78.5,62.12s-0.6-1-1.38-2.58c-2.13-3.57-4.55-13.29-13.9-43.84,6.94,56.62,18.29,46.29,23.38,75.55C435.92,164.73,435.19,159.34,427.81,146.13Z" transform="translate(-68.95 -12.73)"/><path id="SvgjsPath3245" class="cls-39" d="M444.76,214.57c0.85-7.6.51-4.11,0.6-8.45,0.72-14.61-8-26.86-2.7-44.43,4.34-12.76,6.84-14.76,4.94-37-0.28-3.21-1.11-11.17-2.58-14,2,3.48,3.33,9.93,4,13.89,3.95,22.33.63,25.72-3.56,38.07C439.91,181.28,450.65,189.51,444.76,214.57ZM406.67,99c2.61,71.07,17,54.56,29.76,97.7C427.78,145.83,419.79,188,406.67,99ZM188.56,135.25c-21.51,27.06-19.33,46.57-14,86.58C174,181.33,169.1,166,188.56,135.25ZM173.12,96.59c-12.34,38.19-15,55.42-9.12,96.61C162.9,151.91,163.16,142.79,173.12,96.59Zm47.22,30.25c-22.54,16.19-34.3,45.81-35,71C188.82,173.77,201.76,143.35,220.34,126.84ZM376.9,112.69c-28.2,10.38-74.1,13.16-107.62,3.09-26.12-7.62-66.9-33.21-88.84-49.31,19.89,15.83,54.92,39.33,79.39,48.62,25.42,9.5,65.26,13,96.13,5.25,21.64-5.44,32.86-10.58,50.69-21.33C398.73,103.37,387,109.53,376.9,112.69ZM316,28c28.47-5.35,62,13,79.7,34.7-18.48-26.49-48.76-39.66-66.84-40-29.67-.51-60.36,24.91-120.37,27.1C264.87,52.32,292,31.89,316,28Zm22.36,30c-40.46,14.38-71.7,17.82-114.21,20.08C268,80.81,299.41,76.55,338.32,58Zm42.51,8.2C355.89,78,345,79.92,293.46,83.05,325.75,84.36,355.91,82.68,380.84,66.22ZM298.26,102c24.91,2.89,68.54-.25,90.38-22.91C362.26,101.31,313.47,100.51,275.42,99,290,101.27,287.36,100.89,298.26,102ZM405,80.26c17.85,6.57,22.21,37.89,29.25,63.18C431.12,121,425.73,85.12,405,80.26Z" transform="translate(-68.95 -12.73)"/><path id="SvgjsPath3246" d="M439.44,85.38c-10.17-11.16-19.31-21-34.24-23.45,4.9-5.76,8.34-7.91,14.63-4.33-3.72-4.38-8-5.21-13.17-.51,3-4.46,8.12-8.1,14.74-15-9.9,4.65-12.88,7.82-16.66,12.68,5.35-15.69,3-7.32,8.71-22.82a45.72,45.72,0,0,0-11.37,22.75c0-13.81-.43-12-0.16-18.07-3.25,7.23-2.88,13.6-2.88,17.76-5.23-8.62-12.9-15.91-21.18-21.88-58.63-42.8-117.1-3.41-148.78,1.36-12.84,2.17-32.09.79-45.28-7.11,0.93,13.49,5.11,22.45,11.21,32L191.55,58c-4.72-5.7-5.18-5.51-6.93-10.13a27.66,27.66,0,0,0,.59,8.75c-1.17-.3-2.24-0.63-2.95-0.8a82,82,0,0,1-2.88-14.72,57.33,57.33,0,0,0-6.18,12.05c-7-2.22-7.52-2.57-17.39-10.13,1.17,2.34,5.4,15.12,12.73,28.62a74.4,74.4,0,0,0,.63,23.68c-11.76,14.77-15.84,28.89-17.69,47.83-2.44,44.6,2,57.59,12.94,81.48,0,0,0,.07,0,0.09-0.41,4.61.28,11.94,1,16.8,2.76,14.82,6.14,25,18.51,41.3,0,0,.07.12,0.12,0.16,7.94-47.66,7.13-48.83,8.82-60.59,8.36-60.17,8-51.18,30-93.77,8.92,6.15,18.8,8.31,32.81,3.65,10.16,5.91,20.54,10.41,49.28,10.41,28.48-.36,61.25,1,90.14-17.62-4.38,6.14-14.32,16.74-22.14,21.48,8.14-1.72,14-5,21.27-13.67A119.06,119.06,0,0,0,389.22,145a124.51,124.51,0,0,0,8.21-11c-1.53,18.59,6.77,29.48,16.33,45.4,21,33.14,8.22,78.44,19.49,107.55,7.23-11.69,16.47-28.28,16.47-41.54,12.19-21.26,13.94-49.4,7.93-62.6C469.88,146.22,467.41,117.64,439.44,85.38Zm-254.58-36c1.14,3.25,1.39,3.18,5.83,8.45-2.2-.46-3.66-0.78-5-1.08A35.51,35.51,0,0,1,184.86,49.37ZM179,43.14a59,59,0,0,0,2.32,12.43,56.75,56.75,0,0,1-6.55-1.87A68.93,68.93,0,0,1,179,43.14Zm4,234.53c-9.87-17.8-12.46-23.85-15.19-41.86-0.27-2.07-1.1-8.06-1.15-10.93-14.2-32.48-19.54-94.16,2.83-128.1v0s0.93-1.46,2.62-3.56a86.94,86.94,0,0,1-1-17c1.73,3.09,3.7,5.9,5.45,8.59,0,0,1.38,1.83,1.38,1.87,10.65,13.55,20.49,24.81,44.27,41.54C193.65,174.43,195.42,158.8,183,277.67ZM458.3,167.95a150.61,150.61,0,0,1-3.6,16.36c6.51,16.54-.6,47.78-7.16,61.73-2.87,16.6-6,19.94-14.06,36.48-5.8-25.74,6-71.42-15.82-105.49-14.18-23.5-20.26-26.58-16.92-55.62,0,0,.14-1.58.19-2-29.55,18.07-62.19,20.11-105.24,19.19-12.44,0-29.25-1.56-39.74-8-21.25,6-29.13-3.36-46.83-17.18C190,97.14,177,83,161,49.56c9,7.3,27,11,38.35,12.87-7.66-10.21-12.17-19.54-14.2-32.76,8.14,5.43,27.66,10.77,44.86,8.87,31.67-3,76-35.49,130.51-10.83,25.28,11.16,38.11,26.86,41.12,35.1a0.53,0.53,0,0,0,.09,0,2.5,2.5,0,0,0,.44.09,5.34,5.34,0,0,0,.84.21c16.32,5.44,17.42,6.46,33.23,24.9C445.17,98.93,466.56,120.7,458.3,167.95Z" transform="translate(-68.95 -12.73)"/></g><g id="svga-group-glasses-single"><path id="SvgjsPath3430" class="cls-40" d="M289.93,263.95c-8.68,17.46-33,19.07-41.61,19.07H220c-13.46,0-25.41-18.7-25.41-33.44V235.16a2.81,2.81,0,0,1,.68-1.64Zm43.71-29.44c-4.84,3.35-7.93,7.84-7.93,13.85v1.17a31.75,31.75,0,0,0,3.14,14.39c8.68,17.46,33,19.07,41.61,19.07h28.36c9.57,0,18.37-9.48,22.65-20.27Z" transform="translate(-68.95 -12.73)"/><path id="SvgjsPath3431" class="cls-41" d="M289.93,263.95L195.2,233.5c2.32-3.09,10.3-6.32,14.39-6.81a244.07,244.07,0,0,1,27.94-1.61c20.73,0,55.51,3,55.51,23.31v1.17A32.06,32.06,0,0,1,289.93,263.95Zm134.28-14.39V235.14a2.81,2.81,0,0,0-.68-1.64c-2.32-3.09-10.3-6.32-14.39-6.81a244.07,244.07,0,0,0-27.94-1.61c-14.58,0-36.06,1.5-47.57,9.43l87.82,28.22A35.86,35.86,0,0,0,424.21,249.55Z" transform="translate(-68.95 -12.73)"/><path id="SvgjsPath3432" class="cls-42" d="M425.75,239.26v-4.12c0-4.91-11.47-9.34-16.4-9.95-22-2.62-73.76-4.73-83.54,15.82a64.35,64.35,0,0,0-16.43-3A64.35,64.35,0,0,0,293,241c-9.76-20.52-61.47-18.44-83.54-15.82-4.94.59-16.4,5-16.4,9.95v4.12H181.84v5.52H193v4.77c0,14.74,12.05,35,26.93,35H248.3c19.49,0,46.24-7.32,46.24-35v-1.17a17.77,17.77,0,0,0-.68-5c8.1-2.5,13-3,15.49-3.07s7.39,0.56,15.49,3.07a17.77,17.77,0,0,0-.68,5v1.17c0,27.64,26.77,35,46.24,35h28.36c14.88,0,26.93-20.22,26.93-35v-4.77h11.16v-5.52H425.75Zm-133.08,10.3c0,30.68-33.93,33.07-44.35,33.07H220c-13.25,0-25-18.49-25-33.07V235.14c0-3.07,9.57-7.44,14.72-8.05a243.05,243.05,0,0,1,27.89-1.61c20.59,0,55.11,3,55.11,22.91v1.17h0Zm131.16,0c0,14.58-11.79,33.07-25,33.07H370.43c-10.41,0-44.35-2.39-44.35-33.07v-1.17c0-19.94,34.54-22.91,55.11-22.91a242.67,242.67,0,0,1,27.89,1.61c5.15,0.61,14.74,5,14.74,8.05v14.42Z" transform="translate(-68.95 -12.73)"/></g></g></g></svg>