<svg id="Layer_1" data-name="Layer 1" xmlns="http://www.w3.org/2000/svg" xmlns:xlink="http://www.w3.org/1999/xlink" viewBox="0 0 488.3 584.12"><defs><style>.cls-1{fill:#0c080c;}.cls-17,.cls-2{fill:#edd8cc;}.cls-3{fill:#fcf6f2;}.cls-4{fill:#debca9;}.cls-25,.cls-5{fill:none;}.cls-17,.cls-5{stroke:#bf8a6b;stroke-width:1.5px;}.cls-6{fill:url(#linear-gradient);}.cls-7{fill:#f3f1f3;}.cls-8{fill:#131111;}.cls-9{fill:#f3f1f4;}.cls-10{fill:#cfc8d7;}.cls-11{fill:#e1e0e1;}.cls-12{fill:#f1f7f8;}.cls-13{fill:#cbe4e9;}.cls-14{fill:#a8d2d9;}.cls-15,.cls-26,.cls-27{fill:#fff;}.cls-16{fill:#88c1ca;}.cls-18{fill:#bf8a6b;}.cls-19{fill:#e5caba;}.cls-20{fill:url(#linear-gradient-2);}.cls-21{fill:url(#radial-gradient);}.cls-22{fill:#3e4442;stroke-width:0.5px;}.cls-22,.cls-25{stroke:#0e1613;}.cls-23{fill:#535353;}.cls-24{opacity:0.9;}.cls-24,.cls-26,.cls-27{isolation:isolate;}.cls-25{stroke-width:0.75px;}.cls-26{opacity:0.5;}.cls-27{opacity:0.8;}.cls-28{fill:url(#radial-gradient-2);}.cls-29{fill:url(#radial-gradient-3);}.cls-30{fill:#09152e;}.cls-31{fill:url(#radial-gradient-4);}.cls-32{fill:url(#radial-gradient-5);}.cls-33{fill:url(#radial-gradient-6);}.cls-34{fill:url(#radial-gradient-7);}.cls-35{fill:url(#radial-gradient-8);}.cls-36{fill:#2a232b;}.cls-37{fill:#f5e7df;}.cls-38{fill:#1b141c;}.cls-39{fill:#3a353a;}.cls-40{fill:#26120b;}</style><linearGradient id="linear-gradient" x1="67.98" y1="651.78" x2="67.98" y2="692.78" gradientTransform="matrix(2.55, 0, 0, -2.55, 136.45, 2109.93)" gradientUnits="userSpaceOnUse"><stop offset="0" stop-color="#debca9" stop-opacity="0.8"/><stop offset="0.7" stop-color="#bf8a6b"/></linearGradient><linearGradient id="linear-gradient-2" x1="67.71" y1="678.8" x2="67.71" y2="681.6" gradientTransform="matrix(2.55, 0, 0, -2.55, 136.45, 2109.93)" gradientUnits="userSpaceOnUse"><stop offset="0.1" stop-color="#e5caba"/><stop offset="1" stop-color="#debca9"/></linearGradient><radialGradient id="radial-gradient" cx="43.27" cy="731.57" r="9.98" gradientTransform="matrix(2.55, 0, 0, -2.55, 136.45, 2109.93)" gradientUnits="userSpaceOnUse"><stop offset="0" stop-color="#fff"/><stop offset="0.54" stop-color="#fdfefe"/><stop offset="0.74" stop-color="#f6f8f9"/><stop offset="0.88" stop-color="#eaeff2"/><stop offset="0.99" stop-color="#d9e3e8"/><stop offset="1" stop-color="#d8e2e7"/></radialGradient><radialGradient id="radial-gradient-2" cx="95.89" cy="1012.71" fx="105.38491133966602" r="16.05" gradientTransform="matrix(2.55, 0.05, -0.04, 2.04, 51.8, -1832.19)" gradientUnits="userSpaceOnUse"><stop offset="0" stop-color="#debca9"/><stop offset="0.7" stop-color="#debca9" stop-opacity="0.3"/><stop offset="1" stop-color="#edd8cc" stop-opacity="0"/></radialGradient><radialGradient id="radial-gradient-3" cx="-107.43" cy="779.18" r="36.43" gradientTransform="matrix(0.14, -2.55, -2.02, -0.11, 1829.28, 131.6)" gradientUnits="userSpaceOnUse"><stop offset="0.95" stop-opacity="0"/><stop offset="1" stop-opacity="0.2"/></radialGradient><radialGradient id="radial-gradient-4" cx="-10.31" cy="731.57" r="9.98" gradientTransform="translate(345.55 2109.93) rotate(180) scale(2.55)" xlink:href="#radial-gradient"/><radialGradient id="radial-gradient-5" cx="41.52" cy="1014.11" fx="51.01397843552986" r="16.05" gradientTransform="matrix(-2.55, 0.05, 0.04, 2.04, 428.17, -1832.16)" xlink:href="#radial-gradient-2"/><radialGradient id="radial-gradient-6" cx="-109.96" cy="847.22" r="36.43" gradientTransform="matrix(-0.14, -2.55, 2.02, -0.11, -1348.24, 132.62)" xlink:href="#radial-gradient-3"/><radialGradient id="radial-gradient-7" cx="67.98" cy="704.9" r="38.21" gradientTransform="matrix(2.55, 0, 0, -2.55, 136.45, 2109.93)" gradientUnits="userSpaceOnUse"><stop offset="0" stop-color="#fcf6f2" stop-opacity="0.5"/><stop offset="0.9" stop-color="#edd8cc" stop-opacity="0"/></radialGradient><radialGradient id="radial-gradient-8" cx="67.98" cy="760.81" r="34.48" xlink:href="#radial-gradient-7"/></defs><title>avatar 3</title><g id="svga-group-subwrapper"><g id="svga-group-hair-back"><path id="SvgjsPath4239" class="cls-1" d="M421.41,290.78c-110.52-2.38-220.88,0-223.26,0-6.36,9.54-9.92,27.32-7.79,37.1,2.22,10,10.55,19,13.45,39.11,0.17,2-.1,4.06.71,6.56s4.81,7.62,7.94,8.17l1.19-.14c1.24,2.22,3.52,2.89,5,2.16,3.6,6.87,7.36-1.08,12.21,3.14,8,6.55,9.11.12,15.64-2.21,5.1-.1,12,8.15,18.32,1.81C277.9,373.8,284,397.22,295.65,391c2.38-1.2,9.32-6.42,14.16-3.37,9.24-5.83,13.59,12.26,27.47-.12,13.36-11.92,15.81,3.21,25.47,1.21,4.4-1,5.89-4.22,10.34-4,6.31,2.38,7.72,8.64,15.61,2.21,4.79-4.16,8.5,3.61,12.22-3.14,1.47,0.74,3.78.07,5-2.16l1.21,0.14c3-.56,7.07-5.75,7.94-8.17,1.16-3.7-.75-13.13,8.58-32C433.16,322.21,431.62,304.92,421.41,290.78Z" transform="translate(-65.65 -24.51)"/><path id="SvgjsPath4240" d="M421.41,290.78c-110.52-2.38-220.88,0-223.26,0-6.36,9.54-9.92,27.32-7.79,37.1,2.22,10,10.55,19,13.45,39.11,0.17,2-.1,4.06.71,6.56s4.81,7.62,7.94,8.17l1.19-.14c1.24,2.22,3.52,2.89,5,2.16,3.6,6.87,7.36-1.08,12.21,3.14,8,6.55,9.11.12,15.64-2.21,5.1-.1,12,8.15,18.32,1.81C277.9,373.8,284,397.22,295.65,391c2.38-1.2,9.32-6.42,14.16-3.37,9.24-5.83,13.59,12.26,27.47-.12,13.36-11.92,15.81,3.21,25.47,1.21,4.4-1,5.89-4.22,10.34-4,6.31,2.38,7.72,8.64,15.61,2.21,4.79-4.16,8.5,3.61,12.22-3.14,1.47,0.74,3.78.07,5-2.16l1.21,0.14c3-.56,7.07-5.75,7.94-8.17,1.16-3.7-.75-13.13,8.58-32C433.16,322.21,431.62,304.92,421.41,290.78Zm0.17,49.64c-13.1,24.31-5.32,34.56-14.28,38.35a0.9,0.9,0,0,0-.34.07,16.82,16.82,0,0,1-2.71-1.09s-0.45,1.4-.86,2.47a2.55,2.55,0,0,1-.47.62,1.38,1.38,0,0,0-.31.19c-0.88.2-2.21-.92-3-1.5-2.26,5.39-2.41,4.37-4.42,3.73-7.1-2.23-7.79,2-11,3.3s-5.17-3.22-10.6-4.82c-6-.41-8,3.44-11.62,4.16-6.17,1.3-12.75-12.94-26.26.19-12,11.7-15.28-5.14-25.93.57-10.45-6-13.8,11.16-26-.71-13.1-12.41-20.68-.32-23.38,0-4.54,1-6.14-3.09-12.33-4.28-6.75,0-8.8,6.3-12.62,4.87-3.19-1.31-3.87-5.53-11-3.3-2.38.76-2.39,1.12-4.42-3.73-0.82.57-2.16,1.7-3,1.5a1.35,1.35,0,0,0-.31-0.19c-0.9-1.21-.77-1.62-1.33-3.09a18.65,18.65,0,0,1-2.71,1.09,0.73,0.73,0,0,0-.31-0.07,5.63,5.63,0,0,1-1.73-1.59c-3.95-5.07-3.37-2.8-3.87-10.34-4.32-29-27.12-41.24-8.44-75.59,71.63,1.47,149,1.65,223.09,0C432.15,312,429.39,325.63,421.58,340.43Z" transform="translate(-65.65 -24.51)"/></g><g id="svga-group-humanbody-single"><path id="SvgjsPath2893" class="cls-2" d="M536.54,516.28c-5.22-11.28-19.47-28-35.31-32.61-19.58-5.71-63.77-12.61-80.16-16.45-13.14-3.08-39.59-26.84-48.87-34.81a10,10,0,0,1-3.06-6.56c-0.33-25.82,10-94.4,10-94.4H240.48s10.3,68.58,10,94.4a10,10,0,0,1-3.05,6.56c-9.27,8-35.73,31.73-48.87,34.81-16.39,3.84-60.59,11-80.16,16.69-15.84,4.61-30.09,21.09-35.31,32.37-8.81,19-10.89,53.47-10.89,83.17H547.43C547.43,569.75,545.35,535.31,536.54,516.28Z" transform="translate(-65.65 -24.51)"/><path id="SvgjsPath2894" class="cls-3" d="M450.37,478.93c57.85,8.42,82.19,20.69,89.81,120.53h7.25c0-29.7-2.08-64.14-10.89-83.17-5.22-11.28-19.47-28-35.31-32.61-19.58-5.71-63.77-12.61-80.16-16.45-13.14-3.08-43.35-28.68-51.43-38.85,8,11.18,30.4,37.08,50,43.87C429.06,475.49,436.88,477,450.37,478.93Zm-250.45-6.69c19.64-6.78,42-32.69,50-43.87-8.08,10.17-38.29,35.77-51.43,38.85-16.39,3.84-60.58,11-80.16,16.69-15.84,4.61-30.09,21.09-35.31,32.37-8.81,19-10.89,53.47-10.89,83.17h7.25c7.58-99.2,32-112.12,89.81-120.53C182.71,477,190.53,475.49,199.93,472.24Z" transform="translate(-65.65 -24.51)"/><path id="SvgjsPath2895" class="cls-4" d="M299.45,511.16s-12.06-3.82-16.83-5.65c-24.83-9.53-105.5-15.7-105.5-15.7s85,3.37,103.71,6.6c-1.09-11.33-7.17-47.54-7.17-47.54s12.24,40,15.23,50C290.49,504.3,299.45,511.16,299.45,511.16ZM325.11,508c-0.21.17-.45,0.4-0.72,0.64A5.39,5.39,0,0,0,325.11,508Zm-25.66,3.19s6.87,7.11,10.33,7.2c4.54,0.12,11.47-6.89,14.62-9.75-3,2.27-9.88,3.31-12.62,3.41C308.62,512.14,299.45,511.16,299.45,511.16Zm49.95-17.87c-3.67.59-10.42,1.87-10.42,1.87l5.43-35.38c-1.54,7.3-10.63,38.52-19.3,48.19,4.54-3.84,14.63-5.68,19.78-6.43,24.32-3.53,24.31-3.52,97.58-11.74C442.47,489.8,373.39,489.43,349.4,493.29Z" transform="translate(-65.65 -24.51)"/><path id="SvgjsPath2896" class="cls-5" d="M536.54,516.28c-5.22-11.28-19.47-28-35.31-32.61-19.58-5.71-63.77-12.61-80.16-16.45-13.14-3.08-39.59-26.84-48.87-34.81a10,10,0,0,1-3.06-6.56c-0.33-25.82,10-94.4,10-94.4H240.48s10.3,68.58,10,94.4a10,10,0,0,1-3.05,6.56c-9.27,8-35.73,31.73-48.87,34.81-16.39,3.84-60.59,11-80.16,16.69-15.84,4.61-30.09,21.09-35.31,32.37-8.81,19-10.89,53.47-10.89,83.17H547.43C547.43,569.75,545.35,535.31,536.54,516.28Z" transform="translate(-65.65 -24.51)"/></g><g id="svga-group-chinshadow-single"><path id="SvgjsPath4050" class="cls-6" d="M309.8,447.58c27.07,0,39.52-15.11,57.55-22.9,0-18.85,4.85-56.87,7.8-78.2-38.35-4.4-92.37-4.4-130.71,0,3,21.32,7.82,59.34,7.8,78.19C270.28,432.46,282.72,447.58,309.8,447.58Z" transform="translate(-65.65 -24.51)"/></g><g id="svga-group-clothes-single"><path id="SvgjsPath4248" class="cls-7" d="M378.37,607.06H240.22V473.55c52.87,11.17,87.64,10.31,138.16,0V607.06h0Z" transform="translate(-65.65 -24.51)"/><path id="SvgjsPath4249" class="cls-8" d="M327.48,606.42c-6.59,0-25.49.49-39.24-.55l0-.41c-1.94-44.34,2.68-73,10.78-93.36l0.11-.29-0.22-.22c-2.15-2.15-5.76-4.6-9.59-7.19a84.2,84.2,0,0,1-10.3-7.71,38.42,38.42,0,0,1,5.58-5.23c0.58-.3,2.76-2,14.2-11.81l0.86-.74a45.7,45.7,0,0,1,8.88-.7A90.16,90.16,0,0,1,324,479.55c3.71,3.46,8.2,12.66,9.88,17-2.32,5.44-5.06,7.44-8.83,10.18a68.81,68.81,0,0,0-6.3,5l-0.2.18,0,0.26c9.57,48.26,9.57,59.54,9.57,70.44,0,4.8,0,15.71.81,23.73C328.61,606.42,328.1,606.42,327.48,606.42Z" transform="translate(-65.65 -24.51)"/><path id="SvgjsPath4250" d="M334.39,496.6c-1.79-4.74-6.44-14.09-10.17-17.49-6.83-1.34-19-2-24.88-.57-0.26.21-14.85,12.79-15,12.5a38.5,38.5,0,0,0-6,5.68c4.9,4.93,15.81,10.83,20.2,15.21-8.67,21.82-12.67,51.31-10.81,93.58,0,0.26,0,.55,0,0.81a413.42,413.42,0,0,0,41.71.53c-2.76-26.87,3.42-24.84-10.43-94.71C326.35,505.5,330.86,505,334.39,496.6Zm-12.48,45.25-0.12-.31c4.75,25.07,3.28,44.28,6.87,64.1-11.25-.76-28.55-0.12-39.85-0.12,0.88-17.11,2.82-75.29,11.26-94.44,0.4-.11.81-0.2,1.21-0.3l-2.45,82.55L305.36,510l0.14,0,4.28,77.48,1-77.79H311l10,86.39-5.47-85.87c0.75,0.15,1.49.34,2.24,0.55a0.46,0.46,0,0,1,.24.07C318.19,513.19,320.17,530.77,321.92,541.85ZM319.82,509c-6.59-3-15.12-2.44-21.69.57-4-4.31-9.7-7.31-17.89-12.81,1.31-1.14,3-2.54,5.25-4.3,0.19,0,8.27-6.58,8.41-6.73,2.19-2,4.13-4.25,6-6.23,7-.29,17.18,0,23.34.33,3.56,4.46,7,11.16,9.53,16.49C328.09,503.19,323.48,506.22,319.82,509Z" transform="translate(-65.65 -24.51)"/><path id="SvgjsPath4251" class="cls-9" d="M258,547.89c-27.41-95.22-15-70.3-22.34-107.7,4.82-11.44,9.41-24.81,12-27.56l0.19-.2c5.45,57,21.29,32.4,56.52,65.88C284.2,491.74,265.53,526.62,258,547.89ZM383.92,440.19c-3.44-8.8-9.69-21.69-12.39-24.55,3.38,49.14-36,39.33-57.86,62.26,20.94,13.58,40.81,49.1,47.94,70C392.78,444.49,376,489.89,383.92,440.19Z" transform="translate(-65.65 -24.51)"/><path id="SvgjsPath4252" class="cls-10" d="M371.11,414.55c0,12.21-1,21.77-3,24.57-5.81,13.8-31.14,23.41-38.95,27.35A55.21,55.21,0,0,0,312.93,478c9.06,5.88,13.56,8,30.73,34.31,10.09,16.89,15.54,29.58,18,37.17,31.79-105.35,14.79-59.36,22.79-109.34C380.64,430.43,373.48,416.73,371.11,414.55ZM379.78,461c-4.65,43-8.3,34.42-18.39,81.23-6.45-20.54-26.32-54.45-46.17-64.38,9.36-7,12-7.44,23.12-12.54,34.21-15.26,35.61-29.43,33.6-48.17,2.87,3.38,7.43,14.64,11.15,22.63C381,447.19,380.11,457.86,379.78,461ZM260.37,450c-10.48-8.67-7.51-19.4-12.33-38.53-2.14,2.38-7.48,15.76-12.88,28.65,1.32,6.64,1.62,17.56,1.81,21,1.33,29,4.16,30.33,21,88.31,7.2-21.16,27.47-57.91,48.1-71.31C289.57,463.11,268.84,457.4,260.37,450Zm13,60.62c-5.28,8.71-10.73,17.78-15.14,31.56C247.65,494,243.95,501.89,239.83,461c-0.76-7.06-1.47-14.32-3.33-21.29,3.89-8.53,9.46-24.43,11.24-26.13,3.25,16.82.16,32,13.47,40.39,6.23,4.74,26.39,12.64,41.63,24.62C293.61,484.1,288.63,487.34,273.34,510.64Z" transform="translate(-65.65 -24.51)"/><path id="SvgjsPath4253" class="cls-11" d="M358.08,540.16l-2.87-6.31s21.74-67,25.53-86.08C382.9,467.62,358.08,540.16,358.08,540.16Zm-98.48-2.62,3.41-7.74s-20.37-62.9-24.16-82C236.69,467.62,259.6,537.54,259.6,537.54Z" transform="translate(-65.65 -24.51)"/><path id="SvgjsPath4254" class="cls-12" d="M368.7,506.37c16.79-49.51,6.55-53.59,15-70,0.32-.62,3.32,2.49,3.64,3.9,3.1,13.45,126.78,41.2,130.69,44.2,3.46,2.51,13.43,7.45,13.43,7.45,11.73,21.55,18.45,25.42,21.74,83.13,0.31,7.33-.14,28-0.14,33.6L349.72,607C350.2,588.5,352.57,555.19,368.7,506.37Zm-117.81,0c-16.79-49.51-6.55-53.59-15-70-0.32-.62-3.32,2.49-3.64,3.9-3.1,13.45-126.78,41.2-130.69,44.2-3.46,2.51-13.43,7.45-13.43,7.45C76.42,513.44,69.71,517.31,66.41,575c-0.31,7.33.14,28,.14,33.6L269.88,607C269.39,588.5,267,555.19,250.89,506.37Z" transform="translate(-65.65 -24.51)"/><path id="SvgjsPath4255" class="cls-13" d="M381.82,493C371,532,356.22,567,349.72,607c-2.11,0,3.54-53.93,19-100.65,16.79-49.51,6.55-53.59,15-70,0.18-.36-1.47,4.7-0.53,5.78C382.8,460.48,387.32,474.68,381.82,493Zm-144,0c10.82,38.94,25.6,73.94,32.1,114,2.11,0-3.54-53.93-19-100.65-16.79-49.51-6.55-53.59-15-70-0.18-.36,1.47,4.7.53,5.78C236.79,460.48,232.27,474.68,237.78,493Z" transform="translate(-65.65 -24.51)"/><path id="SvgjsPath4256" class="cls-14" d="M434.4,483.62s-5.43,6.09-20.52,16.45c12.63-14,18.44-19.6,18.44-19.6Zm5.17,28.22-3.63-3.25c-10.78,32.75-18,48.92-30.48,87C423.38,561.56,427.66,549.47,439.57,511.84Zm-252.3-31.37s5.81,5.62,18.44,19.6c-15.09-10.37-20.52-16.45-20.52-16.45ZM214.14,595.6c-12.49-38.1-19.7-54.27-30.48-87L180,511.84C191.93,549.47,196.21,561.56,214.14,595.6Z" transform="translate(-65.65 -24.51)"/><path id="SvgjsPath4257" class="cls-15" d="M498.5,562.76c0-27.56,7.39-43.61,22.85-66.88a28,28,0,0,1,3.2,2.08C508.11,518.36,504.84,537.39,498.5,562.76Zm-90.53,27c14.53-39.69,19.15-55.2,28.77-81.72-2.73-.83-20.61-7.09-23.33-8,1,2.38,7.4,4.33,18.59,11.19C432,511.3,419.9,547.9,408,589.77ZM427.5,480.16s-8,9.84-15.84,19.79c8.05-6.34,13.66-13.41,20.65-19.49-9.49-8-25-20.26-35-28.73C405.24,460.23,427.5,480.16,427.5,480.16ZM552.36,608.62H553c0-5.56.45-26.28,0.14-33.6-3.3-57.71-10-61.58-21.74-83.13,0,0-10-4.94-13.43-7.45-3.17-2.43-92.19-23.58-124.74-37.74,38,26.07,110,35.71,131.27,51.27C534.84,505.49,548.7,569.89,552.36,608.62ZM95,497.89c1.29-.91,1.47-0.87,2.78-1.73,15.46,23.27,23.31,39,23.31,66.6C114.75,537.39,110.37,517.57,95,497.89Zm92.6,13.41c11.19-6.86,17.61-8.81,18.59-11.19-2.73.86-20.6,7.12-23.33,8,9.62,26.52,14.24,42,28.77,81.72C199.69,547.9,187.6,511.3,187.6,511.3Zm34.65-59.56c-10,8.47-25.49,20.72-35,28.73,7,6.08,12.6,13.14,20.65,19.49-7.87-10-15.84-19.79-15.84-19.79S214.35,460.23,222.25,451.74ZM95,498c21.29-15.56,93.22-25.2,131.27-51.27C193.77,460.85,104.75,482,101.58,484.43c-3.46,2.51-13.43,7.45-13.43,7.45C76.42,513.44,69.71,517.31,66.41,575c-0.31,7.33.14,28,.14,33.6h0.68C70.89,569.89,84.75,505.49,95,498Z" transform="translate(-65.65 -24.51)"/><path id="SvgjsPath4258" class="cls-16" d="M386.42,436.9a2.28,2.28,0,0,0-1.75-1.56c-0.7-.05-1,1.09-1.35,1.72-8.43,16.44,1,19.8-15.81,69.31-16.13,48.82-18,82.84-18.5,101.36l204,0.9c0-5.56,1.16-26.28.85-33.6-3.3-57.71-10.25-62.05-22-83.61,0,0-10.44-5.18-13.9-7.69-11.62-8.89-1.4.05-52.35-14.26-41.77-12.2-44-15.63-59.17-19.84-3.06-.88-9.64-2-16.52-6.78C389.34,442.41,386.65,438.26,386.42,436.9ZM350.13,605.47c8.86-56,14.46-70.65,26.84-112.34,8.37-26.39,3.75-41.37,7.73-53.56a0.72,0.72,0,0,1,1.36,0c5.78,14.77,22,18.19,44.76,40.51C417,493.85,413.45,497.58,411.67,500c2.05,1,13.26,5.3,23.53,9.27-0.58,1.82-31.88,90.35-32.25,91.54,23.76-51.28,26.83-67,33.79-92.7-1.93-1.45-18.75-7.63-21.6-8.65,10.16-10.51,13.09-12.82,17.89-18.94,3.85,0-37.72-31.65-39.76-33.77a61,61,0,0,0,7.15,3.54c34.89,12.28,7.28,6.72,83.65,28.52a189.1,189.1,0,0,0,25,4.47c0.52,0,12.82,6.48,19.84,9.43-17.08,17.76-28,40.71-30.44,70.1,7.65-30.1,11.77-45.84,31.23-68.48,18.11,36.65,16.05,31.36,21.93,113.38C502.68,605.72,427.57,605.28,350.13,605.47ZM229.62,442.85c-6.88,4.82-13.45,5.9-16.52,6.78-15.15,4.21-17.4,7.64-59.17,19.84-50.95,14.31-40.74,5.37-52.35,14.26-3.46,2.51-13.9,7.69-13.9,7.69C75.95,513,69,517.31,65.7,575c-0.31,7.33.85,28,.85,33.6l204-.9c-0.48-18.51-2.37-52.54-18.5-101.36-16.79-49.51-7.37-52.87-15.81-69.31-0.32-.63-0.64-1.77-1.35-1.72a2.28,2.28,0,0,0-1.75,1.56C232.94,438.26,230.25,442.41,229.62,442.85ZM67.93,607.65c5.88-82,3.83-76.73,21.93-113.38,19.46,22.64,23.58,38.39,31.23,68.48-2.41-29.39-13.36-52.34-30.44-70.1,7-3,19.32-9.39,19.84-9.43a189.1,189.1,0,0,0,25-4.47c76.36-21.8,48.76-16.24,83.65-28.52a61.38,61.38,0,0,0,7.15-3.54c-2,2.12-43.61,33.77-39.76,33.77,4.8,6.12,7.74,8.43,17.89,18.94-2.85,1-19.67,7.19-21.6,8.65,7,25.66,10,41.42,33.79,92.7C216.28,599.57,185,511,184.4,509.22c10.26-4,21.47-8.23,23.53-9.27-1.78-2.38-5.34-6.1-19.15-19.91,22.8-22.32,39-25.74,44.76-40.51a0.72,0.72,0,0,1,1.36,0c4,12.2-.64,27.18,7.73,53.56,12.38,41.69,18,56.34,26.84,112.34C192,605.28,116.91,605.72,67.93,607.65Z" transform="translate(-65.65 -24.51)"/></g><g id="svga-group-head"><g id="svga-group-ears-left"><path id="SvgjsPath4075" class="cls-17" d="M180.69,242c-3.53-5.85-15-21.86-23.84-19.61-7.16,1.83-7.06,11.81-7.62,17.72-0.81,8.66-1.1,23.74,1.25,29.87,2.26,5.88,9.41,17.23,13.85,21.57,5.46,5.31,14.19,22.24,15.26,24,1.69,2.78,5.08,6.75,10.28,6.44,7.3-.44,13.6-7.34,14.18-10.66C207.14,293.24,189.87,257.19,180.69,242Z" transform="translate(-65.65 -24.51)"/><path id="SvgjsPath4076" class="cls-18" d="M177.19,277.61c-0.34-1.34,0-3.6.37-5.77a20.38,20.38,0,0,0,.43-5.19c-0.69-5-4.55-14.4-7.07-19.51-2.91-5.88-7.6-13.3-13.5-15.21a4.53,4.53,0,0,0-5,1.11c-0.68.7-.84,1.53-0.62,1.63s0.73-.59,1.47-1.23-1.21-.1,0,0c-0.49,2.47-2.06,15-1,24.1,0.85,7.18,2.5,12.54,3,13.35a18.32,18.32,0,0,0,.38,2.48c2.38,10.48,17.87,24.18,21.47,28.09,0.67,0.72,1.36,1.15,1.54,1s-0.24-.89-0.9-1.61c-3.56-3.88-18.94-17.54-21.24-27.65-2.44-10.73,9.3-26.63,11.17-30,1,1.58,1.76,3.1,2.39,4.36,0.49,1,1,2.15,1.59,3.41-1.1,1.75-12.16,14.56-9.35,24.81,1,3.78,9.08,8.65,12.19,10a6.24,6.24,0,0,1,3.1,3.1c0.86,1.48.08,5.3,2.92,6.51a4,4,0,0,0,1.57.35A2.88,2.88,0,0,0,184,295c0,0.64,0,1.47,0,2.24,0,1,.11,1.45.35,1.47s0.5-.41.53-1.39a13.84,13.84,0,0,0-.18-3.43c-0.64-2.11-2.59-4.5-4.65-7S177.72,279.68,177.19,277.61Zm-21.94-9.29c-5.58-16.45,3-31.44,4.3-33.69,2.4,0.95,6.09,5.21,7.65,7.69C166.07,244.29,155.49,257.25,155.26,268.32Zm25.67,26.22c-2.58-1.1-1.68-4.71-2.51-6.14a7.11,7.11,0,0,0-3.51-3.47,9.24,9.24,0,0,1-1.39-.79c-6.37-14.44.7-20.75,2.47-22a31.74,31.74,0,0,1,1.13,4.68,20.45,20.45,0,0,1-.43,4.91c-0.36,2.27-.74,4.62-0.35,6.14,0.58,2.26,1,7.06,3.07,9.62,1.86,2.27,3.76,4.61,4.41,6.53A2.21,2.21,0,0,1,180.93,294.54Z" transform="translate(-65.65 -24.51)"/></g><g id="svga-group-ears-right"><path id="SvgjsPath4077" class="cls-17" d="M438.28,242c3.53-5.85,15-21.86,23.84-19.61,7.16,1.83,7.06,11.81,7.62,17.72,0.81,8.66,1.1,23.74-1.25,29.87-2.26,5.88-9.41,17.23-13.85,21.57-5.46,5.31-14.19,22.24-15.26,24-1.69,2.78-5.08,6.75-10.28,6.44-7.3-.44-13.6-7.34-14.18-10.66C411.83,293.24,429.1,257.19,438.28,242Z" transform="translate(-65.65 -24.51)"/><path id="SvgjsPath4078" class="cls-18" d="M438.88,286.88c-2.07,2.53-4,4.91-4.65,7a13.84,13.84,0,0,0-.19,3.43c0,1,.29,1.42.53,1.39s0.38-.47.35-1.47c0-.77,0-1.59,0-2.24a2.88,2.88,0,0,0,1.86.67,4,4,0,0,0,1.57-.35c2.84-1.21,2.06-5,2.92-6.51a6.22,6.22,0,0,1,3.1-3.1c3.11-1.33,11.15-6.2,12.19-10,2.81-10.25-8.25-23.06-9.35-24.81,0.56-1.26,1.1-2.42,1.59-3.41,0.63-1.26,1.44-2.78,2.39-4.36,1.87,3.36,13.6,19.27,11.17,30-2.3,10.11-17.68,23.77-21.24,27.65-0.66.72-1.08,1.44-.91,1.61s0.87-.25,1.54-1c3.6-3.9,19.08-17.61,21.47-28.09a18,18,0,0,0,.38-2.48c0.5-.8,2.15-6.16,3-13.35,1.08-9.13-.49-21.63-1-24.1,1.21-.1-0.6-0.53,0,0s1.24,1.33,1.47,1.23,0.07-.93-0.61-1.63a4.53,4.53,0,0,0-5-1.11c-5.89,1.91-10.59,9.32-13.5,15.21-2.52,5.11-6.38,14.55-7.07,19.51a20.38,20.38,0,0,0,.43,5.19c0.35,2.18.71,4.43,0.37,5.77C441.25,279.68,440.91,284.4,438.88,286.88Zm12.87-44.57c1.57-2.48,5.25-6.74,7.65-7.69,1.25,2.26,9.88,17.24,4.3,33.69C463.48,257.25,452.9,244.29,451.76,242.31ZM435.15,294c0.65-1.91,2.56-4.25,4.41-6.53,2.09-2.56,2.49-7.35,3.07-9.62,0.38-1.52,0-3.87-.35-6.14a20.35,20.35,0,0,1-.43-4.91A31.4,31.4,0,0,1,443,262.1c1.77,1.29,8.84,7.6,2.47,22a8.92,8.92,0,0,1-1.39.79,7.13,7.13,0,0,0-3.51,3.47c-0.83,1.43.07,5-2.51,6.14A2.2,2.2,0,0,1,435.15,294Z" transform="translate(-65.65 -24.51)"/></g><g id="svga-group-faceshape-wrap"><g id="svga-group-faceshape-single"><path id="SvgjsPath4047" class="cls-2" d="M309.8,43.6C229.91,43.72,165,109.35,165.16,190.2a148.43,148.43,0,0,0,4.76,37.15h0c0,0.13,19.3,85.1,28.09,112.93,6.59,20.88,34,52.25,53.23,60.17,18.6,7.64,31,23.35,58.57,23.35s40-15.71,58.57-23.35c19.27-7.92,46.63-39.29,53.23-60.17,8.79-27.83,28.06-112.8,28.09-112.93h0a148.34,148.34,0,0,0,4.76-37.15C454.57,109.35,389.69,43.72,309.8,43.6Z" transform="translate(-65.65 -24.51)"/><path id="SvgjsPath4048" class="cls-19" d="M406.58,81.31c24.77,26.53,40.08,63.15,40,103.58A156.49,156.49,0,0,1,442.1,222h0c0,0.13-18.25,85.1-26.57,112.93-6.23,20.88-32.12,52.25-50.34,60.17-17.59,7.64-29.31,23.36-55.39,23.36s-37.8-15.71-55.39-23.36c-18.23-7.92-44.11-39.29-50.34-60.17-8.32-27.83-26.54-112.8-26.57-112.93h0a156.26,156.26,0,0,1-4.5-37.15c-0.06-40.42,15.25-77,40-103.57A146.67,146.67,0,0,0,165.16,190.2a148.43,148.43,0,0,0,4.76,37.15h0c0,0.13,19.3,85.1,28.09,112.93,6.59,20.88,34,52.25,53.23,60.17,18.6,7.64,31,23.35,58.57,23.35s40-15.71,58.57-23.35c19.27-7.92,46.63-39.29,53.23-60.17,8.79-27.83,28.06-112.8,28.09-112.93h0a148.34,148.34,0,0,0,4.76-37.15A146.64,146.64,0,0,0,406.58,81.31Z" transform="translate(-65.65 -24.51)"/><path id="SvgjsPath4049" class="cls-5" d="M309.8,43.6C229.91,43.72,165,109.35,165.16,190.2a148.43,148.43,0,0,0,4.76,37.15h0c0,0.13,19.3,85.1,28.09,112.93,6.59,20.88,34,52.25,53.23,60.17,18.6,7.64,31,23.35,58.57,23.35s40-15.71,58.57-23.35c19.27-7.92,46.63-39.29,53.23-60.17,8.79-27.83,28.06-112.8,28.09-112.93h0a148.34,148.34,0,0,0,4.76-37.15C454.57,109.35,389.69,43.72,309.8,43.6Z" transform="translate(-65.65 -24.51)"/></g></g><g id="svga-group-mouth-single"><path id="SvgjsPath4114" class="cls-20" d="M309.38,379.14c-7.7,0-11.29-6.66-11.29-6.66s11.4,1.86,22.05-.15C320.14,372.33,316.15,379.14,309.38,379.14Z" transform="translate(-65.65 -24.51)"/><path id="SvgjsPath4118" class="cls-18" d="M298.42,372.68a0.62,0.62,0,0,1-.49-0.68,0.61,0.61,0,0,1,.68-0.5,39.42,39.42,0,0,0,20.83-.1,0.58,0.58,0,0,1,.71.46,0.62,0.62,0,0,1-.46.7A36.12,36.12,0,0,1,298.42,372.68Zm-23.2-12.81a6.89,6.89,0,0,1,2.55-.27c3.37-.59,7.43-0.77,10.79-1.45,3.2-.65,6.59-1.57,9.88-1.42,3.54,0.17,6.84,1.59,10.34,2,3.33,0.36,6.44-.54,9.63-1.32a24.92,24.92,0,0,1,10.84,0c4.61,0.86,9,2,13.52,2.47,1.38,0.13.87,1,.08,1.08-4.07.49-8.15-.16-12.34-0.59-3.39-.35-6.82-0.78-10.16,0-3.61.9-8.17,2-10.94,1.92-3.09,0-6-1.28-9-1.92-3.69-.78-7.35,0-11,0.34a50.16,50.16,0,0,1-13.26.11C274.89,360.66,274.88,360,275.21,359.87Z" transform="translate(-65.65 -24.51)"/></g><g id="svga-group-eyes-left"><g id="svga-group-eyesback-left"><path id="SvgjsPath3782" class="cls-21" d="M214.22,232c0,8.44,14,26.84,36.41,27.23,16.74,0.29,29-8.9,29-17.35s-4.35-11.9-29.19-11.28C233.66,231,211.58,227.27,214.22,232Z" transform="translate(-65.65 -24.51)"/></g><g id="svga-group-eyesiriswrapper-left"><g id="svga-group-eyesiriscontrol-left"><g id="svga-group-eyesiris-left"><path id="SvgjsPath4169" class="cls-22" d="M263,244.93a14.26,14.26,0,1,1-10-17.52A14.22,14.22,0,0,1,263,244.93Z" transform="translate(-65.65 -24.51)"/><path id="SvgjsPath4170" class="cls-23" d="M262.61,242c-1,8.42-7.3,12.81-14.14,12.35-6.32-.43-12-5.09-12.49-13.13,2.18-.63,5.09.39,7.63,0,0,0.09,0,.18,0,0.27a5.93,5.93,0,0,0,11.81.79,5.53,5.53,0,0,0-.06-1.18C257.58,241.49,260.35,241.15,262.61,242Z" transform="translate(-65.65 -24.51)"/><path id="SvgjsPath4171" class="cls-24" d="M251.26,236.4a5.69,5.69,0,0,0-7.15,4,6,6,0,0,0,4.21,7.26,5.7,5.7,0,0,0,7.16-4A6,6,0,0,0,251.26,236.4Z" transform="translate(-65.65 -24.51)"/><path id="SvgjsPath4172" class="cls-25" d="M251.26,236.4a5.69,5.69,0,0,0-7.15,4,6,6,0,0,0,4.21,7.26,5.7,5.7,0,0,0,7.16-4A6,6,0,0,0,251.26,236.4Z" transform="translate(-65.65 -24.51)"/><path id="SvgjsPath4173" class="cls-26" d="M242.45,249.84a0.84,0.84,0,0,1-1.62-.45,12.24,12.24,0,0,1,1.55-2.51,0.84,0.84,0,0,1,1.45.85,11.13,11.13,0,0,0-1.38,2.11h0Zm2.58-1.66a16.74,16.74,0,0,0-1.28,3.08c-0.4,1,1.22,1.44,1.62.45a17.08,17.08,0,0,1,.85-2.34c0.7-.82-0.48-2-1.19-1.19h0Zm3.49,5c0.88-1,.79-2.17.77-3.42a0.84,0.84,0,0,0-1.68,0c0,0.7.22,1.67-.28,2.24-0.71.81,0.48,2,1.19,1.19h0Zm1.71-3.63a10.72,10.72,0,0,0,.45,3.05,0.84,0.84,0,0,0,1.62-.45,9.06,9.06,0,0,1-.39-2.61,0.84,0.84,0,0,0-1.68,0h0Z" transform="translate(-65.65 -24.51)"/><path id="SvgjsPath4174" class="cls-27" d="M259.17,238.71c-1.65,1-4.13.1-5.54-2s-1.2-4.6.46-5.58,4.14-.1,5.54,2S260.83,237.72,259.17,238.71Z" transform="translate(-65.65 -24.51)"/></g></g></g><g id="svga-group-eyesfront-left"><path id="SvgjsPath3807" class="cls-2" d="M247.54,191.48c-24.28,0-49,13.08-47.69,52.28,0.25,7.49,23.42,52.29,47.69,52.29s46.34-12.58,46.34-52.29C293.87,201.49,271.81,191.48,247.54,191.48Zm3.1,67.76c-22.43-.39-36.41-18.79-36.41-27.23-2.64-4.75,19.44-1,36.17-1.4,24.84-.62,29.19,2.84,29.19,11.28S267.37,259.53,250.63,259.24Z" transform="translate(-65.65 -24.51)"/><path id="SvgjsPath3808" class="cls-28" d="M211.89,239.58c3.21,17.61,20.31,32.5,42.62,32.41s40.36-14.68,40.31-32.59-18.17-32.33-40.49-32.24S208.67,221.93,211.89,239.58Zm38.5-9c24.84-.62,29.19,2.84,29.19,11.28s-12.22,17.64-29,17.35c-22.43-.39-36.41-18.79-36.41-27.23C211.58,227.27,233.66,231,250.39,230.61Z" transform="translate(-65.65 -24.51)"/><path id="SvgjsPath3813" class="cls-29" d="M282,241.89c0-8.44-6.73-11.9-31.57-11.28-6.72.17-14.29-.34-20.78-0.69-3.14-.14-6.23-0.26-9.22-0.32-4.56,0-11.93.6-10.92,2.42,0,8.44,18.73,26.84,41.16,27.23C267.37,259.53,282,250.34,282,241.89Z" transform="translate(-65.65 -24.51)"/><path id="SvgjsPath3817" class="cls-18" d="M274.82,226.26l-5.24-3.11-35.25-.57c9.95,0.9,18.55,1.4,35.08,1.54Z" transform="translate(-65.65 -24.51)"/><path id="SvgjsPath3818" class="cls-30" d="M272,232.33c-20.29.34-33.73,0.33-57.28-1.48,0.83,4.45,2.2,7.64,4.27,12.37-4.65-6.73-7.94-10.84-10.71-17,25,1.86,41.24,3.12,64.9,3.19l8.77,8Zm3.42,19.37c-21.11,7.78-31.13,11-50.76-2.33C235.72,263.37,262.51,262.2,275.47,251.7Z" transform="translate(-65.65 -24.51)"/></g></g><g id="svga-group-eyes-right"><g id="svga-group-eyesback-right"><path id="SvgjsPath3790" class="cls-31" d="M404.42,232c0,8.44-14,26.84-36.41,27.23-16.74.29-29-8.9-29-17.35s4.35-11.9,29.19-11.28C385,231,407.06,227.27,404.42,232Z" transform="translate(-65.65 -24.51)"/></g><g id="svga-group-eyesiriswrapper-right"><g id="svga-group-eyesiriscontrol-right"><g id="svga-group-eyesiris-right"><path id="SvgjsPath4175" class="cls-22" d="M384.15,244.93a14.26,14.26,0,1,1-10-17.52A14.22,14.22,0,0,1,384.15,244.93Z" transform="translate(-65.65 -24.51)"/><path id="SvgjsPath4176" class="cls-23" d="M383.8,242c-1,8.42-7.3,12.81-14.14,12.35-6.31-.43-12-5.09-12.49-13.13,2.18-.63,5.09.39,7.63,0,0,0.09,0,.18,0,0.27a5.93,5.93,0,0,0,11.81.79,5.69,5.69,0,0,0-.06-1.18C378.77,241.49,381.55,241.15,383.8,242Z" transform="translate(-65.65 -24.51)"/><path id="SvgjsPath4177" class="cls-24" d="M372.45,236.4a5.69,5.69,0,0,0-7.15,4,6,6,0,0,0,4.21,7.26,5.7,5.7,0,0,0,7.16-4A6,6,0,0,0,372.45,236.4Z" transform="translate(-65.65 -24.51)"/><path id="SvgjsPath4178" class="cls-25" d="M372.45,236.4a5.69,5.69,0,0,0-7.15,4,6,6,0,0,0,4.21,7.26,5.7,5.7,0,0,0,7.16-4A6,6,0,0,0,372.45,236.4Z" transform="translate(-65.65 -24.51)"/><path id="SvgjsPath4179" class="cls-26" d="M363.64,249.84a0.84,0.84,0,0,1-1.62-.45,12.25,12.25,0,0,1,1.55-2.51,0.84,0.84,0,0,1,1.45.85,11.13,11.13,0,0,0-1.38,2.11h0Zm2.58-1.66a16.74,16.74,0,0,0-1.28,3.08c-0.41,1,1.22,1.44,1.62.45a17.73,17.73,0,0,1,.85-2.34c0.7-.82-0.48-2-1.19-1.19h0Zm3.49,5c0.88-1,.79-2.17.77-3.42a0.84,0.84,0,0,0-1.68,0c0,0.7.22,1.67-.28,2.24-0.71.81,0.48,2,1.19,1.19h0Zm1.72-3.63a10.72,10.72,0,0,0,.45,3.05,0.84,0.84,0,0,0,1.62-.45,9.06,9.06,0,0,1-.39-2.61,0.84,0.84,0,0,0-1.68,0h0Z" transform="translate(-65.65 -24.51)"/><path id="SvgjsPath4180" class="cls-27" d="M380.37,238.71c-1.65,1-4.13.1-5.54-2s-1.2-4.6.46-5.58,4.14-.1,5.54,2S382,237.72,380.37,238.71Z" transform="translate(-65.65 -24.51)"/></g></g></g><g id="svga-group-eyesfront-right"><path id="SvgjsPath3828" class="cls-2" d="M324.77,243.76c0,39.71,22.06,52.29,46.34,52.29s47.44-44.8,47.69-52.29c1.33-39.2-23.42-52.28-47.69-52.28S324.77,201.49,324.77,243.76Zm14.29-1.87c0-8.44,4.35-11.9,29.19-11.28,16.73,0.42,38.81-3.35,36.17,1.4,0,8.44-14,26.84-36.41,27.23C351.28,259.53,339.06,250.34,339.06,241.89Z" transform="translate(-65.65 -24.51)"/><path id="SvgjsPath3829" class="cls-32" d="M364.32,207.17c-22.32-.1-40.44,14.34-40.49,32.24s18,32.48,40.31,32.59,39.41-14.8,42.62-32.41S386.64,207.27,364.32,207.17ZM404.42,232c0,8.44-14,26.84-36.41,27.23-16.74.29-29-8.9-29-17.35s4.35-11.9,29.19-11.28C385,231,407.06,227.27,404.42,232Z" transform="translate(-65.65 -24.51)"/><path id="SvgjsPath3834" class="cls-33" d="M336.68,241.89c0-8.44,6.73-11.9,31.57-11.28,6.72,0.17,14.29-.34,20.78-0.69,3.14-.14,6.23-0.26,9.22-0.32,4.56,0,11.93.6,10.92,2.42,0,8.44-18.73,26.84-41.16,27.23C351.28,259.53,336.68,250.34,336.68,241.89Z" transform="translate(-65.65 -24.51)"/><path id="SvgjsPath3838" class="cls-18" d="M343.82,226.26l5.24-3.11,35.25-.57c-9.95.9-18.55,1.4-35.08,1.54Z" transform="translate(-65.65 -24.51)"/><path id="SvgjsPath3839" class="cls-30" d="M336.65,237.46l8.77-8c23.65-.06,39.86-1.33,64.9-3.19-2.77,6.13-6.06,10.23-10.71,17,2.07-4.73,3.44-7.93,4.27-12.37-23.55,1.81-37,1.82-57.28,1.48Zm57.28,11.9c-19.64,13.3-29.65,10.12-50.76,2.33C356.13,262.2,382.92,263.37,393.94,249.36Z" transform="translate(-65.65 -24.51)"/></g></g><g id="svga-group-facehighlight-single"><path id="SvgjsPath2885" class="cls-34" d="M407.23,312.38A97.43,97.43,0,1,1,309.64,215,97.38,97.38,0,0,1,407.23,312.38Z" transform="translate(-65.65 -24.51)"/><path id="SvgjsPath2889" class="cls-35" d="M398.91,169.86A89.11,89.11,0,1,1,309.8,80.75,89.11,89.11,0,0,1,398.91,169.86Z" transform="translate(-65.65 -24.51)"/></g><g id="svga-group-eyebrows-left"><path id="SvgjsPath4183" class="cls-36" d="M201,222.14c50.6-42.3,103.46-10.7,87.26-3C281.88,222.14,257.83,196,201,222.14Z" transform="translate(-65.65 -24.51)"/></g><g id="svga-group-eyebrows-right"><path id="SvgjsPath4184" class="cls-36" d="M418.62,222.14c-50.6-42.3-103.46-10.7-87.26-3C337.71,222.14,361.76,196,418.62,222.14Z" transform="translate(-65.65 -24.51)"/></g><g id="svga-group-nose-single"><path id="SvgjsPath4079" class="cls-37" d="M326.13,311.5c2.1,17.86-11.83,9.87-16.65,10.65-3.85.63-20.79,5.51-17.09-10.88,0.5-2.2,7.68-15.46,16.77-15.46C317.68,295.81,325.3,304.45,326.13,311.5Z" transform="translate(-65.65 -24.51)"/><path id="SvgjsPath4080" class="cls-4" d="M321,315.79c0.09,0.28-4.88,5-5.13,4.73a10.78,10.78,0,0,1-5.94,1.82c-1.64,0-3.11-.9-4.3-0.78,0-.19-10.74-4.15-11.39-5.69a2.59,2.59,0,0,0-2,1.4c-0.73,1.84,1.67,4.56,5.36,6.07a16.87,16.87,0,0,0,6,1.18c1,1.41,2.67,2.19,5.84,2.16,3.51,0,6.88-.84,7.51-2.48,0.86,0.52,4.12-.21,5.34-0.8s3.58-2.52,3.63-4.81C326,316.67,323.12,315.42,321,315.79Z" transform="translate(-65.65 -24.51)"/><path id="SvgjsPath4081" class="cls-18" d="M305.61,322.7a2.21,2.21,0,0,1-1.32,1.16,10.71,10.71,0,0,0-4.81-3.77c-2.61-1.14-5.15-1.35-6.69-.74a2.66,2.66,0,0,1-.42-2.42c0.76-1.83,4.35-2,8-.41S306.38,320.88,305.61,322.7Zm18.49-4.41a2.32,2.32,0,0,1,1.18.11c0.21-1.75-1.22-3-3.65-3-2.84.07-5.95,1.94-6.92,4.17-0.83,1.9.15,3.44,2.21,3.81C317,323.11,318.33,319.88,324.1,318.28Z" transform="translate(-65.65 -24.51)"/></g><g id="svga-group-beardwrap"><g id="svga-group-beard-single"><path id="SvgjsPath3021" class="cls-36" d="M309.8,84.62h0Z" transform="translate(-65.65 -24.51)"/></g></g><g id="svga-group-mustache-single"><path id="SvgjsPath3019" class="cls-36" d="M309.8,84.62h0Z" transform="translate(-65.65 -24.51)"/></g><g id="svga-group-hair-front"><path id="SvgjsPath4242" class="cls-36" d="M179.25,256.55c-4-11.74-10.31-29.36-20.76-36.33-6.39-35.13-18.65-81,18.62-124.49,7.94-9.31,18.29-17.48,30.48-19.32,30.13-44.59,66.16-65.18,148.72-38.29C481,74.59,460.14,165,455.77,219.44c-5.88,6.17-11.46,23.6-14.59,34.12-2.78-59.87-25.3-144.74-91.94-144.74-33.76,0-40.56,13.48-88.54,8.07C172.09,110,188.56,215.59,179.25,256.55Z" transform="translate(-65.65 -24.51)"/><path id="SvgjsPath4243" class="cls-1" d="M315.89,87.74c-34.59,6.1-53.63-8.18-46.5-34.32C255.95,62,251.1,75.54,253,87.74c-8.19-9.41-7.84-25.44-3-43.82C231,64.3,227.52,82.27,232.07,100.47c-11.91-13-20.69-30.15-8.79-45.1a168.66,168.66,0,0,0-15.69,20.1c-1.14.17-9.84,5.27-9.84,5.27,7,0,22.15,7.08,30.9,21.75-10.79-3.38-26,.52-32.16,5.65-22.34,18.74-33.75,49.67-17,146,5.35-28.44,3.67-56,7.77-78.89,6.86-38.36,23.93-63.86,73.47-59.29,48,5.42,54.78-8.07,88.54-8.07,66.63,0,89.16,84.87,91.94,144.74,3.12-10.52,8.7-28,14.59-34.12,0.72-8.93,1-8.36,1.88-18.84C437.81,109.23,388.43,74.94,315.89,87.74Z" transform="translate(-65.65 -24.51)"/><path id="SvgjsPath4244" class="cls-38" d="M165.71,188.84c-8.87-97.9,42.83-97.54,49.9-92.08C205.76,95.59,172.24,86.8,165.71,188.84ZM278,64.08c3.94,9.71,10.82,16.62,25.83,17.57,0,0,2.67,1.84,41.36-5a73.64,73.64,0,0,1,11.24-1.3C328,72.78,293.45,91.2,278,64.08Zm151.55,40.65a42.42,42.42,0,0,0-2.55-3.41c-22.44-28.38-59.77-29.06-57.51-26.55-2.23-2.83,46,5.65,64.13,43.59,11.49,21,3.36,6,13.1,25.32C438.16,116.77,433.78,111.15,429.54,104.73Zm-48-21.59s-3-.91-6.13-1.57-6.21-1.11-6.21-1.11a88.57,88.57,0,0,0-19.89-.33c14.73,0.15,37.12,3.59,49.31,13.07A37.13,37.13,0,0,0,381.52,83.14ZM161,147.85c-3.19,23.27-4,50.46,7.72,70.7C160.87,199.27,160.69,168.66,161,147.85Zm86-37.49a6.13,6.13,0,0,0,2.67.19,7,7,0,0,1-2.53-.6c-16.29-4.93-23.73-36,2.41-64.87C218.15,69.53,226.45,107.63,246.92,110.35ZM268.49,54c-8.87,6.93-14.88,14.8-15.93,25.58-1.51,16.79,7.7,30.58,26,32C249.68,104.89,250.65,72.69,268.49,54Zm63.69,12.18S312,67.41,292.85,59.33c19.8,11.53,40.49,10.4,64.16,5.94C347,65.7,341.9,66,332.18,66.16Z" transform="translate(-65.65 -24.51)"/><path id="SvgjsPath4245" class="cls-39" d="M364.14,60.71c-24.69,1.73-30.38.53-41.19-5.54C336.68,61.18,341.83,59.62,364.14,60.71ZM277.4,80.78c-13.22-13.66-8.91-20.27-8.91-20.27S262.17,77.3,284.26,88c12.3,6.7,33.82,0,40.07-.79C316.18,87.22,289.75,93.07,277.4,80.78Zm-64.16,20.72c-44.47.43-45.17,69.65-39.45,113.5C175,173.13,174.1,107.53,213.24,101.51Zm240.89,88.24c-5.47-31.91-18.73-68.71-46.62-85.26C430.17,122.58,446.58,162.77,454.13,189.74Zm-2.66-43.09c-1.76-31.3-18.93-55.26-43-72.09C429.65,94.26,446.25,117.68,451.47,146.66ZM390.28,62.3c-28.17-16-53.48-27.67-86.74-17.82C334,39.45,359.33,48.8,390.28,62.3ZM269.09,36.75c-24,2.27-42.21,13.9-44,38C228.88,50.64,247.07,41.32,269.09,36.75ZM251,72.88c5.39-27,23.85-32.51,45.56-36.39C273.77,37.57,251.93,45.79,251,72.88Z" transform="translate(-65.65 -24.51)"/><path id="SvgjsPath4246" d="M356.54,36.51C272.67,9.19,236.78,31.28,207.18,74.82,195.05,76.68,184.52,85,176.57,94.33c-37.59,43.89-25.08,90.32-18.73,125.38,11.11,7.17,17.56,26.64,21.51,38.45,10.73-39.87-8.41-148.44,81.27-141.51,49.41,5.58,55.36-8.8,91.39-8,61.09-2.6,86.83,87.08,88.61,148.4,2.68-9.21,9.12-31.45,15.82-38.21C460.06,173.22,486,74.36,356.54,36.51Zm97.6,183.24c-5.69,6.8-10,18.88-12.4,27.35C442.32,190.33,417.2,99.92,352,102c-37.9-.6-42.67,13.4-90.75,8.53-44.11-3.21-68.83,23.06-76.59,63.47-4.67,23.35-1,54.27-5.23,79.63-3.54-11.43-9.54-26.76-19.51-33.46-4-44.75-14.15-79,19.68-123.21,7.18-9.33,19.09-18.16,30.63-20.72C226.78,58.91,245.92,6.58,354.9,41.88,471.19,76,458.56,160.52,454.13,219.75Z" transform="translate(-65.65 -24.51)"/></g><g id="svga-group-glasses-single"><path id="SvgjsPath4207" class="cls-40" d="M309.8,84.62h0Z" transform="translate(-65.65 -24.51)"/></g></g></g></svg>