<svg id="Layer_1" data-name="Layer 1" xmlns="http://www.w3.org/2000/svg" xmlns:xlink="http://www.w3.org/1999/xlink" viewBox="0 0 502.71 599.88"><defs><style>.cls-1{fill:#2a232b;}.cls-17,.cls-2{fill:#edd8cc;}.cls-3{fill:#fcf6f2;}.cls-4{fill:#debca9;}.cls-26,.cls-5{fill:none;}.cls-17,.cls-5{stroke:#bf8a6b;stroke-width:1.5px;}.cls-6{fill:url(#linear-gradient);}.cls-7{fill:#f3f1f3;}.cls-8{fill:#131111;}.cls-9{fill:#f3f1f4;}.cls-10{fill:#cfc8d7;}.cls-11{fill:#e1e0e1;}.cls-12{fill:#f1f7f8;}.cls-13{fill:#cbe4e9;}.cls-14{fill:#a8d2d9;}.cls-15,.cls-27{fill:#fff;}.cls-16{fill:#88c1ca;}.cls-18{fill:#bf8a6b;}.cls-19{fill:#e5caba;}.cls-20{fill:url(#linear-gradient-2);}.cls-21{fill:url(#radial-gradient);}.cls-22{fill:#3e4442;stroke-width:0.5px;}.cls-22,.cls-26{stroke:#0e1613;}.cls-23{fill:#535353;}.cls-24{fill:#2b3531;opacity:0.9;}.cls-24,.cls-25,.cls-27{isolation:isolate;}.cls-25{opacity:0.8;}.cls-26{stroke-width:0.75px;}.cls-27{opacity:0.4;}.cls-28{fill:url(#linear-gradient-3);}.cls-29{fill:url(#radial-gradient-2);}.cls-30{fill:url(#radial-gradient-3);}.cls-31{fill:#09152e;}.cls-32{fill:url(#radial-gradient-4);}.cls-33{fill:url(#linear-gradient-4);}.cls-34{fill:url(#radial-gradient-5);}.cls-35{fill:url(#radial-gradient-6);}.cls-36{fill:url(#radial-gradient-7);}.cls-37{fill:url(#radial-gradient-8);}.cls-38{fill:#1b141c;}.cls-39{fill:#3a353a;}.cls-40{fill:#26120b;}</style><linearGradient id="linear-gradient" x1="66.93" y1="651.89" x2="66.93" y2="690.27" gradientTransform="matrix(2.55, 0, 0, -2.55, 136.45, 2109.93)" gradientUnits="userSpaceOnUse"><stop offset="0" stop-color="#debca9" stop-opacity="0.8"/><stop offset="0.7" stop-color="#bf8a6b"/></linearGradient><linearGradient id="linear-gradient-2" x1="67.3" y1="679.71" x2="67.3" y2="682.59" gradientTransform="matrix(2.55, 0, 0, -2.55, 136.45, 2109.93)" gradientUnits="userSpaceOnUse"><stop offset="0.1" stop-color="#e5caba"/><stop offset="1" stop-color="#debca9"/></linearGradient><radialGradient id="radial-gradient" cx="39.87" cy="734.88" r="9.8" gradientTransform="translate(345.55 2109.93) rotate(180) scale(2.55)" gradientUnits="userSpaceOnUse"><stop offset="0" stop-color="#fff"/><stop offset="0.54" stop-color="#fdfefe"/><stop offset="0.74" stop-color="#f6f8f9"/><stop offset="0.88" stop-color="#eaeff2"/><stop offset="0.99" stop-color="#d9e3e8"/><stop offset="1" stop-color="#d8e2e7"/></radialGradient><linearGradient id="linear-gradient-3" x1="98.71" y1="742.07" x2="92.95" y2="736.32" gradientTransform="matrix(2.55, 0, 0, -2.55, 10.23, 2110.57)" gradientUnits="userSpaceOnUse"><stop offset="0" stop-color="#fff"/><stop offset="1" stop-color="#fff" stop-opacity="0"/></linearGradient><radialGradient id="radial-gradient-2" cx="94.18" cy="1008.6" fx="106.10829774873096" r="16.97" gradientTransform="matrix(2.55, 0.05, -0.04, 2.04, 51.62, -1827.89)" gradientUnits="userSpaceOnUse"><stop offset="0" stop-color="#debca9"/><stop offset="0.7" stop-color="#debca9" stop-opacity="0.3"/><stop offset="1" stop-color="#edd8cc" stop-opacity="0"/></radialGradient><radialGradient id="radial-gradient-3" cx="-18.49" cy="716.36" r="24.78" gradientTransform="matrix(-2.23, -1.24, 0.93, -1.67, -453.66, 1451.73)" gradientUnits="userSpaceOnUse"><stop offset="0.94" stop-opacity="0"/><stop offset="1" stop-opacity="0.2"/></radialGradient><radialGradient id="radial-gradient-4" cx="91.75" cy="734.88" r="9.8" gradientTransform="matrix(2.55, 0, 0, -2.55, 136.45, 2109.93)" xlink:href="#radial-gradient"/><linearGradient id="linear-gradient-4" x1="97.68" y1="741.11" x2="91.92" y2="735.36" gradientTransform="matrix(2.55, 0, 0, -2.55, 135.18, 2110.57)" xlink:href="#linear-gradient-3"/><radialGradient id="radial-gradient-5" cx="42.31" cy="1009.95" fx="54.237696922772514" r="16.97" gradientTransform="matrix(-2.55, 0.05, 0.04, 2.04, 430.38, -1827.89)" xlink:href="#radial-gradient-2"/><radialGradient id="radial-gradient-6" cx="26.89" cy="682.82" r="24.78" gradientTransform="matrix(2.23, -1.24, -0.93, -1.67, 935.66, 1451.73)" xlink:href="#radial-gradient-3"/><radialGradient id="radial-gradient-7" cx="66.94" cy="706.58" r="39.34" gradientTransform="matrix(2.55, 0, 0, -2.55, 136.45, 2109.93)" gradientUnits="userSpaceOnUse"><stop offset="0" stop-color="#fcf6f2" stop-opacity="0.5"/><stop offset="0.9" stop-color="#edd8cc" stop-opacity="0"/></radialGradient><radialGradient id="radial-gradient-8" cx="66.94" cy="764.14" r="35.5" xlink:href="#radial-gradient-7"/></defs><title>avatar 4</title><g id="svga-group-subwrapper"><g id="svga-group-hair-back"><path id="SvgjsPath4677" class="cls-1" d="M308.38,275.13h-2.45v-2.45h2.45v2.45Z" transform="translate(-55.8 -13.21)"/></g><g id="svga-group-humanbody-single"><path id="SvgjsPath2893" class="cls-2" d="M540.59,518c-5.37-11.61-20-28.82-36.36-33.57-20.16-5.88-65.66-13-82.53-16.94-13.52-3.17-40.76-27.63-50.31-35.84a10.33,10.33,0,0,1-3.15-6.75c-0.34-26.58,10.26-97.19,10.26-97.19H235.79s10.6,70.6,10.26,97.19a10.32,10.32,0,0,1-3.14,6.75c-9.55,8.21-36.79,32.67-50.31,35.84-16.87,4-62.37,11.3-82.53,17.18-16.31,4.75-31,21.72-36.36,33.33-9.07,19.59-11.21,55-11.21,85.63H551.8C551.8,573.06,549.66,537.61,540.59,518Z" transform="translate(-55.8 -13.21)"/><path id="SvgjsPath2894" class="cls-3" d="M451.88,479.55c59.55,8.67,84.62,21.3,92.46,124.09h7.46c0-30.58-2.15-66-11.21-85.63-5.37-11.61-20-28.82-36.36-33.57-20.16-5.88-65.66-13-82.53-16.94-13.52-3.17-44.63-29.53-53-40,8.22,11.51,31.29,38.18,51.51,45.16C429.94,476,438,477.53,451.88,479.55ZM194,472.67c20.22-7,43.29-33.65,51.51-45.16-8.32,10.47-39.42,36.83-53,40-16.87,4-62.37,11.3-82.53,17.18-16.31,4.75-31,21.72-36.36,33.33-9.07,19.59-11.21,55-11.21,85.63H70c7.8-102.13,33-115.43,92.46-124.09C176.31,477.53,184.37,476,194,472.67Z" transform="translate(-55.8 -13.21)"/><path id="SvgjsPath2895" class="cls-4" d="M296.5,512.73s-12.41-3.94-17.33-5.82c-25.56-9.81-108.61-16.16-108.61-16.16s87.47,3.47,106.78,6.8c-1.12-11.66-7.38-48.94-7.38-48.94s12.6,41.14,15.68,51.52C287.28,505.67,296.5,512.73,296.5,512.73Zm26.42-3.28c-0.22.18-.47,0.41-0.74,0.66A5.55,5.55,0,0,0,322.92,509.45Zm-26.42,3.28s7.08,7.32,10.64,7.41c4.67,0.12,11.81-7.09,15-10-3.09,2.34-10.18,3.4-13,3.51C305.94,513.74,296.5,512.73,296.5,512.73Zm51.42-18.4c-3.78.61-10.73,1.93-10.73,1.93l5.6-36.43c-1.58,7.51-10.95,39.66-19.87,49.61,4.67-4,15.07-5.85,20.36-6.62,25-3.63,25-3.63,100.46-12.09C443.74,490.75,372.62,490.37,347.92,494.34Z" transform="translate(-55.8 -13.21)"/><path id="SvgjsPath2896" class="cls-5" d="M540.59,518c-5.37-11.61-20-28.82-36.36-33.57-20.16-5.88-65.66-13-82.53-16.94-13.52-3.17-40.76-27.63-50.31-35.84a10.33,10.33,0,0,1-3.15-6.75c-0.34-26.58,10.26-97.19,10.26-97.19H235.79s10.6,70.6,10.26,97.19a10.32,10.32,0,0,1-3.14,6.75c-9.55,8.21-36.79,32.67-50.31,35.84-16.87,4-62.37,11.3-82.53,17.18-16.31,4.75-31,21.72-36.36,33.33-9.07,19.59-11.21,55-11.21,85.63H551.8C551.8,573.06,549.66,537.61,540.59,518Z" transform="translate(-55.8 -13.21)"/></g><g id="svga-group-chinshadow-single"><path id="SvgjsPath4280" class="cls-6" d="M307.2,449.73c20,0,41.28-12.09,59.2-26.12,0-16.4,3.55-46.74,6.49-69-37.63-5.5-94-5.58-131.54-.37,2.9,21.92,6.42,51.88,6.53,68.55C265.85,437.25,287.14,449.73,307.2,449.73Z" transform="translate(-55.8 -13.21)"/></g><g id="svga-group-clothes-single"><path id="SvgjsPath4748" class="cls-7" d="M377.75,611.47H235.52V474c54.44,11.5,90.23,10.61,142.24,0V611.47h0Z" transform="translate(-55.8 -13.21)"/><path id="SvgjsPath4749" class="cls-8" d="M325.35,610.81c-6.79,0-26.24.51-40.4-.56l0-.42c-2-45.65,2.76-75.15,11.1-96.12l0.12-.3-0.23-.23c-2.21-2.21-5.93-4.73-9.87-7.4a86.68,86.68,0,0,1-10.61-7.94,39.55,39.55,0,0,1,5.74-5.38c0.6-.31,2.84-2.06,14.62-12.16l0.89-.76a47,47,0,0,1,9.15-.72,92.82,92.82,0,0,1,15.93,1.38c3.82,3.57,8.44,13,10.17,17.54-2.39,5.6-5.21,7.66-9.09,10.48a70.84,70.84,0,0,0-6.49,5.17l-0.2.18,0.05,0.27c9.85,49.69,9.85,61.3,9.85,72.52,0,4.94,0,16.17.83,24.43C326.52,610.81,326,610.81,325.35,610.81Z" transform="translate(-55.8 -13.21)"/><path id="SvgjsPath4750" d="M332.47,497.75c-1.84-4.88-6.63-14.51-10.47-18-7-1.38-19.53-2.06-25.62-.59-0.26.22-15.29,13.17-15.44,12.87a39.64,39.64,0,0,0-6.17,5.85c5,5.08,16.28,11.15,20.8,15.66-8.93,22.46-13,52.82-11.13,96.34,0,0.27,0,.56,0,0.83a425.63,425.63,0,0,0,42.94.55c-2.84-27.66,3.52-25.58-10.74-97.5C324.2,506.91,328.84,506.42,332.47,497.75Zm-12.84,46.58L319.5,544c4.89,25.81,3.38,45.58,7.07,66-11.59-.78-29.39-0.13-41-0.13,0.9-17.61,2.91-77.52,11.6-97.22,0.42-.11.83-0.21,1.25-0.31l-2.52,85,6.72-85.79,0.15,0,4.41,79.77,1-80.08h0.19l10.27,88.94L313,511.73c0.77,0.15,1.54.34,2.3,0.57a0.47,0.47,0,0,1,.24.07C315.8,514.83,317.83,532.93,319.63,544.33Zm-2.16-33.78c-6.79-3.06-15.57-2.51-22.33.59-4.11-4.44-10-7.53-18.42-13.19,1.35-1.17,3.08-2.62,5.41-4.43,0.2,0,8.51-6.78,8.66-6.92,2.25-2.06,4.26-4.38,6.17-6.41,7.17-.29,17.69,0,24,0.34,3.67,4.59,7.17,11.49,9.81,17C326,504.53,321.24,507.66,317.47,510.55Z" transform="translate(-55.8 -13.21)"/><path id="SvgjsPath4751" class="cls-9" d="M253.81,550.55c-28.22-98-15.47-72.37-23-110.88,5-11.78,9.68-25.54,12.34-28.37l0.2-.21c5.61,58.73,21.92,33.36,58.19,67.82C280.8,492.74,261.58,528.65,253.81,550.55ZM383.47,439.68c-3.54-9.06-10-22.33-12.76-25.27,3.48,50.59-37.05,40.49-59.57,64.1,21.56,14,42,50.55,49.35,72.06C392.58,444.1,375.29,490.85,383.47,439.68Z" transform="translate(-55.8 -13.21)"/><path id="SvgjsPath4752" class="cls-10" d="M370.27,413.28c0,12.57-1,22.42-3.09,25.29-6,14.21-32.06,24.11-40.1,28.16a56.84,56.84,0,0,0-16.71,11.87c9.33,6.06,14,8.28,31.63,35.33,10.39,17.39,16,30.45,18.5,38.26,32.73-108.46,15.22-61.11,23.46-112.56C380.09,429.63,372.72,415.52,370.27,413.28Zm8.92,47.78c-4.79,44.23-8.54,35.44-18.94,83.62-6.64-21.15-27.1-56.06-47.54-66.28,9.63-7.23,12.31-7.66,23.8-12.92,35.22-15.71,36.66-30.3,34.59-49.59,3,3.48,7.65,15.07,11.48,23.29C380.5,446.88,379.54,457.87,379.2,461.05ZM256.26,449.8c-10.78-8.93-7.73-20-12.7-39.67-2.21,2.45-7.7,16.23-13.26,29.49,1.36,6.84,1.67,18.08,1.86,21.63,1.37,29.85,4.28,31.23,21.6,90.91,7.42-21.79,28.28-59.62,49.52-73.42C286.33,463.27,265,457.39,256.26,449.8Zm13.36,62.41c-5.43,9-11.05,18.3-15.58,32.49-10.87-49.59-14.68-41.5-18.91-83.57-0.78-7.27-1.51-14.75-3.43-21.92,4-8.78,9.74-25.15,11.57-26.9,3.34,17.32.16,32.94,13.87,41.58,6.41,4.88,27.17,13,42.86,25.35C290.49,484.88,285.36,488.21,269.62,512.21Z" transform="translate(-55.8 -13.21)"/><path id="SvgjsPath4753" class="cls-11" d="M356.86,542.59l-3-6.49s22.38-68.93,26.28-88.63C382.42,467.91,356.86,542.59,356.86,542.59Zm-101.38-2.7,3.51-8s-21-64.75-24.88-84.45C231.88,467.91,255.48,539.89,255.48,539.89Z" transform="translate(-55.8 -13.21)"/><path id="SvgjsPath4754" class="cls-12" d="M367.79,507.8c17.28-51,6.74-55.17,15.43-72.1,0.33-.64,3.42,2.56,3.75,4,3.2,13.84,130.52,42.42,134.54,45.5,3.56,2.59,13.82,7.67,13.82,7.67,12.08,22.19,19,26.17,22.39,85.59,0.32,7.54-.15,28.87-0.15,34.6l-209.32-1.65C348.75,592.37,351.19,558.07,367.79,507.8Zm-121.28,0c-17.28-51-6.74-55.17-15.43-72.1-0.33-.64-3.42,2.56-3.75,4-3.2,13.84-130.52,42.42-134.54,45.5C89.23,487.81,79,492.9,79,492.9c-12.08,22.19-19,26.17-22.39,85.59-0.32,7.54.15,28.87,0.15,34.6l209.32-1.65C265.55,592.37,263.12,558.07,246.51,507.8Z" transform="translate(-55.8 -13.21)"/><path id="SvgjsPath4755" class="cls-13" d="M381.3,494.09c-11.14,40.09-26.35,76.13-33,117.34-2.18,0,3.65-55.52,19.54-103.62,17.28-51,6.74-55.17,15.43-72.1,0.19-.37-1.51,4.83-0.55,5.95C382.32,460.56,387,475.19,381.3,494.09Zm-148.29,0c11.14,40.09,26.35,76.13,33,117.34,2.18,0-3.65-55.52-19.54-103.62-17.28-51-6.74-55.17-15.43-72.1-0.19-.37,1.51,4.83.55,5.95C232,460.56,227.33,475.19,233,494.09Z" transform="translate(-55.8 -13.21)"/><path id="SvgjsPath4756" class="cls-14" d="M435.44,484.38s-5.59,6.27-21.13,16.94c13-14.4,19-20.18,19-20.18Zm5.32,29.05L437,510.09c-11.1,33.72-18.52,50.37-31.38,89.59C424.09,564.63,428.5,552.18,440.76,513.43ZM181,481.14s6,5.78,19,20.18c-15.54-10.67-21.13-16.94-21.13-16.94Zm27.66,118.54c-12.86-39.22-20.28-55.87-31.38-89.59l-3.74,3.34C185.81,552.18,190.21,564.63,208.67,599.68Z" transform="translate(-55.8 -13.21)"/><path id="SvgjsPath4757" class="cls-15" d="M501.43,565.86C501.43,537.49,509,521,525,497a28.87,28.87,0,0,1,3.29,2.14C511.32,520.15,508,539.74,501.43,565.86Zm-93.21,27.81c15-40.86,19.72-56.83,29.62-84.13-2.81-.86-21.21-7.3-24-8.19,1,2.45,7.62,4.46,19.14,11.52C433,512.88,420.51,550.56,408.22,593.67Zm20.11-112.85S420.13,491,412,501.2c8.29-6.53,14.06-13.81,21.26-20.06-9.77-8.24-25.72-20.85-36-29.58C405.41,460.3,428.34,480.82,428.34,480.82ZM556.88,613.08h0.7c0-5.72.46-27.05,0.15-34.6-3.4-59.42-10.31-63.4-22.39-85.59,0,0-10.26-5.09-13.82-7.67-3.26-2.5-94.91-24.27-128.42-38.85,39.17,26.84,113.23,36.76,135.15,52.78C538.84,506.9,553.11,573.21,556.88,613.08ZM86,499.08c1.33-.94,1.51-0.9,2.86-1.78,15.91,24,24,40.2,24,68.57C106.35,539.74,101.84,519.34,86,499.08Zm95.33,13.8c11.52-7.06,18.13-9.07,19.14-11.52-2.81.88-21.21,7.33-24,8.19,9.9,27.3,14.66,43.27,29.62,84.13C193.8,550.56,181.35,512.88,181.35,512.88ZM217,451.56c-10.3,8.72-26.24,21.34-36,29.58,7.2,6.26,13,13.53,21.26,20.06C194.16,491,186,480.82,186,480.82S208.89,460.3,217,451.56Zm-131,47.59c21.92-16,96-25.94,135.15-52.78C187.7,460.95,96.05,482.72,92.79,485.22,89.23,487.81,79,492.9,79,492.9c-12.08,22.19-19,26.17-22.39,85.59-0.32,7.54.15,28.87,0.15,34.6h0.7C61.19,573.21,75.46,506.9,86.06,499.15Z" transform="translate(-55.8 -13.21)"/><path id="SvgjsPath4758" class="cls-16" d="M386,436.29a2.35,2.35,0,0,0-1.81-1.61c-0.72-.06-1.06,1.12-1.39,1.77-8.68,16.93,1,20.39-16.27,71.36C350,558.07,348,593.1,347.53,612.16l210.05,0.92c0-5.72,1.2-27.05.88-34.6-3.4-59.42-10.55-63.89-22.63-86.08,0,0-10.75-5.33-14.31-7.92-12-9.15-1.44.06-53.9-14.68-43-12.56-45.32-16.09-60.92-20.43-3.15-.9-9.93-2-17-7C389,442,386.27,437.68,386,436.29ZM348.68,609.84c9.12-57.65,14.89-72.74,27.64-115.66,8.62-27.17,3.86-42.59,8-55.14a0.74,0.74,0,0,1,1.4,0c6,15.2,22.6,18.73,46.08,41.71-14.22,14.22-17.88,18.06-19.72,20.5,2.11,1.07,13.66,5.45,24.22,9.54-0.6,1.88-32.82,93-33.2,94.24,24.47-52.79,27.63-69,34.79-95.44-2-1.5-19.31-7.86-22.24-8.91,10.46-10.82,13.48-13.2,18.42-19.5,4,0-38.84-32.58-40.93-34.77a62.8,62.8,0,0,0,7.36,3.65c35.92,12.64,7.5,6.92,86.12,29.36a194.68,194.68,0,0,0,25.76,4.6c0.53,0,13.2,6.67,20.43,9.71-17.59,18.29-28.86,41.92-31.34,72.17,7.88-31,12.11-47.19,32.15-70.51,18.64,37.73,16.53,32.28,22.58,116.72C505.73,610.09,428.4,609.63,348.68,609.84ZM224.61,442.41c-7.08,5-13.85,6.07-17,7-15.59,4.34-17.92,7.87-60.92,20.43-52.45,14.74-41.94,5.52-53.9,14.68-3.56,2.59-14.31,7.92-14.31,7.92C66.4,514.6,59.25,519.07,55.85,578.49c-0.32,7.54.88,28.87,0.88,34.6l210.05-.92c-0.5-19.06-2.44-54.09-19.05-104.35-17.28-51-7.59-54.43-16.27-71.36-0.33-.65-0.66-1.82-1.39-1.77a2.35,2.35,0,0,0-1.81,1.61C228,437.68,225.25,442,224.61,442.41ZM58.15,612.08c6.06-84.44,3.94-79,22.58-116.72,20,23.31,24.27,39.52,32.15,70.51C110.4,535.6,99.13,512,81.54,493.69c7.23-3,19.9-9.66,20.43-9.71a194.68,194.68,0,0,0,25.76-4.6c78.62-22.44,50.2-16.72,86.12-29.36a63.19,63.19,0,0,0,7.36-3.65c-2.09,2.18-44.9,34.77-40.93,34.77,4.94,6.3,8,8.68,18.42,19.5-2.93,1-20.25,7.41-22.24,8.91,7.16,26.42,10.32,42.65,34.79,95.44-0.38-1.22-32.6-92.36-33.2-94.24,10.56-4.09,22.11-8.47,24.22-9.54-1.84-2.45-5.5-6.28-19.72-20.5,23.48-23,40.12-26.5,46.08-41.71a0.74,0.74,0,0,1,1.4,0c4.11,12.56-.66,28,8,55.14,12.75,42.92,18.51,58,27.64,115.66C185.9,609.63,108.58,610.09,58.15,612.08Z" transform="translate(-55.8 -13.21)"/></g><g id="svga-group-head"><g id="svga-group-ears-left"><path id="SvgjsPath4293" class="cls-17" d="M173.68,231.63c-3.59-6-16.26-18.46-25.22-16.17-7.29,1.86-14.76,7.93-14.76,18.28,0,16,3.66,22.85,6.12,30.12,2.09,6.19,9.58,17.53,14.09,21.93,5.56,5.4,14.57,22.87,15.67,24.66,1.72,2.82,4.59,7.31,9.89,7.48,8,0.25,17.33-5.15,17.92-8.53C200.53,291.05,183,247.12,173.68,231.63Z" transform="translate(-55.8 -13.21)"/><path id="SvgjsPath4294" class="cls-18" d="M169.16,271.67c-0.35-1.37,0-3.66.37-5.87a20.81,20.81,0,0,0,.44-5.28c-0.7-5-4.63-14.65-7.2-19.85-3-6-10.07-13.52-16.07-15.47a4.61,4.61,0,0,0-5.06,1.13c-0.69.72-.85,1.56-0.62,1.66s0.74-.6,1.49-1.26a3.61,3.61,0,0,1,2.75-.9c-0.5,2.52-7.68,10.33-3.38,25.42a69.86,69.86,0,0,0,5.39,13.58,19.28,19.28,0,0,0,.39,2.52c2.42,10.66,17.83,28.23,21.49,32.2,0.68,0.73,1.39,1.17,1.56,1s-0.24-.9-0.92-1.64c-3.62-3.94-18.92-21.47-21.26-31.76-4.29-18.84,4.69-19.16,11-30.52,1,1.61,1.79,3.15,2.43,4.44,0.5,1,1,2.19,1.62,3.47-1.12,1.78-12.38,14.81-9.51,25.24,1.06,3.85,9.25,8.8,12.41,10.16a6.34,6.34,0,0,1,3.15,3.16c0.88,1.5,1.88,6.84,4.77,8.07a4.05,4.05,0,0,0,1.59.36,2.94,2.94,0,0,0,1.89-.69c0,0.65,0,1.5,0,2.28,0,1,.11,1.83.36,1.85s0.51-.78.54-1.78a14,14,0,0,0-.19-3.49c-0.65-2.15-2.63-4.58-4.73-7.15S169.69,273.78,169.16,271.67Zm-22-9.45c-5.68-16.73,2.43-31.18,3.7-33.48,2.22,1.93,6.51,4.5,8.11,7C151.38,249,147.67,239.78,147.19,262.22Zm27.57,28.12c-2.62-1.11-3.5-6.25-4.35-7.7a7.24,7.24,0,0,0-3.57-3.53,9.41,9.41,0,0,1-1.41-.8c-9.45-14.09.71-21.1,2.51-22.42a31.87,31.87,0,0,1,1.15,4.76,20.66,20.66,0,0,1-.44,5c-0.37,2.31-.75,4.7-0.35,6.25,0.59,2.3,2.79,8.63,4.92,11.24,1.89,2.31,3.83,4.69,4.49,6.64A2.25,2.25,0,0,1,174.76,290.34Z" transform="translate(-55.8 -13.21)"/></g><g id="svga-group-ears-right"><path id="SvgjsPath4295" class="cls-17" d="M440,231.63c3.59-6,16.26-18.46,25.23-16.17,7.29,1.86,14.75,7.93,14.75,18.28,0,16-3.66,22.85-6.12,30.12-2.1,6.19-9.58,17.53-14.1,21.93-5.56,5.4-14.57,22.87-15.67,24.66-1.72,2.82-4.59,7.31-9.89,7.48-8.05.25-17.34-5.15-17.92-8.53C413.13,291.05,430.64,247.12,440,231.63Z" transform="translate(-55.8 -13.21)"/><path id="SvgjsPath4296" class="cls-18" d="M439.77,282.56c-2.1,2.57-4.08,5-4.73,7.15a14.14,14.14,0,0,0-.19,3.49c0,1,.29,1.8.54,1.78s0.39-.84.36-1.85c0-.78,0-1.62,0-2.28a2.92,2.92,0,0,0,1.89.69,4,4,0,0,0,1.59-.36c2.9-1.23,3.89-6.57,4.77-8.07a6.34,6.34,0,0,1,3.15-3.16c3.16-1.36,11.35-6.31,12.41-10.16,2.86-10.43-8.4-23.46-9.51-25.24,0.57-1.28,1.12-2.46,1.61-3.47,0.64-1.29,1.46-2.83,2.43-4.44,6.32,11.35,15.3,11.67,11,30.52-2.34,10.29-17.64,27.82-21.26,31.76-0.67.74-1.09,1.47-.92,1.64s0.88-.26,1.56-1c3.67-4,19.07-21.54,21.49-32.2a18.82,18.82,0,0,0,.39-2.52,70,70,0,0,0,5.38-13.58c4.3-15.1-2.88-22.91-3.38-25.42a3.63,3.63,0,0,1,2.75.9c0.75,0.66,1.27,1.35,1.49,1.26s0.07-.94-0.62-1.66A4.62,4.62,0,0,0,467,225.2c-6,1.94-13.11,9.48-16.07,15.47-2.57,5.2-6.5,14.8-7.2,19.85a20.92,20.92,0,0,0,.44,5.28c0.35,2.22.72,4.51,0.37,5.87C444,273.78,441.84,280,439.77,282.56Zm14.9-46.79c1.6-2.52,5.89-5.1,8.11-7,1.27,2.3,9.38,16.74,3.71,33.48C466,239.78,462.28,249,454.66,235.76Zm-18.7,54c0.66-1.94,2.6-4.33,4.49-6.64,2.13-2.61,4.33-8.94,4.92-11.24,0.39-1.55,0-3.93-.35-6.25a20.69,20.69,0,0,1-.44-5,31.62,31.62,0,0,1,1.15-4.76c1.8,1.31,12,8.33,2.51,22.42a9.18,9.18,0,0,1-1.41.8,7.26,7.26,0,0,0-3.57,3.53c-0.85,1.45-1.72,6.59-4.35,7.7A2.24,2.24,0,0,1,436,289.77Z" transform="translate(-55.8 -13.21)"/></g><g id="svga-group-faceshape-wrap"><g id="svga-group-faceshape-single"><path id="SvgjsPath4277" class="cls-2" d="M451,220.1h0c0,0.11-29.84,98.52-38.85,128.24a42,42,0,0,1-8.7,15.62c-15.6,17.6-58.15,61.3-96.21,61.3-38.77,0-82.18-46.59-97.15-64.13A39.87,39.87,0,0,1,202.3,347c-8.82-28.26-39.45-126.36-39.48-126.47h0a152.72,152.72,0,0,1-4.9-38.25C157.79,99.07,224.35,31.5,306.6,31.37s149,67.22,149.15,150.46A152.63,152.63,0,0,1,451,220.1Z" transform="translate(-55.8 -13.21)"/><path id="SvgjsPath4278" class="cls-19" d="M385.85,54.35c35,27.24,57.91,72.07,58,122.83a165,165,0,0,1-4.39,38.27h0c0,0.11-27.46,98.52-35.74,128.24a43.11,43.11,0,0,1-8,15.62c-14.35,17.6-53.5,61.31-88.51,61.31-35.68,0-75.61-46.6-89.37-64.14a41,41,0,0,1-7.14-14.1c-8.12-28.26-36.3-126.36-36.32-126.47h0a165.38,165.38,0,0,1-4.51-38.25c-0.07-51,22.87-96,58-123.33a151,151,0,0,0-69.93,128,152.7,152.7,0,0,0,4.9,38.25h0c0,0.11,30.65,98.21,39.48,126.47a39.93,39.93,0,0,0,7.76,14.1c15,17.54,58.37,64.13,97.15,64.13,38.06,0,80.61-43.7,96.21-61.3a42,42,0,0,0,8.7-15.62c9-29.72,38.82-128.13,38.85-128.24h0a152.65,152.65,0,0,0,4.78-38.27A150.94,150.94,0,0,0,385.85,54.35Z" transform="translate(-55.8 -13.21)"/><path id="SvgjsPath4279" class="cls-5" d="M451,220.1h0c0,0.11-29.84,98.52-38.85,128.24a42,42,0,0,1-8.7,15.62c-15.6,17.6-58.15,61.3-96.21,61.3-38.77,0-82.18-46.59-97.15-64.13A39.87,39.87,0,0,1,202.3,347c-8.82-28.26-39.45-126.36-39.48-126.47h0a152.72,152.72,0,0,1-4.9-38.25C157.79,99.07,224.35,31.5,306.6,31.37s149,67.22,149.15,150.46A152.63,152.63,0,0,1,451,220.1Z" transform="translate(-55.8 -13.21)"/></g></g><g id="svga-group-mouth-single"><path id="SvgjsPath4265" class="cls-20" d="M297.92,369.9l20.3-.51C315.87,380.33,299.53,378.76,297.92,369.9Z" transform="translate(-55.8 -13.21)"/><path id="SvgjsPath4269" class="cls-18" d="M298.2,370.59a0.67,0.67,0,1,1,.2-1.33c0.11,0,10.54,1.34,19.27-.53A0.67,0.67,0,1,1,318,370,66.22,66.22,0,0,1,298.2,370.59Zm9.15-8.73c-3.68,0-7.24-1.27-10.82-1.9-4-.7-8-0.1-12,0.25s-13,0-15.57-1.63a2,2,0,0,1,.44-3.55c1.5-.54,3.84.58,5.36,0.85,7,1.26,10.73-.08,16.89-0.29,9.42-.28,10.42,3.67,22.18,1.3,12.64-2.55,18.33-.62,27.39-3.35,1.24-.38,2.72-1.37,4-0.7a2,2,0,0,1-.12,3.58c-8.33,3.67-17.55,2.19-26.8,3.73C314.67,360.76,311.06,361.86,307.35,361.86Z" transform="translate(-55.8 -13.21)"/></g><g id="svga-group-eyes-left"><g id="svga-group-eyesback-left"><path id="SvgjsPath4511" class="cls-21" d="M211.6,232.69c-0.53,6.75,4.12,14.77,30.56,17,23.37,2,33.32-1.85,34-9.55s-8.34-17.09-31.51-18.3C224,220.8,212.2,225,211.6,232.69Z" transform="translate(-55.8 -13.21)"/></g><g id="svga-group-eyesiriswrapper-left"><g id="svga-group-eyesiriscontrol-left"><g id="svga-group-eyesiris-left"><path id="SvgjsPath4581" class="cls-22" d="M258.93,239.26a14.68,14.68,0,1,1-10.29-18A14.63,14.63,0,0,1,258.93,239.26Z" transform="translate(-55.8 -13.21)"/><path id="SvgjsPath4582" class="cls-23" d="M243,226.6l-0.38-.68c-1.34.53-2.63,1.09-3.85,1.68l0.91,2.19L239.52,231,236,229c-1.14.63-2.2,1.29-3.22,2v0l-1.2,1.35,1.91,2-2.57,1.4,1,1.61,4.54,0.45-4.26,2.89,4.56-.25-2.4,4.14,5.62-3.4-1.51,5.78,3.25-5.34,0.63,5.73,0.94-5.07,0.86-.11,1.22,5.75,0.37-1.72c0.49-.13,1.76,1.72,2.24,1.59l-1.43-6.25,3.14,6.25-1.27-6.49,3.86,5c0.14,0,.48-2.08.62-2.12l-2.4-3.59,4.37,1.32L252.25,239l-2.1-1.74,8.77,2-4.89-3,3.45-1.41-7.47-.76,7.39-3.92-6.69,1.71-1.8-1-0.44-.87L248.6,228l0.15-3.4L245.7,230,245.43,226,245,225c-0.61.21-1.21,0.42-1.8,0.65Z" transform="translate(-55.8 -13.21)"/><path id="SvgjsPath4583" class="cls-24" d="M259.09,232.33c-12.82.58-19.34,3.33-28.64,6.44A14.68,14.68,0,0,1,259.09,232.33Z" transform="translate(-55.8 -13.21)"/><path id="SvgjsPath4584" class="cls-25" d="M246.89,230.47a5.85,5.85,0,0,0-7.35,4.13,6.22,6.22,0,0,0,4.33,7.48,5.87,5.87,0,0,0,7.36-4.12A6.23,6.23,0,0,0,246.89,230.47Z" transform="translate(-55.8 -13.21)"/><path id="SvgjsPath4585" class="cls-26" d="M246.89,230.47a5.85,5.85,0,0,0-7.35,4.13,6.22,6.22,0,0,0,4.33,7.48,5.87,5.87,0,0,0,7.36-4.12A6.23,6.23,0,0,0,246.89,230.47Z" transform="translate(-55.8 -13.21)"/><path id="SvgjsPath4586" class="cls-27" d="M234.08,244.08a9.81,9.81,0,0,0,6.31,4.77c3.24,0.69,3.61-3.63,1.29-4.12a5.51,5.51,0,0,1-3.8-2.7c-1.68-2.67-5.15-.1-3.8,2h0Z" transform="translate(-55.8 -13.21)"/><path id="SvgjsPath4587" class="cls-28" d="M247.29,229.24c2.27,0.46,3.59,1.88,4.74,4,2.11,3.92,8.07.44,6-3.49-1.85-3.44-4.94-6.39-8.87-7.19-5-1-5.74,5.87-1.83,6.66h0Z" transform="translate(-55.8 -13.21)"/></g></g></g><g id="svga-group-eyesfront-left"><path id="SvgjsPath4536" class="cls-2" d="M198.95,241.35c2.94,33.65,26.06,59.12,51.64,56.88s43.92-31.33,41-65-26.06-59.12-51.64-56.88S196,207.7,198.95,241.35Zm12.65-8.67c0.6-7.7,12.44-11.89,33.07-10.81,23.18,1.21,32.2,10.61,31.51,18.3s-10.64,11.55-34,9.55C215.71,247.46,211.07,239.44,211.6,232.69Z" transform="translate(-55.8 -13.21)"/><path id="SvgjsPath4537" class="cls-29" d="M203.9,237.68c1.46,18.87,25.11,32.63,48.64,30.48s42.9-16.45,41.18-35.29S271.58,200.52,248,202.67,201.9,211.88,203.9,237.68Zm7.69-5c0.6-7.7,12.44-11.89,33.07-10.81,23.18,1.21,32.2,10.61,31.51,18.3s-10.64,11.55-34,9.55C215.71,247.46,211.07,239.44,211.6,232.69Z" transform="translate(-55.8 -13.21)"/><path id="SvgjsPath4542" class="cls-30" d="M211.6,232.69c-0.53,6.75,4.12,14.77,30.56,17,23.37,2,33.32-1.85,34-9.55s-8.34-17.09-31.51-18.3C224,220.8,212.2,225,211.6,232.69Z" transform="translate(-55.8 -13.21)"/><path id="SvgjsPath4546" class="cls-18" d="M271.85,223.72a65.72,65.72,0,0,0-8-3.92s6.29,1.44,8.78,3.13,5.09,5.79,5.09,5.79A47.58,47.58,0,0,0,271.85,223.72ZM226.47,218s-6.5-.08-11.12,2.78a16.49,16.49,0,0,0-6,6.57,55.27,55.27,0,0,1,6.88-6.12C218.9,219.41,226.47,218,226.47,218Z" transform="translate(-55.8 -13.21)"/><path id="SvgjsPath4547" class="cls-31" d="M245.4,222.35c-15.06-.53-38.2.92-32.81,15.19-7.84-4.73-1.81-21.55,34.23-18.55,17.46,1.45,38.22,10.46,28.59,23.89C278.46,228.85,260.18,222.88,245.4,222.35ZM272,247l-7.39,2.34c-13,.21-20.19-0.69-32.28-1.23-5.58-.25-10.59-3-17.12-6a25.43,25.43,0,0,0,17,7.89c11.72,0.68,19.65.84,32.8,0.93Z" transform="translate(-55.8 -13.21)"/></g></g><g id="svga-group-eyes-right"><g id="svga-group-eyesback-right"><path id="SvgjsPath4519" class="cls-32" d="M402.71,232.69c0.53,6.75-4.12,14.77-30.56,17-23.37,2-33.32-1.85-34-9.55s8.34-17.09,31.51-18.3C390.27,220.8,402.11,225,402.71,232.69Z" transform="translate(-55.8 -13.21)"/></g><g id="svga-group-eyesiriswrapper-right"><g id="svga-group-eyesiriscontrol-right"><g id="svga-group-eyesiris-right"><path id="SvgjsPath4591" class="cls-22" d="M383.7,239.25a14.68,14.68,0,1,1-10.3-18A14.63,14.63,0,0,1,383.7,239.25Z" transform="translate(-55.8 -13.21)"/><path id="SvgjsPath4592" class="cls-23" d="M367.74,226.6l-0.38-.68c-1.34.53-2.63,1.09-3.86,1.68l0.91,2.19L364.3,231,360.81,229c-1.14.63-2.2,1.29-3.22,2v0l-1.2,1.35,1.91,2-2.57,1.4,1,1.61,4.54,0.45L357,240.64l4.56-.25-2.4,4.14,5.62-3.4-1.51,5.78,3.25-5.34,0.63,5.73,0.94-5.07,0.86-.11,1.23,5.75,0.37-1.72c0.49-.13,1.76,1.72,2.24,1.59l-1.43-6.25,3.14,6.25-1.27-6.49,3.86,5c0.14,0,.48-2.08.62-2.12l-2.4-3.59,4.37,1.32L377,239l-2.1-1.74,8.77,2-4.89-3,3.45-1.41-7.47-.75,7.39-3.92-6.69,1.71-1.8-1-0.44-.87,0.13-2.07,0.15-3.4L370.48,230,370.21,226l-0.38-1c-0.61.21-1.21,0.42-1.8,0.65Z" transform="translate(-55.8 -13.21)"/><path id="SvgjsPath4593" class="cls-24" d="M383.86,232.33c-12.82.58-19.34,3.33-28.64,6.44A14.68,14.68,0,0,1,383.86,232.33Z" transform="translate(-55.8 -13.21)"/><path id="SvgjsPath4594" class="cls-25" d="M371.67,230.47a5.85,5.85,0,0,0-7.35,4.13,6.21,6.21,0,0,0,4.33,7.48A5.86,5.86,0,0,0,376,238,6.23,6.23,0,0,0,371.67,230.47Z" transform="translate(-55.8 -13.21)"/><path id="SvgjsPath4595" class="cls-26" d="M371.67,230.47a5.85,5.85,0,0,0-7.35,4.13,6.21,6.21,0,0,0,4.33,7.48A5.86,5.86,0,0,0,376,238,6.23,6.23,0,0,0,371.67,230.47Z" transform="translate(-55.8 -13.21)"/><path id="SvgjsPath4596" class="cls-27" d="M358.85,244.08a9.81,9.81,0,0,0,6.3,4.77c3.24,0.69,3.62-3.63,1.29-4.12a5.5,5.5,0,0,1-3.8-2.7c-1.68-2.67-5.15-.1-3.8,2h0Z" transform="translate(-55.8 -13.21)"/><path id="SvgjsPath4597" class="cls-33" d="M372.07,229.24c2.27,0.46,3.59,1.88,4.74,4,2.11,3.92,8.07.44,6-3.49-1.85-3.44-4.94-6.39-8.87-7.19-5-1-5.74,5.88-1.83,6.66h0Z" transform="translate(-55.8 -13.21)"/></g></g></g><g id="svga-group-eyesfront-right"><path id="SvgjsPath4557" class="cls-2" d="M374.38,176.37c-25.57-2.24-48.69,23.23-51.64,56.88s15.4,62.74,41,65,48.69-23.23,51.64-56.88S400,178.61,374.38,176.37Zm-2.23,73.35c-23.37,2-33.32-1.85-34-9.55s8.34-17.09,31.51-18.3c20.63-1.08,32.47,3.11,33.07,10.81C403.24,239.44,398.6,247.46,372.15,249.72Z" transform="translate(-55.8 -13.21)"/><path id="SvgjsPath4558" class="cls-34" d="M366.26,202.67c-23.54-2.16-44,11.36-45.68,30.19s17.66,33.13,41.18,35.29,47.18-11.61,48.64-30.48C412.4,211.88,389.79,204.84,366.26,202.67Zm5.89,47c-23.37,2-33.32-1.85-34-9.55s8.34-17.09,31.51-18.3c20.63-1.08,32.47,3.11,33.07,10.81C403.24,239.44,398.6,247.46,372.15,249.72Z" transform="translate(-55.8 -13.21)"/><path id="SvgjsPath4563" class="cls-35" d="M402.71,232.69c0.53,6.75-4.12,14.77-30.56,17-23.37,2-33.32-1.85-34-9.55s8.34-17.09,31.51-18.3C390.27,220.8,402.11,225,402.71,232.69Z" transform="translate(-55.8 -13.21)"/><path id="SvgjsPath4567" class="cls-18" d="M336.62,228.72s2.6-4.1,5.09-5.79,8.78-3.13,8.78-3.13a65.72,65.72,0,0,0-8,3.92A47.58,47.58,0,0,0,336.62,228.72Zm61.45-7.53a55.27,55.27,0,0,1,6.88,6.12,16.51,16.51,0,0,0-6-6.57c-4.62-2.86-11.12-2.78-11.12-2.78S395.41,219.41,398.07,221.18Z" transform="translate(-55.8 -13.21)"/><path id="SvgjsPath4568" class="cls-31" d="M338.9,242.88C329.26,229.45,350,220.45,367.48,219c36-3,42.07,13.82,34.23,18.55,5.39-14.27-17.74-15.72-32.81-15.19C354.12,222.88,335.84,228.85,338.9,242.88Zm10.43,8c13.15-.1,21.09-0.25,32.8-0.93a25.42,25.42,0,0,0,17-7.89c-6.53,3-11.54,5.78-17.12,6-12.1.55-19.33,1.44-32.28,1.23L342.33,247Z" transform="translate(-55.8 -13.21)"/></g></g><g id="svga-group-facehighlight-single"><path id="SvgjsPath2885" class="cls-36" d="M407.46,308.09A100.31,100.31,0,1,1,307,207.85,100.25,100.25,0,0,1,407.46,308.09Z" transform="translate(-55.8 -13.21)"/><path id="SvgjsPath2889" class="cls-37" d="M398.9,161.36a91.74,91.74,0,1,1-91.74-91.74A91.74,91.74,0,0,1,398.9,161.36Z" transform="translate(-55.8 -13.21)"/></g><g id="svga-group-eyebrows-left"><path id="SvgjsPath4603" class="cls-1" d="M188.75,215c46.19-41.74,110.48-20.32,96.14-15.8C279.9,200.76,233.12,184.67,188.75,215Z" transform="translate(-55.8 -13.21)"/></g><g id="svga-group-eyebrows-right"><path id="SvgjsPath4604" class="cls-1" d="M425.56,215c-46.19-41.74-110.48-20.32-96.14-15.8C334.4,200.76,381.18,184.67,425.56,215Z" transform="translate(-55.8 -13.21)"/></g><g id="svga-group-nose-single"><path id="SvgjsPath4287" class="cls-4" d="M308.94,324.89c-0.87.39-2.9,0.39-3.54-.25,0,0-15.4-5.27-13.45-10.31,3.09-8,31.14-1.86,31.11,0C323,319.07,308.94,324.89,308.94,324.89Z" transform="translate(-55.8 -13.21)"/><path id="SvgjsPath4288" class="cls-18" d="M288.11,307.2s13.33-45.56,14.7-55.32c2.6,15.83-3.68,51.07-4.34,58.26-0.8,8.73,8.45,13.92,8.45,13.92,0.72,0.91-.15,1.47-1.26,1.12l-16.22-6.26C285.59,315.65,285.59,312.54,288.11,307.2Zm26.82,8.08c2.24,0.51,2.71,1.41,2.53,2.34s-1.13,2.23-3.15,1.05a22.54,22.54,0,0,0-6.41-1.88S312.68,314.76,314.92,315.28Z" transform="translate(-55.8 -13.21)"/></g><g id="svga-group-beardwrap"><g id="svga-group-beard-single"><path id="SvgjsPath4745" class="cls-1" d="M307.15,73.61h0Z" transform="translate(-55.8 -13.21)"/></g></g><g id="svga-group-mustache-single"><path id="SvgjsPath4735" class="cls-1" d="M307.15,73.61h0Z" transform="translate(-55.8 -13.21)"/></g><g id="svga-group-hair-front"><path id="SvgjsPath4679" class="cls-1" d="M174.49,250.21c-7.33-6.12-16.51-21.87-20.61-43.94-0.87-4.52-1.49-9.17-2.15-14.1-2.77-20.66-8.7-44.74-4.59-69.42,4.92-30.18,27.57-62.86,56.36-81.32,44.5-28.8,157-41.67,180.44-3.76,13.6-.5,28.27,3.06,38.41,10.94,33.54,25.16,46.51,110.61,37.21,153.05-6.18,29-7.81,36.59-20.22,47.95,4.43-132.9-2.42-97-8.09-132.73-6.64-4.87-9.12-2.86-19.35-8.67-20.35-15-19.36-21-28.58-31.56-8.21,9.71-20,18.26-29.13,22.21a119.55,119.55,0,0,0,5.58-10.76l-1.09-.91c-7.66,5.53-23.12,13.4-32.63,14.25,5.11-6.28,4.51-5.49,6.55-9.31a57.27,57.27,0,0,1-25.94,8.77c9.63-4.76,13.94-8,21.41-14.23l-0.68-1.27c-51.84,15.75-64.14,19.32-102.15,26.06-31.83,4-20.18.62-31.73,0.62-18.58,0-21.52,55.75-20.72,74.34C174.86,238.38,172.19,228.26,174.49,250.21Z" transform="translate(-55.8 -13.21)"/><path id="SvgjsPath4680" class="cls-38" d="M459.56,201.66c-6.18,29-7.81,36.59-20.22,47.95,4.43-132.9-2.42-97-8.09-132.73-6.64-4.87-9.12-2.86-19.35-8.67-20.35-15-19.36-21-28.58-31.56-8.21,9.71-20,18.26-29.13,22.21a119.55,119.55,0,0,0,5.58-10.76l-1.09-.91c-7.66,5.53-23.12,13.4-32.63,14.25,5.11-6.28,4.51-5.49,6.55-9.31a57.27,57.27,0,0,1-25.94,8.77c9.63-4.76,13.94-8,21.41-14.23l-0.68-1.27c-51.84,15.75-64.14,19.32-102.15,26.06-31.83,4-20.18.62-31.73,0.62-18.58,0-21.52,55.75-20.72,74.34,2.07,52-.59,41.85,1.71,63.79-7.33-6.12-16.51-21.87-20.61-43.94-0.87-4.52-1.49-9.17-2.15-14.1-2.77-20.66-8.7-44.74-4.59-69.42C151,98.91,180.72,63.84,201,45.12c-62.39,58.1-44,122.94-33.64,174.93-3.06-45.88-11.91-119.85,29.68-122.29,56.27,0,119.56-8,158.7-47.13-2.45,17.13-4.57,20.22-16.81,32.45,9.79-7.34,22-12.23,26.91-24.47-2.45,9.79-2.45,17.13-9.79,24.47,7.34-4.89,14.68-12.23,22-19.57,0,7.34-4.89,14.68-7.34,22,4.89-12.23,19.57-19.57,22-31.8-7.34,31.8,30.26,48.89,41.88,55.62,15.9,22,16.51,68.5,12.84,107,13.46-44,7.34-119.27-32.42-171.26C458.52,76.92,467.64,164.76,459.56,201.66ZM210.19,78.15C240.06,77.27,262,72.43,294,54.29,263.19,67.79,243.71,74.23,210.19,78.15Zm81.35-10.4c15.8-6.56,26.8-20.79,44.65-25.08C319.74,48.38,308.3,62.7,291.54,67.75Zm-94.8,9.17c11.32-20.36,35.52-37.24,66.06-39.76C237.95,41.79,211.34,56,196.74,76.92Z" transform="translate(-55.8 -13.21)"/><path id="SvgjsPath4681" class="cls-39" d="M274.41,29.25c32-13.69,61.15-12.29,91.74,4.86C334.05,20.4,309.51,23,309.51,23,303.67,23.48,294.33,23.25,274.41,29.25Zm126,19.54c10.13,3.9,14.35,9.83,20.51,18.38,9,14.57,11.54,20.88,16.79,35.45C432.61,81.68,421.17,54.43,400.41,48.79Zm-57.49-.61c-17.41,14.69-30,22.6-64.83,34.25C305.59,75.9,323.12,68.19,342.92,48.18Zm56.27,15.29c5.06,17.21,14.38,26.81,28.75,35.47C414.58,88.89,405.84,79.57,399.19,63.47ZM205.91,54.29l-3.15,2.33c-22.37,15.85-39.86,46.14-40.28,84.52C167.37,103,182.5,76.09,205.91,54.29Zm11.62,11c19-9.92,27.74-10,59.33-15.29C249.6,51.91,236.11,53.21,217.53,65.3ZM269,75.65c-11.17,5.6-37.38,11.88-37.38,11.6l-25.13,5.58c6.17-.78,16.76-2,25.49-3.89,0,0.33,21.52-4.86,27.84-8.12,6.94-3.27,4.59-2,11.51-6.34Z" transform="translate(-55.8 -13.21)"/><path id="SvgjsPath4682" d="M422.8,48c-10.35-8-25.26-11.6-38.46-11.11-11.28-18.24-46.85-23.48-68.43-23.71-32.55-.34-84,8.94-112.81,27.6-26.83,17.2-51.43,49.63-56.69,81.81-3.14,18.89-.44,38.46,2.76,57.2,1.57,9.05,2.37,18.18,4,26.57,4.64,25,15.4,40.68,22.24,45.43-2.61-24.11.24-12.23-1.88-65.44-1-22.83,3.19-75.14,20.77-73.54,11.95,0.84,2.48,2.91,31.07-.66C262.91,105.52,275.19,102,327.6,86.1c-8.21,6.85-12.48,10-23.49,15.22,0,0,0,0,0,0-0.34.17-.71,0.34-1.05,0.49,9.1-.06,20.42-3.19,27.64-7.63-1,1.86-4,5.25-6.21,8.07,9.4,0,26.28-8.41,34.64-14.46a98.62,98.62,0,0,1-6.88,12.75c2.79-1.39,9.48-3.21,22.83-14.51a73,73,0,0,0,8.27-8.24c8.19,9.34,7.7,15.94,28.21,31.07,10.17,5.77,12.92,4,19,8.44,5.4,35.35,12.56-1.94,8,134,13.7-12.13,15.35-19.64,21.73-49.49C469.35,160.39,457,73.69,422.8,48ZM456.26,201.3c-5.42,30.06-5.88,35.13-16.83,47,2-26.42,3.74-50.05,3.23-76.67-1.09-39.29-6.31-31.92-10-55.58-7-4.94-10.45-4-16.93-7a29.09,29.09,0,0,1-3.11-1.66c-20.53-14.25-20.55-21-28.94-30a43.22,43.22,0,0,0,5.11-7.19c-3.69,5.54-19.52,20.16-34.52,28.45a69.27,69.27,0,0,0,6-11.69,69.3,69.3,0,0,0,9.59-8.2c-8.36,6.95-29.91,19.47-43.43,22.19,0.43-.44,4.59-4.47,6.16-7.52,3.32-1.33,12.27-6.8,15.42-10.28-15.42,10.28-33,16.44-39.09,17.46,7.5-2.81,17.22-11.57,22.21-15.56,4.82-3.85,5.76-5.4,10.76-10.47-3.29,2.29-8.42,7.32-14.82,10-3.78,1.6-107.38,30.58-125.39,25.87-3.62-.91-7.7-2-11.3-1-28.87,12.42-18.25,92.07-17.86,116.53,0.33,20.61,1.81,24.2,1.81,24.2-19-18-19.79-57.63-21.77-71.39-2.52-18.24-4.7-37.61-1.35-55.71C156.64,92.24,180.3,61,205.62,44.73,243.46,20.16,356.31-.61,384.31,37.8,453.83,37.8,463.58,152.24,456.26,201.3Z" transform="translate(-55.8 -13.21)"/></g><g id="svga-group-glasses-single"><path id="SvgjsPath4605" class="cls-40" d="M307.15,73.61h0Z" transform="translate(-55.8 -13.21)"/></g></g></g></svg>